<svg viewBox="0 0 330 200" xmlns="http://www.w3.org/2000/svg"><g><g><g><g><g><line x1="49.07200241088867" y1="177.80999946594238" x2="44.07200241088867" y2="177.80999946594238" style="visibility: inherit;" fill="rgb(0, 0, 0)" stroke="rgb(204, 204, 204)" stroke-width="1px"></line><line x1="49.07200241088867" y1="155.58374953269958" x2="44.07200241088867" y2="155.58374953269958" style="visibility: inherit;" fill="rgb(0, 0, 0)" stroke="rgb(204, 204, 204)" stroke-width="1px"></line><line x1="49.07200241088867" y1="133.3574995994568" x2="44.07200241088867" y2="133.3574995994568" style="visibility: inherit;" fill="rgb(0, 0, 0)" stroke="rgb(204, 204, 204)" stroke-width="1px"></line><line x1="49.07200241088867" y1="111.13124966621399" x2="44.07200241088867" y2="111.13124966621399" style="visibility: inherit;" fill="rgb(0, 0, 0)" stroke="rgb(204, 204, 204)" stroke-width="1px"></line><line x1="49.07200241088867" y1="88.90499973297119" x2="44.07200241088867" y2="88.90499973297119" style="visibility: inherit;" fill="rgb(0, 0, 0)" stroke="rgb(204, 204, 204)" stroke-width="1px"></line><line x1="49.07200241088867" y1="66.6787497997284" x2="44.07200241088867" y2="66.6787497997284" style="visibility: inherit;" fill="rgb(0, 0, 0)" stroke="rgb(204, 204, 204)" stroke-width="1px"></line><line x1="49.07200241088867" y1="44.452499866485596" x2="44.07200241088867" y2="44.452499866485596" style="visibility: inherit;" fill="rgb(0, 0, 0)" stroke="rgb(204, 204, 204)" stroke-width="1px"></line><line x1="49.07200241088867" y1="22.226249933242798" x2="44.07200241088867" y2="22.226249933242798" style="visibility: inherit;" fill="rgb(0, 0, 0)" stroke="rgb(204, 204, 204)" stroke-width="1px"></line><line x1="49.07200241088867" y1="0" x2="44.07200241088867" y2="0" style="visibility: inherit;" fill="rgb(0, 0, 0)" stroke="rgb(204, 204, 204)" stroke-width="1px"></line></g><g transform="translate(39.07200241088867, 0)"><text style="text-anchor: end; visibility: hidden; font-family: &quot;Helvetica Neue&quot;, sans-serif; font-size: 12px; font-weight: 200;" x="0" y="177.80999946594238" dx="0em" dy="0.3em" fill="rgb(50, 49, 63)" stroke="none" stroke-width="1px">-0.5</text><text style="text-anchor: end; visibility: inherit; font-family: &quot;Helvetica Neue&quot;, sans-serif; font-size: 12px; font-weight: 200;" x="0" y="155.58374953269958" dx="0em" dy="0.3em" fill="rgb(50, 49, 63)" stroke="none" stroke-width="1px">0</text><text style="text-anchor: end; visibility: hidden; font-family: &quot;Helvetica Neue&quot;, sans-serif; font-size: 12px; font-weight: 200;" x="0" y="133.3574995994568" dx="0em" dy="0.3em" fill="rgb(50, 49, 63)" stroke="none" stroke-width="1px">0.5</text><text style="text-anchor: end; visibility: inherit; font-family: &quot;Helvetica Neue&quot;, sans-serif; font-size: 12px; font-weight: 200;" x="0" y="111.13124966621399" dx="0em" dy="0.3em" fill="rgb(50, 49, 63)" stroke="none" stroke-width="1px">1</text><text style="text-anchor: end; visibility: hidden; font-family: &quot;Helvetica Neue&quot;, sans-serif; font-size: 12px; font-weight: 200;" x="0" y="88.90499973297119" dx="0em" dy="0.3em" fill="rgb(50, 49, 63)" stroke="none" stroke-width="1px">1.5</text><text style="text-anchor: end; visibility: inherit; font-family: &quot;Helvetica Neue&quot;, sans-serif; font-size: 12px; font-weight: 200;" x="0" y="66.6787497997284" dx="0em" dy="0.3em" fill="rgb(50, 49, 63)" stroke="none" stroke-width="1px">2</text><text style="text-anchor: end; visibility: hidden; font-family: &quot;Helvetica Neue&quot;, sans-serif; font-size: 12px; font-weight: 200;" x="0" y="44.452499866485596" dx="0em" dy="0.3em" fill="rgb(50, 49, 63)" stroke="none" stroke-width="1px">2.5</text><text style="text-anchor: end; visibility: inherit; font-family: &quot;Helvetica Neue&quot;, sans-serif; font-size: 12px; font-weight: 200;" x="0" y="22.226249933242798" dx="0em" dy="0.3em" fill="rgb(50, 49, 63)" stroke="none" stroke-width="1px">3</text><text style="text-anchor: end; visibility: hidden; font-family: &quot;Helvetica Neue&quot;, sans-serif; font-size: 12px; font-weight: 200;" x="0" y="0" dx="0em" dy="0.3em" fill="rgb(50, 49, 63)" stroke="none" stroke-width="1px">3.5</text></g><line x1="49.07200241088867" y1="0" x2="49.07200241088867" y2="177.80999946594238" fill="rgb(0, 0, 0)" stroke="rgb(204, 204, 204)" stroke-width="1px"></line></g></g><g transform="translate(49, 0)" clip-path="url(#clip_0)"><clipPath id="clip_0"><rect width="280" height="177"></rect></clipPath><g><g><g><line x1="0" y1="0" x2="0" y2="177.80999946594238" fill="rgb(0, 0, 0)" stroke="rgb(60, 60, 60)" stroke-width="1px" opacity="0.25"></line><line x1="35.115999698638916" y1="0" x2="35.115999698638916" y2="177.80999946594238" fill="rgb(0, 0, 0)" stroke="rgb(60, 60, 60)" stroke-width="1px" opacity="0.25"></line><line x1="70.23199939727783" y1="0" x2="70.23199939727783" y2="177.80999946594238" fill="rgb(0, 0, 0)" stroke="rgb(60, 60, 60)" stroke-width="1px" opacity="0.25"></line><line x1="105.34799909591675" y1="0" x2="105.34799909591675" y2="177.80999946594238" fill="rgb(0, 0, 0)" stroke="rgb(60, 60, 60)" stroke-width="1px" opacity="0.25"></line><line x1="140.46399879455566" y1="0" x2="140.46399879455566" y2="177.80999946594238" fill="rgb(0, 0, 0)" stroke="rgb(60, 60, 60)" stroke-width="1px" opacity="0.25"></line><line x1="175.57999849319458" y1="0" x2="175.57999849319458" y2="177.80999946594238" fill="rgb(0, 0, 0)" stroke="rgb(60, 60, 60)" stroke-width="1px" opacity="0.25"></line><line x1="210.6959981918335" y1="0" x2="210.6959981918335" y2="177.80999946594238" fill="rgb(0, 0, 0)" stroke="rgb(60, 60, 60)" stroke-width="1px" opacity="0.25"></line><line x1="245.8119978904724" y1="0" x2="245.8119978904724" y2="177.80999946594238" fill="rgb(0, 0, 0)" stroke="rgb(60, 60, 60)" stroke-width="1px" opacity="0.25"></line><line x1="280.9279975891113" y1="0" x2="280.9279975891113" y2="177.80999946594238" fill="rgb(0, 0, 0)" stroke="rgb(60, 60, 60)" stroke-width="1px" opacity="0.25"></line></g><g><line x1="0" y1="177.80999946594238" x2="280.9279975891113" y2="177.80999946594238" fill="rgb(0, 0, 0)" stroke="rgb(60, 60, 60)" stroke-width="1px" opacity="0.25"></line><line x1="0" y1="155.58374953269958" x2="280.9279975891113" y2="155.58374953269958" fill="rgb(0, 0, 0)" stroke="rgb(60, 60, 60)" stroke-width="1px" opacity="0.25"></line><line x1="0" y1="133.3574995994568" x2="280.9279975891113" y2="133.3574995994568" fill="rgb(0, 0, 0)" stroke="rgb(60, 60, 60)" stroke-width="1px" opacity="0.25"></line><line x1="0" y1="111.13124966621399" x2="280.9279975891113" y2="111.13124966621399" fill="rgb(0, 0, 0)" stroke="rgb(60, 60, 60)" stroke-width="1px" opacity="0.25"></line><line x1="0" y1="88.90499973297119" x2="280.9279975891113" y2="88.90499973297119" fill="rgb(0, 0, 0)" stroke="rgb(60, 60, 60)" stroke-width="1px" opacity="0.25"></line><line x1="0" y1="66.6787497997284" x2="280.9279975891113" y2="66.6787497997284" fill="rgb(0, 0, 0)" stroke="rgb(60, 60, 60)" stroke-width="1px" opacity="0.25"></line><line x1="0" y1="44.452499866485596" x2="280.9279975891113" y2="44.452499866485596" fill="rgb(0, 0, 0)" stroke="rgb(60, 60, 60)" stroke-width="1px" opacity="0.25"></line><line x1="0" y1="22.226249933242798" x2="280.9279975891113" y2="22.226249933242798" fill="rgb(0, 0, 0)" stroke="rgb(60, 60, 60)" stroke-width="1px" opacity="0.25"></line><line x1="0" y1="0" x2="280.9279975891113" y2="0" fill="rgb(0, 0, 0)" stroke="rgb(60, 60, 60)" stroke-width="1px" opacity="0.25"></line></g></g></g><g><g><line x1="0" y1="155.58374953269958" x2="280.9279975891113" y2="155.58374953269958" fill="rgb(0, 0, 0)" stroke="rgb(153, 153, 153)" stroke-width="1.5px"></line></g></g><g><g><line x1="35.115999698638916" y1="0" x2="35.115999698638916" y2="177.80999946594238" fill="rgb(0, 0, 0)" stroke="rgb(153, 153, 153)" stroke-width="1.5px"></line></g></g><g><g><g><g><g><path style="fill: none;" stroke="rgb(255, 112, 67)" stroke-width="2px" d="M35.467159695625305,29.343571339330197L35.818319692611695,64.40115419673293L36.169479689598084,84.41085861188627L36.520639686584474,95.42843878752996L36.87179968357086,102.35137341476651L37.22295968055725,107.04066342247062L37.57411967754364,110.24290919154993L37.92527967453003,112.65436435007963L38.27643967151642,114.45580130051609L38.62759966850281,115.93149766584187L38.9787596654892,117.10286884706926L39.32991966247559,117.97629680618138L39.68107965946197,118.7894064679127L40.03223965644836,119.53994473694775L40.38339965343475,120.13098162598084L40.73455965042114,120.7016529995357L41.08571964740753,121.17699881708114L41.43687964439392,121.5654478695536L41.78803964138031,122.0454538920211L42.1391996383667,122.38171581508838L42.49035963535309,122.75714116319608L42.84151963233948,123.10092088972405L43.192679629325866,123.41087619459947L43.543839626312256,123.70874415228803L43.894999623298645,123.95846330940934L44.246159620285034,124.21280544201363L44.597319617271424,124.43285386662124L44.94847961425781,124.6852869790779L45.2996396112442,124.94385746468042L45.65079960823059,125.10979618755505L46.00195960521698,125.26951006796214L46.35311960220337,125.50301033471004L46.70427959918976,125.67250169497501L47.05543959617615,125.88664343203442L47.40659959316254,126.01031684121821L47.75775959014893,126.20512320274831L48.10891958713532,126.37958653288845L48.4600795841217,126.56391076902273L48.81123958110809,126.72581062983272L49.16239957809448,126.86817244033631L49.51355957508087,126.96579559077364L49.86471957206726,127.16126244697071L50.21587956905365,127.31717655039441L50.56703956604004,127.44399520161092L50.91819956302643,127.6069013221564L51.269359560012816,127.72469168243414L51.620519556999206,127.8488703656863L51.971679553985595,127.94324197280315L52.322839550971985,128.08357986360087L52.673999547958374,128.1874477471717L53.02515954494476,128.28510321570064L53.37631954193115,128.36340085962783L53.72747953891754,128.44354365215085L54.07863953590393,128.52257318959263L54.42979953289032,128.6723408327384L54.78095952987671,128.77939186423572L55.1321195268631,128.84338826066306L55.48327952384949,128.94094158015713L55.83443952083588,129.0823342752518L56.18559951782227,129.1567740180184L56.53675951480866,129.20967698354096L56.88791951179505,129.31509179837406L57.23907950878143,129.4006670699631L57.59023950576782,129.44096986221308L57.94139950275421,129.51631060045065L58.2925594997406,129.61625633230796L58.64371949672699,129.719736159521L58.99487949371338,129.79643699444745L59.346039490699766,129.87129759441297L59.697199487686156,129.97874711483138L60.048359484672545,130.07258048220376L60.399519481658935,130.1409519684408L60.750679478645324,130.2278093362183L61.101839475631714,130.24606748160681L61.4529994726181,130.32877393223308L61.80415946960449,130.35808191778167L62.15531946659088,130.37572393994085L62.50647946357727,130.45315370287034L62.85763946056366,130.53044202072618L63.20879945755005,130.66284778658337L63.55995945453644,130.75449307102411L63.91111945152283,130.77211592849636L64.26227944850922,130.81591955861802L64.61343944549562,130.86966829578017L64.964599442482,130.90553261884045L65.3157594394684,130.98626180548393L65.66691943645478,131.01874039453574L66.01807943344116,131.08735491638862L66.36923943042754,131.16395799192463L66.72039942741394,131.25031208527864L67.07155942440032,131.26344921815928L67.42271942138672,131.3422394364531L67.7738794183731,131.34210418373834L68.1250394153595,131.45565802460612L68.47619941234588,131.466713174483L68.82735940933227,131.51202688669184L69.17851940631866,131.51476695129642L69.52967940330505,131.5379933719581L69.88083940029144,131.66151354588246L70.23199939727783,131.6799294543251L70.58315939426421,131.75257103062498L70.93431939125061,131.82323039832542L71.285479388237,131.87608654287723L71.63663938522339,131.88970680868033L71.98779938220977,131.95762583504336L72.33895937919617,132.02543577532896L72.69011937618255,132.0561699340578L73.04127937316895,132.1097501589278L73.39243937015533,132.07617080523144L73.74359936714173,132.12587554071422L74.09475936412811,132.1884948270963L74.4459193611145,132.2223251983705L74.79707935810089,132.29139468661447L75.14823935508728,132.34670849685975L75.49939935207367,132.3722024158597L75.85055934906006,132.4358757759101L76.20171934604645,132.42339341331555L76.55287934303284,132.48807631173565L76.90403934001922,132.54897821100587L77.25519933700562,132.55782704764928L77.606359333992,132.64438187183077L77.9575193309784,132.71277180946117L78.30867932796478,132.75570604756217L78.65983932495118,132.79350944082137L79.01099932193756,132.8293927215683L79.36215931892394,132.83326379946453L79.71331931591034,132.8305321160473L80.06447931289672,132.83759219216012L80.41563930988312,132.90684352056147L80.7667993068695,132.92217729830185L81.1179593038559,132.93973856528007L81.46911930084228,132.95804812004792L81.82027929782868,133.05965675258602L82.17143929481506,133.0816021641668L82.52259929180146,133.07497814222998L82.87375928878784,133.07003928359904L83.22491928577423,133.13826158249452L83.57607928276062,133.20935242976213L83.92723927974701,133.2032452111149L84.2783992767334,133.3273640754854L84.62955927371979,133.34519065017966L84.98071927070617,133.32839512989767L85.33187926769257,133.32040038404313L85.68303926467895,133.35204473763093L86.03419926166535,133.43974332020457L86.38535925865173,133.50510586790003L86.73651925563813,133.4577872020355L87.08767925262451,133.55541246115627L87.43883924961091,133.60547082125748L87.78999924659729,133.59415179339248L88.14115924358367,133.61940381241902L88.49231924057007,133.6563032691579L88.84347923755645,133.69485441362474L89.19463923454285,133.67345262565254L89.54579923152923,133.70840035576668L89.89695922851563,133.7358413767784L90.24811922550201,133.72844232301213L90.5992792224884,133.7703969571256L90.95043921947479,133.80148464985933L91.30159921646118,133.84289711873464L91.65275921344757,133.84354814700822L92.00391921043396,133.86315878438762L92.35507920742035,133.85846918352397L92.70623920440674,133.89210722240819L93.05739920139312,133.98136871740388L93.40855919837952,133.98479564662392L93.7597191953659,134.0385015684194L94.1108791923523,134.0606058628849L94.46203918933868,134.0784559145224L94.81319918632508,134.05801647652092L95.16435918331146,134.13736665462088L95.51551918029786,134.1541235150337L95.86667917728424,134.23350854253067L96.21783917427064,134.26799660489763L96.56899917125702,134.31121613291208L96.9201591682434,134.30366569449825L97.2713191652298,134.29992818442878L97.62247916221618,134.31716376745254L97.97363915920258,134.32109367455922L98.32479915618896,134.3535322490651L98.67595915317536,134.37167060603667L99.02711915016174,134.41542690300048L99.37827914714813,134.42738092239998L99.72943914413452,134.46023354935107L100.08059914112091,134.43657528458303L100.4317591381073,134.48763407024762L100.78291913509369,134.52847232684283L101.13407913208007,134.56827922867956L101.48523912906647,134.61718490063268L101.83639912605285,134.57992910485854L102.18755912303925,134.59144515054936L102.53871912002563,134.62746672341612L102.88987911701203,134.66326443433982L103.24103911399841,134.68508061680814L103.59219911098481,134.71307418827368L103.94335910797119,134.75961499522606L104.29451910495759,134.78155832774524L104.64567910194397,134.81372708248398L104.99683909893037,134.8916252864571L105.34799909591675,134.92674158111095L105.69915909290313,134.95515174176847L106.05031908988953,134.89920415379237L106.40147908687591,134.97605241914485L106.7526390838623,134.9442702186982L107.10379908084869,135.02766104145016L107.45495907783508,135.0271978062496L107.80611907482147,135.00763837456321L108.15727907180786,134.99185310441231L108.50843906879425,135.05944219511446L108.85959906578064,135.08887644114384L109.21075906276702,135.09415711236386L109.56191905975342,135.09204385136607L109.9130790567398,135.14799506665605L110.2642390537262,135.19163100310237L110.61539905071258,135.1865258479771L110.96655904769898,135.19039934346648L111.31771904468536,135.20192064711046L111.66887904167176,135.19659874963466L112.02003903865814,135.21461387299257L112.37119903564454,135.247198218L112.72235903263092,135.26913927198802L113.07351902961732,135.29143275168423L113.4246790266037,135.35083726446115L113.7758390235901,135.32437763265867L114.12699902057648,135.32773671161505L114.47815901756286,135.37300170920156L114.82931901454926,135.37988933579408L115.18047901153564,135.43490382904363L115.53163900852203,135.45490734878626L115.88279900550842,135.48504580468236L116.23395900249481,135.47077014299427L116.5851189994812,135.47094940484254L116.93627899646759,135.49802381110817L117.28743899345397,135.4364615517092L117.63859899044037,135.50195678350494L117.98975898742675,135.49303111922393L118.34091898441315,135.538886715222L118.69207898139953,135.54664960739768L119.04323897838593,135.59969335991008L119.39439897537231,135.59604762502167L119.74555897235871,135.57508529235128L120.09671896934509,135.61979542368465L120.44787896633149,135.63594689285563L120.79903896331787,135.65324682517553L121.15019896030427,135.65489537358363L121.50135895729065,135.6577884875569L121.85251895427704,135.68946296893785L122.20367895126343,135.74124449600038L122.55483894824982,135.75628083110576L122.9059989452362,135.74504662774729L123.25715894222259,135.73784507960147L123.60831893920898,135.75509858388654L123.95947893619537,135.82394059473867L124.31063893318176,135.87285538198233L124.66179893016815,135.85398622020594L125.01295892715454,135.86198224793245L125.36411892414093,135.89221207961634L125.71527892112732,135.8739675981014L126.0664389181137,135.96051998711374L126.4175989151001,135.9314422404571L126.76875891208648,135.9494797669061L127.11991890907288,135.93862928539573L127.47107890605926,135.96298814038946L127.82223890304566,135.95329995748534L128.17339890003203,135.96804563368252L128.52455889701844,135.98618775012827L128.87571889400482,136.04973704174677L129.22687889099123,136.08023954878743L129.57803888797758,136.08325777182085L129.929198884964,136.1063363179747L130.28035888195038,136.13047227710848L130.6315188789368,136.11905531225912L130.98267887592314,136.0740115030371L131.33383887290955,136.14008653007022L131.68499886989594,136.109642326543L132.03615886688232,136.12302339359792L132.38731886386873,136.13339743803152L132.73847886085508,136.19437110233287L133.0896388578415,136.1814204277855L133.44079885482788,136.1910752210531L133.7919588518143,136.25545339001147L134.14311884880064,136.27736305995444L134.49427884578705,136.29006426315738L134.84543884277343,136.2490891214954L135.19659883975984,136.26968989645988L135.5477588367462,136.26784492754632L135.8989188337326,136.3034170791754L136.250078830719,136.35785674718778L136.6012388277054,136.35279165321916L136.95239882469176,136.32361241522605L137.30355882167817,136.32297101000333L137.65471881866455,136.3482197496529L138.00587881565096,136.43189337392076L138.3570388126373,136.41776903570803L138.70819880962372,136.3945357675313L139.0593588066101,136.47629158348582L139.41051880359652,136.4761154310238L139.76167880058287,136.44962738673726L140.11283879756928,136.49416660726152L140.46399879455566,136.53360174282176L140.81515879154205,136.5229932151076L141.16631878852843,136.54935194520374L141.51747878551484,136.53640816126097L141.86863878250122,136.52963018254337L142.2197987794876,136.51101139694984L142.570958776474,136.50432638676924L142.9221187734604,136.56970935180624L143.27327877044678,136.61058345736132L143.62443876743316,136.62814907569594L143.97559876441954,136.66621170670084L144.32675876140596,136.65009416700303L144.67791875839234,136.6846122029414L145.02907875537872,136.6697079610335L145.3802387523651,136.68565711754212L145.7313987493515,136.69207361664522L146.0825587463379,136.6953066949391L146.43371874332428,136.7031079327567L146.78487874031066,136.67605100071023L147.13603873729707,136.66491462467494L147.48719873428345,136.727980223566L147.83835873126984,136.729874912242L148.18951872825622,136.74044262435388L148.54067872524263,136.76370450036376L148.891838722229,136.77053903720758L149.2429987192154,136.83165279423145L149.59415871620178,136.8341388753857L149.94531871318816,136.83503595934417L150.29647871017457,136.8662160200444L150.64763870716095,136.87926138378305L150.99879870414733,136.88667420842364L151.34995870113372,136.85689945660096L151.70111869812013,136.84389657648362L152.0522786951065,136.8418608545378L152.4034386920929,136.87636576701072L152.75459868907927,136.90343670416445L153.10575868606568,136.88942641380964L153.45691868305207,136.8728680258094L153.80807868003845,136.89768217521853L154.15923867702483,136.89713847753197L154.51039867401124,136.9340377343579L154.86155867099762,136.9610821825523L155.212718667984,136.9666549085285L155.5638786649704,136.90184510420107L155.9150386619568,136.93561587997624L156.26619865894318,136.97319120143771L156.61735865592956,136.99181714228834L156.96851865291595,137.01128269851023L157.31967864990236,137.01675195727103L157.67083864688874,137.03438679273066L158.02199864387512,137.01706130539026L158.3731586408615,137.06034111273408L158.7243186378479,137.06506576090086L159.0754786348343,137.091585634788L159.42663863182068,137.12758293088208L159.77779862880706,137.14650311765962L160.12895862579344,137.12725952201404L160.48011862277986,137.12206545684393L160.83127861976624,137.12277447479664L161.18243861675262,137.18752468893604L161.533598613739,137.21710077338088L161.8847586107254,137.17454367623424L162.2359186077118,137.20204491017734L162.58707860469818,137.2071657239257L162.93823860168456,137.24759669630086L163.28939859867097,137.23410359860094L163.64055859565735,137.2116507503722L163.99171859264374,137.26414287218472L164.34287858963012,137.2712058800043L164.69403858661653,137.27836192711203L165.0451985836029,137.25054852981998L165.3963585805893,137.27846397471947L165.74751857757568,137.28690947215523L166.0986785745621,137.29051367504553L166.44983857154847,137.31562681944814L166.80099856853485,137.32917331985837L167.15215856552123,137.2733812718676L167.50331856250762,137.34410960674836L167.85447855949403,137.34542042724098L168.2056385564804,137.36226387676297L168.5567985534668,137.3502189656827L168.90795855045317,137.39577262210602L169.25911854743958,137.42470515954022L169.61027854442597,137.42348691867792L169.96143854141235,137.419109098492L170.31259853839873,137.39593653840302L170.66375853538514,137.39863418237638L171.01491853237152,137.43043143329442L171.3660785293579,137.44470769327447L171.7172385263443,137.44800768298546L172.0683985233307,137.51327967566402L172.41955852031708,137.50117888519523L172.77071851730346,137.46378743873825L173.12187851428985,137.4436041800933L173.47303851127626,137.43940161792088L173.82419850826264,137.427237215674L174.17535850524902,137.44602947383422L174.5265185022354,137.478851706318L174.87767849922182,137.49878880675098L175.2288384962082,137.46882789427536L175.57999849319458,137.4970917377863L175.93115849018096,137.5358205456497L176.28231848716734,137.58516356749865L176.63347848415376,137.57864029949712L176.98463848114014,137.60723186040263L177.33579847812652,137.6101442689972L177.6869584751129,137.601497429609L178.0381184720993,137.6355802736721L178.3892784690857,137.65105513721892L178.74043846607208,137.62049203011492L179.09159846305846,137.64987884902374L179.44275846004487,137.62361860314883L179.79391845703125,137.6966004473162L180.14507845401764,137.68964541444674L180.49623845100402,137.6869890117206L180.84739844799043,137.7208369513205L181.1985584449768,137.75409895960846L181.5497184419632,137.73268357362718L181.90087843894958,137.75675776587346L182.252038435936,137.75013656653778L182.60319843292237,137.7494069273042L182.95435842990875,137.76422063004946L183.30551842689513,137.77119055906076L183.65667842388154,137.78281199445513L184.00783842086793,137.76856917503704L184.3589984178543,137.75485575140135L184.7101584148407,137.76964296952974L185.06131841182707,137.79261793077103L185.41247840881348,137.7613802614027L185.76363840579987,137.74836657184977L186.11479840278625,137.77128283519767L186.46595839977263,137.8527027505549L186.81711839675904,137.86364457403147L187.16827839374542,137.8385297541255L187.5194383907318,137.78711504579806L187.8705983877182,137.81699184085917L188.2217583847046,137.79603327830245L188.57291838169098,137.80538390764744L188.92407837867736,137.80730024714262L189.27523837566375,137.7969614916282L189.62639837265016,137.81106935391085L189.97755836963654,137.8692840899363L190.32871836662292,137.91638137182716L190.6798783636093,137.92254864057367L191.03103836059572,137.90610162999397L191.3821983575821,137.942322788841L191.73335835456848,137.97537712010657L192.08451835155486,137.95659427613964L192.43567834854127,137.9817700101808L192.78683834552766,137.96260690138536L193.13799834251404,138.00570989752325L193.48915833950042,138.01204644369727L193.8403183364868,138.01906972525072L194.1914783334732,137.9845877043624L194.5426383304596,137.98739121763785L194.89379832744598,137.9809068041082L195.24495832443236,138.02552405366876L195.59611832141877,138.0154287403152L195.94727831840515,138.02472690194668L196.29843831539154,138.04843101475916L196.64959831237792,138.11600798356358L197.00075830936433,138.0519409768043L197.3519183063507,138.06851867734193L197.7030783033371,138.0570980612933L198.05423830032348,138.09393560131883L198.4053982973099,138.13470279473222L198.75655829429627,138.10618908869992L199.10771829128265,138.10219997303258L199.45887828826903,138.11922418237705L199.81003828525544,138.088678698877L200.16119828224183,138.10023226102885L200.5123582792282,138.1246701434101L200.8635182762146,138.13737801606155L201.214678273201,138.14466836322887L201.56583827018738,138.21290740859652L201.91699826717377,138.18620558447793L202.26815826416015,138.15625779145336L202.61931826114653,138.18125675102186L202.97047825813294,138.16589411160686L203.32163825511932,138.16374559529555L203.6727982521057,138.17396624132408L204.0239582490921,138.1895025021777L204.3751182460785,138.2051111713507L204.72627824306488,138.20795099840194L205.07743824005126,138.1663115494486L205.42859823703765,138.17931219392736L205.77975823402406,138.20781159405385L206.13091823101044,138.26585088445296L206.48207822799682,138.27062244386553L206.8332382249832,138.22576917498336L207.18439822196962,138.23360851552374L207.535558218956,138.25520899249648L207.88671821594238,138.21867520901407L208.23787821292876,138.15800118835918L208.58903820991517,138.21786062180627L208.94019820690156,138.20568913677985L209.29135820388794,138.26792700339004L209.64251820087432,138.23680575319864L209.99367819786073,138.31708881759522L210.3448381948471,138.2916126463833L210.6959981918335,138.30039197776475L211.04715818881988,138.33590289076898L211.39831818580626,138.30850706205413L211.74947818279267,138.3389893069705L212.10063817977905,138.3141197191885L212.45179817676544,138.3087390877649L212.80295817375182,138.2959314337785L213.15411817073823,138.3080264521399L213.5052781677246,138.31113422798023L213.856438164711,138.35482986099373L214.20759816169738,138.35141226915295L214.5587581586838,138.4030421129475L214.90991815567017,138.4020327544785L215.26107815265655,138.39147321429428L215.61223814964293,138.39439828634522L215.96339814662934,138.37648288133164L216.31455814361573,138.338430822998L216.6657181406021,138.39314312335506L217.0168781375885,138.4135969861528L217.3680381345749,138.397989940885L217.71919813156128,138.40554219323124L218.07035812854767,138.3906124128565L218.42151812553405,138.41507522970338L218.77267812252046,138.45203425971778L219.12383811950684,138.4335991046758L219.47499811649323,138.4409318944363L219.8261581134796,138.362440659734L220.177318110466,138.36142362597548L220.5284781074524,138.36056593537205L220.87963810443878,138.41391825002165L221.23079810142517,138.4438009698837L221.58195809841155,138.45974818943884L221.93311809539796,138.51941257438332L222.28427809238434,138.52482375426942L222.63543808937072,138.50442035161012L222.9865980863571,138.5019287477218L223.33775808334352,138.50792837454603L223.6889180803299,138.53727036601782L224.04007807731628,138.57955423668696L224.39123807430266,138.59123685224182L224.74239807128907,138.54415639830898L225.09355806827546,138.51185904472533L225.44471806526184,138.46789734150582L225.79587806224822,138.49875962823623L226.14703805923463,138.51542123761956L226.498198056221,138.50966170788072L226.8493580532074,138.52946820278046L227.20051805019378,138.54317606746966L227.5516780471802,138.5181777595411L227.90283804416657,138.53614850211167L228.25399804115295,138.58961454854762L228.60515803813934,138.58036397866255L228.95631803512572,138.58913936134985L229.30747803211213,138.53724688922438L229.6586380290985,138.544890592439L230.0097980260849,138.5653090875949L230.36095802307128,138.57252122207115L230.7121180200577,138.48723350158602L231.06327801704407,138.48105119058738L231.41443801403045,138.5175856757946L231.76559801101683,138.5523446198718L232.11675800800325,138.59355190537158L232.46791800498963,138.62461300135098L232.819078001976,138.56305283871177L233.1702379989624,138.596478337233L233.5213979959488,138.5982001638807L233.87255799293519,138.59954114053824L234.22371798992157,138.5711717810146L234.57487798690795,138.59595516697019L234.92603798389436,138.60228826639877L235.27719798088074,138.63980927298522L235.62835797786713,138.63529302771457L235.9795179748535,138.6219542436211L236.33067797183992,138.61142963715355L236.6818379688263,138.5827418580557L237.03299796581268,138.6068572686832L237.38415796279907,138.59887931172938L237.73531795978545,138.6203726167535L238.08647795677186,138.59852100730396L238.43763795375824,138.60585363599876L238.78879795074462,138.6476678683416L239.139957947731,138.64251362348708L239.49111794471742,138.655861692328L239.8422779417038,138.63507441757554L240.19343793869018,138.6525263580136L240.54459793567656,138.67277816514394L240.89575793266297,138.66276237117592L241.24691792964936,138.67586269287105L241.59807792663574,138.67043950425733L241.94923792362212,138.66239992788616L242.30039792060853,138.66212073389917L242.65155791759491,138.65086898351123L243.0027179145813,138.67049710659722L243.35387791156768,138.73518918195387L243.7050379085541,138.72579381185656L244.05619790554047,138.68573012588038L244.40735790252685,138.6788214196689L244.75851789951324,138.71245755231223L245.10967789649965,138.7626265970838L245.46083789348603,138.7069580866891L245.8119978904724,138.70739735827743" fill="none"></path></g></g></g></g><g opacity="0.2"><g><g><g><path style="fill: none;" stroke="rgb(255, 112, 67)" stroke-width="2px" d="M35.467159695625305,29.343571339330197L35.818319692611695,85.43570391117458L36.169479689598084,103.62017485043344L36.520639686584474,108.38511307408692L36.87179968357086,111.3899568640866L37.22295968055725,113.52763964752816L37.57411967754364,114.82217187726565L37.92527967453003,116.17028912118545L38.27643967151642,117.11257089129663L38.62759966850281,118.12273478479344L38.9787596654892,118.84930136850957L39.32991966247559,119.28168558846667L39.68107965946197,120.00641601638631L40.03223965644836,120.66428175789846L40.38339965343475,121.01684221785405L40.73455965042114,121.55725757820156L41.08571964740753,121.88981639298001L41.43687964439392,122.14802282108994L41.78803964138031,122.76538980163608L42.1391996383667,122.88607796401763L42.49035963535309,123.32025859613927L42.84151963233948,123.61657916729769L43.192679629325866,123.87580303238576L43.543839626312256,124.15554256029097L43.894999623298645,124.33304027019443L44.246159620285034,124.59431755626704L44.597319617271424,124.76292594048905L44.94847961425781,125.06393626021861L45.2996396112442,125.33171295490422L45.65079960823059,125.35870418015517L46.00195960521698,125.50908083560995L46.35311960220337,125.85326068837315L46.70427959918976,125.92673871513858L47.05543959617615,126.20785602228503L47.40659959316254,126.19582694967883L47.75775959014893,126.49733274002014L48.10891958713532,126.64128152539945L48.4600795841217,126.84039712151304L48.81123958110809,126.96866042014594L49.16239957809448,127.08171515561594L49.51355957508087,127.1122303162339L49.86471957206726,127.45446273103113L50.21587956905365,127.5510477054174L50.56703956604004,127.63422317838078L50.91819956302643,127.85126050293232L51.269359560012816,127.90137722283237L51.620519556999206,128.0351383905529L51.971679553985595,128.08479938347315L52.322839550971985,128.29408669979273L52.673999547958374,128.34324957252576L53.02515954494476,128.43158641849286L53.37631954193115,128.48084732551806L53.72747953891754,128.56375784093504L54.07863953590393,128.6411174957551L54.42979953289032,128.8969922974568L54.78095952987671,128.93996841148157L55.1321195268631,128.93938285530405L55.48327952384949,129.0872715593982L55.83443952083588,129.29442331789386L56.18559951782227,129.26843363216827L56.53675951480866,129.28903143182478L56.88791951179505,129.47321402062371L57.23907950878143,129.52902997734665L57.59023950576782,129.50142405058807L57.94139950275421,129.62932170780695L58.2925594997406,129.76617493009388L58.64371949672699,129.87495590034058L58.99487949371338,129.9114882468371L59.346039490699766,129.9835884943613L59.697199487686156,130.13992139545897L60.048359484672545,130.21333053326234L60.399519481658935,130.24350919779639L60.750679478645324,130.35809538788453L61.101839475631714,130.2734546996896L61.4529994726181,130.45283360817245L61.80415946960449,130.40204389610457L62.15531946659088,130.40218697317962L62.50647946357727,130.56929834726452L62.85763946056366,130.64637449750995L63.20879945755005,130.86145643536912L63.55995945453644,130.89196099768523L63.91111945152283,130.79855021470473L64.26227944850922,130.88162500380048L64.61343944549562,130.95029140152343L64.964599442482,130.95932910343086L65.3157594394684,131.10735558544914L65.66691943645478,131.06745827811343L66.01807943344116,131.19027669916798L66.36923943042754,131.27886260522868L66.72039942741394,131.3798432253096L67.07155942440032,131.28315491748023L67.42271942138672,131.4604247638938L67.7738794183731,131.34190130466627L68.1250394153595,131.62598878590777L68.47619941234588,131.48329589929835L68.82735940933227,131.57999745500504L69.17851940631866,131.51887704820334L69.52967940330505,131.5728330029506L69.88083940029144,131.846793806769L70.23199939727783,131.70755331698908L70.58315939426421,131.8615333950748L70.93431939125061,131.9292194498761L71.285479388237,131.95537075970498L71.63663938522339,131.91013720738493L71.98779938220977,132.05950437458796L72.33895937919617,132.1271506857573L72.69011937618255,132.1022711721511L73.04127937316895,132.19012049623282L73.39243937015533,132.0258017746869L73.74359936714173,132.2004326439384L74.09475936412811,132.2824237566694L74.4459193611145,132.27307075528176L74.79707935810089,132.39499891898043L75.14823935508728,132.42967921222768L75.49939935207367,132.41044329435962L75.85055934906006,132.53138581598571L76.20171934604645,132.40466986942374L76.55287934303284,132.58510065936576L76.90403934001922,132.64033105991118L77.25519933700562,132.5711003026144L77.606359333992,132.77421410810305L77.9575193309784,132.8153567159068L78.30867932796478,132.8201074047136L78.65983932495118,132.85021453071013L79.01099932193756,132.88321764268872L79.36215931892394,132.83907041630889L79.71331931591034,132.82643459092145L80.06447931289672,132.8481823063293L80.41563930988312,133.01072051316348L80.7667993068695,132.9451779649125L81.1179593038559,132.96608046574735L81.46911930084228,132.98551245219974L81.82027929782868,133.21206970139315L82.17143929481506,133.114520281538L82.52259929180146,133.06504210932476L82.87375928878784,133.0626309956526L83.22491928577423,133.2405950308377L83.57607928276062,133.31598870066355L83.92723927974701,133.19408438314406L84.2783992767334,133.51354237204117L84.62955927371979,133.371930512221L84.98071927070617,133.30320184947468L85.33187926769257,133.30840826526128L85.68303926467895,133.3995112680127L86.03419926166535,133.57129119406503L86.38535925865173,133.6031496894432L86.73651925563813,133.38680920323867L87.08767925262451,133.7018503498374L87.43883924961091,133.68055836140934L87.78999924659729,133.57717325159493L88.14115924358367,133.65728184095883L88.49231924057007,133.7116524542662L88.84347923755645,133.752681130325L89.19463923454285,133.64134994369425L89.54579923152923,133.7608219509379L89.89695922851563,133.77700290829603L90.24811922550201,133.7173437423627L90.5992792224884,133.83332890829578L90.95043921947479,133.84811618895992L91.30159921646118,133.9050158220476L91.65275921344757,133.84452468941856L92.00391921043396,133.89257474045678L92.35507920742035,133.85143478222847L92.70623920440674,133.94256428073453L93.05739920139312,134.1152609598974L93.40855919837952,133.98993604045398L93.7597191953659,134.11906045111266L94.1108791923523,134.09376230458315L94.46203918933868,134.10523099197871L94.81319918632508,134.02735731951864L95.16435918331146,134.2563919217708L95.51551918029786,134.17925880565292L95.86667917728424,134.35258608377615L96.21783917427064,134.3197286984481L96.56899917125702,134.3760454249337L96.9201591682434,134.29234003687753L97.2713191652298,134.29432191932455L97.62247916221618,134.3430171419882L97.97363915920258,134.32698853521924L98.32479915618896,134.40219011082394L98.67595915317536,134.39887814149404L99.02711915016174,134.4810613484462L99.37827914714813,134.44531195149924L99.72943914413452,134.50951248977776L100.08059914112091,134.40108788743095L100.4317591381073,134.5642222487445L100.78291913509369,134.58972971173566L101.13407913208007,134.62798958143466L101.48523912906647,134.69054340856235L101.83639912605285,134.52404541119733L102.18755912303925,134.60871921908557L102.53871912002563,134.68149908271624L102.88987911701203,134.71696100072535L103.24103911399841,134.71780489051062L103.59219911098481,134.755064545472L103.94335910797119,134.82942620565464L104.29451910495759,134.81447332652402L104.64567910194397,134.8619802145921L104.99683909893037,135.00847259241675L105.34799909591675,134.9794160230917L105.69915909290313,134.9977669827548L106.05031908988953,134.81528277182824L106.40147908687591,135.09132481717353L106.7526390838623,134.8965969180282L107.10379908084869,135.15274727557812L107.45495907783508,135.02650295344876L107.80611907482147,134.97829922703363L108.15727907180786,134.96817519918602L108.50843906879425,135.16082583116764L108.85959906578064,135.1330278101879L109.21075906276702,135.10207811919386L109.56191905975342,135.08887395986943L109.9130790567398,135.23192188959098L110.2642390537262,135.25708490777185L110.61539905071258,135.1788681152892L110.96655904769898,135.19620958670055L111.31771904468536,135.21920260257644L111.66887904167176,135.18861590342095L112.02003903865814,135.24163655802946L112.37119903564454,135.29607473551116L112.72235903263092,135.30205085297L113.07351902961732,135.3248729712285L113.4246790266037,135.43994403362655L113.7758390235901,135.28468818495497L114.12699902057648,135.33277533004963L114.47815901756286,135.44089920558127L114.82931901454926,135.3902207756829L115.18047901153564,135.51742556891796L115.53163900852203,135.4849126284002L115.88279900550842,135.5302534885265L116.23395900249481,135.4493566504621L116.5851189994812,135.47121829761494L116.93627899646759,135.53863542050664L117.28743899345397,135.3441181626107L117.63859899044037,135.60019963119856L117.98975898742675,135.47964262280246L118.34091898441315,135.60767010921907L118.69207898139953,135.5582939456612L119.04323897838593,135.67925898867873L119.39439897537231,135.59057902268904L119.74555897235871,135.54364179334573L120.09671896934509,135.6868606206847L120.44787896633149,135.6601740966121L120.79903896331787,135.6791967236553L121.15019896030427,135.65736819619582L121.50135895729065,135.66212815851674L121.85251895427704,135.7369746910093L122.20367895126343,135.81891678659423L122.55483894824982,135.77883533376377L122.9059989452362,135.7281953227096L123.25715894222259,135.72704275738278L123.60831893920898,135.78097884031408L123.95947893619537,135.9272036110169L124.31063893318176,135.94622756284784L124.66179893016815,135.82568247754133L125.01295892715454,135.8739762895222L125.36411892414093,135.93755682714215L125.71527892112732,135.84660087582898L126.0664389181137,136.0903485706323L126.4175989151001,135.8878256204721L126.76875891208648,135.97653605657962L127.11991890907288,135.92235356313017L127.47107890605926,135.99952642288005L127.82223890304566,135.93876768312919L128.17339890003203,135.9901641479783L128.52455889701844,136.01340092479688L128.87571889400482,136.1450609791745L129.22687889099123,136.12599330934842L129.57803888797758,136.08778510637097L129.929198884964,136.14095413720543L130.28035888195038,136.16667621580916L130.6315188789368,136.1019298649851L130.98267887592314,136.00644578920407L131.33383887290955,136.23919907061986L131.68499886989594,136.0639760212522L132.03615886688232,136.14309499418027L132.38731886386873,136.14895850468196L132.73847886085508,136.28583159878485L133.0896388578415,136.16199441596444L133.44079885482788,136.20555741095447L133.7919588518143,136.35202064344904L134.14311884880064,136.3102275648689L134.49427884578705,136.30911606796178L134.84543884277343,136.1876264090024L135.19659883975984,136.3005910589066L135.5477588367462,136.26507747417597L135.8989188337326,136.35677530661906L136.250078830719,136.43951624920635L136.6012388277054,136.34519401226623L136.95239882469176,136.2798435582364L137.30355882167817,136.32200890216922L137.65471881866455,136.3860928591273L138.00587881565096,136.5574038103225L138.3570388126373,136.396582528389L138.70819880962372,136.35968586526616L139.0593588066101,136.59892530741763L139.41051880359652,136.4758512023308L139.76167880058287,136.40989532030744L140.11283879756928,136.56097543804788L140.46399879455566,136.59275444616213L140.81515879154205,136.5070804235363L141.16631878852843,136.58889004034802L141.51747878551484,136.5169924853468L141.86863878250122,136.51946321446692L142.2197987794876,136.48308321855956L142.570958776474,136.49429887149836L142.9221187734604,136.6677837993617L143.27327877044678,136.671894615694L143.62443876743316,136.6544975031979L143.97559876441954,136.72330565320814L144.32675876140596,136.6259178574563L144.67791875839234,136.73638925684898L145.02907875537872,136.64735159817167L145.3802387523651,136.70958085230504L145.7313987493515,136.70169836529988L146.0825587463379,136.70015631237987L146.43371874332428,136.71480978948307L146.78487874031066,136.63546560264052L147.13603873729707,136.64821006062198L147.48719873428345,136.82257862190255L147.83835873126984,136.732716945256L148.18951872825622,136.7562941925217L148.54067872524263,136.79859731437864L148.891838722229,136.78079084247335L149.2429987192154,136.9233234297672L149.59415871620178,136.83786799711712L149.94531871318816,136.83638158528186L150.29647871017457,136.9129861110947L150.64763870716095,136.898829429391L150.99879870414733,136.8977934453846L151.34995870113372,136.8122373288669L151.70111869812013,136.82439225630762L152.0522786951065,136.8388072716191L152.4034386920929,136.92812313572009L152.75459868907927,136.94404310989506L153.10575868606568,136.86841097827744L153.45691868305207,136.84803044380897L153.80807868003845,136.93490339933226L154.15923867702483,136.89632293100212L154.51039867401124,136.98938661959684L154.86155867099762,137.00164885484386L155.212718667984,136.9750139974928L155.5638786649704,136.80463039770996L155.9150386619568,136.98627204363902L156.26619865894318,137.02955418362987L156.61735865592956,137.0197560535643L156.96851865291595,137.04048103284308L157.31967864990236,137.02495584541225L157.67083864688874,137.0608390459201L158.02199864387512,136.99107307437964L158.3731586408615,137.12526082374984L158.7243186378479,137.07215273315103L159.0754786348343,137.1313654456187L159.42663863182068,137.1815788750232L159.77779862880706,137.17488339782588L160.12895862579344,137.0983941285457L160.48011862277986,137.1142743590887L160.83127861976624,137.12383800172574L161.18243861675262,137.28465001014516L161.533598613739,137.2614649000481L161.8847586107254,137.11070803051427L162.2359186077118,137.24329676109204L162.58707860469818,137.21484694454819L162.93823860168456,137.30824315486365L163.28939859867097,137.21386395205107L163.64055859565735,137.17797147802906L163.99171859264374,137.34288105490344L164.34287858963012,137.28180039173373L164.69403858661653,137.28909599777361L165.0451985836029,137.20882843388188L165.3963585805893,137.3203371420687L165.74751857757568,137.29957771830888L166.0986785745621,137.29591997938093L166.44983857154847,137.35329653605214L166.80099856853485,137.34949307047367L167.15215856552123,137.18969319988145L167.50331856250762,137.45020210906955L167.85447855949403,137.34738665797985L168.2056385564804,137.387529051046L168.5567985534668,137.3321515990623L168.90795855045317,137.464103106741L169.25911854743958,137.4681039656915L169.61027854442597,137.42165955738446L169.96143854141235,137.4125423682131L170.31259853839873,137.36117769826956L170.66375853538514,137.4026806483364L171.01491853237152,137.47812730967152L171.3660785293579,137.4661220832445L171.7172385263443,137.45295766755203L172.0683985233307,137.61118766468184L172.41955852031708,137.48302769949203L172.77071851730346,137.40770026905278L173.12187851428985,137.4133292921259L173.47303851127626,137.4330977746622L173.82419850826264,137.40899061230374L174.17535850524902,137.47421786107452L174.5265185022354,137.52808505504373L174.87767849922182,137.52869445740043L175.2288384962082,137.4238865255619L175.57999849319458,137.53948750305273L175.93115849018096,137.59391375744482L176.28231848716734,137.6591781002721L176.63347848415376,137.56885539749481L176.98463848114014,137.65011920176096L177.33579847812652,137.61451288188908L177.6869584751129,137.58852717052667L178.0381184720993,137.68670453976677L178.3892784690857,137.67426743253912L178.74043846607208,137.57464736945894L179.09159846305846,137.69395907738698L179.44275846004487,137.58422823433648L179.79391845703125,137.8060732135673L180.14507845401764,137.67921286514252L180.49623845100402,137.68300440763142L180.84739844799043,137.77160886072033L181.1985584449768,137.80399197204036L181.5497184419632,137.70056049465535L181.90087843894958,137.79286905424283L182.252038435936,137.74020476753424L182.60319843292237,137.74831246845383L182.95435842990875,137.78644118416736L183.30551842689513,137.78164545257766L183.65667842388154,137.80024414754666L184.00783842086793,137.7472049459099L184.3589984178543,137.73428561594784L184.7101584148407,137.79182379672233L185.06131841182707,137.82708037263296L185.41247840881348,137.7145237573502L185.76363840579987,137.7288460375204L186.11479840278625,137.80565723021945L186.46595839977263,137.97483262359074L186.81711839675904,137.88005730924633L187.16827839374542,137.80085752426658L187.5194383907318,137.7099929833069L187.8705983877182,137.86180703345084L188.2217583847046,137.76459543446737L188.57291838169098,137.81940985166494L188.92407837867736,137.81017475638544L189.27523837566375,137.78145335835654L189.62639837265016,137.83223114733482L189.97755836963654,137.95660619397444L190.32871836662292,137.98702729466345L190.6798783636093,137.9317995436935L191.03103836059572,137.88143111412438L191.3821983575821,137.9966545271116L191.73335835456848,138.02495861700493L192.08451835155486,137.92842001018926L192.43567834854127,138.01953361124254L192.78683834552766,137.93386223819215L193.13799834251404,138.0703643917301L193.48915833950042,138.02155126295833L193.8403183364868,138.0296046475809L194.1914783334732,137.93286467303L194.5426383304596,137.99159648755096L194.89379832744598,137.97118018381371L195.24495832443236,138.09244992800961L195.59611832141877,138.0002857702849L195.94727831840515,138.0386741443939L196.29843831539154,138.08398718397785L196.64959831237792,138.21737343677023L197.00075830936433,137.95584046666536L197.3519183063507,138.09338522814838L197.7030783033371,138.0399671372203L198.05423830032348,138.1491919113572L198.4053982973099,138.19585358485227L198.75655829429627,138.06341852965144L199.10771829128265,138.0962162995316L199.45887828826903,138.1447604963938L199.81003828525544,138.0428604736269L200.16119828224183,138.11756260425665L200.5123582792282,138.16132696698196L200.8635182762146,138.15643982503875L201.214678273201,138.1556038839799L201.56583827018738,138.31526597664796L201.91699826717377,138.14615284830006L202.26815826416015,138.11133610191644L202.61931826114653,138.21875519037468L202.97047825813294,138.1428501524843L203.32163825511932,138.16052282082865L203.6727982521057,138.18929721036682L204.0239582490921,138.21280689345818L204.3751182460785,138.22852417511015L204.72627824306488,138.2122107389788L205.07743824005126,138.1038523760186L205.42859823703765,138.1988131606455L205.77975823402406,138.25056069424357L206.13091823101044,138.3529098200516L206.48207822799682,138.27777978298442L206.8332382249832,138.15848927166007L207.18439822196962,138.2453675263343L207.535558218956,138.28760970795557L207.88671821594238,138.1638745337905L208.23787821292876,138.0669901573768L208.58903820991517,138.3076497719769L208.94019820690156,138.18743190924022L209.29135820388794,138.36128380330533L209.64251820087432,138.19012387791156L209.99367819786073,138.43751341419005L210.3448381948471,138.25339838956543L210.6959981918335,138.31356097483695L211.04715818881988,138.38916926027537L211.39831818580626,138.26741331898182L211.74947818279267,138.38471267434505L212.10063817977905,138.27681533751556L212.45179817676544,138.3006681406295L212.80295817375182,138.27671995279886L213.15411817073823,138.326168979682L213.5052781677246,138.31579589174075L213.856438164711,138.42037331051392L214.20759816169738,138.3462858813918L214.5587581586838,138.48048687863934L214.90991815567017,138.40051871677505L215.26107815265655,138.37563390401792L215.61223814964293,138.39878589442165L215.96339814662934,138.3496097738113L216.31455814361573,138.28135273549753L216.6657181406021,138.4752115738907L217.0168781375885,138.4442777803494L217.3680381345749,138.37457937298328L217.71919813156128,138.41687057175062L218.07035812854767,138.3682177422944L218.42151812553405,138.45176945497366L218.77267812252046,138.5074728047394L219.12383811950684,138.4059463721129L219.47499811649323,138.45193107907696L219.8261581134796,138.2447038076806L220.177318110466,138.3598980753377L220.5284781074524,138.35927939946686L220.87963810443878,138.49394672199605L221.23079810142517,138.48862504967678L221.58195809841155,138.48366901877154L221.93311809539796,138.6089091518001L222.28427809238434,138.5329405240986L222.63543808937072,138.4738152476212L222.9865980863571,138.49819134188925L223.33775808334352,138.51692781478238L223.6889180803299,138.58128335322553L224.04007807731628,138.64298004269062L224.39123807430266,138.60876077557413L224.74239807128907,138.47353571740976L225.09355806827546,138.46341301434984L225.44471806526184,138.4019547866765L225.79587806224822,138.5450530583319L226.14703805923463,138.54041365169456L226.498198056221,138.50102241327247L226.8493580532074,138.55917794513005L227.20051805019378,138.56373786450345L227.5516780471802,138.48068029764823L227.90283804416657,138.56310461596757L228.25399804115295,138.6698136182015L228.60515803813934,138.566488123835L228.95631803512572,138.6023024353808L229.30747803211213,138.45940818103614L229.6586380290985,138.55635614726097L230.0097980260849,138.59593683032875L230.36095802307128,138.58333942378553L230.7121180200577,138.35930192085831L231.06327801704407,138.47177772408946L231.41443801403045,138.57238740360543L231.76559801101683,138.6044830359876L232.11675800800325,138.65536283362127L232.46791800498963,138.67120464532005L232.819078001976,138.47071259475297L233.1702379989624,138.64661658501487L233.5213979959488,138.60078290385223L233.87255799293519,138.60155260552452L234.22371798992157,138.5286177417292L234.57487798690795,138.63313024590352L234.92603798389436,138.61178791554164L235.27719798088074,138.69609078286493L235.62835797786713,138.62851865980855L235.9795179748535,138.60194606748092L236.33067797183992,138.59564272745223L236.6818379688263,138.53971018940888L237.03299796581268,138.64303038462447L237.38415796279907,138.58691237629864L237.73531795978545,138.65261257428972L238.08647795677186,138.56574359312964L238.43763795375824,138.61685257904094L238.78879795074462,138.71038921685596L239.139957947731,138.63478225620526L239.49111794471742,138.67588379558933L239.8422779417038,138.60389350544688L240.19343793869018,138.67870426867069L240.54459793567656,138.70315587583946L240.89575793266297,138.64773868022382L241.24691792964936,138.6955131754138L241.59807792663574,138.66230472133674L241.94923792362212,138.6503405633294L242.30039792060853,138.66170194291868L242.65155791759491,138.6339913579293L243.0027179145813,138.69993929122626L243.35387791156768,138.83222729498885L243.7050379085541,138.7117007567106L244.05619790554047,138.6256345969161L244.40735790252685,138.66845836035168L244.75851789951324,138.76291175127724L245.10967789649965,138.83788016424114L245.46083789348603,138.62345532109703L245.8119978904724,138.70805626566" fill="none"></path></g></g></g></g></g></g><g transform="translate(49, 177)" clip-path="url(#clip_1)"><clipPath id="clip_1"><rect width="280" height="22"></rect></clipPath><g><g><line x1="0" y1="0" x2="0" y2="5" style="visibility: inherit;" fill="rgb(0, 0, 0)" stroke="rgb(204, 204, 204)" stroke-width="1px"></line><line x1="35.115999698638916" y1="0" x2="35.115999698638916" y2="5" style="visibility: inherit;" fill="rgb(0, 0, 0)" stroke="rgb(204, 204, 204)" stroke-width="1px"></line><line x1="70.23199939727783" y1="0" x2="70.23199939727783" y2="5" style="visibility: inherit;" fill="rgb(0, 0, 0)" stroke="rgb(204, 204, 204)" stroke-width="1px"></line><line x1="105.34799909591675" y1="0" x2="105.34799909591675" y2="5" style="visibility: inherit;" fill="rgb(0, 0, 0)" stroke="rgb(204, 204, 204)" stroke-width="1px"></line><line x1="140.46399879455566" y1="0" x2="140.46399879455566" y2="5" style="visibility: inherit;" fill="rgb(0, 0, 0)" stroke="rgb(204, 204, 204)" stroke-width="1px"></line><line x1="175.57999849319458" y1="0" x2="175.57999849319458" y2="5" style="visibility: inherit;" fill="rgb(0, 0, 0)" stroke="rgb(204, 204, 204)" stroke-width="1px"></line><line x1="210.6959981918335" y1="0" x2="210.6959981918335" y2="5" style="visibility: inherit;" fill="rgb(0, 0, 0)" stroke="rgb(204, 204, 204)" stroke-width="1px"></line><line x1="245.8119978904724" y1="0" x2="245.8119978904724" y2="5" style="visibility: inherit;" fill="rgb(0, 0, 0)" stroke="rgb(204, 204, 204)" stroke-width="1px"></line><line x1="280.9279975891113" y1="0" x2="280.9279975891113" y2="5" style="visibility: inherit;" fill="rgb(0, 0, 0)" stroke="rgb(204, 204, 204)" stroke-width="1px"></line></g><g transform="translate(0, 8)"><text style="text-anchor: middle; visibility: hidden; font-family: &quot;Helvetica Neue&quot;, sans-serif; font-size: 12px; font-weight: 200;" x="0" y="0" dx="0em" dy="0.95em" fill="rgb(50, 49, 63)" stroke="none" stroke-width="1px">-50k</text><text style="text-anchor: middle; visibility: inherit; font-family: &quot;Helvetica Neue&quot;, sans-serif; font-size: 12px; font-weight: 200;" x="35.115999698638916" y="0" dx="0em" dy="0.95em" fill="rgb(50, 49, 63)" stroke="none" stroke-width="1px">0</text><text style="text-anchor: middle; visibility: inherit; font-family: &quot;Helvetica Neue&quot;, sans-serif; font-size: 12px; font-weight: 200;" x="70.23199939727783" y="0" dx="0em" dy="0.95em" fill="rgb(50, 49, 63)" stroke="none" stroke-width="1px">50k</text><text style="text-anchor: middle; visibility: inherit; font-family: &quot;Helvetica Neue&quot;, sans-serif; font-size: 12px; font-weight: 200;" x="105.34799909591675" y="0" dx="0em" dy="0.95em" fill="rgb(50, 49, 63)" stroke="none" stroke-width="1px">100k</text><text style="text-anchor: middle; visibility: inherit; font-family: &quot;Helvetica Neue&quot;, sans-serif; font-size: 12px; font-weight: 200;" x="140.46399879455566" y="0" dx="0em" dy="0.95em" fill="rgb(50, 49, 63)" stroke="none" stroke-width="1px">150k</text><text style="text-anchor: middle; visibility: inherit; font-family: &quot;Helvetica Neue&quot;, sans-serif; font-size: 12px; font-weight: 200;" x="175.57999849319458" y="0" dx="0em" dy="0.95em" fill="rgb(50, 49, 63)" stroke="none" stroke-width="1px">200k</text><text style="text-anchor: middle; visibility: inherit; font-family: &quot;Helvetica Neue&quot;, sans-serif; font-size: 12px; font-weight: 200;" x="210.6959981918335" y="0" dx="0em" dy="0.95em" fill="rgb(50, 49, 63)" stroke="none" stroke-width="1px">250k</text><text style="text-anchor: middle; visibility: inherit; font-family: &quot;Helvetica Neue&quot;, sans-serif; font-size: 12px; font-weight: 200;" x="245.8119978904724" y="0" dx="0em" dy="0.95em" fill="rgb(50, 49, 63)" stroke="none" stroke-width="1px">300k</text><text style="text-anchor: middle; visibility: hidden; font-family: &quot;Helvetica Neue&quot;, sans-serif; font-size: 12px; font-weight: 200;" x="280.9279975891113" y="0" dx="0em" dy="0.95em" fill="rgb(50, 49, 63)" stroke="none" stroke-width="1px">350k</text></g><line x1="0" y1="0" x2="280.9279975891113" y2="0" fill="rgb(0, 0, 0)" stroke="rgb(204, 204, 204)" stroke-width="1px"></line></g></g></g></g></svg>