<svg viewBox="0 0 330 200" xmlns="http://www.w3.org/2000/svg"><g><g><g><g><g><line x1="49.07200241088867" y1="177.80999946594238" x2="44.07200241088867" y2="177.80999946594238" style="visibility: inherit;" fill="rgb(0, 0, 0)" stroke="rgb(204, 204, 204)" stroke-width="1px"></line><line x1="49.07200241088867" y1="158.05333285861545" x2="44.07200241088867" y2="158.05333285861545" style="visibility: inherit;" fill="rgb(0, 0, 0)" stroke="rgb(204, 204, 204)" stroke-width="1px"></line><line x1="49.07200241088867" y1="138.2966662512885" x2="44.07200241088867" y2="138.2966662512885" style="visibility: inherit;" fill="rgb(0, 0, 0)" stroke="rgb(204, 204, 204)" stroke-width="1px"></line><line x1="49.07200241088867" y1="118.53999964396158" x2="44.07200241088867" y2="118.53999964396158" style="visibility: inherit;" fill="rgb(0, 0, 0)" stroke="rgb(204, 204, 204)" stroke-width="1px"></line><line x1="49.07200241088867" y1="98.78333303663466" x2="44.07200241088867" y2="98.78333303663466" style="visibility: inherit;" fill="rgb(0, 0, 0)" stroke="rgb(204, 204, 204)" stroke-width="1px"></line><line x1="49.07200241088867" y1="79.0266664293077" x2="44.07200241088867" y2="79.0266664293077" style="visibility: inherit;" fill="rgb(0, 0, 0)" stroke="rgb(204, 204, 204)" stroke-width="1px"></line><line x1="49.07200241088867" y1="59.269999821980804" x2="44.07200241088867" y2="59.269999821980804" style="visibility: inherit;" fill="rgb(0, 0, 0)" stroke="rgb(204, 204, 204)" stroke-width="1px"></line><line x1="49.07200241088867" y1="39.51333321465387" x2="44.07200241088867" y2="39.51333321465387" style="visibility: inherit;" fill="rgb(0, 0, 0)" stroke="rgb(204, 204, 204)" stroke-width="1px"></line><line x1="49.07200241088867" y1="19.756666607326935" x2="44.07200241088867" y2="19.756666607326935" style="visibility: inherit;" fill="rgb(0, 0, 0)" stroke="rgb(204, 204, 204)" stroke-width="1px"></line><line x1="49.07200241088867" y1="0" x2="44.07200241088867" y2="0" style="visibility: inherit;" fill="rgb(0, 0, 0)" stroke="rgb(204, 204, 204)" stroke-width="1px"></line></g><g transform="translate(39.07200241088867, 0)"><text style="text-anchor: end; visibility: hidden; font-family: &quot;Helvetica Neue&quot;, sans-serif; font-size: 12px; font-weight: 200;" x="0" y="177.80999946594238" dx="0em" dy="0.3em" fill="rgb(50, 49, 63)" stroke="none" stroke-width="1px">0.3</text><text style="text-anchor: end; visibility: inherit; font-family: &quot;Helvetica Neue&quot;, sans-serif; font-size: 12px; font-weight: 200;" x="0" y="158.05333285861545" dx="0em" dy="0.3em" fill="rgb(50, 49, 63)" stroke="none" stroke-width="1px">0.35</text><text style="text-anchor: end; visibility: hidden; font-family: &quot;Helvetica Neue&quot;, sans-serif; font-size: 12px; font-weight: 200;" x="0" y="138.2966662512885" dx="0em" dy="0.3em" fill="rgb(50, 49, 63)" stroke="none" stroke-width="1px">0.4</text><text style="text-anchor: end; visibility: inherit; font-family: &quot;Helvetica Neue&quot;, sans-serif; font-size: 12px; font-weight: 200;" x="0" y="118.53999964396158" dx="0em" dy="0.3em" fill="rgb(50, 49, 63)" stroke="none" stroke-width="1px">0.45</text><text style="text-anchor: end; visibility: hidden; font-family: &quot;Helvetica Neue&quot;, sans-serif; font-size: 12px; font-weight: 200;" x="0" y="98.78333303663466" dx="0em" dy="0.3em" fill="rgb(50, 49, 63)" stroke="none" stroke-width="1px">0.5</text><text style="text-anchor: end; visibility: inherit; font-family: &quot;Helvetica Neue&quot;, sans-serif; font-size: 12px; font-weight: 200;" x="0" y="79.0266664293077" dx="0em" dy="0.3em" fill="rgb(50, 49, 63)" stroke="none" stroke-width="1px">0.55</text><text style="text-anchor: end; visibility: hidden; font-family: &quot;Helvetica Neue&quot;, sans-serif; font-size: 12px; font-weight: 200;" x="0" y="59.269999821980804" dx="0em" dy="0.3em" fill="rgb(50, 49, 63)" stroke="none" stroke-width="1px">0.6</text><text style="text-anchor: end; visibility: inherit; font-family: &quot;Helvetica Neue&quot;, sans-serif; font-size: 12px; font-weight: 200;" x="0" y="39.51333321465387" dx="0em" dy="0.3em" fill="rgb(50, 49, 63)" stroke="none" stroke-width="1px">0.65</text><text style="text-anchor: end; visibility: hidden; font-family: &quot;Helvetica Neue&quot;, sans-serif; font-size: 12px; font-weight: 200;" x="0" y="19.756666607326935" dx="0em" dy="0.3em" fill="rgb(50, 49, 63)" stroke="none" stroke-width="1px">0.7</text><text style="text-anchor: end; visibility: hidden; font-family: &quot;Helvetica Neue&quot;, sans-serif; font-size: 12px; font-weight: 200;" x="0" y="0" dx="0em" dy="0.3em" fill="rgb(50, 49, 63)" stroke="none" stroke-width="1px">0.75</text></g><line x1="49.07200241088867" y1="0" x2="49.07200241088867" y2="177.80999946594238" fill="rgb(0, 0, 0)" stroke="rgb(204, 204, 204)" stroke-width="1px"></line></g></g><g transform="translate(49, 0)" clip-path="url(#clip_0)"><clipPath id="clip_0"><rect width="280" height="177"></rect></clipPath><g><g><g><line x1="0" y1="0" x2="0" y2="177.80999946594238" fill="rgb(0, 0, 0)" stroke="rgb(60, 60, 60)" stroke-width="1px" opacity="0.25"></line><line x1="35.115999698638916" y1="0" x2="35.115999698638916" y2="177.80999946594238" fill="rgb(0, 0, 0)" stroke="rgb(60, 60, 60)" stroke-width="1px" opacity="0.25"></line><line x1="70.23199939727783" y1="0" x2="70.23199939727783" y2="177.80999946594238" fill="rgb(0, 0, 0)" stroke="rgb(60, 60, 60)" stroke-width="1px" opacity="0.25"></line><line x1="105.34799909591675" y1="0" x2="105.34799909591675" y2="177.80999946594238" fill="rgb(0, 0, 0)" stroke="rgb(60, 60, 60)" stroke-width="1px" opacity="0.25"></line><line x1="140.46399879455566" y1="0" x2="140.46399879455566" y2="177.80999946594238" fill="rgb(0, 0, 0)" stroke="rgb(60, 60, 60)" stroke-width="1px" opacity="0.25"></line><line x1="175.57999849319458" y1="0" x2="175.57999849319458" y2="177.80999946594238" fill="rgb(0, 0, 0)" stroke="rgb(60, 60, 60)" stroke-width="1px" opacity="0.25"></line><line x1="210.6959981918335" y1="0" x2="210.6959981918335" y2="177.80999946594238" fill="rgb(0, 0, 0)" stroke="rgb(60, 60, 60)" stroke-width="1px" opacity="0.25"></line><line x1="245.8119978904724" y1="0" x2="245.8119978904724" y2="177.80999946594238" fill="rgb(0, 0, 0)" stroke="rgb(60, 60, 60)" stroke-width="1px" opacity="0.25"></line><line x1="280.9279975891113" y1="0" x2="280.9279975891113" y2="177.80999946594238" fill="rgb(0, 0, 0)" stroke="rgb(60, 60, 60)" stroke-width="1px" opacity="0.25"></line></g><g><line x1="0" y1="177.80999946594238" x2="280.9279975891113" y2="177.80999946594238" fill="rgb(0, 0, 0)" stroke="rgb(60, 60, 60)" stroke-width="1px" opacity="0.25"></line><line x1="0" y1="158.05333285861545" x2="280.9279975891113" y2="158.05333285861545" fill="rgb(0, 0, 0)" stroke="rgb(60, 60, 60)" stroke-width="1px" opacity="0.25"></line><line x1="0" y1="138.2966662512885" x2="280.9279975891113" y2="138.2966662512885" fill="rgb(0, 0, 0)" stroke="rgb(60, 60, 60)" stroke-width="1px" opacity="0.25"></line><line x1="0" y1="118.53999964396158" x2="280.9279975891113" y2="118.53999964396158" fill="rgb(0, 0, 0)" stroke="rgb(60, 60, 60)" stroke-width="1px" opacity="0.25"></line><line x1="0" y1="98.78333303663466" x2="280.9279975891113" y2="98.78333303663466" fill="rgb(0, 0, 0)" stroke="rgb(60, 60, 60)" stroke-width="1px" opacity="0.25"></line><line x1="0" y1="79.0266664293077" x2="280.9279975891113" y2="79.0266664293077" fill="rgb(0, 0, 0)" stroke="rgb(60, 60, 60)" stroke-width="1px" opacity="0.25"></line><line x1="0" y1="59.269999821980804" x2="280.9279975891113" y2="59.269999821980804" fill="rgb(0, 0, 0)" stroke="rgb(60, 60, 60)" stroke-width="1px" opacity="0.25"></line><line x1="0" y1="39.51333321465387" x2="280.9279975891113" y2="39.51333321465387" fill="rgb(0, 0, 0)" stroke="rgb(60, 60, 60)" stroke-width="1px" opacity="0.25"></line><line x1="0" y1="19.756666607326935" x2="280.9279975891113" y2="19.756666607326935" fill="rgb(0, 0, 0)" stroke="rgb(60, 60, 60)" stroke-width="1px" opacity="0.25"></line><line x1="0" y1="0" x2="280.9279975891113" y2="0" fill="rgb(0, 0, 0)" stroke="rgb(60, 60, 60)" stroke-width="1px" opacity="0.25"></line></g></g></g><g><g><line x1="0" y1="296.34999910990393" x2="280.9279975891113" y2="296.34999910990393" fill="rgb(0, 0, 0)" stroke="rgb(153, 153, 153)" stroke-width="1.5px"></line></g></g><g><g><line x1="35.115999698638916" y1="0" x2="35.115999698638916" y2="177.80999946594238" fill="rgb(0, 0, 0)" stroke="rgb(153, 153, 153)" stroke-width="1.5px"></line></g></g><g><g><g><g><g><path style="fill: none;" stroke="rgb(255, 112, 67)" stroke-width="2px" d="M41.78803964138031,-1.7681843627937326L42.1391996383667,1.2208105089155765L42.49035963535309,4.55792471431721L42.84151963233948,7.613744505676976L43.192679629325866,10.36890277123618L43.543839626312256,13.016617950690176L43.894999623298645,15.236343791768519L44.246159620285034,17.497162748251043L44.597319617271424,19.453148744763183L44.94847961425781,21.696998633266816L45.2996396112442,23.995402949733574L45.65079960823059,25.470413819730254L46.00195960521698,26.890092756682293L46.35311960220337,28.965650683330324L46.70427959918976,30.47224055235216L47.05543959617615,32.37572265954702L47.40659959316254,33.475041852291895L47.75775959014893,35.20665395478153L48.10891958713532,36.75743911158284L48.4600795841217,38.39587676610961L48.81123958110809,39.834986639976194L49.16239957809448,41.10042495556365L49.51355957508087,41.968186292784424L49.86471957206726,43.705669458980566L50.21587956905365,45.09157260052453L50.56703956604004,46.21884950022695L50.91819956302643,47.66690390507577L51.269359560012816,48.7139293297667L51.620519556999206,49.817739847563615L51.971679553985595,50.65659857749125L52.322839550971985,51.90404649569325L52.673999547958374,52.827316571878086L53.02515954494476,53.6953651810243L53.37631954193115,54.39134423815497L53.72747953891754,55.10372461613743L54.07863953590393,55.80620939339772L54.42979953289032,57.13747733247115L54.78095952987671,58.089042056891685L55.1321195268631,58.65789891402369L55.48327952384949,59.525039531748746L55.83443952083588,60.7818634881461L56.18559951782227,61.443550090515714L56.53675951480866,61.91379867293841L56.88791951179505,62.85081924923267L57.23907950878143,63.6114883300241L57.59023950576782,63.969735372246205L57.94139950275421,64.63943082324664L58.2925594997406,65.52783732864484L58.64371949672699,66.44765801498312L58.99487949371338,67.12944321432934L59.346039490699766,67.79487076957861L59.697199487686156,68.74997761774209L60.048359484672545,69.58405199438552L60.399519481658935,70.19179853871482L60.750679478645324,70.96386403007027L61.101839475631714,71.1261586557461L61.4529994726181,71.86132710575723L61.80415946960449,72.12184253285588L62.15531946659088,72.27866050760417L62.50647946357727,72.96692506697721L62.85763946056366,73.65393233680697L63.20879945755005,74.83087247775968L63.55995945453644,75.64549722834414L63.91111945152283,75.8021448503197L64.26227944850922,76.19151045140103L64.61343944549562,76.66927700395365L64.964599442482,76.98807098671165L65.3157594394684,77.70566375687586L65.66691943645478,77.99436232622524L66.01807943344116,78.60426918713992L66.36923943042754,79.28518541412677L66.72039942741394,80.05277735505103L67.07155942440032,80.16955186954561L67.42271942138672,80.86990936549061L67.7738794183731,80.86870711913751L68.1250394153595,81.87807459351764L68.47619941234588,81.97634259242336L68.82735940933227,82.37913114539057L69.17851940631866,82.40348727520924L69.52967940330505,82.6099443477574L69.88083940029144,83.70790144930727L70.23199939727783,83.87159841324194L70.58315939426421,84.51730131368525L70.93431939125061,85.14538458213366L71.285479388237,85.61521697814983L71.63663938522339,85.7362860075105L71.98779938220977,86.3400106862932L72.33895937919617,86.94276571105382L72.69011937618255,87.21595823308813L73.04127937316895,87.69222689859932L73.39243937015533,87.39374375463164L73.74359936714173,87.83556362558967L74.09475936412811,88.39217950454142L74.4459193611145,88.69289391586753L74.79707935810089,89.30684492248068L75.14823935508728,89.79852323577212L75.49939935207367,90.02513584910501L75.85055934906006,90.59112127177526L76.20171934604645,90.48016693760151L76.55287934303284,91.05512603466893L76.90403934001922,91.59647625040418L77.25519933700562,91.67513257612346L77.606359333992,92.44450879107018L77.9575193309784,93.05241934778489L78.30867932796478,93.43405701979351L78.65983932495118,93.77008718209743L79.01099932193756,94.08904967762588L79.36215931892394,94.12345925892572L79.71331931591034,94.09917762855032L80.06447931289672,94.16193386066413L80.41563930988312,94.77750122423168L80.7667993068695,94.91380147081313L81.1179593038559,95.06990162173042L81.46911930084228,95.23265321966704L81.82027929782868,96.13584106445L82.17143929481506,96.33091138961262L82.52259929180146,96.2720311946187L82.87375928878784,96.2281302290102L83.22491928577423,96.8345506636366L83.57607928276062,97.46646930601541L83.92723927974701,97.41218291804007L84.2783992767334,98.51546171244455L84.62955927371979,98.67392015417121L84.98071927070617,98.52462664055352L85.33187926769257,98.4535622329575L85.68303926467895,98.7348453759605L86.03419926166535,99.51438833217054L86.38535925865173,100.09538875613009L86.73651925563813,99.67477839288972L87.08767925262451,100.54255847396325L87.43883924961091,100.98752167486315L87.78999924659729,100.8869080938407L88.14115924358367,101.11137048518773L88.49231924057007,101.43936565619994L88.84347923755645,101.78204249590522L89.19463923454285,101.59180438059693L89.54579923152923,101.90245087050037L89.89695922851563,102.14637105727142L90.24811922550201,102.08060169045991L90.5992792224884,102.45353177146846L90.95043921947479,102.72986681799054L91.30159921646118,103.09797765243775L91.65275921344757,103.1037645704251L92.00391921043396,103.27808134713108L92.35507920742035,103.23639600612074L92.70623920440674,103.53540079620277L93.05739920139312,104.32883630727542L93.40855919837952,104.35929790034241L93.7597191953659,104.8366838718579L94.1108791923523,105.03316648932895L94.46203918933868,105.19183361499587L94.81319918632508,105.01014972164909L95.16435918331146,105.71548463809317L95.51551918029786,105.86443450842931L95.86667917728424,106.57007919729142L96.21783917427064,106.87663975166446L96.56899917125702,107.26081333401494L96.9201591682434,107.19369832589221L97.2713191652298,107.16047601416348L97.62247916221618,107.31368119659703L97.97363915920258,107.3486137042119L98.32479915618896,107.63695658870864L98.67595915317536,107.79818642845595L99.02711915016174,108.18713129035638L99.37827914714813,108.29338924057417L99.72943914413452,108.58541259125069L100.08059914112091,108.3751169044235L100.4317591381073,108.8289727769976L100.78291913509369,109.1919795022884L101.13407913208007,109.54581862972601L101.48523912906647,109.98053571375368L101.83639912605285,109.6493730846503L102.18755912303925,109.75173793523527L102.53871912002563,110.07192969405091L102.88987911701203,110.39013156892825L103.24103911399841,110.58405319086889L103.59219911098481,110.83288493722927L103.94335910797119,111.24658099902825L104.29451910495759,111.44163284364315L104.64567910194397,111.72757733020973L104.99683909893037,112.42000580997073L105.34799909591675,112.73215065133817L105.69915909290313,112.98468541273859L106.05031908988953,112.48737351961772L106.40147908687591,113.17046921163963L106.7526390838623,112.88796076322491L107.10379908084869,113.62921252102028L107.45495907783508,113.62509487479296L107.80611907482147,113.4512332598029L108.15727907180786,113.31091974735061L108.50843906879425,113.91171166470278L108.85959906578064,114.17334940718621L109.21075906276702,114.22028870691963L109.56191905975342,114.20150416471719L109.9130790567398,114.69884830062803L110.2642390537262,115.08672329126199L110.61539905071258,115.04134413459295L110.96655904769898,115.07577520560967L111.31771904468536,115.17818679355622L111.66887904167176,115.13088103821576L112.02003903865814,115.2910154680639L112.37119903564454,115.58065409035218L112.72235903263092,115.77568568135669L113.07351902961732,115.97384994532285L113.4246790266037,116.50189005889561L113.7758390235901,116.2666933317625L114.12699902057648,116.29655181137485L114.47815901756286,116.69890734547701L114.82931901454926,116.76013069296621L115.18047901153564,117.24914841073996L115.53163900852203,117.42695747511884L115.88279900550842,117.69485486086202L116.23395900249481,117.56796009030116L116.5851189994812,117.56955352895238L116.93627899646759,117.81021491798029L117.28743899345397,117.26299483443368L117.63859899044037,117.84517467261813L117.98975898742675,117.76583543456489L118.34091898441315,118.17344073232536L118.69207898139953,118.2424442183314L119.04323897838593,118.71394424066403L119.39439897537231,118.68153770832254L119.74555897235871,118.49520586236355L120.09671896934509,118.8926292519935L120.44787896633149,119.03619786684666L120.79903896331787,119.18997504302334L121.15019896030427,119.2046288066511L121.50135895729065,119.23034537530216L121.85251895427704,119.51189632091076L122.20367895126343,119.97217656146674L122.55483894824982,120.10583287351427L122.9059989452362,120.00597328810575L123.25715894222259,119.9419595268098L123.60831893920898,120.09532400934341L123.95947893619537,120.70725299469585L124.31063893318176,121.14205110352843L124.66179893016815,120.97432522107152L125.01295892715454,121.04540102308493L125.36411892414093,121.31411063805282L125.71527892112732,121.15193746903113L126.0664389181137,121.9212920380299L126.4175989151001,121.66282317885964L126.76875891208648,121.82315674729529L127.11991890907288,121.72670802275867L127.47107890605926,121.94323117825844L127.82223890304566,121.85711399688853L128.17339890003203,121.98818667419678L128.52455889701844,122.14944993149223L128.87571889400482,122.71433252365668L129.22687889099123,122.98546591957367L129.57803888797758,123.01229456875957L129.929198884964,123.21743720123814L130.28035888195038,123.43197906020526L130.6315188789368,123.330494928211L130.98267887592314,122.93010551290416L131.33383887290955,123.51743908653174L131.68499886989594,123.24682394406761L132.03615886688232,123.36576676233355L132.38731886386873,123.45798049063232L132.73847886085508,123.99996861775529L133.0896388578415,123.88485151066752L133.44079885482788,123.97067189526837L133.7919588518143,124.54292228600957L134.14311884880064,124.73767490772488L134.49427884578705,124.85057449175099L134.84543884277343,124.48635101031107L135.19659883975984,124.66946900999545L135.5477588367462,124.65306928631934L135.8989188337326,124.96926618968905L136.250078830719,125.45317434979901L136.6012388277054,125.40815129230023L136.95239882469176,125.14878028791705L137.30355882167817,125.1430789081594L137.65471881866455,125.36751214948916L138.00587881565096,126.11127769853664L138.3570388126373,125.98572802553474L138.70819880962372,125.7792100861858L139.0593588066101,126.50592845022607L139.41051880359652,126.50436265056376L139.76167880058287,126.26891336801667L140.11283879756928,126.66481755045444L140.46399879455566,127.0153520887678L140.81515879154205,126.92105406464168L141.16631878852843,127.1553538877188L141.51747878551484,127.04029803044969L141.86863878250122,126.9800493307375L142.2197987794876,126.8145490143507L142.570958776474,126.75512670163428L142.9221187734604,127.33630861307414L143.27327877044678,127.69963399578612L143.62443876743316,127.85577282542715L143.97559876441954,128.19410732324835L144.32675876140596,128.05084030371225L144.67791875839234,128.35766728983123L145.02907875537872,128.2251851395389L145.3802387523651,128.3669554196154L145.7313987493515,128.42399096719853L146.0825587463379,128.45272944092173L146.43371874332428,128.52207377707816L146.78487874031066,128.28156771444299L147.13603873729707,128.1825777052404L147.48719873428345,128.74316080649422L147.83835873126984,128.76000248361424L148.18951872825622,128.85393770238645L148.54067872524263,129.0607099335856L148.891838722229,129.12146137219744L149.2429987192154,129.66469476796487L149.59415871620178,129.68679326711396L149.94531871318816,129.6947673467447L150.29647871017457,129.97192344185777L150.64763870716095,130.08788223064568L150.99879870414733,130.15377400522902L151.34995870113372,129.88910954458274L151.70111869812013,129.77352838798424L152.0522786951065,129.75543308179923L152.4034386920929,130.06214341489178L152.75459868907927,130.3027739673694L153.10575868606568,130.17823805310454L153.45691868305207,130.03105238199106L153.80807868003845,130.25162259896126L154.15923867702483,130.24678973063627L154.51039867401124,130.5747831246447L154.86155867099762,130.81517821970584L155.212718667984,130.86471356171657L155.5638786649704,130.28862641213956L155.9150386619568,130.5888110856966L156.26619865894318,130.92281394313167L156.61735865592956,131.088377861804L156.96851865291595,131.26140502822085L157.31967864990236,131.31002066165019L157.67083864688874,131.46677475462465L158.02199864387512,131.31277042270986L158.3731586408615,131.6974798213218L158.7243186378479,131.7394766939154L159.0754786348343,131.97520890624554L159.42663863182068,132.29518487152623L159.77779862880706,132.4633643095486L160.12895862579344,132.29231012603253L160.48011862277986,132.24614065785357L160.83127861976624,132.25244303965556L161.18243861675262,132.8280004986725L161.533598613739,133.090899027071L161.8847586107254,132.7126137191009L162.2359186077118,132.95706913192856L162.58707860469818,133.0025874763582L162.93823860168456,133.36197389747088L163.28939859867097,133.2420352512494L163.64055859565735,133.04245437810496L163.99171859264374,133.50905101643835L164.34287858963012,133.57183330816815L164.69403858661653,133.63544261579236L165.0451985836029,133.38821241764077L165.3963585805893,133.6363497056362L165.74751857757568,133.71142079395415L166.0986785745621,133.7434581529789L166.44983857154847,133.96668610322462L166.80099856853485,134.08709944020424L167.15215856552123,133.5911701247308L167.50331856250762,134.2198664347821L167.85447855949403,134.23151817249402L168.2056385564804,134.38123772380072L168.5567985534668,134.2741718475317L168.90795855045317,134.67909323796118L169.25911854743958,134.9362713484874L169.61027854442597,134.92544254082244L169.96143854141235,134.88652858361425L170.31259853839873,134.68055027171226L170.66375853538514,134.70452932925318L171.01491853237152,134.98717155963595L171.3660785293579,135.11407164834728L171.7172385263443,135.14340489022305L172.0683985233307,135.723600380699L172.41955852031708,135.61603779875418L172.77071851730346,135.2836693858033L173.12187851428985,135.10426264229267L173.47303851127626,135.06690653409316L173.82419850826264,134.95877851412106L174.17535850524902,135.1258208088784L174.5265185022354,135.41757398651228L174.87767849922182,135.59479265702754L175.2288384962082,135.32847343502186L175.57999849319458,135.5797075995636L175.93115849018096,135.9239636694606L176.28231848716734,136.362568308118L176.63347848415376,136.3045837036598L176.98463848114014,136.558730911709L177.33579847812652,136.58461898810515L177.6869584751129,136.50775819354322L178.0381184720993,136.81071680743747L178.3892784690857,136.94827115007578L178.74043846607208,136.67659908692917L179.09159846305846,136.9378152550076L179.44275846004487,136.70439084723063L179.79391845703125,137.35311835094066L180.14507845401764,137.29129583654534L180.49623845100402,137.26768336786859L180.84739844799043,137.5685539420899L181.1985584449768,137.8642162379828L181.5497184419632,137.67385725148281L181.90087843894958,137.88785007144952L182.252038435936,137.8289949662434L182.60319843292237,137.82250928416718L182.95435842990875,137.95418664190294L183.30551842689513,138.01614156644766L183.65667842388154,138.11944321439756L184.00783842086793,137.99284037512575L184.3589984178543,137.87094327614193L184.7101584148407,138.00238521506097L185.06131841182707,138.20660709276135L185.41247840881348,137.92893892059834L185.76363840579987,137.81326168012797L186.11479840278625,138.01696179877567L186.46595839977263,138.7406943797289L186.81711839675904,138.83795503285398L187.16827839374542,138.61471218924547L187.5194383907318,138.15769255966816L187.8705983877182,138.42326407132254L188.2217583847046,138.23696573748495L188.57291838169098,138.32008244277378L188.92407837867736,138.33711657162L189.27523837566375,138.2452165226028L189.62639837265016,138.37061974289304L189.97755836963654,138.8880840631191L190.32871836662292,139.30672656881563L190.6798783636093,139.3615467354515L191.03103836059572,139.21535108585394L191.3821983575821,139.53731694227218L191.73335835456848,139.8311332201883L192.08451835155486,139.66417460714894L192.43567834854127,139.887958909737L192.78683834552766,139.71762016488847L193.13799834251404,140.1007579083365L193.48915833950042,140.15708276321675L193.8403183364868,140.21951193258073L194.1914783334732,139.91300508024034L194.5426383304596,139.93792519824405L194.89379832744598,139.88028596686942L195.24495832443236,140.2768837407411L195.59611832141877,140.18714762204291L195.94727831840515,140.269797947656L196.29843831539154,140.4805011726557L196.64959831237792,141.08118533980624L197.00075830936433,140.5117008352792L197.3519183063507,140.6590581733915L197.7030783033371,140.5575415862923L198.05423830032348,140.88498638651959L198.4053982973099,141.24736143908297L198.75655829429627,140.9939062743513L199.10771829128265,140.95844746841945L199.45887828826903,141.10977377370375L199.81003828525544,140.83825836481427L200.16119828224183,140.94095669505305L200.5123582792282,141.1581823162196L200.8635182762146,141.27114118423256L201.214678273201,141.3359442701644L201.56583827018738,141.94251356232112L201.91699826717377,141.70516401460046L202.26815826416015,141.43896140993735L202.61931826114653,141.66117438387988L202.97047825813294,141.5246175890796L203.32163825511932,141.5055196663127L203.6727982521057,141.5963698532327L204.0239582490921,141.73446994970953L204.3751182460785,141.87321367569155L204.72627824306488,141.8984565828137L205.07743824005126,141.52832814767297L205.42859823703765,141.64388943192859L205.77975823402406,141.8972174330529L206.13091823101044,142.41312223660051L206.48207822799682,142.45553609804577L206.8332382249832,142.0568403746486L207.18439822196962,142.12652340167415L207.535558218956,142.31852764143179L207.88671821594238,141.99378289936612L208.23787821292876,141.4544582713225L208.58903820991517,141.98654212418563L208.94019820690156,141.87835114617303L209.29135820388794,142.43157662715248L209.64251820087432,142.15494329211788L209.99367819786073,142.86857053119837L210.3448381948471,142.6421156759814L210.6959981918335,142.72015417714988L211.04715818881988,143.03580673718758L211.39831818580626,142.79228825972217L211.74947818279267,143.06324154786762L212.10063817977905,142.84217854536115L212.45179817676544,142.79435071048465L212.80295817375182,142.680504897272L213.15411817073823,142.7880161715956L213.5052781677246,142.81564084573196L213.856438164711,143.20404647251846L214.20759816169738,143.17366787837835L214.5587581586838,143.63259982321887L214.90991815567017,143.62362774793903L215.26107815265655,143.5297651685235L215.61223814964293,143.5557658089764L215.96339814662934,143.39651776441127L216.31455814361573,143.05827724588988L216.6657181406021,143.54460880461946L217.0168781375885,143.72642091837713L217.3680381345749,143.58769162710763L217.71919813156128,143.65482275907436L218.07035812854767,143.52211360018777L218.42151812553405,143.73956086104874L218.77267812252046,144.06808557228788L219.12383811950684,143.9042175274705L219.47499811649323,143.9693978808968L219.8261581134796,143.27169801687654L220.177318110466,143.2626577168008L220.5284781074524,143.25503380032575L220.87963810443878,143.7292765972112L221.23079810142517,143.99490077376277L221.58195809841155,144.13665383647503L221.93311809539796,144.66700392487064L222.28427809238434,144.71510330163593L222.63543808937072,144.53373972244222L222.9865980863571,144.51159213232359L223.33775808334352,144.56492214853898L223.6889180803299,144.82573985051056L224.04007807731628,145.20159647868056L224.39123807430266,145.30544195027937L224.74239807128907,144.88694902643206L225.09355806827546,144.59986143902177L225.44471806526184,144.20909074373702L225.79587806224822,144.48342218134087L226.14703805923463,144.63152537585938L226.498198056221,144.58032955595857L226.8493580532074,144.7563872884006L227.20051805019378,144.8782349745268L227.5516780471802,144.65602779293948L227.90283804416657,144.81576772690036L228.25399804115295,145.29102147299747L228.60515803813934,145.20879418513044L228.95631803512572,145.28679758679533L229.30747803211213,144.82553116790208L229.6586380290985,144.89347519647663L230.0097980260849,145.07497293119567L230.36095802307128,145.13908079320677L230.7121180200577,144.3809677222278L231.06327801704407,144.32601384668445L231.41443801403045,144.6507648263041L231.76559801101683,144.9597332181015L232.11675800800325,145.3260202003218L232.46791800498963,145.60211883124964L232.819078001976,145.0549173855678L233.1702379989624,145.35203292797883L233.5213979959488,145.36733805373615L233.87255799293519,145.37925784624747L234.22371798992157,145.12708576159312L234.57487798690795,145.34738252564256L234.92603798389436,145.40367674278554L235.27719798088074,145.73719680133183L235.62835797786713,145.69705239892596L235.9795179748535,145.5784854292063L236.33067797183992,145.48493337171703L236.6818379688263,145.22993089084713L237.03299796581268,145.44429009642494L237.38415796279907,145.37337492350204L237.73531795978545,145.56442652371663L238.08647795677186,145.3701899952762L238.43763795375824,145.43536891700762L238.78879795074462,145.8070509822777L239.139957947731,145.76123547245953L239.49111794471742,145.8798849732675L239.8422779417038,145.6951091976903L240.19343793869018,145.85023755713965L240.54459793567656,146.03025362052045L240.89575793266297,145.94122434080452L241.24691792964936,146.05767164476143L241.59807792663574,146.00946552375055L241.94923792362212,145.93800262267354L242.30039792060853,145.93552089834478L242.65155791759491,145.83550533934073L243.0027179145813,146.00997754454977L243.35387791156768,146.58501821438662L243.7050379085541,146.5015038135216L244.05619790554047,146.14538216039986L244.40735790252685,146.0839714385201L244.75851789951324,146.38295928423867L245.10967789649965,146.8289063488747L245.46083789348603,146.33407514536617L245.8119978904724,146.33797978170713" fill="none"></path></g></g></g></g><g opacity="0.2"><g><g><g><path style="fill: none;" stroke="rgb(255, 112, 67)" stroke-width="2px" d="M41.43687964439392,-0.856460548848446L41.78803964138031,4.631245944894999L42.1391996383667,5.704029610508826L42.49035963535309,9.563413007145613L42.84151963233948,12.197373639664875L43.192679629325866,14.501585773781102L43.543839626312256,16.988159355160718L43.894999623298645,18.56591677652483L44.246159620285034,20.888381541614706L44.597319617271424,22.38712273469926L44.94847961425781,25.062770021184207L45.2996396112442,27.443007307278492L45.65079960823059,27.682929309509205L46.00195960521698,29.019610691329433L46.35311960220337,32.078987160335686L46.70427959918976,32.732125176028404L47.05543959617615,35.230945683996794L47.40659959316254,35.12402059416394L47.75775959014893,37.80407206386448L48.10891958713532,39.08361682279164L48.4600795841217,40.85353323269018L48.81123958110809,41.99365144276044L49.16239957809448,42.998582424716005L49.51355957508087,43.269828296875716L49.86471957206726,46.31189420618435L50.21587956905365,47.17042731184014L50.56703956604004,47.90976484929237L50.91819956302643,49.83898551197272L51.269359560012816,50.28446746663981L51.620519556999206,51.473455624155676L51.971679553985595,51.9148866723357L52.322839550971985,53.77521837295413L52.673999547958374,54.21222168613667L53.02515954494476,54.99743809473304L53.37631954193115,55.43531282384593L53.72747953891754,56.172295183108005L54.07863953590393,56.859936559286425L54.42979953289032,59.13437924107913L54.78095952987671,59.51638914352165L55.1321195268631,59.5111841997214L55.48327952384949,60.825750458336145L55.83443952083588,62.66709942274197L56.18559951782227,62.43607999407004L56.53675951480866,62.61917154657239L56.88791951179505,64.256350113674L57.23907950878143,64.75249195121124L57.59023950576782,64.50710593557939L57.94139950275421,65.64397399974723L58.2925594997406,66.86044708674217L58.64371949672699,67.8273890444906L58.99487949371338,68.15212101334863L59.346039490699766,68.79301210245254L59.697199487686156,70.18263788998739L60.048359484672545,70.83516355935066L60.399519481658935,71.10341835520886L60.750679478645324,72.1219622671035L61.101839475631714,71.36960059425974L61.4529994726181,72.96407978077391L61.80415946960449,72.51261567350386L62.15531946659088,72.51388746972654L62.50647946357727,73.99932190603673L62.85763946056366,74.68444324155168L63.20879945755005,76.59628268918873L63.55995945453644,76.86743435422082L63.91111945152283,76.03711628328305L64.26227944850922,76.77555885302304L64.61343944549562,77.38592683278259L64.964599442482,77.46626196084864L65.3157594394684,78.78205291212225L65.66691943645478,78.42741018024931L66.01807943344116,79.51912947851193L66.36923943042754,80.30655975460705L66.72039942741394,81.20416526643744L67.07155942440032,80.3447136412875L67.42271942138672,81.92044560940808L67.7738794183731,80.8669037496078L68.1250394153595,83.39212580508779L68.47619941234588,82.12374459078193L68.82735940933227,82.98331397484137L69.17851940631866,82.4400214699373L69.52967940330505,82.91962995657968L69.88083940029144,85.35483710163211L70.23199939727783,84.1171438591439L70.58315939426421,85.48585566435021L70.93431939125061,86.0875094848062L71.285479388237,86.31996557217413L71.63663938522339,85.91788955155153L71.98779938220977,87.2455977044673L72.33895937919617,87.84689824819476L72.69011937618255,87.62574701613958L73.04127937316895,88.40662989686608L73.39243937015533,86.94601903868008L73.74359936714173,88.49829343202677L74.09475936412811,89.22710332296901L74.4459193611145,89.14396553285668L74.79707935810089,90.22777143240042L75.14823935508728,90.53604070570928L75.49939935207367,90.36505476910432L75.85055934906006,91.44009940578067L76.20171934604645,90.31373543634092L76.55287934303284,91.91756468027002L76.90403934001922,92.408501574007L77.25519933700562,91.79311706470243L77.606359333992,93.59857311349035L77.9575193309784,93.96428518285701L78.30867932796478,94.00651352780642L78.65983932495118,94.27413242555329L79.01099932193756,94.56749342091851L79.36215931892394,94.17507363087553L79.71331931591034,94.06275518298722L80.06447931289672,94.25606820883482L80.41563930988312,95.70085226958301L80.7667993068695,95.11825184068535L81.1179593038559,95.30405184810635L81.46911930084228,95.47678061657203L81.82027929782868,97.49062283162452L82.17143929481506,96.6235168773566L82.52259929180146,96.18371090212779L82.87375928878784,96.1622787805974L83.22491928577423,97.74418131557618L83.57607928276062,98.41434726958369L83.92723927974701,97.33075333607708L84.2783992767334,100.17037990405129L84.62955927371979,98.91160781676123L84.98071927070617,98.300686370127L85.33187926769257,98.34696562156346L85.68303926467895,99.15677009046502L86.03419926166535,100.68370276648567L86.38535925865173,100.96688939206943L86.73651925563813,99.04386284802918L87.08767925262451,101.84422859557357L87.43883924961091,101.65496647621303L87.78999924659729,100.73598772230703L88.14115924358367,101.44806407220825L88.49231924057007,101.9313584127182L88.84347923755645,102.29605775546311L89.19463923454285,101.30644720763446L89.54579923152923,102.3684206053555L89.89695922851563,102.51225133742801L90.24811922550201,101.98194764024265L90.5992792224884,103.0129268929813L90.95043921947479,103.14436938777362L91.30159921646118,103.65014390410856L91.65275921344757,103.11244494740613L92.00391921043396,103.53955651219003L92.35507920742035,103.17386799460526L92.70623920440674,103.98390798132583L93.05739920139312,105.5189895738844L93.40855919837952,104.40499028994294L93.7597191953659,105.55276282913117L94.1108791923523,105.32789041553555L94.46203918933868,105.42983430349624L94.81319918632508,104.73762388162893L95.16435918331146,106.77348701275933L95.51551918029786,106.08785931393349L95.86667917728424,107.62854623058463L96.21783917427064,107.336480583224L96.56899917125702,107.83707370754061L96.9201591682434,107.09302581370808L97.2713191652298,107.1106425465704L97.62247916221618,107.54348897024734L97.97363915920258,107.40101246563414L98.32479915618896,108.06947091545376L98.67595915317536,108.04003118807688L99.02711915016174,108.77054858320699L99.37827914714813,108.45277616590086L99.72943914413452,109.02344761726542L100.08059914112091,108.05967337418274L100.4317591381073,109.50975658585877L100.78291913509369,109.73648959022462L101.13407913208007,110.07657732088242L101.48523912906647,110.6326113397952L101.83639912605285,109.15262914099522L102.18755912303925,109.90528521111274L102.53871912002563,110.5522173322744L102.88987911701203,110.86743438124422L103.24103911399841,110.87493562377985L103.59219911098481,111.20613255676984L103.94335910797119,111.86712509172669L104.29451910495759,111.73421061056551L104.64567910194397,112.1564940600596L104.99683909893037,113.45864852961225L105.34799909591675,113.20036791338933L105.69915909290313,113.36348755483918L106.05031908988953,111.74140567993643L106.40147908687591,114.19511274967249L106.7526390838623,112.46419809060285L107.10379908084869,114.7410901577133L107.45495907783508,113.61891840545202L107.80611907482147,113.19044083731784L108.15727907180786,113.10044947867216L108.50843906879425,114.81289954073102L108.85959906578064,114.56580602091131L109.21075906276702,114.29069765651977L109.56191905975342,114.17332735141359L109.9130790567398,115.44486450449426L110.2642390537262,115.66853577721291L110.61539905071258,114.97327539958935L110.96655904769898,115.12742181213474L111.31771904468536,115.33180417547607L111.66887904167176,115.05992240520501L112.02003903865814,115.53121711283615L112.37119903564454,116.01511202378458L112.72235903263092,116.06823306786345L113.07351902961732,116.27109634127211L113.4246790266037,117.29395022925473L113.7758390235901,115.91389824106284L114.12699902057648,116.34133953079336L114.47815901756286,117.30244064663023L114.82931901454926,116.85196571420002L115.18047901153564,117.98267498740061L115.53163900852203,117.69367107168716L115.88279900550842,118.09670093947678L116.23395900249481,117.37761793445985L116.5851189994812,117.57194368692922L116.93627899646759,118.1712070015222L117.28743899345397,116.44216470911374L117.63859899044037,118.71844442989476L117.98975898742675,117.64682657748506L118.34091898441315,118.78484867896607L118.69207898139953,118.34594944734047L119.04323897838593,119.42119427416299L119.39439897537231,118.63292790981038L119.74555897235871,118.21570809342512L120.09671896934509,119.48876433643844L120.44787896633149,119.25155078912641L120.79903896331787,119.42064080728831L121.15019896030427,119.2266094520927L121.50135895729065,119.26892022827877L121.85251895427704,119.93422273932362L122.20367895126343,120.66259692230068L122.55483894824982,120.30631734158558L122.9059989452362,119.85618390999295L123.25715894222259,119.8459388848658L123.60831893920898,120.3253707331439L123.95947893619537,121.62514647272448L124.31063893318176,121.79424826677733L124.66179893016815,120.7227363973862L125.01295892715454,121.15201472610502L125.36411892414093,121.71717506050464L125.71527892112732,120.90867771549861L126.0664389181137,123.07532389152811L126.4175989151001,121.27511989010424L126.76875891208648,122.06365709994871L127.11991890907288,121.58203493595377L127.47107890605926,122.26801591150812L127.82223890304566,121.72793822483362L128.17339890003203,122.18479569015913L128.52455889701844,122.39134481743538L128.87571889400482,123.56165641190336L129.22687889099123,123.39216601344913L129.57803888797758,123.0525375425384L129.929198884964,123.52515114995602L130.28035888195038,123.75379184865588L130.6315188789368,123.17826873021961L130.98267887592314,122.32952138994392L131.33383887290955,124.3984394469731L131.68499886989594,122.84090123037143L132.03615886688232,123.54418098973244L132.38731886386873,123.59630108308048L132.73847886085508,124.81295080843968L133.0896388578415,123.71217585003592L133.44079885482788,124.0994024721696L133.7919588518143,125.40129787212132L134.14311884880064,125.02980384029784L134.49427884578705,125.01992386779017L134.84543884277343,123.94001578815113L135.19659883975984,124.94414600952206L135.5477588367462,124.62846970080514L135.8989188337326,125.44356154474359L136.250078830719,126.17903658996397L136.6012388277054,125.34061670605209L136.95239882469176,124.75972378134227L137.30355882167817,125.1345268385229L137.65471881866455,125.7041620114838L138.00587881565096,127.22692602210789L138.3570388126373,125.79740351603189L138.70819880962372,125.46943317716239L139.0593588066101,127.59600599628646L139.41051880359652,126.50201395107034L139.76167880058287,125.91573944419602L140.11283879756928,127.25867382411113L140.46399879455566,127.54115389623786L140.81515879154205,126.77960702845249L141.16631878852843,127.5068036223345L141.51747878551484,126.86771424454605L141.86863878250122,126.88967628116922L142.2197987794876,126.56629853977051L142.570958776474,126.6659932325596L142.9221187734604,128.2080814802339L143.27327877044678,128.24462206985407L143.62443876743316,128.08998106988875L143.97559876441954,128.70160906998004L144.32675876140596,127.8359397744081L144.67791875839234,128.8179077690097L145.02907875537872,128.02646191410037L145.3802387523651,128.5796108397302L145.7313987493515,128.50954428857324L146.0825587463379,128.49583715150655L146.43371874332428,128.62609028131286L146.78487874031066,127.9208086204902L147.13603873729707,128.03409269143646L147.48719873428345,129.5840354583749L147.83835873126984,128.7852649992942L148.18951872825622,128.99484053054482L148.54067872524263,129.37086828038434L148.891838722229,129.21258853011523L149.2429987192154,130.47954486161603L149.59415871620178,129.71994101583758L149.94531871318816,129.70672846619084L150.29647871017457,130.3876575845273L150.64763870716095,130.26182041382754L150.99879870414733,130.25261166710405L151.34995870113372,129.49211285361332L151.70111869812013,129.6001566530865L152.0522786951065,129.72829012252166L152.4034386920929,130.52220891453064L152.75459868907927,130.66371979608587L153.10575868606568,129.99143418170723L153.45691868305207,129.81027387532083L153.80807868003845,130.5824779244166L154.15923867702483,130.2395404281487L154.51039867401124,131.06677321565738L154.86155867099762,131.17577086229755L155.212718667984,130.93901657473262L155.5638786649704,129.42449568777408L155.9150386619568,131.03908809603215L156.26619865894318,131.42381822928428L156.61735865592956,131.3367237398125L156.96851865291595,131.52094577784612L157.31967864990236,131.3829441117942L157.67083864688874,131.70190589408637L158.02199864387512,131.08176392483767L158.3731586408615,132.2745439192397L158.7243186378479,131.8024720028058L159.0754786348343,132.32880722474079L159.42663863182068,132.77514881944728L159.77779862880706,132.71563346658215L160.12895862579344,132.03572885075837L160.48011862277986,132.17688645558508L160.83127861976624,132.26189661235858L161.18243861675262,133.69133668719795L161.533598613739,133.48524681966876L161.8847586107254,132.14518575714567L162.2359186077118,133.3237522511701L162.58707860469818,133.07086499300263L162.93823860168456,133.90105352913994L163.28939859867097,133.06212728191718L163.64055859565735,132.74308306838836L163.99171859264374,134.2089459739384L164.34287858963012,133.66600674576287L164.69403858661653,133.73085657722868L165.0451985836029,133.01736712041335L165.3963585805893,134.0085556376294L165.74751857757568,133.82402742643106L166.0986785745621,133.791514191516L166.44983857154847,134.30152802859322L166.80099856853485,134.2677194456736L167.15215856552123,132.84727615152065L167.50331856250762,135.1629108998591L167.85447855949403,134.24899577906191L168.2056385564804,134.60581705076075L168.5567985534668,134.11357303312823L168.90795855045317,135.28647532360537L169.25911854743958,135.32203851427664L169.61027854442597,134.90919932932508L169.96143854141235,134.82815764780196L170.31259853839873,134.37158280385927L170.66375853538514,134.74049791556456L171.01491853237152,135.41113490521008L171.3660785293579,135.3044217814143L171.7172385263443,135.18740475303667L172.0683985233307,136.593893616413L172.41955852031708,135.45469392583692L172.77071851730346,134.78511676637697L173.12187851428985,134.8351525270267L173.47303851127626,135.01087237179388L173.82419850826264,134.796586484163L174.17535850524902,135.37638425101437L174.5265185022354,135.85520375296306L174.87767849922182,135.8606206628004L175.2288384962082,134.9289946020133L175.57999849319458,135.9565588463762L175.93115849018096,136.44034777430608L176.28231848716734,137.0204752661041L176.63347848415376,136.21760679697255L176.98463848114014,136.93995172378283L177.33579847812652,136.6234511026994L177.6869584751129,136.3924670017003L178.0381184720993,137.2651547282789L178.3892784690857,137.1546026640332L178.74043846607208,136.26909099220927L179.09159846305846,137.32963950712525L179.44275846004487,136.35425423556512L179.79391845703125,138.32620960650576L180.14507845401764,137.1985620649524L180.49623845100402,137.23226466485346L180.84739844799043,138.01985980342187L181.1985584449768,138.30770968182213L181.5497184419632,137.38831877173286L181.90087843894958,138.2088393013996L182.252038435936,137.7407123084342L182.60319843292237,137.81278076105284L182.95435842990875,138.15170267850652L183.30551842689513,138.10907395326478L183.65667842388154,138.27439568632246L184.00783842086793,137.802936116218L184.3589984178543,137.68809762766625L184.7101584148407,138.19954812343946L185.06131841182707,138.5129399093119L185.41247840881348,137.51243666235382L185.76363840579987,137.63974581942244L186.11479840278625,138.32251197674725L186.46595839977263,139.8262932511587L186.81711839675904,138.98384601254168L187.16827839374542,138.27984792383265L187.5194383907318,137.47216311530224L187.8705983877182,138.82162133880405L188.2217583847046,137.95751823672856L188.57291838169098,138.44475750070703L188.92407837867736,138.3626677648893L189.27523837566375,138.10736644907695L189.62639837265016,138.55872457332845L189.97755836963654,139.6642805434582L190.32871836662292,139.9346903273604L190.6798783636093,139.44377698540532L191.03103836059572,138.9960576114576L191.3821983575821,140.02026572689954L191.73335835456848,140.27185763706245L192.08451835155486,139.41373668758993L192.43567834854127,140.2236353636191L192.78683834552766,139.46211204761565L193.13799834251404,140.67546452350862L193.48915833950042,140.2415700455371L193.8403183364868,140.31315568662674L194.1914783334732,139.45324480172974L194.5426383304596,139.97530537524955L194.89379832744598,139.79382711980747L195.24495832443236,140.87178040154868L195.59611832141877,140.05254344399557L195.94727831840515,140.3937734360756L196.29843831539154,140.79655601015526L196.64959831237792,141.98221159053207L197.00075830936433,139.6574740784887L197.3519183063507,140.88009418055992L197.7030783033371,140.40526670564356L198.05423830032348,141.37615358686048L198.4053982973099,141.79092401792798L198.75655829429627,140.61372352725382L199.10771829128265,140.90525925952167L199.45887828826903,141.3367632316302L199.81003828525544,140.43098525148L200.16119828224183,141.0950041904112L200.5123582792282,141.4840207479694L200.8635182762146,141.44057948625206L201.214678273201,141.43314889906213L201.56583827018738,142.85236750055623L201.91699826717377,141.34913969301945L202.26815826416015,141.03965750294265L202.61931826114653,141.99449384479368L202.97047825813294,141.31978239687922L203.32163825511932,141.47687278216227L203.6727982521057,141.7326451336127L204.0239582490921,141.94162009442482L204.3751182460785,142.08132926466456L204.72627824306488,141.93632094349698L205.07743824005126,140.9731354949618L205.42859823703765,141.81723135831197L205.77975823402406,142.27720943473943L206.13091823101044,143.18697944192195L206.48207822799682,142.51915689021365L206.8332382249832,141.45879678955288L207.18439822196962,142.23104794221246L207.535558218956,142.60653400106827L207.88671821594238,141.50666578626772L208.23787821292876,140.64547132925705L208.58903820991517,142.78466790348034L208.94019820690156,141.71606467915404L209.29135820388794,143.26141484862165L209.64251820087432,141.73999328956597L209.99367819786073,143.9390113898191L210.3448381948471,142.30243339315595L210.6959981918335,142.8372119289026L211.04715818881988,143.50928557724413L211.39831818580626,142.42701054352398L211.74947818279267,143.46967148008576L212.10063817977905,142.5105840416015L212.45179817676544,142.72260895816987L212.80295817375182,142.50973617745305L213.15411817073823,142.94928308308096L213.5052781677246,142.85707785693654L213.856438164711,143.78665491269822L214.20759816169738,143.12809998716818L214.5587581586838,144.3209977404797L214.90991815567017,143.61016963501925L215.26107815265655,143.38897129940025L215.61223814964293,143.59476676965565L215.96339814662934,143.15764569756362L216.31455814361573,142.55091646810786L216.6657181406021,144.27410614271378L217.0168781375885,143.99913908901365L217.3680381345749,143.37959769020347L217.71919813156128,143.75551945702443L218.07035812854767,143.32304986185792L218.42151812553405,144.06573175234018L218.77267812252046,144.56087263914657L219.12383811950684,143.6584154602445L219.47499811649323,144.06716841103616L219.8261581134796,142.22514822084614L220.177318110466,143.2490972666872L220.5284781074524,143.2435979256132L220.87963810443878,144.44064079253937L221.23079810142517,144.39333703859018L221.58195809841155,144.3492834305434L221.93311809539796,145.46252905746402L222.28427809238434,144.7872523667839L222.63543808937072,144.2616943536517L222.9865980863571,144.4783707471456L223.33775808334352,144.6449171728621L223.6889180803299,145.21696640346792L224.04007807731628,145.76538142093557L224.39123807430266,145.46121015767756L224.74239807128907,144.25920964066108L225.09355806827546,144.16923005790636L225.44471806526184,143.62293470080988L225.79587806224822,144.89491933774667L226.14703805923463,144.85368016763712L226.498198056221,144.50353582610734L226.8493580532074,145.02047388706362L227.20051805019378,145.0610065037161L227.5516780471802,144.3227170205585L227.90283804416657,145.05537762784166L228.25399804115295,146.0039020921431L228.60515803813934,145.0854532533299L228.95631803512572,145.4038026892926L229.30747803211213,144.13363153956223L229.6586380290985,144.99539123933852L230.0097980260849,145.34721953327423L230.36095802307128,145.23524258622348L230.7121180200577,143.24379811575935L231.06327801704407,144.24358303336942L231.41443801403045,145.1378912957336L231.76559801101683,145.42318580579754L232.11675800800325,145.87545067365227L232.46791800498963,146.0162667776414L232.819078001976,144.23411521704503L233.1702379989624,145.7977062415954L233.5213979959488,145.39029574237207L233.87255799293519,145.39713753501448L234.22371798992157,144.7488276346116L234.57487798690795,145.67782767171667L234.92603798389436,145.4881180685L235.27719798088074,146.23747688915134L235.62835797786713,145.6368357953171L235.9795179748535,145.40063497462685L236.33067797183992,145.34460528548317L236.6818379688263,144.84742716954227L237.03299796581268,145.76582890479168L237.38415796279907,145.26700216411768L237.73531795978545,145.85100392403848L238.08647795677186,145.07883520261555L238.43763795375824,145.53313729960476L238.78879795074462,146.36457408018285L239.139957947731,145.69251220773228L239.49111794471742,146.05785922447947L239.8422779417038,145.41794553432447L240.19343793869018,146.08293009631362L240.54459793567656,146.3002777155917L240.89575793266297,145.80768042123066L241.24691792964936,146.2323426006968L241.59807792663574,145.93715634223423L241.94923792362212,145.83080827105795L242.30039792060853,145.93179831185162L242.65155791759491,145.68548200083467L243.0027179145813,146.27168585236328L243.35387791156768,147.44757921914191L243.7050379085541,146.3762322122241L244.05619790554047,145.6111996807173L244.40735790252685,145.99185535570047L244.75851789951324,146.8314410528165L245.10967789649965,147.4978269458288L245.46083789348603,145.59182834010332L245.8119978904724,146.34383673621855" fill="none"></path></g></g></g></g></g></g><g transform="translate(49, 177)" clip-path="url(#clip_1)"><clipPath id="clip_1"><rect width="280" height="22"></rect></clipPath><g><g><line x1="0" y1="0" x2="0" y2="5" style="visibility: inherit;" fill="rgb(0, 0, 0)" stroke="rgb(204, 204, 204)" stroke-width="1px"></line><line x1="35.115999698638916" y1="0" x2="35.115999698638916" y2="5" style="visibility: inherit;" fill="rgb(0, 0, 0)" stroke="rgb(204, 204, 204)" stroke-width="1px"></line><line x1="70.23199939727783" y1="0" x2="70.23199939727783" y2="5" style="visibility: inherit;" fill="rgb(0, 0, 0)" stroke="rgb(204, 204, 204)" stroke-width="1px"></line><line x1="105.34799909591675" y1="0" x2="105.34799909591675" y2="5" style="visibility: inherit;" fill="rgb(0, 0, 0)" stroke="rgb(204, 204, 204)" stroke-width="1px"></line><line x1="140.46399879455566" y1="0" x2="140.46399879455566" y2="5" style="visibility: inherit;" fill="rgb(0, 0, 0)" stroke="rgb(204, 204, 204)" stroke-width="1px"></line><line x1="175.57999849319458" y1="0" x2="175.57999849319458" y2="5" style="visibility: inherit;" fill="rgb(0, 0, 0)" stroke="rgb(204, 204, 204)" stroke-width="1px"></line><line x1="210.6959981918335" y1="0" x2="210.6959981918335" y2="5" style="visibility: inherit;" fill="rgb(0, 0, 0)" stroke="rgb(204, 204, 204)" stroke-width="1px"></line><line x1="245.8119978904724" y1="0" x2="245.8119978904724" y2="5" style="visibility: inherit;" fill="rgb(0, 0, 0)" stroke="rgb(204, 204, 204)" stroke-width="1px"></line><line x1="280.9279975891113" y1="0" x2="280.9279975891113" y2="5" style="visibility: inherit;" fill="rgb(0, 0, 0)" stroke="rgb(204, 204, 204)" stroke-width="1px"></line></g><g transform="translate(0, 8)"><text style="text-anchor: middle; visibility: hidden; font-family: &quot;Helvetica Neue&quot;, sans-serif; font-size: 12px; font-weight: 200;" x="0" y="0" dx="0em" dy="0.95em" fill="rgb(50, 49, 63)" stroke="none" stroke-width="1px">-50k</text><text style="text-anchor: middle; visibility: inherit; font-family: &quot;Helvetica Neue&quot;, sans-serif; font-size: 12px; font-weight: 200;" x="35.115999698638916" y="0" dx="0em" dy="0.95em" fill="rgb(50, 49, 63)" stroke="none" stroke-width="1px">0</text><text style="text-anchor: middle; visibility: inherit; font-family: &quot;Helvetica Neue&quot;, sans-serif; font-size: 12px; font-weight: 200;" x="70.23199939727783" y="0" dx="0em" dy="0.95em" fill="rgb(50, 49, 63)" stroke="none" stroke-width="1px">50k</text><text style="text-anchor: middle; visibility: inherit; font-family: &quot;Helvetica Neue&quot;, sans-serif; font-size: 12px; font-weight: 200;" x="105.34799909591675" y="0" dx="0em" dy="0.95em" fill="rgb(50, 49, 63)" stroke="none" stroke-width="1px">100k</text><text style="text-anchor: middle; visibility: inherit; font-family: &quot;Helvetica Neue&quot;, sans-serif; font-size: 12px; font-weight: 200;" x="140.46399879455566" y="0" dx="0em" dy="0.95em" fill="rgb(50, 49, 63)" stroke="none" stroke-width="1px">150k</text><text style="text-anchor: middle; visibility: inherit; font-family: &quot;Helvetica Neue&quot;, sans-serif; font-size: 12px; font-weight: 200;" x="175.57999849319458" y="0" dx="0em" dy="0.95em" fill="rgb(50, 49, 63)" stroke="none" stroke-width="1px">200k</text><text style="text-anchor: middle; visibility: inherit; font-family: &quot;Helvetica Neue&quot;, sans-serif; font-size: 12px; font-weight: 200;" x="210.6959981918335" y="0" dx="0em" dy="0.95em" fill="rgb(50, 49, 63)" stroke="none" stroke-width="1px">250k</text><text style="text-anchor: middle; visibility: inherit; font-family: &quot;Helvetica Neue&quot;, sans-serif; font-size: 12px; font-weight: 200;" x="245.8119978904724" y="0" dx="0em" dy="0.95em" fill="rgb(50, 49, 63)" stroke="none" stroke-width="1px">300k</text><text style="text-anchor: middle; visibility: hidden; font-family: &quot;Helvetica Neue&quot;, sans-serif; font-size: 12px; font-weight: 200;" x="280.9279975891113" y="0" dx="0em" dy="0.95em" fill="rgb(50, 49, 63)" stroke="none" stroke-width="1px">350k</text></g><line x1="0" y1="0" x2="280.9279975891113" y2="0" fill="rgb(0, 0, 0)" stroke="rgb(204, 204, 204)" stroke-width="1px"></line></g></g></g></g></svg>