<svg viewBox="0 0 1565.0999755859375 400" xmlns="http://www.w3.org/2000/svg"><g><g><g><g><g><line x1="49.09600067138672" y1="377.8099994659424" x2="44.09600067138672" y2="377.8099994659424" style="visibility: inherit;" fill="rgb(0, 0, 0)" stroke="rgb(204, 204, 204)" stroke-width="1px"></line><line x1="49.09600067138672" y1="323.8371423993792" x2="44.09600067138672" y2="323.8371423993792" style="visibility: inherit;" fill="rgb(0, 0, 0)" stroke="rgb(204, 204, 204)" stroke-width="1px"></line><line x1="49.09600067138672" y1="269.864285332816" x2="44.09600067138672" y2="269.864285332816" style="visibility: inherit;" fill="rgb(0, 0, 0)" stroke="rgb(204, 204, 204)" stroke-width="1px"></line><line x1="49.09600067138672" y1="215.89142826625283" x2="44.09600067138672" y2="215.89142826625283" style="visibility: inherit;" fill="rgb(0, 0, 0)" stroke="rgb(204, 204, 204)" stroke-width="1px"></line><line x1="49.09600067138672" y1="161.9185711996896" x2="44.09600067138672" y2="161.9185711996896" style="visibility: inherit;" fill="rgb(0, 0, 0)" stroke="rgb(204, 204, 204)" stroke-width="1px"></line><line x1="49.09600067138672" y1="107.94571413312644" x2="44.09600067138672" y2="107.94571413312644" style="visibility: inherit;" fill="rgb(0, 0, 0)" stroke="rgb(204, 204, 204)" stroke-width="1px"></line><line x1="49.09600067138672" y1="53.97285706656328" x2="44.09600067138672" y2="53.97285706656328" style="visibility: inherit;" fill="rgb(0, 0, 0)" stroke="rgb(204, 204, 204)" stroke-width="1px"></line><line x1="49.09600067138672" y1="0" x2="44.09600067138672" y2="0" style="visibility: inherit;" fill="rgb(0, 0, 0)" stroke="rgb(204, 204, 204)" stroke-width="1px"></line></g><g transform="translate(39.09600067138672, 0)"><text style="text-anchor: end; visibility: hidden; font-family: &quot;Helvetica Neue&quot;, sans-serif; font-size: 12px; font-weight: 200;" x="0" y="377.8099994659424" dx="0em" dy="0.3em" fill="rgb(50, 49, 63)" stroke="none" stroke-width="1px">0.2</text><text style="text-anchor: end; visibility: inherit; font-family: &quot;Helvetica Neue&quot;, sans-serif; font-size: 12px; font-weight: 200;" x="0" y="323.8371423993792" dx="0em" dy="0.3em" fill="rgb(50, 49, 63)" stroke="none" stroke-width="1px">0.25</text><text style="text-anchor: end; visibility: inherit; font-family: &quot;Helvetica Neue&quot;, sans-serif; font-size: 12px; font-weight: 200;" x="0" y="269.864285332816" dx="0em" dy="0.3em" fill="rgb(50, 49, 63)" stroke="none" stroke-width="1px">0.3</text><text style="text-anchor: end; visibility: inherit; font-family: &quot;Helvetica Neue&quot;, sans-serif; font-size: 12px; font-weight: 200;" x="0" y="215.89142826625283" dx="0em" dy="0.3em" fill="rgb(50, 49, 63)" stroke="none" stroke-width="1px">0.35</text><text style="text-anchor: end; visibility: inherit; font-family: &quot;Helvetica Neue&quot;, sans-serif; font-size: 12px; font-weight: 200;" x="0" y="161.9185711996896" dx="0em" dy="0.3em" fill="rgb(50, 49, 63)" stroke="none" stroke-width="1px">0.4</text><text style="text-anchor: end; visibility: inherit; font-family: &quot;Helvetica Neue&quot;, sans-serif; font-size: 12px; font-weight: 200;" x="0" y="107.94571413312644" dx="0em" dy="0.3em" fill="rgb(50, 49, 63)" stroke="none" stroke-width="1px">0.45</text><text style="text-anchor: end; visibility: inherit; font-family: &quot;Helvetica Neue&quot;, sans-serif; font-size: 12px; font-weight: 200;" x="0" y="53.97285706656328" dx="0em" dy="0.3em" fill="rgb(50, 49, 63)" stroke="none" stroke-width="1px">0.5</text><text style="text-anchor: end; visibility: hidden; font-family: &quot;Helvetica Neue&quot;, sans-serif; font-size: 12px; font-weight: 200;" x="0" y="0" dx="0em" dy="0.3em" fill="rgb(50, 49, 63)" stroke="none" stroke-width="1px">0.55</text></g><line x1="49.09600067138672" y1="0" x2="49.09600067138672" y2="377.8099994659424" fill="rgb(0, 0, 0)" stroke="rgb(204, 204, 204)" stroke-width="1px"></line></g></g><g transform="translate(49, 0)" clip-path="url(#clip_0)"><clipPath id="clip_0"><rect width="1516" height="377"></rect></clipPath><g><g><g><line x1="0" y1="0" x2="0" y2="377.8099994659424" fill="rgb(0, 0, 0)" stroke="rgb(60, 60, 60)" stroke-width="1px" opacity="0.25"></line><line x1="137.8185453935103" y1="0" x2="137.8185453935103" y2="377.8099994659424" fill="rgb(0, 0, 0)" stroke="rgb(60, 60, 60)" stroke-width="1px" opacity="0.25"></line><line x1="275.6370907870206" y1="0" x2="275.6370907870206" y2="377.8099994659424" fill="rgb(0, 0, 0)" stroke="rgb(60, 60, 60)" stroke-width="1px" opacity="0.25"></line><line x1="413.45563618053086" y1="0" x2="413.45563618053086" y2="377.8099994659424" fill="rgb(0, 0, 0)" stroke="rgb(60, 60, 60)" stroke-width="1px" opacity="0.25"></line><line x1="551.2741815740412" y1="0" x2="551.2741815740412" y2="377.8099994659424" fill="rgb(0, 0, 0)" stroke="rgb(60, 60, 60)" stroke-width="1px" opacity="0.25"></line><line x1="689.0927269675515" y1="0" x2="689.0927269675515" y2="377.8099994659424" fill="rgb(0, 0, 0)" stroke="rgb(60, 60, 60)" stroke-width="1px" opacity="0.25"></line><line x1="826.9112723610617" y1="0" x2="826.9112723610617" y2="377.8099994659424" fill="rgb(0, 0, 0)" stroke="rgb(60, 60, 60)" stroke-width="1px" opacity="0.25"></line><line x1="964.729817754572" y1="0" x2="964.729817754572" y2="377.8099994659424" fill="rgb(0, 0, 0)" stroke="rgb(60, 60, 60)" stroke-width="1px" opacity="0.25"></line><line x1="1102.5483631480824" y1="0" x2="1102.5483631480824" y2="377.8099994659424" fill="rgb(0, 0, 0)" stroke="rgb(60, 60, 60)" stroke-width="1px" opacity="0.25"></line><line x1="1240.3669085415927" y1="0" x2="1240.3669085415927" y2="377.8099994659424" fill="rgb(0, 0, 0)" stroke="rgb(60, 60, 60)" stroke-width="1px" opacity="0.25"></line><line x1="1378.185453935103" y1="0" x2="1378.185453935103" y2="377.8099994659424" fill="rgb(0, 0, 0)" stroke="rgb(60, 60, 60)" stroke-width="1px" opacity="0.25"></line><line x1="1516.0039993286132" y1="0" x2="1516.0039993286132" y2="377.8099994659424" fill="rgb(0, 0, 0)" stroke="rgb(60, 60, 60)" stroke-width="1px" opacity="0.25"></line></g><g><line x1="0" y1="377.8099994659424" x2="1516.0039993286132" y2="377.8099994659424" fill="rgb(0, 0, 0)" stroke="rgb(60, 60, 60)" stroke-width="1px" opacity="0.25"></line><line x1="0" y1="323.8371423993792" x2="1516.0039993286132" y2="323.8371423993792" fill="rgb(0, 0, 0)" stroke="rgb(60, 60, 60)" stroke-width="1px" opacity="0.25"></line><line x1="0" y1="269.864285332816" x2="1516.0039993286132" y2="269.864285332816" fill="rgb(0, 0, 0)" stroke="rgb(60, 60, 60)" stroke-width="1px" opacity="0.25"></line><line x1="0" y1="215.89142826625283" x2="1516.0039993286132" y2="215.89142826625283" fill="rgb(0, 0, 0)" stroke="rgb(60, 60, 60)" stroke-width="1px" opacity="0.25"></line><line x1="0" y1="161.9185711996896" x2="1516.0039993286132" y2="161.9185711996896" fill="rgb(0, 0, 0)" stroke="rgb(60, 60, 60)" stroke-width="1px" opacity="0.25"></line><line x1="0" y1="107.94571413312644" x2="1516.0039993286132" y2="107.94571413312644" fill="rgb(0, 0, 0)" stroke="rgb(60, 60, 60)" stroke-width="1px" opacity="0.25"></line><line x1="0" y1="53.97285706656328" x2="1516.0039993286132" y2="53.97285706656328" fill="rgb(0, 0, 0)" stroke="rgb(60, 60, 60)" stroke-width="1px" opacity="0.25"></line><line x1="0" y1="0" x2="1516.0039993286132" y2="0" fill="rgb(0, 0, 0)" stroke="rgb(60, 60, 60)" stroke-width="1px" opacity="0.25"></line></g></g></g><g><g><line x1="0" y1="593.7014277321952" x2="1516.0039993286132" y2="593.7014277321952" fill="rgb(0, 0, 0)" stroke="rgb(153, 153, 153)" stroke-width="1.5px"></line></g></g><g><g><line x1="137.8185453935103" y1="0" x2="137.8185453935103" y2="377.8099994659424" fill="rgb(0, 0, 0)" stroke="rgb(153, 153, 153)" stroke-width="1.5px"></line></g></g><g><g><g><g><g><path style="fill: none;" stroke="rgb(0, 119, 187)" stroke-width="2px" d="M174.6850062862743,-5.088878857963607L177.09683083066074,0.561676422513699L178.8195626480796,6.772647159058295L181.5759335559498,12.512444115312576L182.60957264640112,17.5044072190924L182.95411900988492,19.498596506992612L186.0550362812389,23.42783817469683L186.74412900820644,28.128489593843085L187.08867537169021,30.541397749363284L189.8450462795604,34.10633636104109L191.5677780969793,38.23844442493521L192.25687082394688,40.256103552341926L192.60141718743063,41.02395805614958L195.7023344587846,45.381810257197515L196.04688082226838,48.44317442019104L197.08051991271972,50.409214691457976L199.14779809362238,53.830029913488715L199.49234445710616,55.616084372745945L201.21507627452502,57.532252543852735L201.90416900149256,59.760264294380306L202.24871536497636,60.346872122991556L203.62690081891145,63.57990860592548L203.97144718239525,64.26474019637482L206.38327172678166,66.60620637402963L209.13964263465184,70.67490519542872L209.48418899813564,71.62218584807204L209.8287353616194,73.29819156038263L211.20692081555453,75.70127411122337L214.99693081387605,77.90467255521486L217.0642089947787,80.68640816276138L218.78694081219757,84.1343143437553L219.8205799026489,84.09806330121347L223.95513626445424,86.83765936210028L226.02241444535684,90.31762221080942L227.74514626277576,92.1175339195031L228.08969262625953,95.02892494809674L228.77878535322708,95.98889903632909L230.1569708071622,98.21782076704204L231.5351562610973,99.74275256405735L232.22424898806483,101.67869496283066L233.94698080548372,102.25401404936514L238.7706298942566,104.93287982427069L240.49336171167545,104.13832386720225L240.83790807515925,106.7065634744007L242.5606398925781,109.05966651494265L243.93882534651323,110.95781504346127L244.28337170999697,111.12577787306759L244.97246443696454,110.84613498771239L247.72883534483478,111.06628482864323L248.07338170831852,112.80633789001303L250.14065988922118,114.36551965086187L250.48520625270496,115.14518276202887L250.82975261618876,114.86484030866802L251.86339170664004,115.94313216862054L254.96430897799405,118.1079677818966L257.7206798858643,120.22331351400516L263.23342170160464,123.34853022042924L264.6116071555398,125.68626958579605L266.6788853364424,127.45385342546939L268.0570707903775,128.75206525718414L268.74616351734505,130.34448991815276L272.8807198791504,133.1581415643144L273.2252662426342,134.1719266276908L278.7380080583746,134.58955629173872L283.21711078366366,138.04918882136L283.5616571471474,139.3933635685528L284.25074987411494,141.00114125351092L286.31802805501763,141.61870287483472L289.4189453263716,142.5018933540689L290.10803805333916,143.652540587809L290.45258441682296,144.37185648854603L291.48622350727425,145.42226162353595L293.55350168817694,145.72623322041176L296.6544189595309,145.9225781016399L297.6880580499822,146.78920736142797L298.032604413466,148.33446619391688L301.13352168482,144.12039102239092L301.4780680483037,144.03529533057446L306.30171713707665,146.7847423272423L306.6462635005604,148.53032958036493L307.33535622752794,150.3949884612183L308.0244489544955,151.14946123960783L312.84809804326835,152.28428457822918L314.57082986068724,153.22550088957436L315.2599225876548,151.71857725497878L316.29356167810613,152.93740747374073L319.0499325859763,154.6669123321134L321.117210766879,157.2100322609021L321.80630349384654,157.33631472108888L322.83994258429783,157.68729493397223L324.9072207652005,159.02316259124984L326.6299525826194,158.60648287567767L326.97449894610315,159.44794999340203L330.07541621745713,160.9644713208473L330.7645089444247,162.08516411770316L332.14269439835977,163.2790865769982L332.48724076184357,163.25131458966447L334.20997257926246,164.12897369561674L335.58815803319754,163.74678308058913L335.93270439668134,165.08234936281002L337.6554362141002,166.07243889073234L338.3445289410678,166.45409122247872L338.6890753045516,166.3836926649304L339.3781680315191,166.8112046851139L340.0672607584866,168.27425367966867L340.4118071219704,168.00687081055344L342.1345389393893,168.22571640846496L342.4790853028731,169.6705898026013L344.89090984725954,169.01005371538724L345.5800025742271,169.71317238376756L347.6472807551297,171.5415046643125L348.33637348209726,170.76831408413574L350.0591052995161,170.01727310912653L351.78183711693504,170.3862069761818L352.4709298439026,171.4802968694529L356.6054862057079,173.07074555439067L359.0173107500943,173.36893306084679L359.3618571135781,175.7455552061359L360.0509498405456,175.98352968892073L360.3954962040294,174.73806170570182L360.74004256751317,175.2901405335513L361.084588930997,175.60119773132266L361.7736816579645,175.3416424447671L362.80732074841586,175.17733909699376L364.18550620235095,175.38649846252363L365.90823801976984,177.79823647067292L366.9418771102211,178.09628377893816L368.3200625641562,178.0093981084623L369.35370165460756,179.35491311534756L369.69824801809136,179.3389962498287L370.3873407450589,179.24303662486355L370.73188710854265,178.92095639884724L371.765526198994,179.90914432036115L372.1100725624778,180.0179579514977L373.1437116529291,180.13583818522164L373.4882580164129,180.03176562183697L375.2109898338318,181.09552811885007L375.5555361973156,179.99288178967169L377.967360741702,180.87608748951885L379.0009998321533,181.902604987266L380.3791852860884,181.87512175945304L381.41282437653973,180.8242656450337L382.10191710350733,181.49383220954883L382.7910098304748,181.9267516318318L384.16919528440997,182.55523960456287L385.54738073834505,183.01534470703598L386.58101982879634,182.99574957017236L386.92556619228014,183.96617839096433L387.2701125557639,184.04392770448723L387.6146589192477,183.7957297865627L389.6819371001503,184.26418539958382L391.749215281053,184.7810158117873L392.43830800802056,185.38943596075845L392.78285437150436,184.81897486160284L394.16103982543945,185.6071121162819L395.53922527937453,186.14834998569893L396.5728643698259,186.04004146479232L396.9174107333097,187.06829423338522L397.26195709679337,186.72227211254534L397.95104982376097,186.77279356579226L398.6401425507285,186.26049592025626L401.7410598220825,187.36576798389132L402.08560618556623,188.63390070670445L403.11924527601764,189.01340751551325L403.4637916395013,190.27711203128038L403.8083380029851,190.7980463886548L404.4974307299527,191.05019112384713L404.84197709343647,191.18832673416907L406.90925527433916,191.09784862751502L408.28744072827425,190.3489914765275L408.631987091758,190.6679947368023L409.3210798187256,188.51555654578783L410.0101725456931,185.3923279245046L411.0438116361444,186.30224380082424L411.3883579996282,188.60546541776873L411.732904363112,190.47223099322503L412.0774507265957,190.61437665537687L413.1110898170471,190.55772855790073L414.48927527098226,191.64037184433136L415.52291436143355,192.2851193985984L416.21200708840104,193.15115142654776L416.55655345188484,191.67708523304742L416.90109981536864,188.10198347901843L418.9683779962713,189.8138875985487L419.3129243597551,191.95265651187725L421.0356561771739,193.3418354534763L422.41384163110905,193.16287820118407L423.44748072156034,194.279713577341L424.8256661754954,193.8906259988841L426.2038516294306,193.89244150718883L426.8929443563982,191.10323082900422L428.615676173817,193.81416005655234L429.6493152642683,193.74733577677162L436.88478889742765,195.51899697048603L437.57388162439514,197.17202327022028L437.91842798787894,197.52805038954773L439.2966134418141,197.73922171608476L439.9857061687816,198.43057813942187L441.3638916227167,198.9132456528899L442.0529843496842,197.81342248807888L442.7420770766518,198.34403667929973L443.77571616710316,196.62725866280675L444.80935525755444,198.67936680364969L446.87663343845713,198.95676854353928L448.25481889239217,200.3081200402076L450.6666434367787,201.17028765258894L451.0111898002624,200.0285257114638L451.3557361637462,201.27646784705667L451.70028252723,202.31189650256735L453.42301434464883,201.44656275906644L454.11210707161644,201.88960281144367L455.1457461620677,202.5554584589923L455.4902925255515,202.70341273716747L455.83483888903527,202.73557839188032L456.17938525251907,203.16340236787892L458.9357561603893,202.42496550988477L459.28030252387305,204.50436608105858L460.3139416143244,203.59300412307812L462.7257661587108,204.77150746795505L463.7594052491621,205.67583933238774L466.86032252051615,206.4494857591658L467.54941524748364,206.36755009774197L467.89396161096744,206.44333826155764L468.2385079744512,206.7695937977275L469.2721470649026,207.05357103167998L469.61669342838627,206.89863812969332L470.9948788823214,206.8270008830462L472.7176106997403,207.18868267866122L473.0621570632241,206.58965917210784L474.44034251715914,205.81818174873462L474.78488888064294,206.01809416406482L475.12943524412674,207.4983575718154L475.47398160761054,208.33450262735886L476.5076206980618,208.18999068147136L476.85216706154563,208.65012764681535L477.1967134250294,209.78556941002412L478.23035251548066,206.07760475655857L478.57489887896446,206.85063744253486L481.3312697868347,207.32342614204933L482.7094552407698,207.3704029437391L483.39854796773733,208.0307360039407L484.08764069470493,208.37744500480548L484.4321870581886,208.9403220103744L486.84401160257505,209.850023808177L487.18855796605885,209.85183174299834L487.53310432954265,210.23180577931504L488.56674341999394,210.33414576131298L491.3231143278642,210.18031737648843L492.0122070548317,211.7965994256675L493.3903925087668,211.89060220301056L493.7349388722506,211.642531000723L494.76857796270195,211.4681193012814L495.45767068966956,211.35186522664998L497.86949523405593,210.89913144050547L501.6595052323775,212.1454288749147L502.348597959345,212.51422798321298L504.41587614024763,212.00509941387807L504.76042250373143,212.5134029331184L505.44951523069903,213.4163156611499L506.1386079576665,214.79745154127485L507.51679341160167,213.57280386776117L508.89497886553676,214.24926328823344L509.5840715925043,213.0688071134157L511.3068034099232,213.28241924538986L511.651349773407,213.7927443054989L511.9958961368907,214.21988691321593L514.752267044761,214.48777953281257L516.8195452256635,215.29416075411282L518.1977306795986,216.03881365220917L518.5422770430824,215.55585712561611L518.8868234065662,216.86660858623821L521.9877406779202,216.28602633921145L522.6768334048878,217.16555413611678L523.7104724953391,217.74999353963935L525.7777506762417,216.9473508609448L526.1222970397255,218.13998642165063L528.534121584112,218.42202752650542L529.2232143110796,218.91108960759044L536.114141580755,218.6222953606623L536.4586879442388,218.97031970357668L536.8032343077225,218.92129555060802L537.8368733981739,218.2431341894987L538.1814197616577,219.3608150349851L538.5259661251415,218.33603429739227L544.7278006678495,219.32142100064476L545.7614397583008,220.51632282590725L546.4505324852684,220.9951906129334L548.8623570296547,220.87559521846464L549.2069033931384,221.1123514438908L550.5850888470736,221.267672223127L551.2741815740412,221.4685452183398L551.9632743010087,221.22147795984455L553.6860061184276,221.33492393490033L554.3750988453951,222.3355064337413L555.0641915723627,223.0780230541872L556.4423770262978,223.7010875102987L559.8878406611356,223.29572219351763L562.6442115690057,222.73269132154053L562.9887579324895,222.2627428200887L563.3333042959733,223.52166817260854L564.0223970229409,223.36556073408804L565.0560361133922,223.28463572154865L566.0896752038435,222.9400622079846L566.778767930811,222.57707324241522L567.8124070212624,223.54250459053023L569.8796852021651,222.89424656197082L570.5687779291326,223.26318610887006L571.2578706561002,224.3550789594941L571.602417019584,225.4598915388297L572.6360561100353,225.39459723893435L573.3251488370028,225.71933142889895L574.3587879274542,225.19512646902433L577.1151588353243,224.98514419658895L579.5269833797107,226.534727154899L581.5942615606134,228.5487328549614L582.9724470145485,228.5146795364439L583.3169933780323,228.342094753844L583.6615397415161,228.24967481837058L584.0060861049999,227.9596368126979L586.0733642859025,227.7713561191581L587.1070033763539,228.61739810040706L589.5188279207403,228.58553972772202L590.2079206477079,228.69984149556586L591.2415597381591,228.17740212661084L591.5861061016428,229.22150068356544L592.6197451920942,230.2414286865957L594.6870233729969,230.28569498187247L595.3761160999644,230.21419959402255L596.4097551904158,229.50984177767518L597.4433942808671,229.2464702200286L597.7879406443509,230.3777568922138L598.1324870078346,229.82925655260246L598.4770333713184,230.51677737268838L598.8215797348022,230.6121161498693L600.8888579157049,230.79083318563266L605.0234142775101,230.93944731925498L607.0906924584128,231.32821164613466L608.8134242758317,230.68826454834453L610.1916097297668,230.95100999415976L612.6034342741533,230.79206261271338L613.2925270011208,231.33428438282354L615.0152588185397,231.64692946684426L615.3598051820234,232.46954595798815L616.3934442724748,232.89582839101197L616.7379906359586,232.9561952680483L617.4270833629262,232.62259815182992L617.7716297264099,233.0773119822076L618.8052688168613,233.26661323632416L624.6625569960854,233.47001354939925L625.0071033595692,234.54303442031673L625.3516497230529,234.13379623762856L627.0743815404718,234.2583922737532L628.1080206309231,234.3781626207857L629.4862060848583,234.36679375192867L629.8307524483421,233.751708704218L630.1752988118259,233.12884664215647L631.5534842657609,233.5980049119685L631.8980306292447,234.0483040280131L632.931669719696,233.9839506728471L634.309855173631,233.28498473545287L634.9989479005986,234.69124564891044L639.4780506258877,234.7110557119491L639.8225969893715,234.92314414574588L642.9235142607255,236.13440863659437L643.2680606242093,237.45203334318202L647.0580706225309,237.7694598256028L649.814441530401,237.6789529233283L650.1589878938848,237.86050877140957L651.1926269843361,237.19130634475746L651.8817197113036,237.3898902195432L652.2262660747874,237.38496601671326L654.9826369826577,239.04194903653791L655.3271833461414,239.20082980293628L655.6717297096252,239.23044071320356L657.0499151635603,239.97548833762818L657.7390078905278,239.1823120968091L658.4281006174954,239.58518394734483L661.1844715253657,240.34302209158503L662.9072033427844,240.9139113409808L663.2517497062682,240.67952793351037L664.2853887967195,241.05148705480852L666.697213341106,240.01915750329414L670.8317697029113,239.34441393711865L672.5545015203303,240.22086055801788L672.899047883814,241.16768372913592L673.5881406107816,241.10682194932818L673.9326869742653,241.44995337664915L675.999965155168,241.38719711166723L678.4117896995544,241.2440504074286L678.7563360630382,239.98247838271732L681.8572533343921,239.73132996003213L683.2354387883273,240.65758773258278L683.9245315152948,240.40983050452152L685.3027169692299,240.48246943182914L688.4036342405839,240.01270440265168L690.1263660580028,241.5438622236534L690.8154587849704,241.59173182673646L691.1600051484542,242.67808534877844L692.8827369658729,242.9494768788845L695.6391078737432,243.02247936821107L696.3282006007107,243.35061510408954L698.7400251450972,243.50117127080594L699.0845715085809,244.6209426540528L700.462756962516,245.18965453875578L702.185488779935,245.3020348120127L703.2191278703863,244.64021307352314L703.9082205973538,244.31188732725954L704.9418596878052,244.98839354045288L705.9754987782565,244.75816116829463L707.3536842321915,245.39775876841193L710.1100551400617,244.33493341372676L712.866426047932,244.66317165324642L713.5555187748996,245.5667551916679L714.2446115018671,245.38423646723055L715.2782505923184,244.41757896725122L715.6227969558022,245.5505258440488L717.6900751367048,245.77804347478786L718.0346215001886,246.20328919662091L720.7909924080589,245.6612301227562L721.8246314985101,245.9219193278695L722.169177861994,246.91414375357763L722.5137242254776,247.2783667602247L722.8582705889614,247.54117980605284L723.547363315929,247.82678973268668L724.5810024063803,247.75422738052484L726.9928269507668,248.34423957479171L727.3373733142506,248.80799918825747L729.0601051316694,249.65101152880698L729.749197858637,249.54055122870352L730.0937442221207,248.8903964321801L730.4382905856045,249.45336887470492L733.5392078569586,248.3491623485497L734.9173933108937,248.82993334705282L735.6064860378611,249.21991263864956L735.951032401345,249.38490129040343L736.6401251283124,249.0203328981833L738.3628569457314,249.5691630620689L738.7074033092151,248.9867025433343L739.3964960361827,249.07983849664606L739.7410423996665,249.55857975073158L740.0855887631502,249.8452325691158L741.1192278536016,250.24281548034259L741.8083205805691,249.38946563165854L742.4974133075367,249.85871511986193L746.631969669342,250.44315490125473L749.7328869406961,250.6762812533901L751.8001651215986,251.97019686899728L752.1447114850824,251.45973304917544L754.211989665985,250.3862438657576L754.5565360294688,250.85969613798753L754.9010823929526,251.28863693016407L757.6574533008228,252.18523872533012L760.0692778452092,252.24511009825142L762.8256487530795,252.67697247218484L763.1701951165633,253.0134402373469L764.2038342070147,252.30486196069927L766.615658751401,252.27775205038972L767.3047514783685,252.81587096236922L768.6829369323037,252.4700240995325L772.1284005671414,251.91743128888646L772.4729469306252,252.37384279076502L773.5065860210765,251.70643731653013L775.2293178384954,252.0662046597647L776.6075032924306,252.8232986930771L781.0866060177196,253.00738868399492L781.775698744687,253.9487765591988L782.1202451081708,254.55355196571344L784.1875232890735,253.55638434997138L784.5320696525573,253.12553678083495L784.8766160160411,251.88179258918456L785.5657087430087,253.78107957357844L786.2548014699763,252.88383237584327L790.3893578317815,254.02697571964367L793.4902751031356,255.32371194683057L794.8684605570705,256.01820090276885L796.5911923744895,256.0098856162074L796.9357387379732,256.44218130221975L798.6584705553922,256.16439141613336L800.7257487362948,256.7220646286744L801.0702950997786,256.54289552228454L803.1375732806812,257.0204436749141L804.5157587346163,257.2917366983319L805.2048514615839,256.6585413460796L805.8939441885515,256.7116239047574L807.961222369454,256.4564368899843L808.9948614599055,257.03810788027755L809.6839541868729,257.20685368291237L810.7175932773243,257.24705474679826L811.7512323677755,257.3170502753243L812.7848714582269,256.9623230862137L813.4739641851945,256.68403945394545L815.885788729581,257.6431337601775L816.5748814565485,256.9856560229618L820.7094378183538,258.0333266580171L821.0539841818376,258.4231222474011L821.3985305453214,258.0286487207519L826.2221796340942,257.6979242968967L827.6003650880293,258.4421189080581L828.9785505419645,258.82520865265997L829.3230969054481,258.7671766527363L830.3567359958995,259.3004082670165L830.7012823593833,260.45622247888423L831.7349214498345,260.31056725720475L832.4240141768021,260.00396549741913L833.1131069037697,259.92073617799724L834.8358387211886,259.3215738490676L835.86947781164,259.7542515191047L836.5585705386073,260.0889179344522L837.5922096290587,260.69205279539165L838.6258487195101,260.6109868759737L839.6594878099614,259.6099254104786L840.348580536929,260.31817056656223L841.3822196273804,260.9687217485406L842.4158587178316,260.138690301631L842.7604050813154,259.86977565368795L847.9286005335721,260.59466797644654L850.3404250779585,260.622121105614L852.0631568953773,261.06526163225294L852.4077032588611,262.2956381697951L852.752249622345,262.9215253009044L853.4413423493125,261.9134116978976L853.7858887127963,263.1207754185563L854.4749814397637,264.04858734363427L855.1640741667313,264.2777676739013L856.1977132571827,263.8679556183049L856.5422596206664,263.2042272742865L857.9204450746016,263.9915955997321L859.6431768920204,264.46956275984485L860.332269618988,263.1866111189519L862.7440941633744,263.6842739169731L863.433186890342,262.75495584626873L863.7777332538258,263.4873437534776L864.8113723442771,262.26230937385446L865.5004650712447,261.9848280436276L866.8786505251796,262.79248256596924L867.912289615631,264.4053916880483L868.6013823425986,263.9966459609552L869.2904750695661,263.0493132486793L869.6350214330499,263.81128543695394L872.7359387044039,263.3102561767231L873.0804850678877,263.23003111549656L873.4250314313715,263.8601753107807L874.8032168853065,263.6111720245969L875.8368559757579,264.3488733292478L876.8704950662092,263.5822371537644L877.215041429693,263.60047383397165L877.5595877931768,263.9284094031201L878.2486805201444,264.3041278548293L878.5932268836282,264.5050451346008L879.2823196105956,264.13121474331024L881.0050514280146,264.22044854208116L881.3495977914984,264.83851376743974L883.416875972401,264.3270623076213L883.7614223358848,264.22534805848215L884.1059686993684,264.4097919929678L885.4841541533036,265.0494157832061L886.1732468802712,264.3784278905688L886.8623396072387,264.916199629248L888.2405250611739,263.4615935043429L891.6859886960115,264.3725073271946L892.3750814229791,264.5805208070945L893.0641741499467,265.6670673363684L893.4087205134305,265.51651281289253L894.7869059673656,265.84326198968597L895.4759986943332,266.1325797157143L895.820545057817,266.75915433018855L896.1650914213008,267.69244362737345L898.5769159656871,267.6458778089615L899.9551014196222,267.23222893258765L900.9887405100736,266.93909122206503L904.778750508395,267.0089770467542L906.1569359623302,267.0435222338617L906.8460286892977,266.46112000435465L907.8796677797491,266.7792902173321L908.5687605067167,266.79597070743466L908.9133068702002,266.5812113417411L909.6023995971678,267.45927417473126L909.9469459606516,267.88450510510717L910.2914923241354,267.20531434292843L910.6360386876192,266.4541821597128L911.3251314145868,266.639355850956L912.0142241415543,266.81916302187255L912.3587705050381,266.68593713716473L913.7369559589733,266.4099684850993L914.0815023224569,266.68123463532504L914.7705950494245,267.4036551177013L915.8042341398759,267.6113102968206L917.5269659572948,267.3300553925547L921.6615223191,266.92488913087794L923.0397077730352,267.5489985183282L924.0733468634864,268.870610130567L926.4851714078728,268.53322752439715L927.5188104983242,269.23509306126397L929.5860886792269,269.35505949271885L929.9306350427107,269.6795507037058L930.6197277696783,268.49512913105144L931.6533668601295,269.3049875199331L932.6870059505809,269.41633697015374L933.0315523140647,269.43889313471004L933.3760986775485,269.64287518544336L936.4770159489024,270.5697542854988L936.8215623123862,270.92759670121035L937.16610867587,270.719777039968L937.5106550393538,270.7047731994688L938.1997477663214,270.2003349492007L939.9224795837401,269.80051760325625L942.3343041281266,270.46472927428L942.6788504916104,269.5913829888345L943.0233968550942,269.7316153176932L943.367943218578,269.78538592374366L946.1243141264482,270.7442309923793L949.2252313978021,271.43635493487494L950.9479632152211,271.40080716767295L953.7043341230913,272.1589784648331L954.048880486575,270.26452066736823L955.0825195770263,270.42553274952417L958.8725295753478,272.1700587051533L959.9061686657992,272.89523826694875L960.9398077562506,272.14214130952723L961.2843541197342,272.6130697411716L961.628900483218,272.30992090896825L962.3179932101856,273.1818415346665L965.0743641180558,273.66210442648986L965.7634568450234,273.6000044796193L966.4525495719909,273.59880101705795L967.1416422989585,272.65719973998387L970.5871059337962,273.17251864606123L973.3434768416665,273.2089828023915L973.6880232051501,272.36160611876255L975.4107550225691,272.59320063742234L977.4780332034717,272.79182687620084L980.234404111342,272.600057080433L982.3016822922445,272.60773144495676L982.6462286557284,271.838626765541L982.9907750192122,273.3478668846026L983.335321382696,274.0174222852747L984.0244141096634,274.55328006438685L985.7471459270824,274.1017674447143L992.2935268332741,275.1951006116903L992.9826195602417,275.2621003789216L994.3608050141767,275.5460612616879L994.7053513776605,276.14789338554993L995.3944441046281,276.83541856156796L997.117175922047,276.66939532545257L998.1508150124984,275.59060662373594L998.8399077394657,276.7487580433979L999.8735468299171,276.4280315856299L1000.2180931934009,276.4339965684779L1000.5626395568847,276.12359314002526L1004.0081031917224,276.11202310525374L1004.3526495552062,274.6525006201737L1005.0417422821738,275.6040875940339L1005.3862886456576,275.3334382163584L1006.0753813726252,274.80990446820806L1007.4535668265602,275.0047703081685L1008.1426595535278,275.2699950321985L1009.1762986439791,276.0146427358281L1009.8653913709467,275.56912935636035L1010.5544840979143,276.1635357808183L1011.2435768248816,276.14612877766035L1014.3444940962357,276.90894348927947L1015.7226795501709,277.4034094371979L1017.1008650041059,278.1190239078204L1017.7899577310735,277.0305192247574L1018.8235968215248,276.0987956231971L1019.8572359119762,276.82797727782327L1021.9245140928788,276.70932561023267L1022.2690604563626,277.4601508749305L1023.6472459102976,276.07960094246044L1024.680885000749,276.6918068757448L1025.7145240912005,276.89562795189744L1026.4036168181678,277.4293405104356L1028.1263486355867,277.29546453922666L1029.504534089522,277.5607255065891L1030.5381731799732,277.1459376683657L1030.8827195434571,277.7138825053995L1031.2272659069406,277.67479502230395L1031.5718122704245,277.45108866394537L1032.6054513608758,277.6877501463175L1033.983636814811,277.1847061883975L1036.0509149957136,278.6301791025819L1036.3954613591973,278.2392812553657L1037.4291004496488,278.5733080865461L1040.185471357519,279.50731064814556L1041.9082031749379,279.8347089209393L1042.5972959019055,280.23329336850475L1042.9418422653891,279.21769823253237L1043.9754813558404,279.3616544600304L1044.3200277193241,279.2443256686811L1045.0091204462917,279.5888870429884L1046.042759536743,280.27153885746134L1046.387305900227,279.2373384160102L1047.0763986271945,279.6661113618656L1049.143676808097,280.17710895402263L1050.1773158985484,279.67660540892734L1051.2109549889997,280.2548235142595L1051.5555013524834,280.1768486623895L1052.9336868064186,280.31572515820335L1055.0009649873214,280.2160919564531L1059.4800677126104,280.49992976131136L1060.8582531665456,280.58890585066973L1061.547345893513,280.1355959429108L1063.270077710932,280.4088584827774L1064.9928095283508,280.46208573176796L1066.3709949822858,279.5481629145828L1068.0937267997049,279.7245681486852L1069.4719122536399,280.79902131291084L1070.850097707575,280.7239914628663L1071.8837367980263,281.2610763670998L1077.051932250283,281.2473146496796L1080.4973958851208,281.3883150810412L1080.8419422486045,282.2437807808401L1081.1864886120882,281.90516413321444L1082.2201277025395,281.7242174084163L1082.5646740660234,282.0005609346868L1084.2874058834423,281.7311282254706L1086.3546840643448,281.84617204001165L1086.6992304278285,282.2305962414058L1087.0437767913124,282.20675771781697L1087.3883231547961,282.83203936308485L1087.73286951828,282.5220317995315L1088.0774158817637,282.66034278947006L1088.4219622452474,281.27295229280963L1091.1783331531176,281.29492334803734L1099.1028995132444,281.5754542893593L1099.4474458767284,281.73866420579134L1099.791992240212,282.5099923656836L1102.2038167845985,283.0969667343755L1105.99382678292,283.2879651355131L1106.6829195098876,283.6862936162794L1108.0611049638228,284.04154140825017L1110.817475871693,285.5617963166123L1111.1620222351767,284.5263188954006L1112.195661325628,284.48732827891223L1112.8847540525956,285.59979104298196L1113.2293004160795,285.3032268644812L1113.9183931430468,285.84091090815093L1119.775681322271,285.9301320262301L1120.4647740492387,286.72507498415905L1122.1875058666576,285.8217019871403L1123.221144957109,285.50171780472306L1124.2547840475602,285.5630879440916L1127.3557013189143,284.98222682877145L1127.700247682398,284.78157786314875L1129.7675258633005,285.0040727261657L1130.4566185902681,284.76315847845024L1130.8011649537518,285.7083605472152L1132.8684431346546,285.37430077582326L1133.902082225106,285.8458773647768L1134.2466285885896,284.9711160962338L1135.9693604060085,285.883861293803L1136.658453132976,285.47583086113167L1137.3475458599437,285.3104475796973L1138.381184950395,285.4601644904167L1138.7257313138787,285.46371381251333L1141.4821022217488,286.2321535280636L1143.204834039168,286.1160816420437L1143.8939267661353,286.3621709945305L1144.2384731296193,285.41612347213766L1144.583019493103,285.88341446610485L1145.961204947038,286.3128020297929L1148.3730294914244,286.73102885401624L1151.8184931262622,286.53822028839124L1154.5748640341324,287.36813695295785L1156.2975958515513,287.5159450829202L1160.4321522133566,287.7954386205902L1162.1548840307755,287.0391256645652L1162.8439767577431,287.1939361887757L1163.1885231212268,287.07465274466904L1164.222162211678,286.4990765563965L1167.6676258465159,287.83927596742035L1169.7349040274187,287.38415883149275L1171.1130894813537,287.6428898366312L1172.8358212987725,287.78278962649915L1173.5249140257401,287.85692398391825L1174.2140067527077,288.1695893351281L1174.9030994796753,288.62563064525006L1175.592192206643,289.0787143986872L1176.970377660578,289.3888087387321L1177.3149240240616,289.50280380416467L1178.348563114513,289.26607170000426L1178.6931094779968,289.39015827316365L1179.0376558414805,288.75230764431717L1180.4158412954157,289.7909081707292L1181.104934022383,289.84267195805023L1182.1385731128346,289.3603689767489L1182.4831194763183,289.92927871702335L1183.1722122032857,289.94140627486667L1183.5167585667696,290.3927749092927L1184.8949440207048,289.78227060480657L1185.5840367476724,290.465994716359L1185.928583111156,288.975528894071L1186.2731294746397,288.6334852808375L1188.3404076555423,289.0954974877542L1189.02950038251,290.42192081383905L1190.0631394729614,290.445596819055L1193.1640567443153,289.92910779483236L1194.1976958347666,289.98001106228276L1194.8867885617342,290.1870394516499L1195.5758812887018,290.60659298032033L1196.2649740156692,290.78923609739513L1196.9540667426368,290.51980401089713L1200.0549840139909,290.31757153914333L1201.4331694679258,290.9631984531097L1202.1222621948934,290.9634754579186L1203.1559012853447,290.53053894571957L1205.912272193215,290.9521574902061L1207.29045764715,290.9551908911624L1208.6686431010853,291.5582229218558L1210.7359212819879,290.0009532905791L1213.1477458263741,290.642590229005L1213.8368385533417,291.10050896362367L1215.5595703707606,291.4028237429072L1217.9713949151474,291.2828152253062L1219.0050340055984,291.5204688405913L1219.3495803690823,291.53633564689136L1221.0723121865012,291.4982050382758L1221.416858549985,291.1932958264325L1221.7614049134688,290.6064711117686L1222.4504976404364,291.3929485927622L1223.4841367308875,291.50859371806405L1225.2068685483066,291.9741905741955L1226.2405076387577,292.6504790842108L1226.5850540022416,292.2723899360272L1227.2741467292092,292.00779421627817L1229.3414249101118,291.7115793995599L1232.7868885449495,291.3627429597629L1235.198713089336,291.94557755888394L1236.2323521797873,293.2429904959284L1236.576898543271,292.9676412012667L1238.9887230876575,293.73349243937344L1239.3332694511412,293.2048593342614L1239.677815814625,292.5561320530004L1240.0223621781088,293.4057622140009L1241.7450939955277,293.5715622769999L1242.7787330859792,293.42910856710034L1250.7032994461058,293.98628371597204L1251.0478458095897,293.7144354525289L1252.081484900041,294.34154560581044L1252.7705776270086,294.99937929170517L1254.4933094444275,295.66070719604136L1255.5269485348786,295.37409032199815L1255.8714948983625,295.47528490137273L1256.56058762533,294.2537952510286L1256.9051339888138,294.5180787373862L1259.3169585332002,294.49124478490285L1260.0060512601679,294.50430360027974L1260.6951439871352,295.1386882313207L1263.7960612584893,295.57026394410514L1265.5187930759082,294.5557018309658L1265.863339439392,295.56273867595195L1267.9306176202947,294.2223029551817L1268.619710347262,295.12571983356094L1269.3088030742297,295.7483502024953L1269.9978958011973,295.57538025801296L1271.3760812551325,295.43318691762624L1272.4097203455838,295.6556894963795L1273.7879057995187,296.18461586853647L1276.8888230708728,295.21241759055147L1277.2333694343567,295.6028559002815L1277.5779157978404,295.65894673194475L1279.645193978743,296.6040510128433L1282.4015648866134,295.3937286000828L1283.7797503405484,296.00149717686446L1284.468843067516,295.51688735433436L1284.8133894309997,295.41904049413904L1285.1579357944836,295.34956175162847L1286.5361212484186,296.31472861786887L1288.2588530658375,295.9091206808522L1290.6706776102237,296.5129679861386L1292.048863064159,296.0824064227934L1293.4270485180941,296.1292372326017L1293.7715948815778,296.5608674664836L1294.8052339720293,297.1499903986304L1296.1834194259643,297.5432266854643L1296.872512152932,296.71914322484065L1298.9397903338345,297.0440843148126L1299.9734294242858,297.7432095081871L1300.6625221512534,297.27519530389384L1301.351614878221,296.9530157372855L1302.0407076051886,297.11448239357924L1303.0743466956396,297.4042814206782L1303.7634394226072,296.946721605004L1304.7970785130588,296.4582015503696L1306.1752639669937,297.2752232558999L1306.8643566939613,297.54847957552136L1308.931634874864,297.66703459797964L1310.6543666922828,297.6398036112733L1310.9989130557667,297.7921147558242L1312.3770985097017,297.65621162894877L1314.7889230540882,298.039775511923L1317.5452939619584,297.68548189557487L1318.5789330524096,297.9192754848308L1319.6125721428612,298.2010624847992L1319.9571185063448,297.910832453164L1320.9907575967961,297.30646131251046L1322.713489414215,297.60181194801294L1324.7807675951178,298.7465900343954L1325.1253139586015,298.9987713909178L1326.5034994125365,298.9619995890998L1327.192592139504,298.33820979261367L1329.2598703204067,297.8177668045623L1329.6044166838906,298.3408486616236L1330.293509410858,298.6603854901566L1331.6716948647932,298.91781226871615L1334.0835194091796,299.6441538533901L1336.1507975900822,298.99732426373646L1337.1844366805337,298.53167027903197L1339.2517148614363,299.29376014287715L1342.0080857693065,299.37097952202186L1343.0417248597578,299.1919772919503L1343.7308175867254,299.32612365764953L1344.075363950209,298.9340035970767L1345.798095767628,299.06009444052023L1346.1426421311116,299.0738918365821L1346.4871884945956,299.1887441425477L1347.1762812215632,299.5479091090799L1347.8653739485305,300.38927541982366L1348.2099203120144,300.42002035924185L1348.899013038982,299.91221220104313L1350.6217448564007,299.20496066801894L1354.0672084912387,299.8311769039879L1356.1344866721413,299.4790851057656L1356.823579399109,299.5450610603105L1357.1681257625926,299.3749346875957L1358.5463112165276,299.9264441508864L1358.8908575800115,300.92977406087005L1360.2690430339464,299.8478096630956L1360.958135760914,300.1364862129736L1363.0254139418166,299.6804276252564L1363.3699603053005,299.57403958282464L1364.4035993957518,299.6883531752765L1365.781784849687,300.5037562332237L1369.9163412114924,299.95547919794694L1371.639073028911,300.6819571545513L1371.983619392395,301.3020383684141L1372.6727121193624,300.77502932584304L1374.0508975732976,300.8556513515816L1375.7736293907165,301.4271012602971L1376.1181757542001,300.4946878625153L1378.185453935103,300.060099307593L1378.5300002985866,300.160220065415L1379.2190930255542,299.9030930689737L1383.3536493873596,300.47962381751165L1384.0427421143272,299.80153493507567L1384.7318348412946,301.04958770756696L1385.4209275682622,301.29340953496563L1386.1100202952298,301.7208970495058L1387.143659385681,301.540658029952L1388.1772984761324,301.5420224206195L1391.2782157474865,301.48658158238874L1393.345493928389,301.2123613097752L1394.0345866553566,301.403877487523L1397.824596653678,301.5001927435879L1398.1691430171618,300.80127140132595L1400.2364211980644,300.4517668158778L1402.6482457424509,300.51732627390766L1410.9173584660616,300.6407809269028L1411.2619048295453,300.0512441570365L1411.950997556513,300.64344560235554L1412.9846366469642,300.598580435842L1413.6737293739318,301.2660643372144L1420.909203007091,301.37460250167527L1421.9428420975426,301.2009572130983L1423.3210275514775,301.4615558428227L1423.6655739149612,301.1891617341523L1424.0101202784451,301.4319335883805L1424.6992130054127,301.2020145353896L1426.0773984593477,302.4170956994968L1427.1110375497992,302.21523800064006L1427.8001302767666,302.2632106343851L1428.4892230037342,302.4487537973387L1430.9010475481205,302.72966880531385L1431.934686638572,303.465805371585L1432.2792330020557,301.68136483471517L1433.312872092507,301.5944305913305L1434.3465111829585,301.85962391401665" fill="none"></path></g></g></g></g><g opacity="0.2"><g><g><g><path style="fill: none;" stroke="rgb(0, 119, 187)" stroke-width="2px" d="M174.34045992279053,-0.0979393518289271L174.6850062862743,2.964354335136875L177.09683083066074,9.037469181501024L178.8195626480796,16.089076776922354L181.5759335559498,21.12212486312677L182.60957264640112,24.99234421092308L182.95411900988492,22.48987860191272L186.0550362812389,29.321698504621054L186.74412900820644,35.179465163774864L187.08867537169021,34.16075950255566L189.8450462795604,39.45374385297566L191.5677780969793,44.436606224801835L192.25687082394688,43.28259215673967L192.60141718743063,42.175739792061165L195.7023344587846,51.91858849134644L196.04688082226838,53.03522063626275L197.08051991271972,53.35827508740795L199.14779809362238,58.9612527351029L199.49234445710616,58.29516605805043L201.21507627452502,60.40650479820761L201.90416900149256,63.10228191856345L202.24871536497636,61.22678386565434L203.62690081891145,68.42946332948611L203.97144718239525,65.29198758194212L206.38327172678166,70.11840564029296L209.13964263465184,76.777953427299L209.48418899813564,73.04310682700503L209.8287353616194,75.81220012881477L211.20692081555453,79.3058979374552L214.99693081387605,81.20977022118586L217.0642089947787,84.8590115740692L218.78694081219757,89.30617361523719L219.8205799026489,84.04368673740089L223.95513626445424,90.94705345342794L226.02241444535684,95.53756648387122L227.74514626277576,94.81740148254318L228.08969262625953,99.3960114909865L228.77878535322708,97.4288601686776L230.1569708071622,101.56120336311113L231.5351562610973,102.0301502595803L232.22424898806483,104.58260856099054L233.94698080548372,103.11699267916697L238.7706298942566,108.95117848662898L240.49336171167545,102.94648993159979L240.83790807515925,110.55892288519817L242.5606398925781,112.58932107575555L243.93882534651323,113.8050378362392L244.28337170999697,111.37772211747733L244.97246443696454,110.42667065967953L247.72883534483478,111.39650959003944L248.07338170831852,115.41641748206786L250.14065988922118,116.70429229213511L250.48520625270496,116.31467742877925L250.82975261618876,114.44432662862687L251.86339170664004,117.56056995854931L254.96430897799405,121.3552212018107L257.7206798858643,123.39633211216804L263.23342170160464,128.03635528006527L264.6116071555398,129.19287863384636L266.6788853364424,130.10522918497935L268.0570707903775,130.69938300475633L268.74616351734505,132.73312690960563L272.8807198791504,137.3786190335569L273.2252662426342,135.69260422275545L278.7380080583746,135.2160007878106L283.21711078366366,143.2386376157918L283.5616571471474,141.40962568934202L284.25074987411494,143.41280778094816L286.31802805501763,142.54504530682044L289.4189453263716,143.82667907292014L290.10803805333916,145.37851143841922L290.45258441682296,145.45083033965147L291.48622350727425,146.99786932602083L293.55350168817694,146.18219061572543L296.6544189595309,146.2170954234821L297.6880580499822,148.08915125111017L298.032604413466,150.6523544426501L301.13352168482,137.79927826510186L301.4780680483037,143.9076517928497L306.30171713707665,150.90891282224408L306.6462635005604,151.14871046004893L307.33535622752794,153.1919767824982L308.0244489544955,152.28117040719223L312.84809804326835,153.9865195861612L314.57082986068724,154.6373253565921L315.2599225876548,149.45819180308533L316.29356167810613,154.7656528018837L319.0499325859763,157.26116961967244L321.117210766879,161.02471215408525L321.80630349384654,157.5257384113691L322.83994258429783,158.21376525329723L324.9072207652005,161.02696407716633L326.6299525826194,157.9814633023194L326.97449894610315,160.71015066998868L330.07541621745713,163.2392533120152L330.7645089444247,163.76620331298693L332.14269439835977,165.0699702659406L332.48724076184357,163.2096566086639L334.20997257926246,165.44546235454516L335.58815803319754,163.17349715804778L335.93270439668134,167.08569878614128L337.6554362141002,167.55757318261587L338.3445289410678,167.0265697200982L338.6890753045516,166.27809482860806L339.3781680315191,167.4524727153891L340.0672607584866,170.46882717150095L340.4118071219704,167.6057965068806L342.1345389393893,168.55398480533245L342.4790853028731,171.83789989380583L344.89090984725954,168.01924958456613L345.5800025742271,170.76785038633807L347.6472807551297,174.28400308512983L348.33637348209726,169.6085282138705L350.0591052995161,168.89071164661274L351.78183711693504,170.9396077767647L352.4709298439026,173.12143170935957L356.6054862057079,175.45641858179735L359.0173107500943,173.81621432053092L359.3618571135781,179.31048842406938L360.0509498405456,176.340491413098L360.3954962040294,172.86985973087369L360.74004256751317,176.11825877532553L361.084588930997,176.0677835279797L361.7736816579645,174.95230951493366L362.80732074841586,174.93088407533372L364.18550620235095,175.7002375108184L365.90823801976984,181.4158434828969L366.9418771102211,178.54335474133606L368.3200625641562,177.87906960274842L369.35370165460756,181.37318562567538L369.69824801809136,179.31512095155045L370.3873407450589,179.09909718741585L370.73188710854265,178.43783605982279L371.765526198994,181.3914262026321L372.1100725624778,180.1811783982025L373.1437116529291,180.3126585358076L373.4882580164129,179.87565677675997L375.2109898338318,182.69117186436958L375.5555361973156,178.3389122959041L377.967360741702,182.20089603928966L379.0009998321533,183.44238123388675L380.3791852860884,181.83389691773374L381.41282437653973,179.24798147340468L382.10191710350733,182.49818205632138L382.7910098304748,182.57613076525632L384.16919528440997,183.49797156365958L385.54738073834505,183.70550236074558L386.58101982879634,182.96635686487704L386.92556619228014,185.42182162215238L387.2701125557639,184.16055167477154L387.6146589192477,183.42343290967597L389.6819371001503,184.96686881911558L391.749215281053,185.5562614300926L392.43830800802056,186.30206618421516L392.78285437150436,183.9632832128693L394.16103982543945,186.7893179983005L395.53922527937453,186.96020678982444L396.5728643698259,185.87757868343238L396.9174107333097,188.6106733862746L397.26195709679337,186.20323893128568L397.95104982376097,186.84857574566252L398.6401425507285,185.4920494519522L401.7410598220825,189.02367607934391L402.08560618556623,190.53609979092417L403.11924527601764,189.5826677287264L403.4637916395013,192.17266880493113L403.8083380029851,191.5794479247163L404.4974307299527,191.42840822663558L404.84197709343647,191.39553014965188L406.90925527433916,190.96213146753396L408.28744072827425,189.22570575004616L408.631987091758,191.14649962721464L409.3210798187256,185.2868992592662L410.0101725456931,180.70748499257962L411.0438116361444,187.66711761530385L411.3883579996282,192.06029784318545L411.732904363112,193.27237935640963L412.0774507265957,190.82759514860456L413.1110898170471,190.47275641168648L414.48927527098226,193.26433677397722L415.52291436143355,193.25224072999887L416.21200708840104,194.45019946847174L416.55655345188484,189.46598594279695L416.90109981536864,182.73933084797488L418.9683779962713,192.38174377784415L419.3129243597551,195.16080988187008L421.0356561771739,195.42560386587488L422.41384163110905,192.89444232274568L423.44748072156034,195.95496664157633L424.8256661754954,193.30699463119876L426.2038516294306,193.89516476964602L426.8929443563982,186.91941481172722L428.615676173817,197.8805538978745L429.6493152642683,193.64709935710064L436.88478889742765,198.1764887610576L437.57388162439514,199.65156271982173L437.91842798787894,198.06209106853896L439.2966134418141,198.0559787058903L439.9857061687816,199.46761277442755L441.3638916227167,199.63724692309202L442.0529843496842,196.16368774086231L442.7420770766518,199.13995796613102L443.77571616710316,194.05209163806728L444.80935525755444,201.75752901491407L446.87663343845713,199.37287115337372L448.25481889239217,202.33514728521L450.6666434367787,202.46353907116108L451.0111898002624,198.3158827997762L451.3557361637462,203.14838105044595L451.70028252723,203.86503948583345L453.42301434464883,200.14856214381516L454.11210707161644,202.5541628900095L455.1457461620677,203.55424193031527L455.4902925255515,202.92534415443026L455.83483888903527,202.7838268739495L456.17938525251907,203.80513833187683L458.9357561603893,201.3173102228935L459.28030252387305,207.62346693781925L460.3139416143244,202.22596118610758L462.7257661587108,206.53926248527043L463.7594052491621,207.03233712903685L466.86032252051615,207.6099553993328L467.54941524748364,206.24464660560625L467.89396161096744,206.5570205072812L468.2385079744512,207.25897710198225L469.2721470649026,207.47953688260876L469.61669342838627,206.66623877671339L470.9948788823214,206.71954501307542L472.7176106997403,207.73120537208385L473.0621570632241,205.69112391227782L474.44034251715914,204.66096561367482L474.78488888064294,206.31796278706014L475.12943524412674,209.71875268344135L475.47398160761054,209.5887202106741L476.5076206980618,207.97322276264003L476.85216706154563,209.34033309483144L477.1967134250294,211.48873205483721L478.23035251548066,200.51565777636023L478.57489887896446,208.01018647149942L481.3312697868347,208.03260919132097L482.7094552407698,207.44086814627371L483.39854796773733,209.021235594243L484.08764069470493,208.89750850610272L484.4321870581886,209.7846375187277L486.84401160257505,211.21457650488108L487.18855796605885,209.85454364523022L487.53310432954265,210.80176683379017L488.56674341999394,210.4876557343098L491.3231143278642,209.94957479925162L492.0122070548317,214.2210224994362L493.3903925087668,212.03160636902513L493.7349388722506,211.27042419729176L494.76857796270195,211.20650175211895L495.45767068966956,211.1774841147028L497.86949523405593,210.22003076128883L501.6595052323775,214.01487502652859L502.348597959345,213.06742664566053L504.41587614024763,211.24140655987563L504.76042250373143,213.27585821197897L505.44951523069903,214.7706847531971L506.1386079576665,216.86915536146242L507.51679341160167,211.73583235749066L508.89497886553676,215.26395241894187L509.5840715925043,211.298122851189L511.3068034099232,213.60283744335118L511.651349773407,214.55823189566243L511.9958961368907,214.86060082479145L514.752267044761,214.8896184622076L516.8195452256635,216.50373258606328L518.1977306795986,217.15579299935365L518.5422770430824,214.83142233572667L518.8868234065662,218.83273577717134L521.9877406779202,215.41515296867124L522.6768334048878,218.48484583147484L523.7104724953391,218.62665264492318L525.7777506762417,215.7433868429029L526.1222970397255,219.92893976270932L528.534121584112,218.84508918378754L529.2232143110796,219.6446827292181L536.114141580755,218.18910399027016L536.4586879442388,219.49235621794816L536.8032343077225,218.84775932115508L537.8368733981739,217.22589214783457L538.1814197616577,221.03733630321483L538.5259661251415,216.79886319100314L544.7278006678495,220.79950105552348L545.7614397583008,222.30867556380102L546.4505324852684,221.71349229347268L548.8623570296547,220.69620212676156L549.2069033931384,221.46748578203002L550.5850888470736,221.5006533919813L551.2741815740412,221.76985471115904L551.9632743010087,220.85087707210175L553.6860061184276,221.505092897484L554.3750988453951,223.83638018200284L555.0641915723627,224.19179798485607L556.4423770262978,224.63568419446585L559.8878406611356,222.68767421834607L562.6442115690057,221.88814501357498L562.9887579324895,221.55782006791088L563.3333042959733,225.41005620138836L564.0223970229409,223.13139957630722L565.0560361133922,223.16324820273957L566.0896752038435,222.4232019376386L566.778767930811,222.03258979406112L567.8124070212624,224.99065161270283L569.8796852021651,221.92185951913166L570.5687779291326,223.81659542921912L571.2578706561002,225.99291823543024L571.602417019584,227.117110407833L572.6360561100353,225.29665578909132L573.3251488370028,226.20643271384594L574.3587879274542,224.4088190292123L577.1151588353243,224.67017078793603L579.5269833797107,228.85910159236406L581.5942615606134,231.569741405055L582.9724470145485,228.46359955866768L583.3169933780323,228.08321757994423L583.6615397415161,228.1110449151604L584.0060861049999,227.5245798041888L586.0733642859025,227.48893507884833L587.1070033763539,229.88646107228055L589.5188279207403,228.53775216869454L590.2079206477079,228.87129414733158L591.2415597381591,227.39374307317829L591.5861061016428,230.78764851899737L592.6197451920942,231.771320691141L594.6870233729969,230.35209442478757L595.3761160999644,230.10695651224762L596.4097551904158,228.4533050531542L597.4433942808671,228.85141288355865L597.7879406443509,232.07468690049166L598.1324870078346,229.0065060431853L598.4770333713184,231.5480586028172L598.8215797348022,230.75512431564067L600.8888579157049,231.0589087392778L605.0234142775101,231.16236851968839L607.0906924584128,231.9113581364542L608.8134242758317,229.72834390165931L610.1916097297668,231.34512816288253L612.6034342741533,230.55364154054385L613.2925270011208,232.14761703798877L615.0152588185397,232.11589709287534L615.3598051820234,233.70347069470404L616.3934442724748,233.53525204054768L616.7379906359586,233.04674558360287L617.4270833629262,232.12220247750236L617.7716297264099,233.75938272777418L618.8052688168613,233.550565117499L624.6625569960854,233.775114019012L625.0071033595692,236.1525657266929L625.3516497230529,233.51993896359636L627.0743815404718,234.44528632794015L628.1080206309231,234.55781814133448L629.4862060848583,234.34974044864308L629.8307524483421,232.82908113265205L630.1752988118259,232.19455354906432L631.5534842657609,234.30174231668641L631.8980306292447,234.72375270208002L632.931669719696,233.8874206400982L634.309855173631,232.23653582936154L634.9989479005986,236.80063701909677L639.4780506258877,234.74077080650702L639.8225969893715,235.24127679644099L642.9235142607255,237.95130537286704L643.2680606242093,239.42847040306359L647.0580706225309,238.24559954923393L649.814441530401,237.54319256991667L650.1589878938848,238.1328425435315L651.1926269843361,236.1875027047793L651.8817197113036,237.68776603172174L652.2262660747874,237.3775797124684L654.9826369826577,241.52742356627488L655.3271833461414,239.43915095253382L655.6717297096252,239.2748570786045L657.0499151635603,241.0930597742651L657.7390078905278,237.99254773558047L658.4281006174954,240.18949172314828L661.1844715253657,241.47977930794528L662.9072033427844,241.7702452150743L663.2517497062682,240.32795282230472L664.2853887967195,241.60942573675578L666.697213341106,238.47066317602258L670.8317697029113,238.33229858785535L672.5545015203303,241.53553048936675L672.899047883814,242.58791848581293L673.5881406107816,241.01552927961663L673.9326869742653,241.96465051763062L675.999965155168,241.29306271419435L678.4117896995544,241.02933035107066L678.7563360630382,238.09012034565052L681.8572533343921,239.3546073260043L683.2354387883273,242.0469743914088L683.9245315152948,240.03819466242973L685.3027169692299,240.5914278227906L688.4036342405839,239.3080568588855L690.1263660580028,243.84059895515594L690.8154587849704,241.66353623136106L691.1600051484542,244.30761563184134L692.8827369658729,243.35656417404357L695.6391078737432,243.13198310220085L696.3282006007107,243.8428187079073L698.7400251450972,243.72700552088054L699.0845715085809,246.30059972892315L700.462756962516,246.04272236581025L702.185488779935,245.47060522189807L703.2191278703863,243.64748046578885L703.9082205973538,243.8193987078641L704.9418596878052,246.00315286024278L705.9754987782565,244.4128126100573L707.3536842321915,246.3571551685879L710.1100551400617,242.74069538169906L712.866426047932,245.15552901252585L713.5555187748996,246.92213049930007L714.2446115018671,245.11045838057458L715.2782505923184,242.96759271728232L715.6227969558022,247.24994615924524L717.6900751367048,246.11931992089654L718.0346215001886,246.84115777937055L720.7909924080589,244.848141511959L721.8246314985101,246.31295313553935L722.169177861994,248.40248039213984L722.5137242254776,247.82470127019525L722.8582705889614,247.935399374795L723.547363315929,248.25520462263748L724.5810024063803,247.64538385228215L726.9928269507668,249.22925786619197L727.3373733142506,249.50363860845619L729.0601051316694,250.91553003963122L729.749197858637,249.37486077854837L730.0937442221207,247.91516423739503L730.4382905856045,250.29782753849213L733.5392078569586,246.69285255931683L734.9173933108937,249.55108984480742L735.6064860378611,249.80488157604466L735.951032401345,249.63238426803426L736.6401251283124,248.4734803098532L738.3628569457314,250.3924083078973L738.7074033092151,248.11301176523241L739.3964960361827,249.2195424266136L739.7410423996665,250.27669163185976L740.0855887631502,250.2752117966922L741.1192278536016,250.83918984718275L741.8083205805691,248.10944085863244L742.4974133075367,250.5625893521672L746.631969669342,251.31981457334382L749.7328869406961,251.02597078159314L751.8001651215986,253.911070292408L752.1447114850824,250.69403731944257L754.211989665985,248.77601009063088L754.5565360294688,251.56987454633241L754.9010823929526,251.93204811842884L757.6574533008228,253.53014141807915L760.0692778452092,252.3349171576333L762.8256487530795,253.32476603308504L763.1701951165633,253.51814188509002L764.2038342070147,251.24199454572778L766.615658751401,252.23708718492543L767.3047514783685,253.6230493303384L768.6829369323037,251.95125380527747L772.1284005671414,251.08854207291733L772.4729469306252,253.05846004358295L773.5065860210765,250.70532910517767L775.2293178384954,252.60585567461646L776.6075032924306,253.95893974304573L781.0866060177196,253.28352367037164L781.775698744687,255.3608583720046L782.1202451081708,255.46071507548544L784.1875232890735,252.06063292635827L784.5320696525573,252.47926542713026L784.8766160160411,250.01617630170904L785.5657087430087,256.6300100501692L786.2548014699763,251.53796157924057L790.3893578317815,255.74169073534426L793.4902751031356,257.26881628761095L794.8684605570705,257.0599343366763L796.5911923744895,255.9974126863653L796.9357387379732,257.0906248312384L798.6584705553922,255.74770658700368L800.7257487362948,257.55857444748597L801.0702950997786,256.27414186269976L803.1375732806812,257.7367659038585L804.5157587346163,257.69867623345857L805.2048514615839,255.70874831770107L805.8939441885515,256.7912477427742L807.961222369454,256.0736563678246L808.9948614599055,257.91061436571755L809.6839541868729,257.45997238686454L810.7175932773243,257.3073563426271L811.7512323677755,257.4220435681133L812.7848714582269,256.43023230254806L813.4739641851945,256.26661400554303L815.885788729581,259.08177521952564L816.5748814565485,255.99943941713826L820.7094378183538,259.60483261060006L821.0539841818376,259.0078156314771L821.3985305453214,257.4369384307781L826.2221796340942,257.2018376611138L827.6003650880293,259.55841082480015L828.9785505419645,259.3998432695627L829.3230969054481,258.6801286528509L830.3567359958995,260.10025568843673L830.7012823593833,262.1899437966859L831.7349214498345,260.0920844246854L832.4240141768021,259.54406285774076L833.1131069037697,259.79589219886446L834.8358387211886,258.4228303556731L835.86947781164,260.40326802416035L836.5585705386073,260.5909175574734L837.5922096290587,261.5967550868008L838.6258487195101,260.48938799684663L839.6594878099614,258.108333212236L840.348580536929,261.3805383006878L841.3822196273804,261.94454852150807L842.4158587178316,258.8936431312666L842.7604050813154,259.4664036817734L847.9286005335721,261.6820064605844L850.3404250779585,260.6633007993652L852.0631568953773,261.7299724222113L852.4077032588611,264.14120297610833L852.752249622345,263.8603559975685L853.4413423493125,260.4012412933874L853.7858887127963,264.93182099954436L854.4749814397637,265.4403052312513L855.1640741667313,264.6215381693018L856.1977132571827,263.25323753491045L856.5422596206664,262.2086347582588L857.9204450746016,265.17264808790054L859.6431768920204,265.18651350001403L860.332269618988,261.2621836576124L862.7440941633744,264.430768114005L863.433186890342,261.36097874021215L863.7777332538258,264.5859256142911L864.8113723442771,260.42475780441976L865.5004650712447,261.56860604828734L866.8786505251796,264.00396434948163L867.912289615631,266.82475537116693L868.6013823425986,263.3835273703155L869.2904750695661,261.6283141802656L869.6350214330499,264.9542437193659L872.7359387044039,262.55871228637693L873.0804850678877,263.1096935236567L873.4250314313715,264.80539160370677L874.8032168853065,263.2376670953213L875.8368559757579,265.45542528622417L876.8704950662092,262.4322828905394L877.215041429693,263.62782885428254L877.5595877931768,264.4203127568428L878.2486805201444,264.86770553239313L878.5932268836282,264.8064210542581L879.2823196105956,263.57046915637454L881.0050514280146,264.3542992402376L881.3495977914984,265.7656116054775L883.416875972401,263.5598851178935L883.7614223358848,264.0727766847734L884.1059686993684,264.6864578946963L885.4841541533036,266.0088514685634L886.1732468802712,263.37194605161284L886.8623396072387,265.7228572372668L888.2405250611739,261.2796843169853L891.6859886960115,265.7388780614722L892.3750814229791,264.8925410269444L893.0641741499467,267.29688713027934L893.4087205134305,265.2906810276786L894.7869059673656,266.3333857548762L895.4759986943332,266.5665563047567L895.820545057817,267.6990162519L896.1650914213008,269.09237757315077L898.5769159656871,267.57602908134356L899.9551014196222,266.6117556180269L900.9887405100736,266.4993846562812L904.778750508395,267.1138057837879L906.1569359623302,267.09534001452306L906.8460286892977,265.58751666009414L907.8796677797491,267.25654553679834L908.5687605067167,266.82099144258854L908.9133068702002,266.2590722932007L909.6023995971678,268.7763684242164L909.9469459606516,268.52235150067105L910.2914923241354,266.1865281996603L910.6360386876192,265.3274838848894L911.3251314145868,266.9171163878208L912.0142241415543,267.0888737782474L912.3587705050381,266.4860983101029L913.7369559589733,265.9960155070013L914.0815023224569,267.0881338606636L914.7705950494245,268.4872858412657L915.8042341398759,267.9227930654995L917.5269659572948,266.9081730361559L921.6615223191,266.3171397383627L923.0397077730352,268.48516259950355L924.0733468634864,270.85302754892507L926.4851714078728,268.0271536151425L927.5188104983242,270.2878913665642L929.5860886792269,269.5350091399011L929.9306350427107,270.16628752018613L930.6197277696783,266.7184967720699L931.6533668601295,270.51977510325554L932.6870059505809,269.5833611454848L933.0315523140647,269.4727273815445L933.3760986775485,269.9488482615434L936.4770159489024,271.96007293558193L936.8215623123862,271.46436032477766L937.16610867587,270.4080475481045L937.5106550393538,270.68226743872003L938.1997477663214,269.4436775737986L939.9224795837401,269.20079158433975L942.3343041281266,271.46104678081554L942.6788504916104,268.2813635606662L943.0233968550942,269.94196381098124L943.367943218578,269.86604183281923L946.1243141264482,272.18249859533273L949.2252313978021,272.4745408486185L950.9479632152211,271.3474855168698L953.7043341230913,273.2962354105734L954.048880486575,267.4228339711709L955.0825195770263,270.6670508727579L958.8725295753478,274.7868476385969L959.9061686657992,273.983007609642L960.9398077562506,271.0124958733949L961.2843541197342,273.31946238863816L961.628900483218,271.85519766066324L962.3179932101856,274.4897224732138L965.0743641180558,274.38249876422486L965.7634568450234,273.5068545593134L966.4525495719909,273.59699582321593L967.1416422989585,271.24479782437277L970.5871059337962,273.94549700517723L973.3434768416665,273.26367903688697L973.6880232051501,271.0905410933191L975.4107550225691,272.940592415412L977.4780332034717,273.0897662343684L980.234404111342,272.31240238678106L982.3016822922445,272.6192429917425L982.6462286557284,270.6849697464173L982.9907750192122,275.61172706319496L983.335321382696,275.02175538628285L984.0244141096634,275.35706673305504L985.7471459270824,273.4244985152055L992.2935268332741,276.83510036215426L992.9826195602417,275.36260002976854L994.3608050141767,275.97200258583734L994.7053513776605,277.05064157134296L995.3944441046281,277.8667063255951L997.117175922047,276.42036047127954L998.1508150124984,273.97242357116096L998.8399077394657,278.48598517289093L999.8735468299171,275.94694189897797L1000.2180931934009,276.4429440427498L1000.5626395568847,275.6579879973462L1004.0081031917224,276.09466805309654L1004.3526495552062,272.4632168925537L1005.0417422821738,277.0314680548241L1005.3862886456576,274.9274641498452L1006.0753813726252,274.0246038459825L1007.4535668265602,275.29706906810924L1008.1426595535278,275.6678321182435L1009.1762986439791,277.1316142912725L1009.8653913709467,274.9008592871588L1010.5544840979143,277.0551454175051L1011.2435768248816,276.1200182729235L1014.3444940962357,278.05316555670817L1015.7226795501709,278.1451083590755L1017.1008650041059,279.19244561375416L1017.7899577310735,275.397762200163L1018.8235968215248,274.7012102208566L1019.8572359119762,277.9217497597625L1021.9245140928788,276.5313481088469L1022.2690604563626,278.58638877197717L1023.6472459102976,274.00877604375546L1024.680885000749,277.6101157756714L1025.7145240912005,277.20135956612637L1026.4036168181678,278.22990934824287L1028.1263486355867,277.0946505824131L1029.504534089522,277.9586169576327L1030.5381731799732,276.52375591103066L1030.8827195434571,278.5657997609502L1031.2272659069406,277.61616379766053L1031.5718122704245,277.11552912640764L1032.6054513608758,278.0427423698758L1033.983636814811,276.4301402515174L1036.0509149957136,280.7983884738585L1036.3954613591973,277.65293448454156L1037.4291004496488,279.0743483333166L1040.185471357519,280.90831449054474L1041.9082031749379,280.32580633012986L1042.5972959019055,280.831170039853L1042.9418422653891,277.69430552857386L1043.9754813558404,279.57758880127756L1044.3200277193241,279.06833248165714L1045.0091204462917,280.1057291044493L1046.042759536743,281.29551657917085L1046.387305900227,277.6860377538334L1047.0763986271945,280.30927078064883L1049.143676808097,280.94360534225814L1050.1773158985484,278.9258500912845L1051.2109549889997,281.1221506722577L1051.5555013524834,280.05988638458456L1052.9336868064186,280.52403990192397L1055.0009649873214,280.0666421538278L1059.4800677126104,280.9256864685987L1060.8582531665456,280.7223699847073L1061.547345893513,279.45563108127243L1063.270077710932,280.81875229257736L1064.9928095283508,280.5419266052537L1066.3709949822858,278.1772786888052L1068.0937267997049,279.9891759998388L1069.4719122536399,282.4107010592493L1070.850097707575,280.61144668779946L1071.8837367980263,282.06670372345013L1077.051932250283,281.22667207354937L1080.4973958851208,281.5998157280836L1080.8419422486045,283.52697933053855L1081.1864886120882,281.397239161776L1082.2201277025395,281.4527973212191L1082.5646740660234,282.41507622409256L1084.2874058834423,281.3269791616464L1086.3546840643448,282.0187377618232L1086.6992304278285,282.80723254349704L1087.0437767913124,282.17099993243363L1087.3883231547961,283.76996183098663L1087.73286951828,282.0570204542015L1088.0774158817637,282.867809274378L1088.4219622452474,279.191866547819L1091.1783331531176,281.32787993087885L1099.1028995132444,281.99625070134215L1099.4474458767284,281.9834790804395L1099.791992240212,283.66698460552203L1102.2038167845985,283.9774282874132L1105.99382678292,283.57446273721956L1106.6829195098876,284.2837863374287L1108.0611049638228,284.5744130962064L1110.817475871693,287.8421786791555L1111.1620222351767,282.97310276358314L1112.195661325628,284.4288423541797L1112.8847540525956,287.26848518908656L1113.2293004160795,284.85838059673006L1113.9183931430468,286.6474369736556L1119.775681322271,286.06396370334886L1120.4647740492387,287.9174894210526L1122.1875058666576,284.46664249161205L1123.221144957109,285.02174153109723L1124.2547840475602,285.6551431531444L1127.3557013189143,284.11093515579125L1127.700247682398,284.4806044147147L1129.7675258633005,285.3378150206911L1130.4566185902681,284.40178710687707L1130.8011649537518,287.12616365036257L1132.8684431346546,284.8732111187354L1133.902082225106,286.55324224820714L1134.2466285885896,283.65897419341934L1135.9693604060085,287.2529790901569L1136.658453132976,284.86378521212464L1137.3475458599437,285.0623726575458L1138.381184950395,285.6847398564957L1138.7257313138787,285.4690377956583L1141.4821022217488,287.384813101389L1143.204834039168,285.941973813014L1143.8939267661353,286.7313050232608L1144.2384731296193,283.9970521885483L1144.583019493103,286.58435095705573L1145.961204947038,286.9568833753251L1148.3730294914244,287.35836909035123L1151.8184931262622,286.2490074399538L1154.5748640341324,288.61301194980774L1156.2975958515513,287.73765727786383L1160.4321522133566,288.2146789270952L1162.1548840307755,285.9046562305276L1162.8439767577431,287.4261519750916L1163.1885231212268,286.8957275785091L1164.222162211678,285.6357122739877L1167.6676258465159,289.8495750839562L1169.7349040274187,286.7014831276014L1171.1130894813537,288.0309863443388L1172.8358212987725,287.9926393113011L1173.5249140257401,287.96812552004707L1174.2140067527077,288.6385873619428L1174.9030994796753,289.3096926104331L1175.592192206643,289.7583400288429L1176.970377660578,289.85395024879944L1177.3149240240616,289.67379640231337L1178.348563114513,288.9109735437638L1178.6931094779968,289.5762881329028L1179.0376558414805,287.7955317010475L1180.4158412954157,291.34880896034724L1181.104934022383,289.9203176390317L1182.1385731128346,288.6369145047969L1182.4831194763183,290.7826433274351L1183.1722122032857,289.9595976116316L1183.5167585667696,291.0698278609317L1184.8949440207048,288.8665141480774L1185.5840367476724,291.49158088368745L1185.928583111156,286.73983016063914L1186.2731294746397,288.1204198609873L1188.3404076555423,289.7885157981293L1189.02950038251,292.4115558029664L1190.0631394729614,290.48111082687905L1193.1640567443153,289.15437425849836L1194.1976958347666,290.0563659634584L1194.8867885617342,290.4975820357006L1195.5758812887018,291.2359232733259L1196.2649740156692,291.0632007730074L1196.9540667426368,290.11565588115013L1200.0549840139909,290.01422283151254L1201.4331694679258,291.9316388240594L1202.1222621948934,290.96389096513195L1203.1559012853447,289.88113417742096L1205.912272193215,291.5845853069359L1207.29045764715,290.95974099259683L1208.6686431010853,292.462770967896L1210.7359212819879,287.665048843664L1213.1477458263741,291.605045636644L1213.8368385533417,291.7873870655516L1215.5595703707606,291.85629591183255L1217.9713949151474,291.1028024489046L1219.0050340055984,291.876949263519L1219.3495803690823,291.5601358563414L1221.0723121865012,291.4410091253525L1221.416858549985,290.73593200866765L1221.7614049134688,289.7262340397727L1222.4504976404364,292.5726648142525L1223.4841367308875,291.68206140601677L1225.2068685483066,292.67258585839284L1226.2405076387577,293.6649118492337L1226.5850540022416,291.70525621375185L1227.2741467292092,291.6109006366548L1229.3414249101118,291.2672571744826L1232.7868885449495,290.8394883000674L1235.198713089336,292.81982945756545L1236.2323521797873,295.18910990149504L1236.576898543271,292.55461725927415L1238.9887230876575,294.8822692965336L1239.3332694511412,292.41190967659344L1239.677815814625,291.58304113110887L1240.0223621781088,294.6802074555016L1241.7450939955277,293.82026237149825L1242.7787330859792,293.215428002251L1250.7032994461058,294.8220464392797L1251.0478458095897,293.3066630573643L1252.081484900041,295.28221083573266L1252.7705776270086,295.9861298205472L1254.4933094444275,296.65269905254564L1255.5269485348786,294.94416501093343L1255.8714948983625,295.62707677043454L1256.56058762533,292.4215607755123L1256.9051339888138,294.91450396692267L1259.3169585332002,294.45099385617783L1260.0060512601679,294.52389182334525L1260.6951439871352,296.0902651778821L1263.7960612584893,296.2176275132818L1265.5187930759082,293.03385866125683L1265.863339439392,297.07329394343117L1267.9306176202947,292.2116493740263L1268.619710347262,296.4808451511298L1269.3088030742297,296.6822957558969L1269.9978958011973,295.3159253412893L1271.3760812551325,295.2198969070463L1272.4097203455838,295.9894433645094L1273.7879057995187,296.9780054267719L1276.8888230708728,293.75412017357405L1277.2333694343567,296.1885133648765L1277.5779157978404,295.7430829794397L1279.645193978743,298.02170743419106L1282.4015648866134,293.57824498094203L1283.7797503405484,296.91315004203693L1284.468843067516,294.7899726205392L1284.8133894309997,295.2722702038462L1285.1579357944836,295.24534363786245L1286.5361212484186,297.76247891722954L1288.2588530658375,295.30070877532717L1290.6706776102237,297.4187389440682L1292.048863064159,295.43656407777553L1293.4270485180941,296.19948344731426L1293.7715948815778,297.2083128173065L1294.8052339720293,298.0336747968505L1296.1834194259643,298.13308111571513L1296.872512152932,295.4830180339051L1298.9397903338345,297.5314959497706L1299.9734294242858,298.7918972982487L1300.6625221512534,296.5731739974539L1301.351614878221,296.4697463873731L1302.0407076051886,297.3566823780197L1303.0743466956396,297.83897996132663L1303.7634394226072,296.2603818814925L1304.7970785130588,295.72542146841806L1306.1752639669937,298.5007558141954L1306.8643566939613,297.9583640549534L1308.931634874864,297.8448671316672L1310.6543666922828,297.5989571312137L1310.9989130557667,298.0205814726505L1312.3770985097017,297.45235693863566L1314.7889230540882,298.6151213363843L1317.5452939619584,297.15404147105255L1318.5789330524096,298.26996586871485L1319.6125721428612,298.62374298475186L1319.9571185063448,297.4754874057113L1320.9907575967961,296.39990460153L1322.713489414215,298.0448379012667L1324.7807675951178,300.46375716396915L1325.1253139586015,299.3770434257014L1326.5034994125365,298.9068418863728L1327.192592139504,297.40252509788445L1329.2598703204067,297.0371023224853L1329.6044166838906,299.12547144721555L1330.293509410858,299.139690732956L1331.6716948647932,299.3039524365556L1334.0835194091796,300.73366623040096L1336.1507975900822,298.02707987925595L1337.1844366805337,297.8331893019753L1339.2517148614363,300.43689493864485L1342.0080857693065,299.486808590739L1343.0417248597578,298.92347394684305L1343.7308175867254,299.52734320619834L1344.075363950209,298.34582350621736L1345.798095767628,299.2492307056855L1346.1426421311116,299.09458793067506L1346.4871884945956,299.3610226014961L1347.1762812215632,300.08665655887813L1347.8653739485305,301.65132488593935L1348.2099203120144,300.46613776836915L1348.899013038982,299.1504999637452L1350.6217448564007,298.1440833684827L1354.0672084912387,300.7705012579414L1356.1344866721413,298.95094740843217L1356.823579399109,299.6440249921278L1357.1681257625926,299.1197451285236L1358.5463112165276,300.75370834582253L1358.8908575800115,302.4347689258456L1360.2690430339464,298.22486306643384L1360.958135760914,300.56950103779053L1363.0254139418166,298.99633974368066L1363.3699603053005,299.414457519177L1364.4035993957518,299.85982356395436L1365.781784849687,301.72686082014457L1369.9163412114924,299.1330636450317L1371.639073028911,301.771674089458L1371.983619392395,302.23216018920823L1372.6727121193624,299.9845157619865L1374.0508975732976,300.97658439018954L1375.7736293907165,302.28427612337026L1376.1181757542001,299.09606776584263L1378.185453935103,299.40821647520943L1378.5300002985866,300.3104012021479L1379.2190930255542,299.5174025743119L1383.3536493873596,301.3444199403184L1384.0427421143272,298.78440161142174L1384.7318348412946,302.9216668663039L1385.4209275682622,301.6591422760636L1386.1100202952298,302.36212832131605L1387.143659385681,301.2702995006213L1388.1772984761324,301.54406900662065L1391.2782157474865,301.4034203250426L1393.345493928389,300.8010309008548L1394.0345866553566,301.69115175414464L1397.824596653678,301.6446656276853L1398.1691430171618,299.75288938793295L1400.2364211980644,299.9275099377055L1402.6482457424509,300.6156654609526L1410.9173584660616,300.8259629063953L1411.2619048295453,299.16693900223703L1411.950997556513,301.5317477703342L1412.9846366469642,300.5312826860717L1413.6737293739318,302.267290189273L1420.909203007091,301.5374097483666L1421.9428420975426,300.9404892802329L1423.3210275514775,301.8524537874091L1423.6655739149612,300.78057057114677L1424.0101202784451,301.7960913697228L1424.6992130054127,300.85713595590335L1426.0773984593477,304.23971744565756L1427.1110375497992,301.91245145235496L1427.8001302767666,302.3351695850026L1428.4892230037342,302.72706854176926L1430.9010475481205,303.15104131727634L1431.934686638572,304.57001022099195L1432.2792330020557,299.0047040294104L1433.312872092507,301.4640292262533L1434.3465111829585,302.257413898046" fill="none"></path></g></g></g></g></g></g><g transform="translate(49, 377)" clip-path="url(#clip_1)"><clipPath id="clip_1"><rect width="1516" height="22"></rect></clipPath><g><g><line x1="0" y1="0" x2="0" y2="5" style="visibility: inherit;" fill="rgb(0, 0, 0)" stroke="rgb(204, 204, 204)" stroke-width="1px"></line><line x1="137.8185453935103" y1="0" x2="137.8185453935103" y2="5" style="visibility: inherit;" fill="rgb(0, 0, 0)" stroke="rgb(204, 204, 204)" stroke-width="1px"></line><line x1="275.6370907870206" y1="0" x2="275.6370907870206" y2="5" style="visibility: inherit;" fill="rgb(0, 0, 0)" stroke="rgb(204, 204, 204)" stroke-width="1px"></line><line x1="413.45563618053086" y1="0" x2="413.45563618053086" y2="5" style="visibility: inherit;" fill="rgb(0, 0, 0)" stroke="rgb(204, 204, 204)" stroke-width="1px"></line><line x1="551.2741815740412" y1="0" x2="551.2741815740412" y2="5" style="visibility: inherit;" fill="rgb(0, 0, 0)" stroke="rgb(204, 204, 204)" stroke-width="1px"></line><line x1="689.0927269675515" y1="0" x2="689.0927269675515" y2="5" style="visibility: inherit;" fill="rgb(0, 0, 0)" stroke="rgb(204, 204, 204)" stroke-width="1px"></line><line x1="826.9112723610617" y1="0" x2="826.9112723610617" y2="5" style="visibility: inherit;" fill="rgb(0, 0, 0)" stroke="rgb(204, 204, 204)" stroke-width="1px"></line><line x1="964.729817754572" y1="0" x2="964.729817754572" y2="5" style="visibility: inherit;" fill="rgb(0, 0, 0)" stroke="rgb(204, 204, 204)" stroke-width="1px"></line><line x1="1102.5483631480824" y1="0" x2="1102.5483631480824" y2="5" style="visibility: inherit;" fill="rgb(0, 0, 0)" stroke="rgb(204, 204, 204)" stroke-width="1px"></line><line x1="1240.3669085415927" y1="0" x2="1240.3669085415927" y2="5" style="visibility: inherit;" fill="rgb(0, 0, 0)" stroke="rgb(204, 204, 204)" stroke-width="1px"></line><line x1="1378.185453935103" y1="0" x2="1378.185453935103" y2="5" style="visibility: inherit;" fill="rgb(0, 0, 0)" stroke="rgb(204, 204, 204)" stroke-width="1px"></line><line x1="1516.0039993286132" y1="0" x2="1516.0039993286132" y2="5" style="visibility: inherit;" fill="rgb(0, 0, 0)" stroke="rgb(204, 204, 204)" stroke-width="1px"></line></g><g transform="translate(0, 8)"><text style="text-anchor: middle; visibility: hidden; font-family: &quot;Helvetica Neue&quot;, sans-serif; font-size: 12px; font-weight: 200;" x="0" y="0" dx="0em" dy="0.95em" fill="rgb(50, 49, 63)" stroke="none" stroke-width="1px">-200k</text><text style="text-anchor: middle; visibility: inherit; font-family: &quot;Helvetica Neue&quot;, sans-serif; font-size: 12px; font-weight: 200;" x="137.8185453935103" y="0" dx="0em" dy="0.95em" fill="rgb(50, 49, 63)" stroke="none" stroke-width="1px">0</text><text style="text-anchor: middle; visibility: inherit; font-family: &quot;Helvetica Neue&quot;, sans-serif; font-size: 12px; font-weight: 200;" x="275.6370907870206" y="0" dx="0em" dy="0.95em" fill="rgb(50, 49, 63)" stroke="none" stroke-width="1px">200k</text><text style="text-anchor: middle; visibility: inherit; font-family: &quot;Helvetica Neue&quot;, sans-serif; font-size: 12px; font-weight: 200;" x="413.45563618053086" y="0" dx="0em" dy="0.95em" fill="rgb(50, 49, 63)" stroke="none" stroke-width="1px">400k</text><text style="text-anchor: middle; visibility: inherit; font-family: &quot;Helvetica Neue&quot;, sans-serif; font-size: 12px; font-weight: 200;" x="551.2741815740412" y="0" dx="0em" dy="0.95em" fill="rgb(50, 49, 63)" stroke="none" stroke-width="1px">600k</text><text style="text-anchor: middle; visibility: inherit; font-family: &quot;Helvetica Neue&quot;, sans-serif; font-size: 12px; font-weight: 200;" x="689.0927269675515" y="0" dx="0em" dy="0.95em" fill="rgb(50, 49, 63)" stroke="none" stroke-width="1px">800k</text><text style="text-anchor: middle; visibility: inherit; font-family: &quot;Helvetica Neue&quot;, sans-serif; font-size: 12px; font-weight: 200;" x="826.9112723610617" y="0" dx="0em" dy="0.95em" fill="rgb(50, 49, 63)" stroke="none" stroke-width="1px">1M</text><text style="text-anchor: middle; visibility: inherit; font-family: &quot;Helvetica Neue&quot;, sans-serif; font-size: 12px; font-weight: 200;" x="964.729817754572" y="0" dx="0em" dy="0.95em" fill="rgb(50, 49, 63)" stroke="none" stroke-width="1px">1.2M</text><text style="text-anchor: middle; visibility: inherit; font-family: &quot;Helvetica Neue&quot;, sans-serif; font-size: 12px; font-weight: 200;" x="1102.5483631480824" y="0" dx="0em" dy="0.95em" fill="rgb(50, 49, 63)" stroke="none" stroke-width="1px">1.4M</text><text style="text-anchor: middle; visibility: inherit; font-family: &quot;Helvetica Neue&quot;, sans-serif; font-size: 12px; font-weight: 200;" x="1240.3669085415927" y="0" dx="0em" dy="0.95em" fill="rgb(50, 49, 63)" stroke="none" stroke-width="1px">1.6M</text><text style="text-anchor: middle; visibility: inherit; font-family: &quot;Helvetica Neue&quot;, sans-serif; font-size: 12px; font-weight: 200;" x="1378.185453935103" y="0" dx="0em" dy="0.95em" fill="rgb(50, 49, 63)" stroke="none" stroke-width="1px">1.8M</text><text style="text-anchor: middle; visibility: hidden; font-family: &quot;Helvetica Neue&quot;, sans-serif; font-size: 12px; font-weight: 200;" x="1516.0039993286132" y="0" dx="0em" dy="0.95em" fill="rgb(50, 49, 63)" stroke="none" stroke-width="1px">2M</text></g><line x1="0" y1="0" x2="1516.0039993286132" y2="0" fill="rgb(0, 0, 0)" stroke="rgb(204, 204, 204)" stroke-width="1px"></line></g></g></g></g></svg>