<svg viewBox="0 0 1565.0999755859375 400" xmlns="http://www.w3.org/2000/svg"><g><g><g><g><g><line x1="49.09600067138672" y1="377.8099994659424" x2="44.09600067138672" y2="377.8099994659424" style="visibility: inherit;" fill="rgb(0, 0, 0)" stroke="rgb(204, 204, 204)" stroke-width="1px"></line><line x1="49.09600067138672" y1="348.74769181471606" x2="44.09600067138672" y2="348.74769181471606" style="visibility: inherit;" fill="rgb(0, 0, 0)" stroke="rgb(204, 204, 204)" stroke-width="1px"></line><line x1="49.09600067138672" y1="319.6853841634897" x2="44.09600067138672" y2="319.6853841634897" style="visibility: inherit;" fill="rgb(0, 0, 0)" stroke="rgb(204, 204, 204)" stroke-width="1px"></line><line x1="49.09600067138672" y1="290.62307651226337" x2="44.09600067138672" y2="290.62307651226337" style="visibility: inherit;" fill="rgb(0, 0, 0)" stroke="rgb(204, 204, 204)" stroke-width="1px"></line><line x1="49.09600067138672" y1="261.56076886103705" x2="44.09600067138672" y2="261.56076886103705" style="visibility: inherit;" fill="rgb(0, 0, 0)" stroke="rgb(204, 204, 204)" stroke-width="1px"></line><line x1="49.09600067138672" y1="232.4984612098107" x2="44.09600067138672" y2="232.4984612098107" style="visibility: inherit;" fill="rgb(0, 0, 0)" stroke="rgb(204, 204, 204)" stroke-width="1px"></line><line x1="49.09600067138672" y1="203.43615355858438" x2="44.09600067138672" y2="203.43615355858438" style="visibility: inherit;" fill="rgb(0, 0, 0)" stroke="rgb(204, 204, 204)" stroke-width="1px"></line><line x1="49.09600067138672" y1="174.37384590735803" x2="44.09600067138672" y2="174.37384590735803" style="visibility: inherit;" fill="rgb(0, 0, 0)" stroke="rgb(204, 204, 204)" stroke-width="1px"></line><line x1="49.09600067138672" y1="145.3115382561317" x2="44.09600067138672" y2="145.3115382561317" style="visibility: inherit;" fill="rgb(0, 0, 0)" stroke="rgb(204, 204, 204)" stroke-width="1px"></line><line x1="49.09600067138672" y1="116.24923060490534" x2="44.09600067138672" y2="116.24923060490534" style="visibility: inherit;" fill="rgb(0, 0, 0)" stroke="rgb(204, 204, 204)" stroke-width="1px"></line><line x1="49.09600067138672" y1="87.18692295367902" x2="44.09600067138672" y2="87.18692295367902" style="visibility: inherit;" fill="rgb(0, 0, 0)" stroke="rgb(204, 204, 204)" stroke-width="1px"></line><line x1="49.09600067138672" y1="58.124615302452696" x2="44.09600067138672" y2="58.124615302452696" style="visibility: inherit;" fill="rgb(0, 0, 0)" stroke="rgb(204, 204, 204)" stroke-width="1px"></line><line x1="49.09600067138672" y1="29.06230765122632" x2="44.09600067138672" y2="29.06230765122632" style="visibility: inherit;" fill="rgb(0, 0, 0)" stroke="rgb(204, 204, 204)" stroke-width="1px"></line><line x1="49.09600067138672" y1="0" x2="44.09600067138672" y2="0" style="visibility: inherit;" fill="rgb(0, 0, 0)" stroke="rgb(204, 204, 204)" stroke-width="1px"></line></g><g transform="translate(39.09600067138672, 0)"><text style="text-anchor: end; visibility: hidden; font-family: &quot;Helvetica Neue&quot;, sans-serif; font-size: 12px; font-weight: 200;" x="0" y="377.8099994659424" dx="0em" dy="0.3em" fill="rgb(50, 49, 63)" stroke="none" stroke-width="1px">-0.1</text><text style="text-anchor: end; visibility: inherit; font-family: &quot;Helvetica Neue&quot;, sans-serif; font-size: 12px; font-weight: 200;" x="0" y="348.74769181471606" dx="0em" dy="0.3em" fill="rgb(50, 49, 63)" stroke="none" stroke-width="1px">0</text><text style="text-anchor: end; visibility: inherit; font-family: &quot;Helvetica Neue&quot;, sans-serif; font-size: 12px; font-weight: 200;" x="0" y="319.6853841634897" dx="0em" dy="0.3em" fill="rgb(50, 49, 63)" stroke="none" stroke-width="1px">0.1</text><text style="text-anchor: end; visibility: inherit; font-family: &quot;Helvetica Neue&quot;, sans-serif; font-size: 12px; font-weight: 200;" x="0" y="290.62307651226337" dx="0em" dy="0.3em" fill="rgb(50, 49, 63)" stroke="none" stroke-width="1px">0.2</text><text style="text-anchor: end; visibility: inherit; font-family: &quot;Helvetica Neue&quot;, sans-serif; font-size: 12px; font-weight: 200;" x="0" y="261.56076886103705" dx="0em" dy="0.3em" fill="rgb(50, 49, 63)" stroke="none" stroke-width="1px">0.3</text><text style="text-anchor: end; visibility: inherit; font-family: &quot;Helvetica Neue&quot;, sans-serif; font-size: 12px; font-weight: 200;" x="0" y="232.4984612098107" dx="0em" dy="0.3em" fill="rgb(50, 49, 63)" stroke="none" stroke-width="1px">0.4</text><text style="text-anchor: end; visibility: inherit; font-family: &quot;Helvetica Neue&quot;, sans-serif; font-size: 12px; font-weight: 200;" x="0" y="203.43615355858438" dx="0em" dy="0.3em" fill="rgb(50, 49, 63)" stroke="none" stroke-width="1px">0.5</text><text style="text-anchor: end; visibility: inherit; font-family: &quot;Helvetica Neue&quot;, sans-serif; font-size: 12px; font-weight: 200;" x="0" y="174.37384590735803" dx="0em" dy="0.3em" fill="rgb(50, 49, 63)" stroke="none" stroke-width="1px">0.6</text><text style="text-anchor: end; visibility: inherit; font-family: &quot;Helvetica Neue&quot;, sans-serif; font-size: 12px; font-weight: 200;" x="0" y="145.3115382561317" dx="0em" dy="0.3em" fill="rgb(50, 49, 63)" stroke="none" stroke-width="1px">0.7</text><text style="text-anchor: end; visibility: inherit; font-family: &quot;Helvetica Neue&quot;, sans-serif; font-size: 12px; font-weight: 200;" x="0" y="116.24923060490534" dx="0em" dy="0.3em" fill="rgb(50, 49, 63)" stroke="none" stroke-width="1px">0.8</text><text style="text-anchor: end; visibility: inherit; font-family: &quot;Helvetica Neue&quot;, sans-serif; font-size: 12px; font-weight: 200;" x="0" y="87.18692295367902" dx="0em" dy="0.3em" fill="rgb(50, 49, 63)" stroke="none" stroke-width="1px">0.9</text><text style="text-anchor: end; visibility: inherit; font-family: &quot;Helvetica Neue&quot;, sans-serif; font-size: 12px; font-weight: 200;" x="0" y="58.124615302452696" dx="0em" dy="0.3em" fill="rgb(50, 49, 63)" stroke="none" stroke-width="1px">1</text><text style="text-anchor: end; visibility: inherit; font-family: &quot;Helvetica Neue&quot;, sans-serif; font-size: 12px; font-weight: 200;" x="0" y="29.06230765122632" dx="0em" dy="0.3em" fill="rgb(50, 49, 63)" stroke="none" stroke-width="1px">1.1</text><text style="text-anchor: end; visibility: hidden; font-family: &quot;Helvetica Neue&quot;, sans-serif; font-size: 12px; font-weight: 200;" x="0" y="0" dx="0em" dy="0.3em" fill="rgb(50, 49, 63)" stroke="none" stroke-width="1px">1.2</text></g><line x1="49.09600067138672" y1="0" x2="49.09600067138672" y2="377.8099994659424" fill="rgb(0, 0, 0)" stroke="rgb(204, 204, 204)" stroke-width="1px"></line></g></g><g transform="translate(49, 0)" clip-path="url(#clip_0)"><clipPath id="clip_0"><rect width="1516" height="377"></rect></clipPath><g><g><g><line x1="0" y1="0" x2="0" y2="377.8099994659424" fill="rgb(0, 0, 0)" stroke="rgb(60, 60, 60)" stroke-width="1px" opacity="0.25"></line><line x1="137.8185453935103" y1="0" x2="137.8185453935103" y2="377.8099994659424" fill="rgb(0, 0, 0)" stroke="rgb(60, 60, 60)" stroke-width="1px" opacity="0.25"></line><line x1="275.6370907870206" y1="0" x2="275.6370907870206" y2="377.8099994659424" fill="rgb(0, 0, 0)" stroke="rgb(60, 60, 60)" stroke-width="1px" opacity="0.25"></line><line x1="413.45563618053086" y1="0" x2="413.45563618053086" y2="377.8099994659424" fill="rgb(0, 0, 0)" stroke="rgb(60, 60, 60)" stroke-width="1px" opacity="0.25"></line><line x1="551.2741815740412" y1="0" x2="551.2741815740412" y2="377.8099994659424" fill="rgb(0, 0, 0)" stroke="rgb(60, 60, 60)" stroke-width="1px" opacity="0.25"></line><line x1="689.0927269675515" y1="0" x2="689.0927269675515" y2="377.8099994659424" fill="rgb(0, 0, 0)" stroke="rgb(60, 60, 60)" stroke-width="1px" opacity="0.25"></line><line x1="826.9112723610617" y1="0" x2="826.9112723610617" y2="377.8099994659424" fill="rgb(0, 0, 0)" stroke="rgb(60, 60, 60)" stroke-width="1px" opacity="0.25"></line><line x1="964.729817754572" y1="0" x2="964.729817754572" y2="377.8099994659424" fill="rgb(0, 0, 0)" stroke="rgb(60, 60, 60)" stroke-width="1px" opacity="0.25"></line><line x1="1102.5483631480824" y1="0" x2="1102.5483631480824" y2="377.8099994659424" fill="rgb(0, 0, 0)" stroke="rgb(60, 60, 60)" stroke-width="1px" opacity="0.25"></line><line x1="1240.3669085415927" y1="0" x2="1240.3669085415927" y2="377.8099994659424" fill="rgb(0, 0, 0)" stroke="rgb(60, 60, 60)" stroke-width="1px" opacity="0.25"></line><line x1="1378.185453935103" y1="0" x2="1378.185453935103" y2="377.8099994659424" fill="rgb(0, 0, 0)" stroke="rgb(60, 60, 60)" stroke-width="1px" opacity="0.25"></line><line x1="1516.0039993286132" y1="0" x2="1516.0039993286132" y2="377.8099994659424" fill="rgb(0, 0, 0)" stroke="rgb(60, 60, 60)" stroke-width="1px" opacity="0.25"></line></g><g><line x1="0" y1="377.8099994659424" x2="1516.0039993286132" y2="377.8099994659424" fill="rgb(0, 0, 0)" stroke="rgb(60, 60, 60)" stroke-width="1px" opacity="0.25"></line><line x1="0" y1="348.74769181471606" x2="1516.0039993286132" y2="348.74769181471606" fill="rgb(0, 0, 0)" stroke="rgb(60, 60, 60)" stroke-width="1px" opacity="0.25"></line><line x1="0" y1="319.6853841634897" x2="1516.0039993286132" y2="319.6853841634897" fill="rgb(0, 0, 0)" stroke="rgb(60, 60, 60)" stroke-width="1px" opacity="0.25"></line><line x1="0" y1="290.62307651226337" x2="1516.0039993286132" y2="290.62307651226337" fill="rgb(0, 0, 0)" stroke="rgb(60, 60, 60)" stroke-width="1px" opacity="0.25"></line><line x1="0" y1="261.56076886103705" x2="1516.0039993286132" y2="261.56076886103705" fill="rgb(0, 0, 0)" stroke="rgb(60, 60, 60)" stroke-width="1px" opacity="0.25"></line><line x1="0" y1="232.4984612098107" x2="1516.0039993286132" y2="232.4984612098107" fill="rgb(0, 0, 0)" stroke="rgb(60, 60, 60)" stroke-width="1px" opacity="0.25"></line><line x1="0" y1="203.43615355858438" x2="1516.0039993286132" y2="203.43615355858438" fill="rgb(0, 0, 0)" stroke="rgb(60, 60, 60)" stroke-width="1px" opacity="0.25"></line><line x1="0" y1="174.37384590735803" x2="1516.0039993286132" y2="174.37384590735803" fill="rgb(0, 0, 0)" stroke="rgb(60, 60, 60)" stroke-width="1px" opacity="0.25"></line><line x1="0" y1="145.3115382561317" x2="1516.0039993286132" y2="145.3115382561317" fill="rgb(0, 0, 0)" stroke="rgb(60, 60, 60)" stroke-width="1px" opacity="0.25"></line><line x1="0" y1="116.24923060490534" x2="1516.0039993286132" y2="116.24923060490534" fill="rgb(0, 0, 0)" stroke="rgb(60, 60, 60)" stroke-width="1px" opacity="0.25"></line><line x1="0" y1="87.18692295367902" x2="1516.0039993286132" y2="87.18692295367902" fill="rgb(0, 0, 0)" stroke="rgb(60, 60, 60)" stroke-width="1px" opacity="0.25"></line><line x1="0" y1="58.124615302452696" x2="1516.0039993286132" y2="58.124615302452696" fill="rgb(0, 0, 0)" stroke="rgb(60, 60, 60)" stroke-width="1px" opacity="0.25"></line><line x1="0" y1="29.06230765122632" x2="1516.0039993286132" y2="29.06230765122632" fill="rgb(0, 0, 0)" stroke="rgb(60, 60, 60)" stroke-width="1px" opacity="0.25"></line><line x1="0" y1="0" x2="1516.0039993286132" y2="0" fill="rgb(0, 0, 0)" stroke="rgb(60, 60, 60)" stroke-width="1px" opacity="0.25"></line></g></g></g><g><g><line x1="0" y1="348.74769181471606" x2="1516.0039993286132" y2="348.74769181471606" fill="rgb(0, 0, 0)" stroke="rgb(153, 153, 153)" stroke-width="1.5px"></line></g></g><g><g><line x1="137.8185453935103" y1="0" x2="137.8185453935103" y2="377.8099994659424" fill="rgb(0, 0, 0)" stroke="rgb(153, 153, 153)" stroke-width="1.5px"></line></g></g><g><g><g><g><g><path style="fill: none;" stroke="rgb(0, 119, 187)" stroke-width="2px" d="M139.88582357441294,64.24707448534059L143.3312872092507,117.04027575133449L144.36492629970203,125.19674115099107L146.43220448060467,137.31189677984128L151.94494629634508,156.15474190334635L152.63403902331265,158.6450223813114L153.3231317502802,159.88027148122242L153.66767811376397,161.13665401312514L154.35677084073154,162.3920318408839L156.42404902163418,166.18773480646337L156.76859538511795,167.50169727930063L157.11314174860172,166.98257704165692L157.45768811208552,168.79780026985642L160.5586053834395,173.9432886077475L162.62588356434213,176.0517295435883L162.9704299278259,177.2490424008258L163.3149762913097,177.67957544895702L163.65952265479348,177.20012370251075L165.38225447221234,179.96027117801486L168.13862538008257,183.3480469387001L170.55044992446898,184.7741032135192L173.30682083233918,187.73436003850475L174.34045992279053,188.87863144594033L174.6850062862743,189.70309513089265L177.09683083066074,191.33816451260608L178.8195626480796,193.2366742498349L181.5759335559498,194.59172565765917L182.60957264640112,195.63370778975818L182.95411900988492,194.95996704887077L186.0550362812389,196.799303176523L186.74412900820644,198.37639420014133L187.08867537169021,198.10212729135154L189.8450462795604,199.52716153954157L191.5677780969793,200.8687014088794L192.25687082394688,200.55800531363187L192.60141718743063,200.2600066000646L195.7023344587846,202.88308124987216L196.04688082226838,203.18371298119578L197.08051991271972,203.270689179581L199.14779809362238,204.77918316165275L199.49234445710616,204.59985213321553L201.21507627452502,205.16828948633477L201.90416900149256,205.89407563412288L202.24871536497636,205.38913385064737L203.62690081891145,207.32831678321745L203.97144718239525,206.4836117742633L206.38327172678166,207.78303202074235L209.13964263465184,209.57598719416708L209.48418899813564,208.570451571011L209.8287353616194,209.315976690729L211.20692081555453,210.25658763920913L214.99693081387605,210.7691686386751L217.0642089947787,211.7516566952206L218.78694081219757,212.94896955245812L219.8205799026489,211.5321461622714L223.95513626445424,213.3907448935095L226.02241444535684,214.6266522478596L227.74514626277576,214.43276167057897L228.08969262625953,215.66546436515986L228.77878535322708,215.1358467014613L230.1569708071622,216.2484006384242L231.5351562610973,216.37465557208898L232.22424898806483,217.0618558840071L233.94698080548372,216.6672669927469L238.7706298942566,218.23800932552516L240.49336171167545,216.62136240686343L240.83790807515925,218.6708635866784L242.5606398925781,219.2175092533669L243.93882534651323,219.54481761195868L244.28337170999697,218.89130953383048L244.97246443696454,218.63525721826952L247.72883534483478,218.89636769952025L248.07338170831852,219.97865059352793L250.14065988922118,220.32538611931525L250.48520625270496,220.22048980995024L250.82975261618876,219.7169338252938L251.86339170664004,220.55592241411907L254.96430897799405,221.57755928730484L257.7206798858643,222.12708914778565L263.23342170160464,223.37632615452722L264.6116071555398,223.68769782669906L266.6788853364424,223.9333306673887L268.0570707903775,224.09329515732867L268.74616351734505,224.64084159324963L272.8807198791504,225.89155101123652L273.2252662426342,225.43762394678996L278.7380080583746,225.30930763738175L283.21711078366366,227.46924832183822L283.5616571471474,226.9768220339479L284.25074987411494,227.5161402893803L286.31802805501763,227.2825119309613L289.4189453263716,227.62756717568047L290.10803805333916,228.04536819716097L290.45258441682296,228.06483867056969L291.48622350727425,228.4813491668999L293.55350168817694,228.26174336028188L296.6544189595309,228.27114080852405L297.6880580499822,228.77515583903931L298.032604413466,229.46524900599238L301.13352168482,226.00480541972937L301.4780680483037,227.6493675233538L306.30171713707665,229.53432241588305L306.6462635005604,229.598883318369L307.33535622752794,230.14899348210534L308.0244489544955,229.90377638106142L312.84809804326835,230.36290885232228L314.57082986068724,230.53812579051524L315.2599225876548,229.1437436799557L316.29356167810613,230.5726754873245L319.0499325859763,231.24454539980607L321.117210766879,232.25780685137877L321.80630349384654,231.31577545910903L322.83994258429783,231.50101345501275L324.9072207652005,232.25841313836213L326.6299525826194,231.43847062205717L326.97449894610315,232.17311722104506L330.07541621745713,232.85402947082142L330.7645089444247,232.9959006249292L332.14269439835977,233.3469148045706L332.48724076184357,232.84606112761148L334.20997257926246,233.44800882842566L335.58815803319754,232.83632589090715L335.93270439668134,233.88961094462462L337.6554362141002,234.01665405136777L338.3445289410678,233.87369158068995L338.6890753045516,233.67217910990414L339.3781680315191,233.9883577717298L340.0672607584866,234.80045320222146L340.4118071219704,234.02963725405445L342.1345389393893,234.28491871902224L342.4790853028731,235.16904970438046L344.89090984725954,234.14095154420053L345.5800025742271,234.88095945236992L347.6472807551297,235.82761594819846L348.33637348209726,234.56883425209017L350.0591052995161,234.37557594552078L351.78183711693504,234.92720182671553L352.4709298439026,235.51461596241415L356.6054862057079,236.14326627422432L359.0173107500943,235.701672819268L359.3618571135781,237.18090046252834L360.0509498405456,236.3812858826514L360.3954962040294,235.4468850451295L360.74004256751317,236.32145401863576L361.084588930997,236.30786452896572L361.7736816579645,236.0075446023764L362.80732074841586,236.00177621479182L364.18550620235095,236.20890983203768L365.90823801976984,237.74772682452036L366.9418771102211,236.97436447102322L368.3200625641562,236.7955184721727L369.35370165460756,237.73624201680687L369.69824801809136,237.18214768146555L370.3873407450589,237.12398743727547L370.73188710854265,236.94595559523117L371.765526198994,237.74115294137212L372.1100725624778,237.41531699402572L373.1437116529291,237.4507154926117L373.4882580164129,237.3330611728681L375.2109898338318,238.09108446568607L375.5555361973156,236.91932227417615L377.967360741702,237.95908712816455L379.0009998321533,238.29333314209455L380.3791852860884,237.86027967236103L381.41282437653973,237.16407166811862L382.10191710350733,238.03912567121156L382.7910098304748,238.06011186207868L384.16919528440997,238.30829976934106L385.54738073834505,238.36417344547962L386.58101982879634,238.16517273505346L386.92556619228014,238.82625940047376L387.2701125557639,238.48668672233276L387.6146589192477,238.28823167019166L389.6819371001503,238.70377210734847L391.749215281053,238.86245473338073L392.43830800802056,239.06324832102914L392.78285437150436,238.43357598258984L394.16103982543945,239.1944315017444L395.53922527937453,239.2404400225393L396.5728643698259,238.94896322466454L396.9174107333097,239.6847964138913L397.26195709679337,239.03664098370194L397.95104982376097,239.21038551064956L398.6401425507285,238.84516689311218L401.7410598220825,239.7959894466407L402.08560618556623,240.2031804459123L403.11924527601764,239.94648719839753L403.4637916395013,240.64379518045266L403.8083380029851,240.48408186654868L404.4974307299527,240.44341733245L404.84197709343647,240.43456554249283L406.90925527433916,240.31788128192264L408.28744072827425,239.8503820502913L408.631987091758,240.36751886337512L409.3210798187256,238.78993414892747L410.0101725456931,237.5570149232811L411.0438116361444,239.4307621678607L411.3883579996282,240.61354145998266L411.732904363112,240.93987109815842L412.0774507265957,240.2816599652878L413.1110898170471,240.18612645919447L414.48927527098226,240.93770578750352L415.52291436143355,240.93444916027858L416.21200708840104,241.25697651294436L416.55655345188484,239.91507287141653L416.90109981536864,238.1040503458875L418.9683779962713,240.70008459623693L419.3129243597551,241.448294701167L421.0356561771739,241.51958538916827L422.41384163110905,240.83811881986426L423.44748072156034,241.66210613647252L424.8256661754954,240.949190595217L426.2038516294306,241.10754409402975L426.8929443563982,239.22945756689776L428.615676173817,242.18053347470664L429.6493152642683,241.04075725219062L436.88478889742765,242.26020824556363L437.57388162439514,242.65734354215397L437.91842798787894,242.2294088668086L439.2966134418141,242.2277632307109L439.9857061687816,242.60781855685553L441.3638916227167,242.6534892891883L442.0529843496842,241.71830027858798L442.7420770766518,242.51960380077568L443.77571616710316,241.14979363552777L444.80935525755444,243.22433446775577L446.87663343845713,242.58231119734106L448.25481889239217,243.3798470789893L450.6666434367787,243.4144140982838L451.0111898002624,242.297737409834L451.3557361637462,243.59879463116818L451.70028252723,243.79174113300328L453.42301434464883,242.79115107938296L454.11210707161644,243.43881281874297L455.1457461620677,243.70806486805608L455.4902925255515,243.53874623608704L455.83483888903527,243.50064542980377L456.17938525251907,243.7756138992457L458.9357561603893,243.1058140237502L459.28030252387305,244.80362544699946L460.3139416143244,243.3504508215386L462.7257661587108,244.5117242482363L463.7594052491621,244.64447511386572L466.86032252051615,244.79998772509924L467.54941524748364,244.4324045883267L467.89396161096744,244.5165052541623L468.2385079744512,244.70549356812026L469.2721470649026,244.76487504751972L469.61669342838627,244.54591017285557L470.9948788823214,244.5602618518761L472.7176106997403,244.83263194853222L473.0621570632241,244.28337924781522L474.44034251715914,244.00602893665288L474.78488888064294,244.45214356025662L475.12943524412674,245.36774084005154L475.47398160761054,245.33273209738346L476.5076206980618,244.8977904767589L476.85216706154563,245.26585864311812L477.1967134250294,245.84427374773506L478.23035251548066,242.88998451891433L478.57489887896446,244.90774224452872L481.3312697868347,244.91377913063454L482.7094552407698,244.75446423389104L483.39854796773733,245.17994777757508L484.08764069470493,245.1466366384604L484.4321870581886,245.38547906493633L486.84401160257505,245.77046263813148L487.18855796605885,245.40429994514855L487.53310432954265,245.65932157283777L488.56674341999394,245.57475319990075L491.3231143278642,245.42988525584664L492.0122070548317,246.57989040589632L493.3903925087668,245.9904322169395L493.7349388722506,245.78549855531898L494.76857796270195,245.76828866623399L495.45767068966956,245.76047622539116L497.86949523405593,245.50270032254895L501.6595052323775,246.52438916319042L502.348597959345,246.26930690680288L504.41587614024763,245.77768611447615L504.76042250373143,246.32542309773476L505.44951523069903,246.7278763972935L506.1386079576665,247.29284925336492L507.51679341160167,245.91080075229561L508.89497886553676,246.86067923037862L509.5840715925043,245.79295588521438L511.3068034099232,246.41345596771959L511.651349773407,246.67067755103417L511.9958961368907,246.75208457041506L514.752267044761,246.75989701125786L516.8195452256635,247.19446619844976L518.1977306795986,247.37002092510485L518.5422770430824,246.74422882335912L518.8868234065662,247.8215055191327L521.9877406779202,246.9013870706904L522.6768334048878,247.7278428414452L523.7104724953391,247.76602159891203L525.7777506762417,246.98975772913735L526.1222970397255,248.11663736139295L528.534121584112,247.8248314362986L529.2232143110796,248.04010662160684L536.114141580755,247.64822003804392L536.4586879442388,247.99909563780338L536.8032343077225,247.82555031943602L537.8368733981739,247.3888937727728L538.1814197616577,248.41505181460596L538.5259661251415,247.27392443824127L544.7278006678495,248.35101924791982L545.7614397583008,248.75733546168684L546.4505324852684,248.59709381198306L548.8623570296547,248.32320799786854L549.2069033931384,248.53086128967158L550.5850888470736,248.53979103081232L551.2741815740412,248.61226830905247L551.9632743010087,248.3648512523832L553.6860061184276,248.5409862822938L554.3750988453951,249.16864055120274L555.0641915723627,249.26432995966323L556.4423770262978,249.3838377853274L559.8878406611356,248.85937356098745L562.6442115690057,248.64411569816446L562.9887579324895,248.5551820589472L563.3333042959733,249.59232255642192L564.0223970229409,248.97883808043852L565.0560361133922,248.98741271063184L566.0896752038435,248.78816948541234L566.778767930811,248.6830046775261L567.8124070212624,249.4794059363912L569.8796852021651,248.65319268042973L570.5687779291326,249.16331388699172L571.2578706561002,249.7492469502024L571.602417019584,250.05191407354164L572.6360561100353,249.56179167618808L573.3251488370028,249.80673161746816L574.3587879274542,249.3227587023745L577.1151588353243,249.3931226374155L579.5269833797107,250.52091170014614L581.5942615606134,251.25069934202446L582.9724470145485,250.41443038338173L583.3169933780323,250.31201985064848L583.6615397415161,250.31951182551438L584.0060861049999,250.1616173725605L586.0733642859025,250.15202071573805L587.1070033763539,250.79750848320055L589.5188279207403,250.43439454761972L590.2079206477079,250.52419431109894L591.2415597381591,250.1263920988269L591.5861061016428,251.04013587270123L592.6197451920942,251.3049706882784L594.6870233729969,250.92287130887553L595.3761160999644,250.85687264011477L596.4097551904158,250.4116587857435L597.4433942808671,250.51884166316006L597.7879406443509,251.3866462061805L598.1324870078346,250.56059751382878L598.4770333713184,251.2448616644989L598.8215797348022,251.0313793564129L600.8888579157049,251.11316747046908L605.0234142775101,251.14102202673342L607.0906924584128,251.34267307740117L608.8134242758317,250.75493847572562L610.1916097297668,251.19022654605493L612.6034342741533,250.97713399388687L613.2925270011208,251.40628124319892L615.0152588185397,251.39774125797607L615.3598051820234,251.8251649200069L616.3934442724748,251.7798752823494L616.7379906359586,251.64835431317198L617.4270833629262,251.39943886152952L617.7716297264099,251.84021815967964L618.8052688168613,251.78399803383633L624.6625569960854,251.84445350732057L625.0071033595692,252.48453665938848L625.3516497230529,251.77575253086252L627.0743815404718,252.02488451357044L628.1080206309231,252.05518154025356L629.4862060848583,251.99916062299047L629.8307524483421,251.5897523456083L630.1752988118259,251.41891799618082L631.5534842657609,251.98623804900217L631.8980306292447,252.09985622968503L632.931669719696,251.87468990530533L634.309855173631,251.43022091779932L634.9989479005986,252.6590173919588L639.4780506258877,252.10443802703077L639.8225969893715,252.23918963970527L642.9235142607255,252.96881271797383L643.2680606242093,253.36651099533447L647.0580706225309,253.04804576545723L649.814441530401,252.85893619410263L650.1589878938848,253.01768811007582L651.1926269843361,252.4939427688733L651.8817197113036,252.8978598184347L652.2262660747874,252.81434811709732L654.9826369826577,253.9316137700452L655.3271833461414,253.36938652788416L655.6717297096252,253.32515356182626L657.0499151635603,253.81466967219643L657.7390078905278,252.9799164310121L658.4281006174954,253.5714013507419L661.1844715253657,253.91878646972566L662.9072033427844,253.99698882933734L663.2517497062682,253.6086793389763L664.2853887967195,253.95369127748233L666.697213341106,253.1086398188234L670.8317697029113,253.07138781431684L672.5545015203303,253.93379640318534L672.899047883814,254.21713163299773L673.5881406107816,253.79379607748336L673.9326869742653,254.04932871848712L675.999965155168,253.86851661756197L678.4117896995544,253.79751175056714L678.7563360630382,253.0061859798771L681.8572533343921,253.34662478228006L683.2354387883273,254.07149283835048L683.9245315152948,253.53066752670225L685.3027169692299,253.67961491603018L688.4036342405839,253.33409196420962L690.1263660580028,254.5543917593593L690.8154587849704,253.9682594875684L691.1600051484542,254.68012701846692L692.8827369658729,254.424074702906L695.6391078737432,254.36361056817913L696.3282006007107,254.5549893851001L698.7400251450972,254.5238089116698L699.0845715085809,255.216699659989L700.462756962516,255.14727113915086L702.185488779935,254.99323960040527L703.2191278703863,254.50239831991433L703.9082205973538,254.5486840004731L704.9418596878052,255.13661781072886L705.9754987782565,254.70844928183277L707.3536842321915,255.23192612451408L710.1100551400617,254.25826387419784L712.866426047932,254.9084113901897L713.5555187748996,255.38403486739816L714.2446115018671,254.89627698927973L715.2782505923184,254.31935161839334L715.6227969558022,255.4722929296911L717.6900751367048,255.16789355782794L718.0346215001886,255.36223451972478L720.7909924080589,254.82565321696018L721.8246314985101,255.22002557715484L722.169177861994,255.78259060777805L722.5137242254776,255.62703469033147L722.8582705889614,255.65683802618526L723.547363315929,255.74293943906588L724.5810024063803,255.57875692397022L726.9928269507668,256.0051845430998L727.3373733142506,256.0790562814017L729.0601051316694,256.4591808974873L729.749197858637,256.04438532719576L730.0937442221207,255.65139010457756L730.4382905856045,256.2928763779498L733.5392078569586,255.3223061912488L734.9173933108937,256.0918316142655L735.6064860378611,256.16016015729093L735.951032401345,256.113718574365L736.6401251283124,255.80170597023937L738.3628569457314,256.3183404312513L738.7074033092151,255.7046567466876L739.3964960361827,256.0025688478287L739.7410423996665,256.28718594154884L740.0855887631502,256.28678752438833L741.1192278536016,256.4386277687512L741.8083205805691,255.70369534875687L742.4974133075367,256.3641584047085L746.631969669342,256.5680267334868L749.7328869406961,256.4889149434001L751.8001651215986,257.2656725040041L752.1447114850824,256.3995482420519L754.211989665985,255.88315629583337L754.5565360294688,256.6353505723684L754.9010823929526,256.732858841779L757.6574533008228,257.16311473014633L760.0692778452092,256.84132358310325L762.8256487530795,257.10782135726333L763.1701951165633,257.1598840866493L764.2038342070147,256.5470751875902L766.615658751401,256.81498474429725L767.3047514783685,257.1881283988315L768.6829369323037,256.7380296036228L772.1284005671414,256.5057610602951L772.4729469306252,257.0361235908589L773.5065860210765,256.40258833821133L775.2293178384954,256.91426856844487L776.6075032924306,257.278560433022L781.0866060177196,257.0967176442251L781.775698744687,257.65600006389553L782.1202451081708,257.6828845609865L784.1875232890735,256.7674778285292L784.5320696525573,256.88018657873704L784.8766160160411,256.2170471988159L785.5657087430087,257.99769474647826L786.2548014699763,256.62675861968984L790.3893578317815,257.7585318540254L793.4902751031356,258.16968104117416L794.8684605570705,258.11344359284556L796.5911923744895,257.827380071608L796.9357387379732,258.1217064183046L798.6584705553922,257.7601515063953L800.7257487362948,258.2476928534482L801.0702950997786,257.90188408062113L803.1375732806812,258.2956674763177L804.5157587346163,258.2854125650562L805.2048514615839,257.74966274158305L805.8939441885515,258.0411048944873L807.961222369454,257.84790721661625L808.9948614599055,258.3424728314336L809.6839541868729,258.22114614481933L810.7175932773243,258.18005720983234L811.7512323677755,258.2109345397709L812.7848714582269,257.9439084298111L813.4739641851945,257.89985734984816L815.885788729581,258.65778536899734L816.5748814565485,257.827925729893L820.7094378183538,258.79860851274816L821.0539841818376,258.63787317221505L821.3985305453214,258.2149446951038L826.2221796340942,258.1516483340403L827.6003650880293,258.7861103396482L828.9785505419645,258.7434190747765L829.3230969054481,258.5496497548926L830.3567359958995,258.9319916490888L830.7012823593833,259.4945999859251L831.7349214498345,258.9297916934634L832.4240141768021,258.78224742543983L833.1131069037697,258.85004763266545L834.8358387211886,258.4803771364216L835.86947781164,259.0135718933221L836.5585705386073,259.0640929215217L837.5922096290587,259.3348953332637L838.6258487195101,259.0367580398145L839.6594878099614,258.3957048285732L840.348580536929,259.2766831216179L841.3822196273804,259.42853202722335L842.4158587178316,258.60713442215837L842.7604050813154,258.76133918575636L847.9286005335721,259.35784762620546L850.3404250779585,259.08358071741566L852.0631568953773,259.3707615389512L852.4077032588611,260.0199389957696L852.752249622345,259.9443263477012L853.4413423493125,259.01302623503705L853.7858887127963,260.232797694387L854.4749814397637,260.36969729523116L855.1640741667313,260.14926000932167L856.1977132571827,259.78087137698554L856.5422596206664,259.49963216788706L857.9204450746016,260.29763575663674L859.6431768920204,260.30136875220575L860.332269618988,259.2448184100207L862.7440941633744,260.0978988405879L863.433186890342,259.27141708610526L863.7777332538258,260.13967201374186L864.8113723442771,259.0193576033919L865.5004650712447,259.32731674597164L866.8786505251796,259.9829901347547L867.912289615631,260.74243387136227L868.6013823425986,259.8159494095946L869.2904750695661,259.34339201227345L869.6350214330499,260.2388345804928L872.7359387044039,259.59388381007267L873.0804850678877,259.7422249124172L873.4250314313715,260.1987590108923L874.8032168853065,259.7766793355577L875.8368559757579,260.37376807926233L876.8704950662092,259.55984512657795L877.215041429693,259.88172288604727L877.5595877931768,260.09508393673656L878.2486805201444,260.2155358378463L878.5932268836282,260.1990361706561L879.2823196105956,259.86627989045667L881.0050514280146,260.0773110668813L881.3495977914984,260.4572797805998L883.416875972401,259.86343034163485L883.7614223358848,260.00151653271786L884.1059686993684,260.1667383969279L885.4841541533036,260.52276743604597L886.1732468802712,259.8128313622516L886.8623396072387,260.4457689891584L888.2405250611739,259.2495301260057L891.6859886960115,260.4500822879829L892.3750814229791,260.2222223171485L893.0641741499467,260.8695462680464L893.4087205134305,260.32941385580773L894.7869059673656,260.6101420515917L895.4759986943332,260.672918738098L895.820545057817,260.97781180079045L896.1650914213008,261.35294754112715L898.5769159656871,260.944699870256L899.9551014196222,260.6850877839784L900.9887405100736,260.6548340635084L904.778750508395,260.82025513629867L906.1569359623302,260.81528358303507L906.8460286892977,260.4093311414581L907.8796677797491,260.85868506980154L908.5687605067167,260.7414205059758L908.9133068702002,260.5901345811406L909.6023995971678,261.2678681548756L909.9469459606516,261.19947898315183L910.2914923241354,260.5706034790336L910.6360386876192,260.33932231736446L911.3251314145868,260.7673002989229L912.0142241415543,260.81354267326856L912.3587705050381,260.6512569703066L913.7369559589733,260.51931160024077L914.0815023224569,260.81334346468833L914.7705950494245,261.1900382286966L915.8042341398759,261.0380594044518L917.5269659572948,260.76489247347473L921.6615223191,260.60576812406885L923.0397077730352,261.1894665866837L924.0733468634864,261.826968688451L926.4851714078728,261.06615647550956L927.5188104983242,261.6748166393539L929.5860886792269,261.4721175783292L929.9306350427107,261.64207714225205L930.6197277696783,260.71382578699L931.6533668601295,261.7372468761554L932.6870059505809,261.4851354259863L933.0315523140647,261.4553494126178L933.3760986775485,261.5835358033867L936.4770159489024,262.125019369474L936.8215623123862,261.9915582819498L937.16610867587,261.7071663805378L937.5106550393538,261.7809948126266L938.1997477663214,261.44752831053233L939.9224795837401,261.38213592875496L942.3343041281266,261.99066617396L942.6788504916104,261.134597614689L943.0233968550942,261.58168229746616L943.367943218578,261.5612417648841L946.1243141264482,262.18490320094537L949.2252313978021,262.26352996144544L950.9479632152211,261.96009198751307L953.7043341230913,262.48475542043326L954.048880486575,260.90345503290183L955.0825195770263,261.77689804486755L958.8725295753478,262.88607409720885L959.9061686657992,262.6696556278748L960.9398077562506,261.869902468116L961.2843541197342,262.49100883760457L961.628900483218,262.09678371853437L962.3179932101856,262.8060788603749L965.0743641180558,262.77721093872407L965.7634568450234,262.54146057586325L966.4525495719909,262.56572937768317L967.1416422989585,261.93244530107154L970.5871059337962,262.65955661898045L973.3434768416665,262.4759902429023L973.6880232051501,261.8909146427109L975.4107550225691,262.3890053832744L977.4780332034717,262.42916756530116L980.234404111342,262.21987729864304L982.3016822922445,262.30248823074805L982.6462286557284,261.78172235700663L982.9907750192122,263.108157019216L983.335321382696,262.94931849081655L984.0244141096634,263.03959462263987L985.7471459270824,262.5192877947573L992.2935268332741,263.4375267535512L992.9826195602417,263.0410843563704L994.3608050141767,263.205154275312L994.7053513776605,263.495557079102L995.3944441046281,263.7152668206314L997.117175922047,263.3258660137003L998.1508150124984,262.666806079053L998.8399077394657,263.8819957410572L999.8735468299171,263.1984071673114L1000.2180931934009,263.3319462060192L1000.5626395568847,263.1206118861029L1004.0081031917224,263.2381795934203L1004.3526495552062,262.26048120404334L1005.0417422821738,263.4903949785008L1005.3862886456576,262.92393238869874L1006.0753813726252,262.68085461458185L1007.4535668265602,263.0234414051545L1008.1426595535278,263.1232622263444L1009.1762986439791,263.51735742677533L1009.8653913709467,262.9167695410524L1010.5544840979143,263.4967696530687L1011.2435768248816,263.24500465260445L1014.3444940962357,263.7654673828542L1015.7226795501709,263.7902212142608L1017.1008650041059,264.07219662898194L1017.7899577310735,263.05055109455355L1018.8235968215248,262.86301786935564L1019.8572359119762,263.7300862067534L1021.9245140928788,263.3557473007377L1022.2690604563626,263.90902747927277L1023.6472459102976,262.67659328321304L1024.680885000749,263.6461847494981L1025.7145240912005,263.53613500077444L1026.4036168181678,263.8130522498058L1028.1263486355867,263.5074056590055L1029.504534089522,263.7400119907954L1030.5381731799732,263.3537032474795L1030.8827195434571,263.90348428399625L1031.2272659069406,263.64781306311056L1031.5718122704245,263.5130268054656L1032.6054513608758,263.7626611402454L1033.983636814811,263.32849903145666L1036.0509149957136,264.5045658605485L1036.3954613591973,263.6577128634247L1037.4291004496488,264.04040120732566L1040.185471357519,264.5341613265794L1041.9082031749379,264.3773322064677L1042.5972959019055,264.51339166677775L1042.9418422653891,263.6688512214334L1043.9754813558404,264.17588902562284L1044.3200277193241,264.0387815549558L1045.0091204462917,264.31808064570754L1046.042759536743,264.638408042748L1046.387305900227,263.6666252820802L1047.0763986271945,264.37288032776127L1049.143676808097,264.543662709733L1050.1773158985484,264.0004209113939L1051.2109549889997,264.59173260627136L1051.5555013524834,264.30573837497474L1052.9336868064186,264.4307027834892L1055.0009649873214,264.30755723592483L1059.4800677126104,264.5388383975939L1060.8582531665456,264.48409934423853L1061.547345893513,264.14305425485225L1063.270077710932,264.51004842712666L1064.9928095283508,264.43551843438564L1066.3709949822858,263.7988824568803L1068.0937267997049,264.286700963697L1069.4719122536399,264.9386500181537L1070.850097707575,264.45423537968645L1071.8837367980263,264.8460353508232L1077.051932250283,264.61987298354217L1080.4973958851208,264.720334736686L1080.8419422486045,265.2391864758085L1081.1864886120882,264.6657948919109L1082.2201277025395,264.6807528579148L1082.5646740660234,264.93982794715L1084.2874058834423,264.64687873802984L1086.3546840643448,264.83312143807746L1086.6992304278285,265.0454084946819L1087.0437767913124,264.8741150993956L1087.3883231547961,265.30460484131373L1087.73286951828,264.84342831679464L1088.0774158817637,265.0617176145345L1088.4219622452474,264.0720407266148L1091.1783331531176,264.6471212528232L1099.1028995132444,264.8270672294864L1099.4474458767284,264.82362871616647L1099.791992240212,265.2768802036887L1102.2038167845985,265.36046119496706L1105.99382678292,265.2519704699149L1106.6829195098876,265.4429422084328L1108.0611049638228,265.5211878742575L1110.817475871693,266.4009709158207L1111.1620222351767,265.0900658616282L1112.195661325628,265.4819957514042L1112.8847540525956,266.2465149761868L1113.2293004160795,265.59764066286004L1113.9183931430468,266.0793096874169L1119.775681322271,265.92222073002665L1120.4647740492387,266.42124688479305L1122.1875058666576,265.4921727114821L1123.221144957109,265.64162245288196L1124.2547840475602,265.81215365881775L1127.3557013189143,265.3964053518381L1127.700247682398,265.495931690779L1129.7675258633005,265.7267191616188L1130.4566185902681,265.4747116463612L1130.8011649537518,266.20819763883804L1132.8684431346546,265.60163349570763L1133.902082225106,266.05394956902694L1134.2466285885896,265.2747235542764L1135.9693604060085,266.2423402572442L1136.658453132976,265.59909575162015L1137.3475458599437,265.65256160231047L1138.381184950395,265.82012200202774L1138.7257313138787,265.7620483702638L1141.4821022217488,266.277834029499L1143.204834039168,265.8893772980134L1143.8939267661353,266.10188954692603L1144.2384731296193,265.36574455296494L1144.583019493103,266.06232499064004L1145.961204947038,266.16262218017414L1148.3730294914244,266.2707144880658L1151.8184931262622,265.97204019757413L1154.5748640341324,266.60850295022715L1156.2975958515513,266.3728305385499L1160.4321522133566,266.5012594441122L1162.1548840307755,265.8793302565748L1162.8439767577431,266.2889637262651L1163.1885231212268,266.1461571579544L1164.222162211678,265.80692226827557L1167.6676258465159,266.9414237940363L1169.7349040274187,266.09386057501774L1171.1130894813537,266.45180374875474L1172.8358212987725,266.44147954755226L1173.5249140257401,266.4348796806762L1174.2140067527077,266.61538863810966L1174.9030994796753,266.79607082039547L1175.592192206643,266.91686050996736L1176.970377660578,266.94260172303257L1177.3149240240616,266.89409876436326L1178.348563114513,266.68872337936915L1178.6931094779968,266.8678465379835L1179.0376558414805,266.38841211402246L1180.4158412954157,267.3450636838339L1181.104934022383,266.96046986655665L1182.1385731128346,266.61493825349345L1182.4831194763183,267.1926344749729L1183.1722122032857,266.97104524379506L1183.5167585667696,267.2699533878374L1184.8949440207048,266.676753542069L1185.5840367476724,267.3835022785794L1185.928583111156,266.1041847762202L1186.2731294746397,266.475882003237L1188.3404076555423,266.9249847555445L1189.02950038251,267.63118783376984L1190.0631394729614,267.11145264790014L1193.1640567443153,266.75425434102846L1194.1976958347666,266.9970982615946L1194.8867885617342,267.11588720412135L1195.5758812887018,267.314671383482L1196.2649740156692,267.2681691718578L1196.9540667426368,267.0130609317424L1200.0549840139909,266.98575203376305L1201.4331694679258,267.5019794163718L1202.1222621948934,267.2414319158913L1203.1559012853447,266.94992047304606L1205.912272193215,267.4085419309924L1207.29045764715,267.24031461559343L1208.6686431010853,267.6449765320201L1210.7359212819879,266.3532821139577L1213.1477458263741,267.41405048129843L1213.8368385533417,267.4631424044659L1215.5595703707606,267.4816947861569L1217.9713949151474,267.2788311615224L1219.0050340055984,267.48725530391863L1219.3495803690823,267.40195938660156L1221.0723121865012,267.36988680518147L1221.416858549985,267.1800583506894L1221.7614049134688,266.90821658983305L1222.4504976404364,267.67456333680843L1223.4841367308875,267.43478549612956L1225.2068685483066,267.70146515638464L1226.2405076387577,267.9686298462264L1226.5850540022416,267.4410302520582L1227.2741467292092,267.4156268274552L1229.3414249101118,267.32310743379344L1232.7868885449495,267.20793889068165L1235.198713089336,267.7411076638542L1236.2323521797873,268.37899086029677L1236.576898543271,267.6697043796988L1238.9887230876575,268.29637992819175L1239.3332694511412,267.63128310743866L1239.677815814625,267.40812619134664L1240.0223621781088,268.24197866329854L1241.7450939955277,268.0104549868361L1242.7787330859792,267.84761496434646L1250.7032994461058,268.280166082008L1251.0478458095897,267.8721782484154L1252.081484900041,268.40405649643765L1252.7705776270086,268.59357314619547L1254.4933094444275,268.7730340932719L1255.5269485348786,268.3130441589917L1255.8714948983625,268.49690501731897L1256.56058762533,267.6338814802245L1256.9051339888138,268.30505849329654L1259.3169585332002,268.1802673096345L1260.0060512601679,268.1998936854103L1260.6951439871352,268.62160958855486L1263.7960612584893,268.6558994480855L1265.5187930759082,267.7987309110019L1265.863339439392,268.88627117927956L1267.9306176202947,267.57736687213213L1268.619710347262,268.72676573519846L1269.3088030742297,268.7810024364819L1269.9978958011973,268.41313347870295L1271.3760812551325,268.38727966948363L1272.4097203455838,268.59446525418525L1273.7879057995187,268.86061657864053L1276.8888230708728,267.9926474720104L1277.2333694343567,268.64806102351486L1277.5779157978404,268.5281374582049L1279.645193978743,269.14161327294573L1282.4015648866134,267.94529645860945L1283.7797503405484,268.8431555135196L1284.468843067516,268.27153082311634L1284.8133894309997,268.40138017246824L1285.1579357944836,268.3941307123957L1286.5361212484186,269.0718209799176L1288.2588530658375,268.4090367109439L1290.6706776102237,268.979275602528L1292.048863064159,268.44561313852614L1293.4270485180941,268.65101450724814L1293.7715948815778,268.9226224145537L1294.8052339720293,269.1448352552002L1296.1834194259643,269.1715984948945L1296.872512152932,268.45811997286876L1298.9397903338345,269.00963325790946L1299.9734294242858,269.3489720824997L1300.6625221512534,268.75162350151646L1301.351614878221,268.7237776064947L1302.0407076051886,268.962568065515L1303.0743466956396,269.0924174148668L1303.7634394226072,268.6674102395269L1304.7970785130588,268.52338243600684L1306.1752639669937,269.270587836793L1306.8643566939613,269.12455928622785L1308.931634874864,269.0940024222662L1310.6543666922828,269.0277958836826L1310.9989130557667,269.14131012945404L1312.3770985097017,268.9883266010654L1314.7889230540882,269.3013785543054L1317.5452939619584,268.9080108982546L1318.5789330524096,269.20845208224057L1319.6125721428612,269.30369976732743L1319.9571185063448,268.99455403450884L1320.9907575967961,268.7049740487677L1322.713489414215,269.14784070638916L1324.7807675951178,269.79908820019364L1325.1253139586015,269.5065114245062L1326.5034994125365,269.37991870237926L1327.192592139504,268.9749103362478L1329.2598703204067,268.87652728133264L1329.6044166838906,269.4387805072215L1330.293509410858,269.44260877645934L1331.6716948647932,269.48683308127465L1334.0835194091796,269.87175602577145L1336.1507975900822,269.1430597004632L1337.1844366805337,269.0908583911953L1339.2517148614363,269.79185606260637L1342.0080857693065,269.536063584324L1343.0417248597578,269.3843965648135L1343.7308175867254,269.5469767500246L1344.075363950209,269.2288752923374L1345.798095767628,269.47210030757884L1346.1426421311116,269.43046571430676L1346.4871884945956,269.5021981256817L1347.1762812215632,269.6975611142076L1347.8653739485305,270.11881797149334L1348.2099203120144,269.7997291321475L1348.899013038982,269.4455189539795L1350.6217448564007,269.1745606398704L1354.0672084912387,269.8816731485708L1356.1344866721413,269.3917932660106L1356.823579399109,269.5783910770056L1357.1681257625926,269.4372388060352L1358.5463112165276,269.8771519799234L1358.8908575800115,270.32974521300656L1360.2690430339464,269.196309020088L1360.958135760914,269.827557704684L1363.0254139418166,269.40401427934677L1363.3699603053005,269.5165844496727L1364.4035993957518,269.6364906924974L1365.781784849687,270.13915456916396L1369.9163412114924,269.4408245604797L1371.639073028911,270.15121968013295L1371.983619392395,270.2751967069888L1372.6727121193624,269.67006166889064L1374.0508975732976,269.93715706879146L1375.7736293907165,270.28922792003243L1376.1181757542001,269.4308641314673L1378.185453935103,269.5149041686045L1378.5300002985866,269.75780005662637L1379.2190930255542,269.54430042605514L1383.3536493873596,270.0361897169031L1384.0427421143272,269.3469540129694L1384.7318348412946,270.460833120053L1385.4209275682622,270.12092265344984L1386.1100202952298,270.31018812717167L1387.143659385681,270.0162342139077L1388.1772984761324,270.0899413885998L1391.2782157474865,270.05207443586727L1393.345493928389,269.88989266781675L1394.0345866553566,270.1295405898563L1397.824596653678,270.11702509427107L1398.1691430171618,269.6077007220301L1400.2364211980644,269.65471394696885L1402.6482457424509,269.83998658784304L1410.9173584660616,269.89660513084686L1411.2619048295453,269.44994484895807L1411.950997556513,270.08662413267655L1412.9846366469642,269.81726814845206L1413.6737293739318,270.28465478392934L1420.909203007091,270.0881485113776L1421.9428420975426,269.92743915457237L1423.3210275514775,270.17296806035057L1423.6655739149612,269.8843841175107L1424.0101202784451,270.1577935632812L1424.6992130054127,269.9049978749452L1426.0773984593477,270.8156928914175L1427.1110375497992,270.18912127783597L1427.8001302767666,270.3029300058565L1428.4892230037342,270.4084412634475L1430.9010475481205,270.52258777993023L1431.934686638572,270.9046178693921L1432.2792330020557,269.40626620242784L1433.312872092507,270.0683922169625L1434.3465111829585,270.2819957824451" fill="none"></path></g></g></g></g></g></g><g transform="translate(49, 377)" clip-path="url(#clip_1)"><clipPath id="clip_1"><rect width="1516" height="22"></rect></clipPath><g><g><line x1="0" y1="0" x2="0" y2="5" style="visibility: inherit;" fill="rgb(0, 0, 0)" stroke="rgb(204, 204, 204)" stroke-width="1px"></line><line x1="137.8185453935103" y1="0" x2="137.8185453935103" y2="5" style="visibility: inherit;" fill="rgb(0, 0, 0)" stroke="rgb(204, 204, 204)" stroke-width="1px"></line><line x1="275.6370907870206" y1="0" x2="275.6370907870206" y2="5" style="visibility: inherit;" fill="rgb(0, 0, 0)" stroke="rgb(204, 204, 204)" stroke-width="1px"></line><line x1="413.45563618053086" y1="0" x2="413.45563618053086" y2="5" style="visibility: inherit;" fill="rgb(0, 0, 0)" stroke="rgb(204, 204, 204)" stroke-width="1px"></line><line x1="551.2741815740412" y1="0" x2="551.2741815740412" y2="5" style="visibility: inherit;" fill="rgb(0, 0, 0)" stroke="rgb(204, 204, 204)" stroke-width="1px"></line><line x1="689.0927269675515" y1="0" x2="689.0927269675515" y2="5" style="visibility: inherit;" fill="rgb(0, 0, 0)" stroke="rgb(204, 204, 204)" stroke-width="1px"></line><line x1="826.9112723610617" y1="0" x2="826.9112723610617" y2="5" style="visibility: inherit;" fill="rgb(0, 0, 0)" stroke="rgb(204, 204, 204)" stroke-width="1px"></line><line x1="964.729817754572" y1="0" x2="964.729817754572" y2="5" style="visibility: inherit;" fill="rgb(0, 0, 0)" stroke="rgb(204, 204, 204)" stroke-width="1px"></line><line x1="1102.5483631480824" y1="0" x2="1102.5483631480824" y2="5" style="visibility: inherit;" fill="rgb(0, 0, 0)" stroke="rgb(204, 204, 204)" stroke-width="1px"></line><line x1="1240.3669085415927" y1="0" x2="1240.3669085415927" y2="5" style="visibility: inherit;" fill="rgb(0, 0, 0)" stroke="rgb(204, 204, 204)" stroke-width="1px"></line><line x1="1378.185453935103" y1="0" x2="1378.185453935103" y2="5" style="visibility: inherit;" fill="rgb(0, 0, 0)" stroke="rgb(204, 204, 204)" stroke-width="1px"></line><line x1="1516.0039993286132" y1="0" x2="1516.0039993286132" y2="5" style="visibility: inherit;" fill="rgb(0, 0, 0)" stroke="rgb(204, 204, 204)" stroke-width="1px"></line></g><g transform="translate(0, 8)"><text style="text-anchor: middle; visibility: hidden; font-family: &quot;Helvetica Neue&quot;, sans-serif; font-size: 12px; font-weight: 200;" x="0" y="0" dx="0em" dy="0.95em" fill="rgb(50, 49, 63)" stroke="none" stroke-width="1px">-200k</text><text style="text-anchor: middle; visibility: inherit; font-family: &quot;Helvetica Neue&quot;, sans-serif; font-size: 12px; font-weight: 200;" x="137.8185453935103" y="0" dx="0em" dy="0.95em" fill="rgb(50, 49, 63)" stroke="none" stroke-width="1px">0</text><text style="text-anchor: middle; visibility: inherit; font-family: &quot;Helvetica Neue&quot;, sans-serif; font-size: 12px; font-weight: 200;" x="275.6370907870206" y="0" dx="0em" dy="0.95em" fill="rgb(50, 49, 63)" stroke="none" stroke-width="1px">200k</text><text style="text-anchor: middle; visibility: inherit; font-family: &quot;Helvetica Neue&quot;, sans-serif; font-size: 12px; font-weight: 200;" x="413.45563618053086" y="0" dx="0em" dy="0.95em" fill="rgb(50, 49, 63)" stroke="none" stroke-width="1px">400k</text><text style="text-anchor: middle; visibility: inherit; font-family: &quot;Helvetica Neue&quot;, sans-serif; font-size: 12px; font-weight: 200;" x="551.2741815740412" y="0" dx="0em" dy="0.95em" fill="rgb(50, 49, 63)" stroke="none" stroke-width="1px">600k</text><text style="text-anchor: middle; visibility: inherit; font-family: &quot;Helvetica Neue&quot;, sans-serif; font-size: 12px; font-weight: 200;" x="689.0927269675515" y="0" dx="0em" dy="0.95em" fill="rgb(50, 49, 63)" stroke="none" stroke-width="1px">800k</text><text style="text-anchor: middle; visibility: inherit; font-family: &quot;Helvetica Neue&quot;, sans-serif; font-size: 12px; font-weight: 200;" x="826.9112723610617" y="0" dx="0em" dy="0.95em" fill="rgb(50, 49, 63)" stroke="none" stroke-width="1px">1M</text><text style="text-anchor: middle; visibility: inherit; font-family: &quot;Helvetica Neue&quot;, sans-serif; font-size: 12px; font-weight: 200;" x="964.729817754572" y="0" dx="0em" dy="0.95em" fill="rgb(50, 49, 63)" stroke="none" stroke-width="1px">1.2M</text><text style="text-anchor: middle; visibility: inherit; font-family: &quot;Helvetica Neue&quot;, sans-serif; font-size: 12px; font-weight: 200;" x="1102.5483631480824" y="0" dx="0em" dy="0.95em" fill="rgb(50, 49, 63)" stroke="none" stroke-width="1px">1.4M</text><text style="text-anchor: middle; visibility: inherit; font-family: &quot;Helvetica Neue&quot;, sans-serif; font-size: 12px; font-weight: 200;" x="1240.3669085415927" y="0" dx="0em" dy="0.95em" fill="rgb(50, 49, 63)" stroke="none" stroke-width="1px">1.6M</text><text style="text-anchor: middle; visibility: inherit; font-family: &quot;Helvetica Neue&quot;, sans-serif; font-size: 12px; font-weight: 200;" x="1378.185453935103" y="0" dx="0em" dy="0.95em" fill="rgb(50, 49, 63)" stroke="none" stroke-width="1px">1.8M</text><text style="text-anchor: middle; visibility: hidden; font-family: &quot;Helvetica Neue&quot;, sans-serif; font-size: 12px; font-weight: 200;" x="1516.0039993286132" y="0" dx="0em" dy="0.95em" fill="rgb(50, 49, 63)" stroke="none" stroke-width="1px">2M</text></g><line x1="0" y1="0" x2="1516.0039993286132" y2="0" fill="rgb(0, 0, 0)" stroke="rgb(204, 204, 204)" stroke-width="1px"></line></g></g></g></g></svg>