<svg viewBox="0 0 1565.0999755859375 400" xmlns="http://www.w3.org/2000/svg"><g><g><g><g><g><line x1="68.64400100708008" y1="377.8099994659424" x2="63.64400100708008" y2="377.8099994659424" style="visibility: inherit;" fill="rgb(0, 0, 0)" stroke="rgb(204, 204, 204)" stroke-width="1px"></line><line x1="68.64400100708008" y1="348.74769181471606" x2="63.64400100708008" y2="348.74769181471606" style="visibility: inherit;" fill="rgb(0, 0, 0)" stroke="rgb(204, 204, 204)" stroke-width="1px"></line><line x1="68.64400100708008" y1="319.68538416348974" x2="63.64400100708008" y2="319.68538416348974" style="visibility: inherit;" fill="rgb(0, 0, 0)" stroke="rgb(204, 204, 204)" stroke-width="1px"></line><line x1="68.64400100708008" y1="290.62307651226337" x2="63.64400100708008" y2="290.62307651226337" style="visibility: inherit;" fill="rgb(0, 0, 0)" stroke="rgb(204, 204, 204)" stroke-width="1px"></line><line x1="68.64400100708008" y1="261.56076886103705" x2="63.64400100708008" y2="261.56076886103705" style="visibility: inherit;" fill="rgb(0, 0, 0)" stroke="rgb(204, 204, 204)" stroke-width="1px"></line><line x1="68.64400100708008" y1="232.4984612098107" x2="63.64400100708008" y2="232.4984612098107" style="visibility: inherit;" fill="rgb(0, 0, 0)" stroke="rgb(204, 204, 204)" stroke-width="1px"></line><line x1="68.64400100708008" y1="203.43615355858438" x2="63.64400100708008" y2="203.43615355858438" style="visibility: inherit;" fill="rgb(0, 0, 0)" stroke="rgb(204, 204, 204)" stroke-width="1px"></line><line x1="68.64400100708008" y1="174.37384590735803" x2="63.64400100708008" y2="174.37384590735803" style="visibility: inherit;" fill="rgb(0, 0, 0)" stroke="rgb(204, 204, 204)" stroke-width="1px"></line><line x1="68.64400100708008" y1="145.3115382561317" x2="63.64400100708008" y2="145.3115382561317" style="visibility: inherit;" fill="rgb(0, 0, 0)" stroke="rgb(204, 204, 204)" stroke-width="1px"></line><line x1="68.64400100708008" y1="116.24923060490534" x2="63.64400100708008" y2="116.24923060490534" style="visibility: inherit;" fill="rgb(0, 0, 0)" stroke="rgb(204, 204, 204)" stroke-width="1px"></line><line x1="68.64400100708008" y1="87.18692295367902" x2="63.64400100708008" y2="87.18692295367902" style="visibility: inherit;" fill="rgb(0, 0, 0)" stroke="rgb(204, 204, 204)" stroke-width="1px"></line><line x1="68.64400100708008" y1="58.124615302452696" x2="63.64400100708008" y2="58.124615302452696" style="visibility: inherit;" fill="rgb(0, 0, 0)" stroke="rgb(204, 204, 204)" stroke-width="1px"></line><line x1="68.64400100708008" y1="29.062307651226376" x2="63.64400100708008" y2="29.062307651226376" style="visibility: inherit;" fill="rgb(0, 0, 0)" stroke="rgb(204, 204, 204)" stroke-width="1px"></line><line x1="68.64400100708008" y1="0" x2="63.64400100708008" y2="0" style="visibility: inherit;" fill="rgb(0, 0, 0)" stroke="rgb(204, 204, 204)" stroke-width="1px"></line></g><g transform="translate(58.64400100708008, 0)"><text style="text-anchor: end; visibility: hidden; font-family: &quot;Helvetica Neue&quot;, sans-serif; font-size: 12px; font-weight: 200;" x="0" y="377.8099994659424" dx="0em" dy="0.3em" fill="rgb(50, 49, 63)" stroke="none" stroke-width="1px">-5e-6</text><text style="text-anchor: end; visibility: inherit; font-family: &quot;Helvetica Neue&quot;, sans-serif; font-size: 12px; font-weight: 200;" x="0" y="348.74769181471606" dx="0em" dy="0.3em" fill="rgb(50, 49, 63)" stroke="none" stroke-width="1px">0</text><text style="text-anchor: end; visibility: inherit; font-family: &quot;Helvetica Neue&quot;, sans-serif; font-size: 12px; font-weight: 200;" x="0" y="319.68538416348974" dx="0em" dy="0.3em" fill="rgb(50, 49, 63)" stroke="none" stroke-width="1px">5e-6</text><text style="text-anchor: end; visibility: inherit; font-family: &quot;Helvetica Neue&quot;, sans-serif; font-size: 12px; font-weight: 200;" x="0" y="290.62307651226337" dx="0em" dy="0.3em" fill="rgb(50, 49, 63)" stroke="none" stroke-width="1px">1e-5</text><text style="text-anchor: end; visibility: inherit; font-family: &quot;Helvetica Neue&quot;, sans-serif; font-size: 12px; font-weight: 200;" x="0" y="261.56076886103705" dx="0em" dy="0.3em" fill="rgb(50, 49, 63)" stroke="none" stroke-width="1px">1.5e-5</text><text style="text-anchor: end; visibility: inherit; font-family: &quot;Helvetica Neue&quot;, sans-serif; font-size: 12px; font-weight: 200;" x="0" y="232.4984612098107" dx="0em" dy="0.3em" fill="rgb(50, 49, 63)" stroke="none" stroke-width="1px">2e-5</text><text style="text-anchor: end; visibility: inherit; font-family: &quot;Helvetica Neue&quot;, sans-serif; font-size: 12px; font-weight: 200;" x="0" y="203.43615355858438" dx="0em" dy="0.3em" fill="rgb(50, 49, 63)" stroke="none" stroke-width="1px">2.5e-5</text><text style="text-anchor: end; visibility: inherit; font-family: &quot;Helvetica Neue&quot;, sans-serif; font-size: 12px; font-weight: 200;" x="0" y="174.37384590735803" dx="0em" dy="0.3em" fill="rgb(50, 49, 63)" stroke="none" stroke-width="1px">3e-5</text><text style="text-anchor: end; visibility: inherit; font-family: &quot;Helvetica Neue&quot;, sans-serif; font-size: 12px; font-weight: 200;" x="0" y="145.3115382561317" dx="0em" dy="0.3em" fill="rgb(50, 49, 63)" stroke="none" stroke-width="1px">3.5e-5</text><text style="text-anchor: end; visibility: inherit; font-family: &quot;Helvetica Neue&quot;, sans-serif; font-size: 12px; font-weight: 200;" x="0" y="116.24923060490534" dx="0em" dy="0.3em" fill="rgb(50, 49, 63)" stroke="none" stroke-width="1px">4e-5</text><text style="text-anchor: end; visibility: inherit; font-family: &quot;Helvetica Neue&quot;, sans-serif; font-size: 12px; font-weight: 200;" x="0" y="87.18692295367902" dx="0em" dy="0.3em" fill="rgb(50, 49, 63)" stroke="none" stroke-width="1px">4.5e-5</text><text style="text-anchor: end; visibility: inherit; font-family: &quot;Helvetica Neue&quot;, sans-serif; font-size: 12px; font-weight: 200;" x="0" y="58.124615302452696" dx="0em" dy="0.3em" fill="rgb(50, 49, 63)" stroke="none" stroke-width="1px">5e-5</text><text style="text-anchor: end; visibility: inherit; font-family: &quot;Helvetica Neue&quot;, sans-serif; font-size: 12px; font-weight: 200;" x="0" y="29.062307651226376" dx="0em" dy="0.3em" fill="rgb(50, 49, 63)" stroke="none" stroke-width="1px">5.5e-5</text><text style="text-anchor: end; visibility: hidden; font-family: &quot;Helvetica Neue&quot;, sans-serif; font-size: 12px; font-weight: 200;" x="0" y="0" dx="0em" dy="0.3em" fill="rgb(50, 49, 63)" stroke="none" stroke-width="1px">6e-5</text></g><line x1="68.64400100708008" y1="0" x2="68.64400100708008" y2="377.8099994659424" fill="rgb(0, 0, 0)" stroke="rgb(204, 204, 204)" stroke-width="1px"></line></g></g><g transform="translate(68, 0)" clip-path="url(#clip_0)"><clipPath id="clip_0"><rect width="1496" height="377"></rect></clipPath><g><g><g><line x1="0" y1="0" x2="0" y2="377.8099994659424" fill="rgb(0, 0, 0)" stroke="rgb(60, 60, 60)" stroke-width="1px" opacity="0.25"></line><line x1="136.0414544539018" y1="0" x2="136.0414544539018" y2="377.8099994659424" fill="rgb(0, 0, 0)" stroke="rgb(60, 60, 60)" stroke-width="1px" opacity="0.25"></line><line x1="272.0829089078036" y1="0" x2="272.0829089078036" y2="377.8099994659424" fill="rgb(0, 0, 0)" stroke="rgb(60, 60, 60)" stroke-width="1px" opacity="0.25"></line><line x1="408.1243633617054" y1="0" x2="408.1243633617054" y2="377.8099994659424" fill="rgb(0, 0, 0)" stroke="rgb(60, 60, 60)" stroke-width="1px" opacity="0.25"></line><line x1="544.1658178156072" y1="0" x2="544.1658178156072" y2="377.8099994659424" fill="rgb(0, 0, 0)" stroke="rgb(60, 60, 60)" stroke-width="1px" opacity="0.25"></line><line x1="680.207272269509" y1="0" x2="680.207272269509" y2="377.8099994659424" fill="rgb(0, 0, 0)" stroke="rgb(60, 60, 60)" stroke-width="1px" opacity="0.25"></line><line x1="816.2487267234108" y1="0" x2="816.2487267234108" y2="377.8099994659424" fill="rgb(0, 0, 0)" stroke="rgb(60, 60, 60)" stroke-width="1px" opacity="0.25"></line><line x1="952.2901811773127" y1="0" x2="952.2901811773127" y2="377.8099994659424" fill="rgb(0, 0, 0)" stroke="rgb(60, 60, 60)" stroke-width="1px" opacity="0.25"></line><line x1="1088.3316356312143" y1="0" x2="1088.3316356312143" y2="377.8099994659424" fill="rgb(0, 0, 0)" stroke="rgb(60, 60, 60)" stroke-width="1px" opacity="0.25"></line><line x1="1224.3730900851162" y1="0" x2="1224.3730900851162" y2="377.8099994659424" fill="rgb(0, 0, 0)" stroke="rgb(60, 60, 60)" stroke-width="1px" opacity="0.25"></line><line x1="1360.414544539018" y1="0" x2="1360.414544539018" y2="377.8099994659424" fill="rgb(0, 0, 0)" stroke="rgb(60, 60, 60)" stroke-width="1px" opacity="0.25"></line><line x1="1496.4559989929198" y1="0" x2="1496.4559989929198" y2="377.8099994659424" fill="rgb(0, 0, 0)" stroke="rgb(60, 60, 60)" stroke-width="1px" opacity="0.25"></line></g><g><line x1="0" y1="377.8099994659424" x2="1496.4559989929198" y2="377.8099994659424" fill="rgb(0, 0, 0)" stroke="rgb(60, 60, 60)" stroke-width="1px" opacity="0.25"></line><line x1="0" y1="348.74769181471606" x2="1496.4559989929198" y2="348.74769181471606" fill="rgb(0, 0, 0)" stroke="rgb(60, 60, 60)" stroke-width="1px" opacity="0.25"></line><line x1="0" y1="319.68538416348974" x2="1496.4559989929198" y2="319.68538416348974" fill="rgb(0, 0, 0)" stroke="rgb(60, 60, 60)" stroke-width="1px" opacity="0.25"></line><line x1="0" y1="290.62307651226337" x2="1496.4559989929198" y2="290.62307651226337" fill="rgb(0, 0, 0)" stroke="rgb(60, 60, 60)" stroke-width="1px" opacity="0.25"></line><line x1="0" y1="261.56076886103705" x2="1496.4559989929198" y2="261.56076886103705" fill="rgb(0, 0, 0)" stroke="rgb(60, 60, 60)" stroke-width="1px" opacity="0.25"></line><line x1="0" y1="232.4984612098107" x2="1496.4559989929198" y2="232.4984612098107" fill="rgb(0, 0, 0)" stroke="rgb(60, 60, 60)" stroke-width="1px" opacity="0.25"></line><line x1="0" y1="203.43615355858438" x2="1496.4559989929198" y2="203.43615355858438" fill="rgb(0, 0, 0)" stroke="rgb(60, 60, 60)" stroke-width="1px" opacity="0.25"></line><line x1="0" y1="174.37384590735803" x2="1496.4559989929198" y2="174.37384590735803" fill="rgb(0, 0, 0)" stroke="rgb(60, 60, 60)" stroke-width="1px" opacity="0.25"></line><line x1="0" y1="145.3115382561317" x2="1496.4559989929198" y2="145.3115382561317" fill="rgb(0, 0, 0)" stroke="rgb(60, 60, 60)" stroke-width="1px" opacity="0.25"></line><line x1="0" y1="116.24923060490534" x2="1496.4559989929198" y2="116.24923060490534" fill="rgb(0, 0, 0)" stroke="rgb(60, 60, 60)" stroke-width="1px" opacity="0.25"></line><line x1="0" y1="87.18692295367902" x2="1496.4559989929198" y2="87.18692295367902" fill="rgb(0, 0, 0)" stroke="rgb(60, 60, 60)" stroke-width="1px" opacity="0.25"></line><line x1="0" y1="58.124615302452696" x2="1496.4559989929198" y2="58.124615302452696" fill="rgb(0, 0, 0)" stroke="rgb(60, 60, 60)" stroke-width="1px" opacity="0.25"></line><line x1="0" y1="29.062307651226376" x2="1496.4559989929198" y2="29.062307651226376" fill="rgb(0, 0, 0)" stroke="rgb(60, 60, 60)" stroke-width="1px" opacity="0.25"></line><line x1="0" y1="0" x2="1496.4559989929198" y2="0" fill="rgb(0, 0, 0)" stroke="rgb(60, 60, 60)" stroke-width="1px" opacity="0.25"></line></g></g></g><g><g><line x1="0" y1="348.74769181471606" x2="1496.4559989929198" y2="348.74769181471606" fill="rgb(0, 0, 0)" stroke="rgb(153, 153, 153)" stroke-width="1.5px"></line></g></g><g><g><line x1="136.0414544539018" y1="0" x2="136.0414544539018" y2="377.8099994659424" fill="rgb(0, 0, 0)" stroke="rgb(153, 153, 153)" stroke-width="1.5px"></line></g></g><g><g><g><g><g><path style="fill: none;" stroke="rgb(0, 119, 187)" stroke-width="2px" d="M138.08207627071033,58.433665761602526L141.48311263205787,58.91656545654075L142.50342354046214,59.182645491543326L144.54404535727068,59.51307383827975L149.98570353542672,60.21779213137438L150.66591080769624,60.668673380941016L151.34611807996575,60.98893549908814L151.6862217161005,61.206691369079635L152.36642898837002,61.3974224106974L154.40705080517856,61.6971815345654L154.7471544413133,61.90689172880343L155.08725807744807,62.0632037063877L155.42736171358283,62.18771968860136L158.4882944387956,62.540684169295275L160.52891625560412,62.93780307895361L160.86901989173887,63.206870038447164L161.20912352787363,63.39917328421291L161.54922716400839,63.545443962701086L163.24974534468217,63.7877299517408L165.97057443376022,64.18034408798621L168.3512998867035,64.6322446543179L171.0721289757815,65.15062485596445L172.09243988418578,65.55436016302048L172.43254352032054,65.82750587940342L174.81326897326383,66.20772962181047L176.51378715393759,66.59038711226935L179.2346162430156,67.06722439399869L180.25492715141988,67.44604578653156L180.59503078755463,67.70424491085498L183.65596351276744,68.13730530626736L184.33617078503696,68.45895434304242L184.6762744211717,68.68285016656216L187.3971035102497,69.06443061323552L189.09762169092352,69.4479025472632L189.77782896319303,69.73979855431173L190.11793259932776,69.94584258194874L193.17886532454057,70.3476099191073L193.5189689606753,70.61957674622641L194.5392798690796,70.87547612095977L196.57990168588813,71.21444584524113L196.92000532202286,71.44873410584523L198.6205235026966,71.74383073541969L199.30073077496613,71.98270156569237L199.6408344111009,72.15692203187297L201.0012489556399,72.3850800167769L201.34135259177467,72.55288123400658L203.72207804471796,72.86989849020466L206.44290713379596,73.30735179608092L206.78301076993074,73.60072174765662L207.12311440606547,73.80765014490021L208.4835289506045,74.05543288844802L212.22466894808682,74.54405630739319L214.26529076489535,75.02266045831806L215.9658089455691,75.4643466221305L216.98611985397335,75.82207759931924L221.06736348759043,76.40757638474929L223.10798530439894,76.94430575556561L224.80850348507275,77.42087550955796L225.14860712120748,77.73771533000905L225.828814393477,77.98963207488077L227.18922893801602,78.26440782700598L228.54964348255504,78.55289052523841L229.22985075482453,78.78779299677882L230.93036893549834,79.08325815296104L235.69181984138487,79.69321029838812L237.39233802205862,80.21370525890217L237.7324416581934,80.55690866151122L239.4329598388672,80.91735437633452L240.79337438340622,81.25724751043055L241.13347801954095,81.49208981718874L241.81368529181046,81.69479959559987L244.5345143808885,82.06366841480599L244.87461801702324,82.3158961326302L246.91523983383178,82.65266286288318L247.25534346996653,82.88562932733544L247.5954471061013,83.0563156323073L248.61575801450556,83.25143823594726L251.67669073971834,83.64666117659118L254.3975198287964,84.13103789313698L259.83917800695247,84.91614136913853L261.1995925514915,85.51082915994158L263.2402143683,86.05307193398176L264.600628912839,86.5020348453632L265.2808361851085,86.83322544479319L269.36207981872553,87.4028000035679L269.70218345486035,87.77545116513323L275.1438416330164,88.49352776639137L279.5651889027682,89.32614035256353L279.9052925389029,89.85661433056731L280.58549981117244,90.23671156997062L282.62612162798104,90.650200013171L285.6870543531938,91.17643399930643L286.3672616254633,91.55398724358872L286.70736526159806,91.81142561645862L287.72767617000227,92.0585994608374L289.76829798681086,92.3923423252678L292.8292307120236,92.87072896414128L293.8495416204279,93.2504802263669L294.18964525656264,93.50923741000281L297.25057798177545,93.94263264039955L297.5906816179102,94.23357620493806L302.3521325237968,94.84081539537902L302.6922361599315,95.23606533594409L303.372443432201,95.53502815288425L304.0526507044705,95.7762102374046L308.8141016103571,96.35359253983461L310.51461979103084,96.85455405279521L311.19482706330035,97.2169353549279L312.2151379717047,97.52708341510913L314.9359670607827,97.96041520337724L316.9765888775912,98.40584437589649L317.6567961498607,98.73491473200914L318.677107058265,99.0250677663335L320.71772887507353,99.38458968648649L322.41824705574726,99.7548265118362L322.758350691882,100.00787503334652L325.8192834170948,100.4378535247127L326.49949068936434,100.75765347213343L327.85990523390336,101.0731506875432L328.2000088700381,101.29335544308958L329.9005270507119,101.58000196967532L331.2609415952509,101.87561559082877L331.6010452313856,102.0838817315767L333.3015634120594,102.363373547528L333.9817706843289,102.5928730314551L334.3218743204637,102.76147914811185L335.0020815927332,102.924455670707L335.6822888650027,103.08405443686513L336.02239250113746,103.21072012286055L337.72291068181124,103.44124320771562L338.063014317946,103.61046348492914L340.4437397708893,103.92833217711626L341.1239470431588,104.18085778678471L343.1645688599673,104.51780325214429L343.8447761322368,104.781783383961L345.5452943129106,105.09469513630893L347.24581249358437,105.43697431922033L347.9260197658539,105.70414622332345L352.0072633994709,106.23531802314682L354.3879888524142,106.77035762889972L354.72809248854895,107.12227936040728L355.40829976081847,107.39524525191285L355.7484033969532,107.5899312131167L356.088507033088,107.73764921613957L356.42861066922273,107.85718644425378L357.10881794149225,107.99071317547856L358.1291288498965,108.16354849311506L359.48954339443554,108.39086693065434L361.19006157510927,108.68179012468045L362.21037248351354,108.94905486175293L363.57078702805256,109.23303940919851L364.59109793645683,109.49614095832266L364.9312015725916,109.6849083140977L365.6114088448611,109.85998158016378L365.95151248099586,109.99593196610391L366.97182338940013,110.17021301832483L367.3119270255349,110.30568807595796L368.3322379339391,110.47969238943938L368.6723415700739,110.61499294558399L370.37285975074764,110.8507054107734L370.71296338688245,111.02303931618746L373.0936888398257,111.3427761852949L374.11399974822996,111.62732912741609L375.474414292769,111.92168659789098L376.49472520117325,112.19101190083273L377.17493247344277,112.4144199351988L377.8551397457123,112.6102691501747L379.2155542902513,112.85140438436241L380.57596883479033,113.11970277183235L381.59627974319454,113.37340108321587L381.93638337932936,113.55652649634652L382.27648701546406,113.69730817052545L382.6165906515988,113.81267514308854L384.6572124684073,114.06733388442956L386.6978342852159,114.40555922879253L387.37804155748535,114.67029882976664L387.71814519362016,114.8600490166516L389.0785597381592,115.09752483398466L390.4389742826982,115.36362757134185L391.4592851911024,115.61600849265778L391.79938882723724,115.79833501350305L392.13949246337194,115.9386373523107L392.81969973564145,116.08463160819639L393.49990700791096,116.23404101432885L396.56083973312377,116.60182757822355L396.90094336925847,116.85340594286089L397.9212542776628,117.09707224054483L398.2613579137975,117.27417844545573L398.60146154993225,117.41134859470282L399.2816688222018,117.55545507860728L399.6217724583365,117.67282539525053L401.6623942751451,117.92867768479482L403.02280881968414,118.20581476372354L403.36291245581884,118.40299497913657L404.04311972808836,118.58311596098542L404.72332700035787,118.75300140269576L405.7436379087621,118.94764348837879L406.0837415448969,119.09533516608917L406.42384518103165,119.21485659901589L406.76394881716635,119.31747588507244L407.7842597255707,119.4717667356079L409.1446742701097,119.68795849288654L410.164985178514,119.91039282615532L410.84519245078343,120.10565782047286L411.1852960869182,120.25372324336388L411.525399723053,120.37346892339906L413.5660215398615,120.63074643097849L413.90612517599624,120.81601936182676L415.60664335666996,121.08170679359353L416.967057901209,121.36474495785569L417.98736880961326,121.6272786770698L419.3477833541523,121.90842461380038L420.7081978986913,122.20072942279606L421.3884051709609,122.43792516079452L423.0889233516346,122.73476627685145L424.1092342600388,123.00559022538718L431.25141061886876,123.81708571384061L431.9316178911382,124.36579585951367L432.271721527273,124.72592837321804L433.632136071812,125.06562512839804L434.3123433440815,125.33125603410707L435.67275788862054,125.61426028273456L436.35296516089,125.84586722626736L437.03317243315956,126.0466442449881L438.0534833415638,126.25982127687732L439.07379424996805,126.48044677491245L441.11441606677664,126.7982521732919L442.47483061131555,127.1125611175217L444.85555606425896,127.51748300991844L445.1956597003936,127.79133411341226L445.5357633365284,127.98655120180908L445.8758669726632,128.13458788114767L447.5763851533369,128.37793356200874L448.25659242560647,128.58575382312642L449.2769033340107,128.80316525869858L449.6170069701455,128.96451854634242L449.9571106062802,129.09222848698448L450.29721424241495,129.19976087767026L453.018043331493,129.5115232642411L453.3581469676278,129.72948712248416L454.37845787603203,129.9529762580868L456.7591833289753,130.30340626530733L457.77949423737954,130.6063835485412L460.8404269625924,131.06631929694146L461.52063423486186,131.4040851403379L461.8607378709967,131.63765107267628L462.2008415071313,131.80869705837983L463.2211524155357,132.0040439287036L463.56125605167034,132.1521500189536L464.92167059620937,132.36463937830567L466.6221887768832,132.6466566671748L466.96229241301796,132.84677346679678L468.32270695755693,133.0904607935273L468.6628105936917,133.26757961586617L469.0029142298265,133.40475733556994L469.34301786596126,133.51797039369276L470.3633287743655,133.67861750746806L470.7034324105003,133.805903743789L471.043536046635,133.91318191188205L472.0638469550392,134.07026809163943L472.403950591174,134.19542622579442L475.12477968025206,134.5177556002021L476.4851942247911,134.8347789300488L477.16540149706054,135.08680578055782L477.8456087693301,135.2998262852196L478.1857124054648,135.45854501431717L480.56643785840805,135.77011277763464L480.90654149454286,135.98795986192556L481.2466451306776,136.14957453880072L482.2669560390819,136.3392541655826L484.98778512815994,136.70030489381116L485.6679924004294,136.97874818334932L487.0284069449684,137.26943140402958L487.36851058110324,137.47474776273825L488.38882148950745,137.69065685686505L489.069028761777,137.88200670769743L491.4497542147203,138.21315314405572L495.1908942122026,138.75180323693172L495.8711014844721,139.13680614525836L497.9117233012806,139.55323798981274L498.25182693741533,139.83399506460117L498.9320342096849,140.06426216207524L499.61224148195436,140.2642352731607L500.9726560264934,140.50783638676936L502.3330705710324,140.77762276013664L503.0132778433019,141.00129897851326L504.7137960239757,141.29003684104188L505.05389966011046,141.49418598485954L505.39400329624516,141.6475734392059L508.1148323853232,141.98684886397322L510.15545420213175,142.37584421839193L511.5158687466708,142.73286713624532L511.85597238280553,142.9779873132578L512.1960760189403,143.15595738752114L515.257008744153,143.54088881053903L515.9372160164226,143.83366051695083L516.9575269248269,144.10203436145477L518.9981487416353,144.44849722596027L519.3382523777701,144.68727291271927L521.7189778307134,145.04687485063363L522.399185102983,145.32444886598327L529.201257825678,146.10909642646928L529.5413614618128,146.6107913890614L529.8814650979475,146.9427147929172L530.9017760063518,147.2345796558875L531.2418796424865,147.4406049999702L531.5819832786212,147.59512663272034L537.7038487290469,148.24412991104552L538.7241596374511,148.7262511569422L539.4043669097207,149.0773367570813L541.7850923626639,149.50432464302366L542.1251959987986,149.79142380088962L543.4856105433377,150.08730054256648L544.1658178156072,150.3266394401737L544.8460250878767,150.53204717309433L546.5465432685505,150.80982394434926L547.2267505408199,151.03829440145861L547.9069578130895,151.2371895283252L549.2673723576286,151.4801438514025L552.668408718976,151.93497225000934L555.3892378080542,152.45511224133287L555.7293414441888,152.79810266242754L556.0694450803236,153.03480334138487L556.7496523525932,153.23862814311556L557.7699632609974,153.45364230305555L558.7902741694016,153.67536161967635L559.4704814416712,153.87020606224988L560.4907923500755,154.07983200669554L562.531414166884,154.39103767292136L563.2116214391534,154.6395654670131L563.891828711423,154.85049499606922L564.2319323475577,155.00795913980343L565.2522432559621,155.1951569049455L565.9324505282315,155.36927995838707L566.9527614366357,155.56647306935355L569.6735905257138,155.93203188809287L572.0543159786571,156.3677037051954L574.0949377954655,156.81453689501527L575.4553523400045,157.20625405586455L575.7954559761394,157.47219077867462L576.1355596122742,157.66265923866118L576.475663248409,157.80784674095366L578.5162850652174,158.08038934188752L579.5365959736217,158.33662572310467L581.917321426565,158.70670407769387L582.5975286988345,158.99056394304841L583.6178396072388,159.25359914116274L583.9579432433734,159.44231822808706L584.9782541517778,159.64826895914328L587.0188759685863,159.95726949733535L587.6990832408558,160.20448267285164L588.7193941492601,160.44552139881824L589.7397050576643,160.6828639132998L590.0798086937991,160.8561758482892L590.4199123299338,160.9910694355834L590.7600159660686,161.1029120142604L591.1001196022033,161.20091552952243L593.1407414190119,161.44515619648274L597.221985052629,161.96256079577572L599.2626068694375,162.45843365490992L600.9631250501112,162.91048104364825L602.3235395946502,163.3053351820934L604.7042650475936,163.7585841910193L605.384472319863,164.0923379907312L607.0849905005368,164.4471139438162L607.4250941366715,164.69088594196776L608.4454050450759,164.92986841976023L608.7855086812106,165.10416433273622L609.4657159534801,165.27054627487811L609.8058195896148,165.4012818664638L610.8261304980191,165.57244250031673L616.6078923123099,166.20052275300316L616.9479959484447,166.60827733091554L617.2880995845794,166.88383650396347L618.9886177652533,167.20369568105014L620.0089286736575,167.48833046620365L621.3693432181965,167.78272858425314L621.7094468543313,167.9902738813833L622.049550490466,168.14570748596196L623.409965035005,168.36258489566654L623.7500686711397,168.52361776778974L624.770379579544,168.71295676996527L626.1307941240831,168.95017741822792L626.8110013963526,169.15432265978654L631.2323486661044,169.67857643013903L631.5724523022392,170.02403511865106L634.6333850274519,170.5094597102182L634.9734886635866,170.83161243321425L638.714628661069,171.36486629807288L641.4354577501471,171.93205734002512L641.7755613862818,172.30327839149697L642.7958722946861,172.6187260721593L643.4760795669555,172.8698075331577L643.8161832030903,173.05135860693494L646.5370122921684,173.4075322033607L646.877115928303,173.65214278751665L647.2172195644379,173.82981133518842L648.5776341089769,174.06003393987118L649.2578413812463,174.25998035528187L649.9380486535159,174.44175682800693L652.658877742594,174.79806566380142L654.3593959232677,175.16637463853596L654.6994995594024,175.41826644967722L655.7198104678067,175.66211658614122L658.10053592075,176.02476319387844L662.181779554367,176.61321135763762L663.8822977350409,177.12080815827332L664.2224013711756,177.4562726649553L664.9026086434451,177.71935999244315L665.2427122795798,177.90811881523635L667.2833340963883,178.2068042084707L669.6640595493317,178.60235197027018L670.0041631854664,178.8705870536504L673.0650959106791,179.3096732530161L674.4255104552182,179.69674644871523L675.1057177274877,179.9907989896134L676.4661322720267,180.29085199023203L679.5270649972396,180.74902893994076L681.2275831779133,181.17846301214624L681.9077904501828,181.49793207894825L682.2478940863176,181.72051994532993L683.9484122669913,182.0086005675392L686.6692413560694,182.4286876639018L687.3494486283388,182.74255277432042L689.7301740812821,183.14720836643045L690.0702777174168,183.42090391887467L691.4306922619559,183.7087427264209L693.1312104426297,184.03597391332886L694.1515213510339,184.32502767525287L694.8317286233034,184.56026855588593L695.8520395317078,184.79412813404494L696.872350440112,185.02715893071957L698.232764984651,185.290598884804L700.953594073729,185.69590580941417L703.6744231628071,186.18633291633967L704.3546304350766,186.54239780397367L705.0348377073461,186.81784536003272L706.0551486157503,187.07582894344733L706.3952522518852,187.2615255197966L708.4358740686936,187.55837356516454L708.7759777048284,187.76738881868587L711.4968067939064,188.14004092295806L712.5171177023107,188.45634723530063L712.8572213384455,188.6770374490066L713.1973249745802,188.8403537744084L713.537428610715,188.96924999594998L714.2176358829845,189.1083963523536L715.2379467913887,189.28460344509736L717.6186722443321,189.6066599974801L717.9587758804668,189.8308003552103L719.6592940611405,190.11981247222866L720.3395013334101,190.35502836591834L720.6796049695448,190.52706432843266L721.0197086056795,190.6611923322418L724.0806413308924,191.01981428386486L725.4410558754314,191.35860893091836L726.1212631477009,191.6236943426292L726.4613667838356,191.8136520159562L727.1415740561051,191.9894352434311L728.842092236779,192.24943308229626L729.1821958729137,192.43633398279349L729.8624031451832,192.61028737569285L730.202506781318,192.74556583773304L730.5426104174527,192.85763511213528L731.562921325857,193.01759172655582L732.2431285981264,193.17537854780917L732.9233358703959,193.33185926403985L737.004579504013,193.79661212201742L740.0655122292259,194.35360898614152L742.1061340460343,194.8732372041744L742.4462376821691,195.21592056129464L744.4868594989777,195.60696067512518L744.8269631351124,195.87249116972401L745.167066771247,196.0627158927838L747.8878958603251,196.42408944965678L750.2686213132685,196.85725010963947L752.9894504023465,197.36438945778846L753.3295540384812,197.69957949297847L754.3498649468855,197.9934085638716L756.7305903998289,198.3860425322664L757.4107976720983,198.68343153678194L758.7712122166373,198.98548641557102L762.1722485779848,199.47577091848254L762.5123522141196,199.80084804652998L763.5326631225239,200.08860937313767L765.2331813031976,200.41578984236014L766.5935958477368,200.73571959997332L771.0149431174885,201.32944407995848L771.6951503897579,201.74749162055068L772.0352540258926,202.02922234208413L774.0758758427012,202.38369510368494L774.415979478836,202.6272809578236L774.7560831149707,202.8043388966073L775.4362903872403,202.97238651247858L776.1164976595098,203.13502370548002L780.1977412931268,203.60346622039765L783.2586740183397,204.16268110780817L784.6190885628786,204.62183151633423L786.3196067435525,205.0518454347077L786.6597103796871,205.3407602120323L788.360228560361,205.66863275168495L790.4008503771695,206.05079060415727L790.7409540133043,206.31098751281883L792.7815758301127,206.65253998669652L794.1419903746518,206.98108871798047L794.8221976469213,207.24003080935188L795.5024049191908,207.45720468765342L797.5430267359993,207.77293911419272L798.5633376444036,208.05509904901788L799.243544916673,208.28620363339164L800.2638558250774,208.51758143379507L801.2841667334816,208.74912316381634L802.3044776418859,208.9807632516083L802.9846849141554,209.1815601568845L805.3654103670987,209.51837482590912L806.0456176393683,209.7822722508026L810.1268612729853,210.3114751339778L810.4669649091201,210.65989906106108L810.8070685452548,210.89985984361158L815.5685194511414,211.47650936485968L816.9289339956803,211.94612055368827L818.2893485402194,212.35150874306512L818.629452176354,212.6256438538694L819.6497630847583,212.88283997013116L819.9898667208931,213.06806406618873L821.0101776292973,213.27191357360246L821.6903849015669,213.45603613065177L822.3705921738364,213.62831828836L824.0711103545101,213.88621548536517L825.0914212629144,214.1336688533475L825.7716285351838,214.34394949761554L826.7919394435881,214.56283293395558L827.8122503519925,214.78687804553877L828.8325612603967,215.0140201622679L829.5127685326662,215.2121182849064L830.5330794410705,215.42369220826873L831.5533903494747,215.6433516120653L831.8934939856096,215.80605368064374L836.9950485276308,216.3672501706868L839.3757739805741,216.92030459057153L841.0762921612478,217.40666514488262L841.4163957973826,217.72938790376978L841.7564994335174,217.9539237562802L842.436706705787,218.15045812038753L842.7768103419218,218.29928093603007L843.4570176141912,218.45038747801664L844.1372248864607,218.60286002668724L845.157535794865,218.7870586056688L845.4976394309996,218.92848417935826L846.8580539755387,219.13696099965165L848.5585721562124,219.41657076508557L849.238779428482,219.64614947694693L851.6195048814253,220.00023322992269L852.2997121536948,220.27449210518682L852.6398157898296,220.4699538566458L853.6601266982337,220.67994595730036L854.3403339705034,220.86774984117181L855.7007485150423,221.10405364757437L856.7210594234466,221.3385509811951L857.4012666957161,221.54106223396857L858.0814739679855,221.72437760911134L858.4215776041203,221.86527326049753L861.4825103293332,222.22795580066682L861.8226139654679,222.4764717510689L862.1627176016027,222.6564877476107L863.5231321461416,222.8881145924931L864.543443054546,223.1198099783241L865.5637539629502,223.3515422596019L865.903857599085,223.52148382554674L866.2439612352197,223.65435519141417L866.9241685074893,223.79589086353565L867.264272143624,223.91171446398673L867.9444794158934,224.04302147685837L869.6449975965674,224.27632935783924L869.9851012327022,224.4472205127283L872.0257230495106,224.7351853052201L872.3658266856454,224.93887060701573L872.70593032178,225.09198821439358L874.0663448663191,225.30747602577767L874.7465521385886,225.49858156520918L875.426759410858,225.67505351234672L876.7871739553972,225.904558156709L880.1882103167446,226.35131251896445L880.8684175890141,226.6811737597964L881.5486248612837,226.94090335689657L881.8887284974185,227.1276475414572L883.2491430419574,227.36331129915095L883.929350314227,227.56652240636822L884.2694539503617,227.71935549699913L884.6095575864965,227.8419575485558L886.9902830394399,228.13185530534875L888.3506975839788,228.42941543550424L889.3710084923831,228.70066656337667L893.1121484898653,229.20337524203882L894.4725630344044,229.6286219253158L895.1527703066738,229.94557855876064L896.1730812150781,230.22846758860675L896.8532884873478,230.46001385911546L897.1933921234823,230.62984381859883L897.8735993957519,230.7935546468899L898.2137030318867,230.92268334104267L898.5538066680214,231.03106698383488L898.8939103041562,231.1270035958107L899.5741175764258,231.24637418647487L900.2543248486951,231.37980939347446L900.5944284848299,231.49077271485234L901.954843029369,231.68097218375877L902.2949466655036,231.82599829140315L902.9751539377731,231.97482257946848L903.9954648461776,232.1568322020868L905.6959830268512,232.4205658780381L909.7772266604683,232.94966628272562L911.1376412050074,233.39074800161785L912.1579521134115,233.74811208273238L914.5386775663547,234.17886705726002L915.5589884747591,234.5300350917558L917.5996102915676,234.926170241134L917.9397139277024,235.1947535279391L918.6199211999719,235.4177163526232L919.6402321083762,235.64420909721284L920.6605430167805,235.8728197937458L921.0006466529153,236.04089263796612L921.34075028905,236.17263854167646L924.4016830142626,236.52983546236263L924.7417866503974,236.77506004107485L925.0818902865323,236.9530969854803L925.421993922667,237.09082557842413L926.1022011949366,237.2352713576691L927.8027193756103,237.4764667275963L930.1834448285535,237.83752047541154L930.5235484646884,238.08505915040118L930.8636521008232,238.26448455257312L931.2037557369579,238.4030462201768L933.9245848260359,238.73342617289845L936.9855175512486,239.20979929386903L938.6860357319225,239.6501510688316L941.4068648210006,240.16160085684623L941.7469684571352,240.4993771559555L942.7672793655395,240.79475798520025L946.5084193630217,241.31194448468574L947.5287302714261,241.7149714341562L948.5490411798304,242.0495026536177L948.889144815965,242.28112781159513L949.2292484520998,242.4510051035597L949.9094557243693,242.6147443313395L952.6302848134474,242.96022659104446L953.310492085717,243.22932879946845L953.9906993579863,243.45259874800155L954.6709066302559,243.64837356972242L958.0719429916035,244.07489003839305L960.7927720806815,244.57803864263252L961.1328757168161,244.91083423147668L962.83339389749,245.26503948716342L964.8740157142986,245.66299274013386L967.5948448033766,246.14900764407557L969.6354666201851,246.62604668599894L969.9755702563199,246.94317230833113L970.3156738924547,247.16435410803098L970.6557775285894,247.3279696141514L971.3359848008588,247.48794754130233L973.0365029815327,247.73846219997313L979.498472068093,248.4759677201513L980.1786793403626,248.9802838848592L981.5390938849015,249.40649083064133L981.8791975210363,249.69312142441115L982.5594047933058,249.92691263327404L984.2599229739795,250.22171103184962L985.2802338823839,250.4913051207742L985.9604411546533,250.71487442672998L986.9807520630576,250.94173106008265L987.3208556991924,251.10874723727238L987.6609593353271,251.23986336988673L991.0619956966746,251.62758462509348L991.4020993328094,251.89112380451803L992.0823066050789,252.11105593565142L992.4224102412137,252.273921640632L993.1026175134832,252.4334539162214L994.4630320580222,252.65279052853236L995.1432393302917,252.84620534852L996.163550238696,253.05496929029178L996.8437575109655,253.2420362788335L997.523964783235,253.41608932455958L998.2041720555044,253.5823297754739L1001.2651047807173,253.96021919536008L1002.6255193252564,254.3105743233715L1003.9859338697953,254.64440887625807L1004.6661411420648,254.90652246059105L1005.686452050469,255.15650566097003L1006.7067629588734,255.3992106309766L1008.7473847756819,255.73026371253894L1009.0874884118166,255.95980198777687L1010.4479029563556,256.2211464289993L1011.46821386476,256.470668143512L1012.4885247731643,256.71309622199885L1013.1687320454337,256.9203616925696L1014.8692502261075,257.19924887729223L1016.2296647706464,257.4902026642056L1017.2499756790507,257.7574899861328L1017.5900793151856,257.9487645764672L1017.9301829513201,258.09443575696844L1018.270286587455,258.2127448915697L1019.2905974958593,258.3764454221096L1020.6510120403982,258.5982872165133L1022.6916338572067,258.91682239271387L1023.0317374933416,259.13884992473476L1024.0520484017459,259.36478149372647L1026.772877490824,259.74758127271974L1028.4733956714977,260.1317869279348L1029.153602943767,260.42412105910364L1029.493706579902,260.6304258495443L1030.514017488306,260.8469237735879L1030.8541211244408,261.00772895431453L1031.5343283967104,261.1660228007904L1032.5546393051145,261.3537141584551L1032.8947429412494,261.4972332847933L1033.5749502135188,261.6451554986361L1035.6155720303275,261.9193410410613L1036.6358829387318,262.1765674162956L1037.656193847136,262.4236182912154L1037.9962974832706,262.6027531279066L1039.3567120278099,262.83385550600104L1041.3973338446183,263.1579491469773L1045.81868111437,263.7541719569803L1047.179095658909,264.2355271190618L1047.8593029311785,264.5861488397894L1049.5598211118524,264.95104766004505L1051.2603392925262,265.32451485457864L1052.6207538370652,265.67221453281735L1054.321272017739,266.0353601275796L1055.681686562278,266.3768689605167L1057.0421011068172,266.70539573635864L1058.0624120152213,266.995226851643L1063.1639665572425,267.63270288427077L1066.5650029185902,268.32424007948555L1066.905106554725,268.77006670835374L1067.2452101908596,269.06846911197516L1068.2655210992639,269.34022560392725L1068.6056247353986,269.534185925399L1070.3061429160723,269.8050879061011L1072.346764732881,270.15305919408075L1072.6868683690157,270.3927483931691L1073.0269720051504,270.5674662243614L1073.3670756412853,270.7032012348161L1073.70717927742,270.81554866738946L1074.047282913555,270.9138614386728L1074.3873865496894,271.00375552774335L1077.1082156387674,271.3049328187839L1084.930599269867,272.19645739446366L1085.2707029060016,272.76227856617203L1085.6108065421363,273.1326755809364L1087.9915319950796,273.5712503156539L1091.7326719925618,274.17435315842306L1092.4128792648314,274.5980234875632L1093.7732938093707,274.97584716112704L1096.4941228984487,275.4497822028635L1096.8342265345832,275.76504965420594L1097.8545374429875,276.0469251747906L1098.5347447152571,276.27786122518125L1098.8748483513918,276.447327167155L1099.5550556236612,276.61081747037906L1105.336817437952,277.23429975381055L1106.0170247102217,277.6701998619093L1107.7175428908954,278.08626571458757L1108.7378537992997,278.42862027597374L1109.7581647077038,278.72674806258465L1112.8190974329168,279.18377199844997L1113.1592010690515,279.4888927862696L1115.1998228858602,279.85739535851985L1115.8800301581296,280.1403076399098L1116.2201337942643,280.3409593204832L1118.260755611073,280.6467825429467L1119.281066519477,280.9229915262041L1119.6211701556117,281.1196212278978L1121.3216883362854,281.3921248367331L1122.001895608555,281.61743774007414L1122.6821028808247,281.81443622011864L1123.7024137892288,282.0253503579245L1124.0425174253635,282.18280526690853L1126.7633465144415,282.5245190498972L1128.4638646951155,282.8840731075095L1129.144071967385,283.1616162801167L1129.4841756035196,283.35904649542033L1129.8242792396545,283.5084110509031L1131.1846937841933,283.72164914571124L1133.5654192371367,284.065928528455L1136.9664555984843,284.5815477337394L1139.6872846875624,285.1381622090695L1141.3878028682361,285.62665668208655L1145.4690465018532,286.2906156795748L1147.169564682527,286.8435168658867L1147.8497719547966,287.23706831571377L1148.189875590931,287.5041034973494L1149.2101864993356,287.7570396561099L1152.611222860683,288.2178529270043L1154.6518446774917,288.6797731036605L1156.0122592220305,289.08054668573396L1157.7127774027044,289.4755366227971L1158.3929846749738,289.77433920851365L1159.0731919472435,290.0154314979834L1159.7533992195129,290.22189760970514L1160.4336064917825,290.40758801477807L1161.7940210363215,290.6426237339015L1162.1341246724562,290.8145494771149L1163.1544355808603,291.01041997282215L1163.4945392169952,291.158848696547L1163.83464285313,291.2788102425213L1165.195057397669,291.4744086461855L1165.8752646699384,291.65357631186276L1166.8955755783427,291.85379407560947L1167.2356792144776,292.0048290455968L1167.9158864867468,292.15726076562913L1168.2559901228817,292.27962410938784L1169.6164046674207,292.47666359172274L1170.2966119396904,292.6566980191636L1170.6367155758248,292.79562298736744L1170.9768192119598,292.9098843945902L1173.0174410287682,293.1638713384823L1173.6976483010378,293.3780742428574L1174.7179592094421,293.5993110352617L1177.7788919346547,294.01020037460296L1178.7992028430592,294.34944902798696L1179.4794101153286,294.6148089580572L1180.1596173875982,294.83583565413926L1180.8398246598676,295.0302624098283L1181.5200319321373,295.2087270867204L1184.58096465735,295.5939531567544L1185.941379201889,295.94871027485453L1186.6215864741584,296.2233752837545L1187.6418973825625,296.4808893388737L1190.3627264716408,296.8826386095434L1191.7231410161799,297.24730964802495L1193.0835555607189,297.5897316326324L1195.1241773775273,297.9806170375165L1197.5049028304707,298.43148480630583L1198.18511010274,298.76381620561926L1199.8856282834138,299.1177408330264L1202.2663537363574,299.54643213532955L1203.2866646447615,299.8963619664907L1203.6267682808962,300.1372241769267L1205.3272864615699,300.4362672910073L1205.6673900977048,300.64659958575623L1206.0074937338395,300.8037032743449L1206.6877010061091,300.959776225538L1207.7080119145132,301.146135046033L1209.4085300951872,301.4124761261491L1210.4288410035913,301.6649979385591L1210.768944639726,301.84741533774445L1211.4491519119956,302.0186765152955L1213.489773728804,302.3068633213846L1216.8908100901517,302.78882698067605L1219.271535543095,303.29434170210993L1220.2918464514992,303.6903655847494L1220.6319500876339,303.9588863406336L1223.0126755405772,304.336335320023L1223.352779176712,304.59370901939604L1223.6928828128468,304.77903860803974L1224.0329864489815,304.9211417302459L1225.7335046296553,305.16092939138866L1226.7538155380596,305.3975180951341L1234.5761991691588,306.2502905757174L1234.9163028052935,306.79285837580665L1235.9366137136979,307.21111516292L1236.6168209859675,307.52387997322785L1238.3173391666412,307.8660646472316L1239.3376500750453,308.1640905014131L1239.6777537111802,308.3738113829419L1240.3579609834496,308.561454649899L1240.6980646195846,308.7049449218127L1243.0787900725277,309.00737561081974L1243.7589973447973,309.25064476226385L1244.4392046170667,309.45841699117017L1247.5001373422795,309.8612265351321L1249.2006555229532,310.25743804932836L1249.540759159088,310.52607032686603L1251.5813809758965,310.8726808502276L1252.2615882481662,311.14245684500384L1252.9417955204356,311.3661331799094L1253.6220027927052,311.5621497188926L1254.9824173372442,311.80338006108167L1256.0027282456485,312.0408343734549L1257.3631427901873,312.3069273796779L1260.4240755154003,312.74472939002993L1260.764179151535,313.03831596526106L1261.1042827876697,313.24537327941965L1263.1449046044784,313.5550388247538L1265.8657336935564,313.98807898955255L1267.2261482380952,314.3715245645115L1267.9063555103648,314.66340159024617L1268.2464591464995,314.86943317470684L1268.5865627826345,315.0239574944032L1269.9469773271733,315.24029250502014L1271.647495507847,315.52461929920935L1274.0282209607903,315.9115519015818L1275.3886355053294,316.26733293908495L1276.7490500498684,316.604421980386L1277.089153686003,316.83758077418656L1278.1094645944074,317.07019110024606L1279.4698791389465,317.33337771468086L1280.150086411216,317.55310042138166L1282.1907082280245,317.8703652022411L1283.2110191364288,318.15344017781655L1283.8912264086982,318.3850948439211L1284.5714336809679,318.5858983816236L1285.2516409532373,318.76819018500447L1286.2719518616416,318.97028137409274L1286.952159133911,319.1533468255856L1287.9724700423153,319.3559011462604L1289.3328845868543,319.6010541574645L1290.013091859124,319.80995670222677L1292.0537136759324,320.12072938592314L1293.754231856606,320.46171878396L1294.0943354927408,320.697217791802L1295.45475003728,320.9621376153064L1297.8354754902232,321.3374260352679L1300.5563045793012,321.80984098212366L1301.5766154877056,322.1860050000163L1302.59692639611,322.5044195178117L1302.9370300322446,322.7263725402282L1303.9573409406487,322.95226046073793L1305.6578591213226,323.24231900086284L1307.698480938131,323.60178528177676L1308.038584574266,323.84837041934503L1309.3989991188048,324.1199419206851L1310.0792063910744,324.344695559529L1312.1198282078828,324.66497889967434L1312.4599318440178,324.88805321550086L1313.1401391162872,325.08370854303666L1314.5005536608262,325.32472215835725L1316.8812791137696,325.6856668534085L1318.921900930578,326.0876648272782L1319.9422118389823,326.42157919001954L1321.9828336557907,326.80735896450335L1324.7036627448688,327.28606819543216L1325.723973653273,327.6660093124089L1326.4041809255425,327.9557847206348L1326.7442845616774,328.16055480595L1328.4448027423512,328.4379426449582L1328.7849063784859,328.635280717383L1329.1250100146206,328.7845889298578L1329.8052172868902,328.9359840667423L1330.4854245591596,329.08863135827255L1330.8255281952943,329.2111251022106L1331.505735467564,329.346431557973L1333.2062536482376,329.5821417478898L1336.6072900095853,330.032619437478L1338.6479118263937,330.4883372080699L1339.3281190986634,330.82357807982453L1339.668222734798,331.05562797189725L1341.028637279337,331.31847885458035L1341.3687409154718,331.5070942245698L1342.7291554600108,331.7438843940029L1343.4093627322802,331.94776870506234L1345.4499845490889,332.255530448537L1345.7900881852236,332.4710928636417L1346.810399093628,332.693145891124L1348.170813638167,332.94999812641254L1352.252057271784,333.4749717812636L1353.9525754524577,333.9444817619933L1354.2926790885924,334.25709311945104L1354.9728863608618,334.5064701433252L1356.333300905401,334.77971730508915L1358.0338190860748,335.0981913899666L1358.3739227222095,335.32018120991296L1360.414544539018,335.63880625871974L1360.7546481751529,335.86088612838347L1361.4348554474223,336.0559442595813L1365.5160990810393,336.5438414519779L1366.196306353309,336.8983905054557L1366.8765136255784,337.172930146942L1367.5567208978478,337.39946414123335L1368.2369281701174,337.59719501152784L1369.2572390785217,337.808549112124L1370.2775499869258,338.02807715090125L1373.3384827121388,338.4379404451059L1375.3791045289472,338.8692895784676L1376.0593118012168,339.1899095322044L1379.800451798699,339.7222384491045L1380.1405554348337,340.07254090394434L1382.1811772516423,340.4681535336872L1384.5619027045855,340.9218573730717L1392.7243899718196,341.9358041718982L1393.0644936079545,342.57507748805403L1393.744700880224,343.02045181930714L1394.7650117886283,343.38039199647847L1395.4452190608977,343.6581664443409L1402.5873954197275,344.4738398976747L1403.6077063281318,345.0559595480944L1404.9681208726709,345.52885208754554L1405.3082245088056,345.8434927819961L1405.6483281449405,346.06318236944617L1406.3285354172099,346.25680652955594L1407.688949961749,346.4966017748211L1408.7092608701532,346.7331944343196L1409.3894681424226,346.9369604376584L1410.0696754146923,347.1210303812213L1412.4504008676354,347.44780864193785L1413.4707117760397,347.73659114374726L1413.8108154121746,347.9407658156127L1414.8311263205787,348.15598617237146L1415.851437228983,348.3778339410987" fill="none"></path></g></g></g></g><g opacity="0.2"><g><g><g><path style="fill: none;" stroke="rgb(0, 119, 187)" stroke-width="2px" d="M138.08207627071033,58.433665761602526L141.48311263205787,59.20630527350369L142.50342354046214,59.43808232514573L144.54404535727068,59.901657574041735L149.98570353542672,61.1378723348389L150.66591080769624,61.29240446634151L151.34611807996575,61.44691545223219L151.6862217161005,61.52418151798349L152.36642898837002,61.678713649486156L154.40705080517856,62.142288898382105L154.7471544413133,62.21955496413341L155.08725807744807,62.29682102988471L155.42736171358283,62.374087095636014L158.4882944387956,63.069439396174005L160.52891625560412,63.53301464507001L160.86901989173887,63.610280710821314L161.20912352787363,63.68754677657262L161.54922716400839,63.76481284232392L163.24974534468217,64.15112202546857L165.97057443376022,64.76922940586718L168.3512998867035,65.31007072051443L171.0721289757815,65.92817810091304L172.09243988418578,66.15995515255503L172.43254352032054,66.23722121830633L174.81326897326383,66.77806253295364L176.51378715393759,67.16437171609829L179.2346162430156,67.78247909649684L180.25492715141988,68.01427729375081L180.59503078755463,68.09154335950211L183.65596351276744,68.7868956600401L184.33617078503696,68.94142779154271L184.6762744211717,69.01869385729401L187.3971035102497,69.63680123769257L189.09762169092352,70.02311042083727L189.77782896319303,70.17764255233988L190.11793259932776,70.25490861809118L193.17886532454057,70.95026091862917L193.5189689606753,71.02752698438047L194.5392798690796,71.25932518163438L196.57990168588813,71.72290043053039L196.92000532202286,71.80016649628169L198.6205235026966,72.18647567942634L199.30073077496613,72.34100781092894L199.6408344111009,72.41825273106838L201.0012489556399,72.72731699407359L201.34135259177467,72.80458305982495L203.72207804471796,73.3454243744722L206.44290713379596,73.96353175487076L206.78301076993074,74.04077667501019L207.12311440606547,74.1180427407615L208.4835289506045,74.42710700376671L212.22466894808682,75.27699143580736L214.26529076489535,75.74056668470331L215.9658089455691,76.12687586784796L216.98611985397335,76.35867406510192L221.06736348759043,77.28582456289382L223.10798530439894,77.74939981178983L224.80850348507275,78.13573014054629L225.14860712120748,78.21297506068578L225.828814393477,78.36750719218838L227.18922893801602,78.6765714551936L228.54964348255504,78.98561457258694L229.22985075482453,79.14014670408955L230.93036893549834,79.52645588723419L235.69181984138487,80.60813851652875L237.39233802205862,80.9944476996734L237.7324416581934,81.07171376542476L239.4329598388672,81.45802294856935L240.79337438340622,81.76708721157462L241.13347801954095,81.84435327732592L241.81368529181046,81.99886426321666L244.5345143808885,82.61697164361522L244.87461801702324,82.69423770936652L246.91523983383178,83.15781295826253L247.25534346996653,83.23507902401383L247.5954471061013,83.31234508976513L248.61575801450556,83.54412214140717L251.67669073971834,84.23949558755703L254.3975198287964,84.85760296795559L259.83917800695247,86.09379658314089L261.1995925514915,86.4028608461461L263.2402143683,86.8664360950421L264.600628912839,87.17547921243545L265.2808361851085,87.33001134393805L269.36207981872553,88.25716184173001L269.70218345486035,88.33442790748131L275.1438416330164,89.57064266827842L279.5651889027682,90.57505923182168L279.9052925389029,90.65232529757299L280.58549981117244,90.80685742907559L282.62612162798104,91.2704326779716L285.6870543531938,91.96578497850959L286.3672616254633,92.1203171100122L286.70736526159806,92.1975831757635L287.72767617000227,92.42936022740554L289.76829798681086,92.89295662191341L292.8292307120236,93.5883089224514L293.8495416204279,93.82010711970531L294.18964525656264,93.89737318545662L297.25057798177545,94.5927254859946L297.5906816179102,94.66999155174591L302.3521325237968,95.75167418104047L302.6922361599315,95.82894024679177L303.372443432201,95.98347237829438L304.0526507044705,96.13798336418517L308.8141016103571,97.21966599347968L310.51461979103084,97.60599632223625L311.19482706330035,97.76050730812693L312.2151379717047,97.99230550538084L314.9359670607827,98.61041288577945L316.9765888775912,99.0739881346754L317.6567961498607,99.22852026617801L318.677107058265,99.46029731782005L320.71772887507353,99.92387256671606L322.41824705574726,100.3101817498607L322.758350691882,100.387447815612L325.8192834170948,101.08282126176192L326.49949068936434,101.23735339326447L327.85990523390336,101.54639651065787L328.2000088700381,101.62366257640917L329.9005270507119,102.00997175955382L331.2609415952509,102.31903602255903L331.6010452313856,102.39628094269852L333.3015634120594,102.78261127145498L333.9817706843289,102.93712225734572L334.3218743204637,103.01438832309708L335.0020815927332,103.16892045459969L335.6822888650027,103.32345258610229L336.02239250113746,103.4007186518536L337.72291068181124,103.78702783499824L338.063014317946,103.86429390074954L340.4437397708893,104.40513521539685L341.1239470431588,104.55964620128759L343.1645688599673,105.02322145018354L343.8447761322368,105.17775358168615L345.5452943129106,105.5640627648308L347.24581249358437,105.95039309358731L347.9260197658539,106.10490407947805L352.0072633994709,107.03207572288187L354.3879888524142,107.57291703752912L354.72809248854895,107.65016195766856L355.40829976081847,107.80469408917122L355.7484033969532,107.88196015492252L356.088507033088,107.95922622067383L356.42861066922273,108.03649228642513L357.10881794149225,108.19100327231587L358.1291288498965,108.42280146956978L359.48954339443554,108.73184458696312L361.19006157510927,109.11817491571964L362.21037248351354,109.34995196736173L363.57078702805256,109.65901623036689L364.59109793645683,109.89079328200899L364.9312015725916,109.96805934776029L365.6114088448611,110.1225914792629L365.95151248099586,110.1998575450142L366.97182338940013,110.43163459665624L367.3119270255349,110.50890066240754L368.3322379339391,110.74069885966145L368.6723415700739,110.81794377980088L370.37285975074764,111.20427410855746L370.71296338688245,111.28154017430876L373.0936888398257,111.82238148895601L374.11399974822996,112.05415854059805L375.474414292769,112.36322280360326L376.49472520117325,112.5949998552453L377.17493247344277,112.74953198674797L377.8551397457123,112.9040429726387L379.2155542902513,113.21310723564392L380.57596883479033,113.52215035303726L381.59627974319454,113.75394855029117L381.93638337932936,113.83121461604247L382.27648701546406,113.90848068179378L382.6165906515988,113.98572560193321L384.6572124684073,114.44932199644103L386.6978342852159,114.91289724533704L387.37804155748535,115.06740823122777L387.71814519362016,115.14467429697908L389.0785597381592,115.45373855998429L390.4389742826982,115.76278167737763L391.4592851911024,115.99457987463154L391.79938882723724,116.07182479477103L392.13949246337194,116.14909086052234L392.81969973564145,116.30362299202494L393.49990700791096,116.45815512352755L396.56083973312377,117.15350742406554L396.90094336925847,117.23077348981684L397.9212542776628,117.4625716870708L398.2613579137975,117.53983775282211L398.60146154993225,117.61710381857341L399.2816688222018,117.7716148044641L399.6217724583365,117.8488808702154L401.6623942751451,118.3124561191114L403.02280881968414,118.62152038211661L403.36291245581884,118.69876530225605L404.04311972808836,118.85329743375866L404.72332700035787,119.00782956526126L405.7436379087621,119.2396066169033L406.0837415448969,119.3168726826546L406.42384518103165,119.39413874840591L406.76394881716635,119.47140481415727L407.7842597255707,119.70320301141118L409.1446742701097,120.01224612880446L410.164985178514,120.24404432605843L410.84519245078343,120.39855531194917L411.1852960869182,120.47582137770047L411.525399723053,120.55308744345177L413.5660215398615,121.01666269234778L413.90612517599624,121.09392875809908L415.60664335666996,121.48023794124373L416.967057901209,121.78930220424894L417.98736880961326,122.02107925589098L419.3477833541523,122.3301435188962L420.7081978986913,122.63918663628954L421.3884051709609,122.79371876779217L423.0889233516346,123.18002795093685L424.1092342600388,123.41182614819076L431.25141061886876,125.03432894652067L431.9316178911382,125.18886107802331L432.271721527273,125.26612714377461L433.632136071812,125.57517026116798L434.3123433440815,125.72970239267059L435.67275788862054,126.03876665567577L436.35296516089,126.19327764156654L437.03317243315956,126.34780977306914L438.0534833415638,126.57958682471121L439.07379424996805,126.81138502196512L441.11441606677664,127.27496027086107L442.47483061131555,127.58402453386631L444.85555606425896,128.1248658485136L445.1956597003936,128.20211076865303L445.5357633365284,128.2793768344043L445.8758669726632,128.3566429001556L447.5763851533369,128.74295208330028L448.25659242560647,128.8974842148029L449.2769033340107,129.12928241205682L449.6170069701455,129.20654847780813L449.9571106062802,129.28379339794756L450.29721424241495,129.3610594636989L453.018043331493,129.97916684409745L453.3581469676278,130.05643290984875L454.37845787603203,130.2882099614908L456.7591833289753,130.82905127613805L457.77949423737954,131.06084947339198L460.8404269625924,131.75622291954184L461.52063423486186,131.91073390543258L461.8607378709967,131.9879999711839L462.2008415071313,132.0652660369352L463.2211524155357,132.29706423418912L463.56125605167034,132.37430915432859L464.92167059620937,132.6833734173338L466.6221887768832,133.06968260047844L466.96229241301796,133.14694866622975L468.32270695755693,133.45599178362312L468.6628105936917,133.53325784937442L469.0029142298265,133.61052391512573L469.34301786596126,133.68778998087703L470.3633287743655,133.91958817813097L470.7034324105003,133.9968330982704L471.043536046635,134.0740991640217L472.0638469550392,134.30589736127558L472.403950591174,134.38316342702691L475.12477968025206,135.00124966181363L476.4851942247911,135.31031392481881L477.16540149706054,135.46484605632145L477.8456087693301,135.6193570422122L478.1857124054648,135.6966231079635L480.56643785840805,136.2374644226108L480.90654149454286,136.3147304883621L481.2466451306776,136.3919965541134L482.2669560390819,136.62377360575542L484.98778512815994,137.24188098615403L485.6679924004294,137.39641311765664L487.0284069449684,137.70545623504995L487.36851058110324,137.78272230080128L488.38882148950745,138.0145204980552L489.069028761777,138.16903148394593L491.4497542147203,138.70987279859324L495.1908942122026,139.5597783762457L495.8711014844721,139.71431050774834L497.9117233012806,140.17788575664426L498.25182693741533,140.25513067678372L498.9320342096849,140.40966280828633L499.61224148195436,140.56419493978893L500.9726560264934,140.8732380571823L502.3330705710324,141.1823023201875L503.0132778433019,141.33681330607826L504.7137960239757,141.7231436348348L505.05389966011046,141.8004097005861L505.39400329624516,141.87765462072554L508.1148323853232,142.4957620011241L510.15545420213175,142.95933725002007L511.5158687466708,143.2684015130253L511.85597238280553,143.3456675787766L512.1960760189403,143.42291249891608L515.257008744153,144.11828594506594L515.9372160164226,144.27281807656854L516.9575269248269,144.5045951282106L518.9981487416353,144.9681915227184L519.3382523777701,145.04543644285786L521.7189778307134,145.58627775750514L522.399185102983,145.74080988900775L529.201257825678,147.28606776719823L529.5413614618128,147.36333383294954L529.8814650979475,147.44059989870084L530.9017760063518,147.6723769503429L531.2418796424865,147.7496430160942L531.5819832786212,147.8269090818455L537.7038487290469,149.21763482853342L538.7241596374511,149.4494330257873L539.4043669097207,149.60396515728993L541.7850923626639,150.14480647193722L542.1251959987986,150.22207253768852L543.4856105433377,150.53111565508186L544.1658178156072,150.68564778658447L544.8460250878767,150.8401587724752L546.5465432685505,151.22648910123175L547.2267505408199,151.38100008712252L547.9069578130895,151.53553221862512L549.2673723576286,151.84457533601844L552.668408718976,152.61721484791966L555.3892378080542,153.2353222283182L555.7293414441888,153.31258829406954L556.0694450803236,153.38985435982084L556.7496523525932,153.54436534571158L557.7699632609974,153.77616354296552L558.7902741694016,154.00794059460756L559.4704814416712,154.16247272611014L560.4907923500755,154.39427092336408L562.531414166884,154.85784617226005L563.2116214391534,155.0123571581508L563.891828711423,155.16688928965343L564.2319323475577,155.24415535540467L565.2522432559621,155.4759535526586L565.9324505282315,155.63046453854935L566.9527614366357,155.86226273580328L569.6735905257138,156.48037011620184L572.0543159786571,157.02121143084912L574.0949377954655,157.4847866797451L575.4553523400045,157.79382979713844L575.7954559761394,157.87109586288975L576.1355596122742,157.94836192864105L576.475663248409,158.02562799439235L578.5162850652174,158.48920324328833L579.5365959736217,158.7209802949304L581.917321426565,159.26182160957765L582.5975286988345,159.41635374108026L583.6178396072388,159.6481519383342L583.9579432433734,159.72539685847363L584.9782541517778,159.9571950557275L587.0188759685863,160.4207703046235L587.6990832408558,160.57530243612612L588.7193941492601,160.80707948776816L589.7397050576643,161.0388776850221L590.0798086937991,161.11614375077335L590.4199123299338,161.19340981652468L590.7600159660686,161.27067588227598L591.1001196022033,161.34792080241542L593.1407414190119,161.81151719692326L597.221985052629,162.7386676947152L599.2626068694375,163.20224294361117L600.9631250501112,163.58855212675581L602.3235395946502,163.89761638976103L604.7042650475936,164.43845770440834L605.384472319863,164.59296869029907L607.0849905005368,164.97927787344372L607.4250941366715,165.05654393919502L608.4454050450759,165.28834213644893L608.7855086812106,165.36560820220024L609.4657159534801,165.520119188091L609.8058195896148,165.5973852538423L610.8261304980191,165.82918345109618L616.6078923123099,167.1426431320328L616.9479959484447,167.2199091977841L617.2880995845794,167.2971752635354L618.9886177652533,167.68348444668007L620.0089286736575,167.915282643934L621.3693432181965,168.22432576132732L621.7094468543313,168.30159182707862L622.049550490466,168.37885789282993L623.409965035005,168.6879010102233L623.7500686711397,168.7651670759746L624.770379579544,168.99696527322854L626.1307941240831,169.3060083906219L626.8110013963526,169.4605405221245L631.2323486661044,170.46495708566775L631.5724523022392,170.54222315141902L634.6333850274519,171.23759659756894L634.9734886635866,171.31484151770837L638.714628661069,172.16474709536084L641.4354577501471,172.7828439029535L641.7755613862818,172.8601099687048L642.7958722946861,173.09189759315277L643.4760795669555,173.2464297246554L643.8161832030903,173.32368521760077L646.5370122921684,173.94179259799935L646.877115928303,174.01905866375066L647.2172195644379,174.096314156696L648.5776341089769,174.40536784689533L649.2578413812463,174.5598999783979L649.9380486535159,174.7144215370946L652.658877742594,175.33252891749316L654.3593959232677,175.71883810063784L654.6994995594024,175.79610416638914L655.7198104678067,176.02789179083712L658.10053592075,176.5687331054844L662.181779554367,177.49588360327633L663.8822977350409,177.8822033592269L664.2224013711756,177.9594694249782L664.9026086434451,178.11399098367488L665.2427122795798,178.19125704942618L667.2833340963883,178.65483229832216L669.6640595493317,179.19567361296947L670.0041631854664,179.27293967872072L673.0650959106791,179.96830255206467L674.4255104552182,180.277356242264L675.1057177274877,180.43187780096065L676.4661322720267,180.74093149115993L679.5270649972396,181.43629436450388L681.2275831779133,181.8226141204545L681.9077904501828,181.9771356791512L682.2478940863176,182.0544017449025L683.9484122669913,182.44072150085307L686.6692413560694,183.05881830844572L687.3494486283388,183.21335043994833L689.7301740812821,183.75419175459558L690.0702777174168,183.83144724754098L691.4306922619559,184.14050093774026L693.1312104426297,184.52682069369084L694.1515213510339,184.7586083181388L694.8317286233034,184.9131298768355L695.8520395317078,185.1449175012835L696.872350440112,185.37670512573146L698.232764984651,185.68575881593077L700.953594073729,186.30386619632932L703.6744231628071,186.9219735767279L704.3546304350766,187.0764951354246L705.0348377073461,187.23101669412125L706.0551486157503,187.46280431856928L706.3952522518852,187.54007038432053L708.4358740686936,188.0036456332165L708.7759777048284,188.08091169896784L711.4968067939064,188.6990190793664L712.5171177023107,188.9308067038144L712.8572213384455,189.00807276956567L713.1973249745802,189.08532826251107L713.537428610715,189.16259432826237L714.2176358829845,189.31711588695904L715.2379467913887,189.54891408421295L717.6186722443321,190.0897448260543L717.9587758804668,190.1670108918056L719.6592940611405,190.5533306477562L720.3395013334101,190.70785220645288L720.6796049695448,190.7851182722042L721.0197086056795,190.8623843379555L724.0806413308924,191.55774721129944L725.4410558754314,191.86680090149875L726.1212631477009,192.0213224601954L726.4613667838356,192.0985885259467L727.1415740561051,192.2531100846434L728.842092236779,192.63942984059398L729.1821958729137,192.71668533353935L729.8624031451832,192.87121746504198L730.202506781318,192.94848353079328L730.5426104174527,193.02573902373865L731.562921325857,193.25752664818663L732.2431285981264,193.41205877968923L732.9233358703959,193.56658033838593L737.004579504013,194.49374140898377L740.0655122292259,195.18910428232772L742.1061340460343,195.6526795312237L742.4462376821691,195.729945596975L744.4868594989777,196.19352084587095L744.8269631351124,196.27078691162225L745.167066771247,196.34805297737358L747.8878958603251,196.9661497849662L750.2686213132685,197.5069910996135L752.9894504023465,198.12509848001207L753.3295540384812,198.20236454576337L754.3498649468855,198.43415217021135L756.7305903998289,198.9749934848586L757.4107976720983,199.1295150435553L758.7712122166373,199.4385687337546L762.1722485779848,200.21119767284983L762.5123522141196,200.28846373860114L763.5326631225239,200.52025136304914L765.2331813031976,200.9065605461938L766.5935958477368,201.2156142363931L771.0149431174885,202.22003079993632L771.6951503897579,202.37456293143893L772.0352540258926,202.4518184243843L774.0758758427012,202.9154042460862L774.415979478836,202.99265973903158L774.7560831149707,203.06992580478286L775.4362903872403,203.2244579362855L776.1164976595098,203.37897949498216L780.1977412931268,204.3061299927741L783.2586740183397,205.00150343892398L784.6190885628786,205.31055712912328L786.3196067435525,205.69686631226793L786.6597103796871,205.77413237801923L788.360228560361,206.16044156116388L790.4008503771695,206.6240273828658L790.7409540133043,206.70128287581116L792.7815758301127,207.16486869751304L794.1419903746518,207.47391181490642L794.8221976469213,207.62844394640902L795.5024049191908,207.7829655051057L797.5430267359993,208.24654075400167L798.5633376444036,208.47833895125558L799.243544916673,208.63286050995225L800.2638558250774,208.86464813440026L801.2841667334816,209.09643575884823L802.3044776418859,209.3282233832962L802.9846849141554,209.4827555147988L805.3654103670987,210.0235968294461L806.0456176393683,210.17811838814276L810.1268612729853,211.10527945874065L810.4669649091201,211.18253495168602L810.8070685452548,211.2598010174373L815.5685194511414,212.34148364673186L816.9289339956803,212.65053733693114L818.2893485402194,212.95959102713044L818.629452176354,213.03684652007578L819.6497630847583,213.2686341445238L819.9898667208931,213.3459002102751L821.0101776292973,213.5776878347231L821.6903849015669,213.73221996622567L822.3705921738364,213.88674152492237L824.0711103545101,214.27306128087295L825.0914212629144,214.50484890532096L825.7716285351838,214.65937046401763L826.7919394435881,214.8911580884656L827.8122503519925,215.12294571291358L828.8325612603967,215.35473333736158L829.5127685326662,215.50926546886419L830.5330794410705,215.74105309331216L831.5533903494747,215.97284071776014L831.8934939856096,216.05010678351144L836.9950485276308,217.20904490575134L839.3757739805741,217.74988622039862L841.0762921612478,218.13620597634923L841.4163957973826,218.21347204210053L841.7564994335174,218.2907275350459L842.436706705787,218.4452596665485L842.7768103419218,218.52251515949388L843.4570176141912,218.6770472909965L844.1372248864607,218.83156884969318L845.157535794865,219.06335647414116L845.4976394309996,219.14062253989246L846.8580539755387,219.44967623009174L848.5585721562124,219.83598541323641L849.238779428482,219.99051754473902L851.6195048814253,220.5313588593863L852.2997121536948,220.68588041808297L852.6398157898296,220.76314648383428L853.6601266982337,220.99493410828225L854.3403339705034,221.14945566697895L855.7007485150423,221.45850935717823L856.7210594234466,221.6902969816262L857.4012666957161,221.8448291131288L858.0814739679855,221.99935067182548L858.4215776041203,222.0766167375768L861.4825103293332,222.77197961092077L861.8226139654679,222.84924567667207L862.1627176016027,222.92651174242337L863.5231321461416,223.23555485981672L864.543443054546,223.46735305707065L865.5637539629502,223.6991406815186L865.903857599085,223.776396174464L866.2439612352197,223.8536622402153L866.9241685074893,224.0081943717179L867.264272143624,224.08544986466327L867.9444794158934,224.23998199616588L869.6449975965674,224.62629117931056L869.9851012327022,224.70355724506186L872.0257230495106,225.1671324939578L872.3658266856454,225.24439855970914L872.70593032178,225.32166462546041L874.0663448663191,225.6307077428538L874.7465521385886,225.7852398743564L875.426759410858,225.93976143305306L876.7871739553972,226.24881512325237L880.1882103167446,227.02144406234763L880.8684175890141,227.17596562104427L881.5486248612837,227.3304977525469L881.8887284974185,227.4077638182982L883.2491430419574,227.71680693569155L883.929350314227,227.87133906719416L884.2694539503617,227.9486051329455L884.6095575864965,228.02586062589086L886.9902830394399,228.5667019405381L888.3506975839788,228.8757556307374L889.3710084923831,229.1075432551854L893.1121484898653,229.95743826003195L894.4725630344044,230.26649195023123L895.1527703066738,230.42101350892793L896.1730812150781,230.6528011333759L896.8532884873478,230.8073332648785L897.1933921234823,230.88458875782388L897.8735993957519,231.0391208893265L898.2137030318867,231.11637638227188L898.5538066680214,231.19364244802318L898.8939103041562,231.27090851377446L899.5741175764258,231.42543007247116L900.2543248486951,231.57996220397376L900.5944284848299,231.65721769691913L901.954843029369,231.9662713871184L902.2949466655036,232.04353745286974L902.9751539377731,232.19805901156641L903.9954648461776,232.4298466360144L905.6959830268512,232.816166391965L909.7772266604683,233.74331688975693L911.1376412050074,234.0523705799562L912.1579521134115,234.28415820440418L914.5386775663547,234.82499951905146L915.5589884747591,235.05678714349943L917.5996102915676,235.52037296520135L917.9397139277024,235.59762845814672L918.6199211999719,235.75216058964932L919.6402321083762,235.9839482140973L920.6605430167805,236.2157358385453L921.0006466529153,236.2930019042966L921.34075028905,236.37025739724197L924.4016830142626,237.06563084339183L924.7417866503974,237.14289690914313L925.0818902865323,237.22015240208853L925.421993922667,237.29741846783983L926.1022011949366,237.4519400265365L927.8027193756103,237.83825978248709L930.1834448285535,238.37910109713437L930.5235484646884,238.45636716288567L930.8636521008232,238.53362265583104L931.2037557369579,238.61088872158237L933.9245848260359,239.22899610198093L936.9855175512486,239.92435897532488L938.6860357319225,240.3106787312755L941.4068648210006,240.9287755388681L941.7469684571352,241.00604160461944L942.7672793655395,241.2378292290674L946.5084193630217,242.08772423391397L947.5287302714261,242.31951185836195L948.5490411798304,242.55129948280992L948.889144815965,242.62856554856123L949.2292484520998,242.70582104150662L949.9094557243693,242.86035317300923L952.6302848134474,243.47844998060188L953.310492085717,243.63298211210446L953.9906993579863,243.78750367080116L954.6709066302559,243.94203580230376L958.0719429916035,244.71466474139902L960.7927720806815,245.33276154899164L961.1328757168161,245.41002761474297L962.83339389749,245.79634737069355L964.8740157142986,246.25992261958953L967.5948448033766,246.87802999998812L969.6354666201851,247.34160524888406L969.9755702563199,247.41886074182943L970.3156738924547,247.49612680758074L970.6557775285894,247.57339287333207L971.3359848008588,247.7279144320287L973.0365029815327,248.11423418797932L979.498472068093,249.58222600041853L980.1786793403626,249.73675813192114L981.5390938849015,250.04580124931448L981.8791975210363,250.12306731506578L982.5594047933058,250.2775994465684L984.2599229739795,250.66390862971306L985.2802338823839,250.89569625416107L985.9604411546533,251.05022838566367L986.9807520630576,251.28201601011165L987.3208556991924,251.35927150305702L987.6609593353271,251.43653756880832L991.0619956966746,252.20916650790357L991.4020993328094,252.2864325736549L992.0823066050789,252.44095413235155L992.4224102412137,252.51822019810285L993.1026175134832,252.6727523296055L994.4630320580222,252.98179544699883L995.1432393302917,253.13632757850144L996.163550238696,253.3681152029494L996.8437575109655,253.52263676164608L997.523964783235,253.6771688931487L998.2041720555044,253.8316904518454L1001.2651047807173,254.52705332518934L1002.6255193252564,254.83610701538862L1003.9859338697953,255.1451607055879L1004.6661411420648,255.2996928370905L1005.686452050469,255.5314804615385L1006.7067629588734,255.7632680859865L1008.7473847756819,256.22684333488246L1009.0874884118166,256.30410940063376L1010.4479029563556,256.61316309083304L1011.46821386476,256.844950715281L1012.4885247731643,257.076738339729L1013.1687320454337,257.2312598984257L1014.8692502261075,257.6175796543763L1016.2296647706464,257.9266333445756L1017.2499756790507,258.15842096902355L1017.5900793151856,258.2356764619689L1017.9301829513201,258.3129425277202L1018.270286587455,258.3902085934715L1019.2905974958593,258.62199621791956L1020.6510120403982,258.9310499081188L1022.6916338572067,259.39462515701473L1023.0317374933416,259.4718912227661L1024.0520484017459,259.70367884721406L1026.772877490824,260.3217809412097L1028.4733956714977,260.7080954107573L1029.153602943767,260.86262225585693L1029.493706579902,260.9398830352053L1030.514017488306,261.1716706596533L1030.8541211244408,261.2489367254046L1031.5343283967104,261.4034635705042L1032.5546393051145,261.63525119495216L1032.8947429412494,261.7125119743005L1033.5749502135188,261.8670388194002L1035.6155720303275,262.33061935469914L1036.6358829387318,262.5624069791471L1037.656193847136,262.7941946035951L1037.9962974832706,262.8714553829434L1039.3567120278099,263.18050907314273L1041.3973338446183,263.6440896084416L1045.81868111437,264.6485061719849L1047.179095658909,264.95755986218416L1047.8593029311785,265.1120814208808L1049.5598211118524,265.49839589042847L1051.2603392925262,265.88471564637905L1052.6207538370652,266.1937640501754L1054.321272017739,266.58007851972303L1055.681686562278,266.8891322099223L1057.0421011068172,267.1981859001216L1058.0624120152213,267.42997352456956L1063.1639665572425,268.58891693321243L1066.5650029185902,269.3615458723077L1066.905106554725,269.438806651656L1067.2452101908596,269.5160727174074L1068.2655210992639,269.74786034185536L1068.6056247353986,269.8251264076066L1070.3061429160723,270.21144087715425L1072.346764732881,270.6750161260502L1072.6868683690157,270.75228219180156L1073.0269720051504,270.82954297114986L1073.3670756412853,270.9068037504982L1073.70717927742,270.98406981624953L1074.047282913555,271.06133059559784L1074.3873865496894,271.1385966613492L1077.1082156387674,271.75669875534476L1084.930599269867,273.53374425798324L1085.2707029060016,273.61101032373455L1085.6108065421363,273.6882711030829L1087.9915319950796,274.22911241773016L1091.7326719925618,275.07900742257675L1092.4128792648314,275.2335289812734L1093.7732938093707,275.5425826714727L1096.4941228984487,276.1606847654683L1096.8342265345832,276.2379508312196L1097.8545374429875,276.4697384556676L1098.5347447152571,276.62426530076726L1098.8748483513918,276.70152608011557L1099.5550556236612,276.85605292521524L1105.336817437952,278.1695231789578L1106.0170247102217,278.3240500240574L1107.7175428908954,278.710364493605L1108.7378537992997,278.942152118053L1109.7581647077038,279.173939742501L1112.8190974329168,279.8693079022479L1113.1592010690515,279.9465739679992L1115.1998228858602,280.4101492168952L1115.8800301581296,280.5646760619948L1116.2201337942643,280.6419368413432L1118.260755611073,281.10551737664207L1119.281066519477,281.3373050010901L1119.6211701556117,281.4145657804384L1121.3216883362854,281.80088024998605L1122.001895608555,281.95540709508566L1122.6821028808247,282.10993394018533L1123.7024137892288,282.3417215646333L1124.0425174253635,282.4189876303846L1126.7633465144415,283.0370897243802L1128.4638646951155,283.42340419392787L1129.144071967385,283.5779310390275L1129.4841756035196,283.65519181837584L1129.8242792396545,283.73245788412714L1131.1846937841933,284.0415062879235L1133.5654192371367,284.58234760257074L1136.9664555984843,285.35497654166596L1139.6872846875624,285.9730839220646L1141.3878028682361,286.3593983916122L1145.4690465018532,287.28655417580705L1147.169564682527,287.6728686453547L1147.8497719547966,287.82739549045436L1148.189875590931,287.9046562698027L1149.2101864993356,288.13644389425065L1152.611222860683,288.90907283334593L1154.6518446774917,289.3726533686449L1156.0122592220305,289.68170705884415L1157.7127774027044,290.0680215283918L1158.3929846749738,290.22254308708847L1159.0731919472435,290.3770699321881L1159.7533992195129,290.53159677728775L1160.4336064917825,290.6861236223874L1161.7940210363215,290.9951773125867L1162.1341246724562,291.07243809193506L1163.1544355808603,291.30422571638303L1163.4945392169952,291.3814917821343L1163.83464285313,291.45875256148264L1165.195057397669,291.7678062516819L1165.8752646699384,291.92232781037865L1166.8955755783427,292.15412072122956L1167.2356792144776,292.23138150057787L1167.9158864867468,292.38590834567754L1168.2559901228817,292.4631691250259L1169.6164046674207,292.7722228152252L1170.2966119396904,292.92674966032484L1170.6367155758248,293.00401043967315L1170.9768192119598,293.08127650542446L1173.0174410287682,293.5448517543204L1173.6976483010378,293.6993785994201L1174.7179592094421,293.93116622386805L1177.7788919346547,294.62653438361497L1178.7992028430592,294.85832200806294L1179.4794101153286,295.0128488531626L1180.1596173875982,295.1673756982622L1180.8398246598676,295.3219025433619L1181.5200319321373,295.47642410205856L1184.58096465735,296.1717922618055L1185.941379201889,296.48084595200476L1186.6215864741584,296.6353727971044L1187.6418973825625,296.8671604215524L1190.3627264716408,297.485262515548L1191.7231410161799,297.7943162057473L1193.0835555607189,298.10336460954363L1195.1241773775273,298.5669451448425L1197.5049028304707,299.10778645948983L1198.18511010274,299.26231330458944L1199.8856282834138,299.6486277741371L1202.2663537363574,300.18946908878434L1203.2866646447615,300.4212567132323L1203.6267682808962,300.4985174925807L1205.3272864615699,300.8848319621283L1205.6673900977048,300.9620980278796L1206.0074937338395,301.0393588072279L1206.6877010061091,301.1938856523276L1207.7080119145132,301.42567327677557L1209.4085300951872,301.8119877463232L1210.4288410035913,302.0437806571741L1210.768944639726,302.1210414365225L1211.4491519119956,302.27556828162216L1213.489773728804,302.7391435305181L1216.8908100901517,303.51177246961333L1219.271535543095,304.05261378426064L1220.2918464514992,304.2844014087086L1220.6319500876339,304.3616674744599L1223.0126755405772,304.9025087891072L1223.352779176712,304.97976956845554L1223.6928828128468,305.05703299100537L1224.0329864489815,305.13429641355515L1225.7335046296553,305.5206108831028L1226.7538155380596,305.75240115075223L1234.5761991691588,307.52944929659225L1234.9163028052935,307.60671007594055L1235.9366137136979,307.83850034359006L1236.6168209859675,307.99302718868967L1238.3173391666412,308.3793416582373L1239.3376500750453,308.6111292826853L1239.6777537111802,308.6883927052351L1240.3579609834496,308.8429195503347L1240.6980646195846,308.9201803296831L1243.0787900725277,309.46102164433034L1243.7589973447973,309.61554848943L1244.4392046170667,309.7700753345297L1247.5001373422795,310.4654408510751L1249.2006555229532,310.8517553206227L1249.540759159088,310.92901874317255L1251.5813809758965,311.39259663526997L1252.2615882481662,311.54712083716817L1252.9417955204356,311.7016476822678L1253.6220027927052,311.85617452736744L1254.9824173372442,312.16522557436525L1256.0027282456485,312.3970158420147L1257.3631427901873,312.7060668890125L1260.4240755154003,313.40143240555796L1260.764179151535,313.4786958281078L1261.1042827876697,313.55595925065757L1263.1449046044784,314.01953714275504L1265.8657336935564,314.63763923675066L1267.2261482380952,314.94669292694994L1267.9063555103648,315.1012171288481L1268.2464591464995,315.1784805513979L1268.5865627826345,315.25574397394774L1269.9469773271733,315.56479502094555L1271.647495507847,315.9511094904932L1274.0282209607903,316.49195080514045L1275.3886355053294,316.8010044953397L1276.7490500498684,317.11005554233753L1277.089153686003,317.18731896488737L1278.1094645944074,317.41910658933534L1279.4698791389465,317.72815763633315L1280.150086411216,317.88268448143276L1282.1907082280245,318.34626237353024L1283.2110191364288,318.5780526411797L1283.8912264086982,318.7325768430779L1284.5714336809679,318.8871036881775L1285.2516409532373,319.0416278900757L1286.2719518616416,319.27341815772513L1286.952159133911,319.4279450028248L1287.9724700423153,319.6597326272728L1289.3328845868543,319.9687836742706L1290.013091859124,320.1233105193702L1292.0537136759324,320.58688841146767L1293.754231856606,320.97320288101525L1294.0943354927408,321.05046630356514L1295.45475003728,321.3595173505629L1297.8354754902232,321.9003586652102L1300.5563045793012,322.5184634024073L1301.5766154877056,322.75025102685527L1302.59692639611,322.9820412945047L1302.9370300322446,323.0593020738531L1303.9573409406487,323.2910923415025L1305.6578591213226,323.67740681105016L1307.698480938131,324.14098470314764L1308.038584574266,324.2182481256974L1309.3989991188048,324.5272991726952L1310.0792063910744,324.6818260177949L1312.1198282078828,325.1454039098923L1312.4599318440178,325.2226646892407L1313.1401391162872,325.37719153434034L1314.5005536608262,325.6862425813381L1316.8812791137696,326.2270838959854L1318.921900930578,326.6906617880828L1319.9422118389823,326.9224507341316L1321.9828336557907,327.386028626229L1324.7036627448688,328.00413204182536L1325.723973653273,328.23592098787407L1326.4041809255425,328.39044783297373L1326.7442845616774,328.46770993392283L1328.4448027423512,328.8540244034705L1328.7849063784859,328.93128782602025L1329.1250100146206,329.0085512485701L1329.8052172868902,329.16307677206896L1330.4854245591596,329.3176022955679L1330.8255281952943,329.3948657181177L1331.505735467564,329.5493912416166L1333.2062536482376,329.935707032765L1336.6072900095853,330.7083359718602L1338.6479118263937,331.1719138639577L1339.3281190986634,331.3264393874566L1339.668222734798,331.4037028100064L1341.028637279337,331.71275517860494L1341.3687409154718,331.79001727955404L1342.7291554600108,332.0990696481526L1343.4093627322802,332.25359517165145L1345.4499845490889,332.71717306374893L1345.7900881852236,332.79443648629876L1346.810399093628,333.0262254323475L1348.170813638167,333.3352764793453L1352.252057271784,334.2624322635402L1353.9525754524577,334.6487467330878L1354.2926790885924,334.7260101556376L1354.9728863608618,334.8805356791365L1356.333300905401,335.18958804773507L1358.0338190860748,335.5759025172827L1358.3739227222095,335.65316593983255L1360.414544539018,336.11674383192997L1360.7546481751529,336.19400593287907L1361.4348554474223,336.34853145637794L1365.5160990810393,337.27568724057284L1366.196306353309,337.4302140856725L1366.8765136255784,337.5847396091714L1367.5567208978478,337.7392651326703L1368.2369281701174,337.89379131696955L1369.2572390785217,338.1255802630183L1370.2775499869258,338.35736920906703L1373.3384827121388,339.05273538641285L1375.3791045289472,339.51631327851027L1376.0593118012168,339.67083946280957L1379.800451798699,340.52073182445463L1380.1405554348337,340.5979945862041L1382.1811772516423,341.0615724783015L1384.5619027045855,341.60241313214846L1392.7243899718196,343.45672437013803L1393.0644936079545,343.53398746228766L1393.744700880224,343.68851331618674L1394.7650117886283,343.9203022622355L1395.4452190608977,344.0748281161346L1402.5873954197275,345.69735007767525L1403.6077063281318,345.929139023724L1404.9681208726709,346.23819089672224L1405.3082245088056,346.3154538236718L1405.6483281449405,346.3927167506214L1406.3285354172099,346.5472427697205L1407.688949961749,346.8562946427188L1408.7092608701532,347.0880834235674L1409.3894681424226,347.2426094426666L1410.0696754146923,347.3971352965657L1412.4504008676354,347.93797603301266L1413.4707117760397,348.16976489646134L1413.8108154121746,348.24702782341086L1414.8311263205787,348.47881670750957L1415.851437228983,348.71060559418953" fill="none"></path></g></g></g></g></g></g><g transform="translate(68, 377)" clip-path="url(#clip_1)"><clipPath id="clip_1"><rect width="1496" height="22"></rect></clipPath><g><g><line x1="0" y1="0" x2="0" y2="5" style="visibility: inherit;" fill="rgb(0, 0, 0)" stroke="rgb(204, 204, 204)" stroke-width="1px"></line><line x1="136.0414544539018" y1="0" x2="136.0414544539018" y2="5" style="visibility: inherit;" fill="rgb(0, 0, 0)" stroke="rgb(204, 204, 204)" stroke-width="1px"></line><line x1="272.0829089078036" y1="0" x2="272.0829089078036" y2="5" style="visibility: inherit;" fill="rgb(0, 0, 0)" stroke="rgb(204, 204, 204)" stroke-width="1px"></line><line x1="408.1243633617054" y1="0" x2="408.1243633617054" y2="5" style="visibility: inherit;" fill="rgb(0, 0, 0)" stroke="rgb(204, 204, 204)" stroke-width="1px"></line><line x1="544.1658178156072" y1="0" x2="544.1658178156072" y2="5" style="visibility: inherit;" fill="rgb(0, 0, 0)" stroke="rgb(204, 204, 204)" stroke-width="1px"></line><line x1="680.207272269509" y1="0" x2="680.207272269509" y2="5" style="visibility: inherit;" fill="rgb(0, 0, 0)" stroke="rgb(204, 204, 204)" stroke-width="1px"></line><line x1="816.2487267234108" y1="0" x2="816.2487267234108" y2="5" style="visibility: inherit;" fill="rgb(0, 0, 0)" stroke="rgb(204, 204, 204)" stroke-width="1px"></line><line x1="952.2901811773127" y1="0" x2="952.2901811773127" y2="5" style="visibility: inherit;" fill="rgb(0, 0, 0)" stroke="rgb(204, 204, 204)" stroke-width="1px"></line><line x1="1088.3316356312143" y1="0" x2="1088.3316356312143" y2="5" style="visibility: inherit;" fill="rgb(0, 0, 0)" stroke="rgb(204, 204, 204)" stroke-width="1px"></line><line x1="1224.3730900851162" y1="0" x2="1224.3730900851162" y2="5" style="visibility: inherit;" fill="rgb(0, 0, 0)" stroke="rgb(204, 204, 204)" stroke-width="1px"></line><line x1="1360.414544539018" y1="0" x2="1360.414544539018" y2="5" style="visibility: inherit;" fill="rgb(0, 0, 0)" stroke="rgb(204, 204, 204)" stroke-width="1px"></line><line x1="1496.4559989929198" y1="0" x2="1496.4559989929198" y2="5" style="visibility: inherit;" fill="rgb(0, 0, 0)" stroke="rgb(204, 204, 204)" stroke-width="1px"></line></g><g transform="translate(0, 8)"><text style="text-anchor: middle; visibility: hidden; font-family: &quot;Helvetica Neue&quot;, sans-serif; font-size: 12px; font-weight: 200;" x="0" y="0" dx="0em" dy="0.95em" fill="rgb(50, 49, 63)" stroke="none" stroke-width="1px">-200k</text><text style="text-anchor: middle; visibility: inherit; font-family: &quot;Helvetica Neue&quot;, sans-serif; font-size: 12px; font-weight: 200;" x="136.0414544539018" y="0" dx="0em" dy="0.95em" fill="rgb(50, 49, 63)" stroke="none" stroke-width="1px">0</text><text style="text-anchor: middle; visibility: inherit; font-family: &quot;Helvetica Neue&quot;, sans-serif; font-size: 12px; font-weight: 200;" x="272.0829089078036" y="0" dx="0em" dy="0.95em" fill="rgb(50, 49, 63)" stroke="none" stroke-width="1px">200k</text><text style="text-anchor: middle; visibility: inherit; font-family: &quot;Helvetica Neue&quot;, sans-serif; font-size: 12px; font-weight: 200;" x="408.1243633617054" y="0" dx="0em" dy="0.95em" fill="rgb(50, 49, 63)" stroke="none" stroke-width="1px">400k</text><text style="text-anchor: middle; visibility: inherit; font-family: &quot;Helvetica Neue&quot;, sans-serif; font-size: 12px; font-weight: 200;" x="544.1658178156072" y="0" dx="0em" dy="0.95em" fill="rgb(50, 49, 63)" stroke="none" stroke-width="1px">600k</text><text style="text-anchor: middle; visibility: inherit; font-family: &quot;Helvetica Neue&quot;, sans-serif; font-size: 12px; font-weight: 200;" x="680.207272269509" y="0" dx="0em" dy="0.95em" fill="rgb(50, 49, 63)" stroke="none" stroke-width="1px">800k</text><text style="text-anchor: middle; visibility: inherit; font-family: &quot;Helvetica Neue&quot;, sans-serif; font-size: 12px; font-weight: 200;" x="816.2487267234108" y="0" dx="0em" dy="0.95em" fill="rgb(50, 49, 63)" stroke="none" stroke-width="1px">1M</text><text style="text-anchor: middle; visibility: inherit; font-family: &quot;Helvetica Neue&quot;, sans-serif; font-size: 12px; font-weight: 200;" x="952.2901811773127" y="0" dx="0em" dy="0.95em" fill="rgb(50, 49, 63)" stroke="none" stroke-width="1px">1.2M</text><text style="text-anchor: middle; visibility: inherit; font-family: &quot;Helvetica Neue&quot;, sans-serif; font-size: 12px; font-weight: 200;" x="1088.3316356312143" y="0" dx="0em" dy="0.95em" fill="rgb(50, 49, 63)" stroke="none" stroke-width="1px">1.4M</text><text style="text-anchor: middle; visibility: inherit; font-family: &quot;Helvetica Neue&quot;, sans-serif; font-size: 12px; font-weight: 200;" x="1224.3730900851162" y="0" dx="0em" dy="0.95em" fill="rgb(50, 49, 63)" stroke="none" stroke-width="1px">1.6M</text><text style="text-anchor: middle; visibility: inherit; font-family: &quot;Helvetica Neue&quot;, sans-serif; font-size: 12px; font-weight: 200;" x="1360.414544539018" y="0" dx="0em" dy="0.95em" fill="rgb(50, 49, 63)" stroke="none" stroke-width="1px">1.8M</text><text style="text-anchor: middle; visibility: hidden; font-family: &quot;Helvetica Neue&quot;, sans-serif; font-size: 12px; font-weight: 200;" x="1496.4559989929198" y="0" dx="0em" dy="0.95em" fill="rgb(50, 49, 63)" stroke="none" stroke-width="1px">2M</text></g><line x1="0" y1="0" x2="1496.4559989929198" y2="0" fill="rgb(0, 0, 0)" stroke="rgb(204, 204, 204)" stroke-width="1px"></line></g></g></g></g></svg>