<svg viewBox="0 0 330 200" xmlns="http://www.w3.org/2000/svg"><g><g><g><g><g><line x1="68.60800361633301" y1="177.80999946594238" x2="63.60800361633301" y2="177.80999946594238" style="visibility: inherit;" fill="rgb(0, 0, 0)" stroke="rgb(204, 204, 204)" stroke-width="1px"></line><line x1="68.60800361633301" y1="164.13230719933142" x2="63.60800361633301" y2="164.13230719933142" style="visibility: inherit;" fill="rgb(0, 0, 0)" stroke="rgb(204, 204, 204)" stroke-width="1px"></line><line x1="68.60800361633301" y1="150.4546149327205" x2="63.60800361633301" y2="150.4546149327205" style="visibility: inherit;" fill="rgb(0, 0, 0)" stroke="rgb(204, 204, 204)" stroke-width="1px"></line><line x1="68.60800361633301" y1="136.77692266610953" x2="63.60800361633301" y2="136.77692266610953" style="visibility: inherit;" fill="rgb(0, 0, 0)" stroke="rgb(204, 204, 204)" stroke-width="1px"></line><line x1="68.60800361633301" y1="123.09923039949858" x2="63.60800361633301" y2="123.09923039949858" style="visibility: inherit;" fill="rgb(0, 0, 0)" stroke="rgb(204, 204, 204)" stroke-width="1px"></line><line x1="68.60800361633301" y1="109.42153813288763" x2="63.60800361633301" y2="109.42153813288763" style="visibility: inherit;" fill="rgb(0, 0, 0)" stroke="rgb(204, 204, 204)" stroke-width="1px"></line><line x1="68.60800361633301" y1="95.74384586627667" x2="63.60800361633301" y2="95.74384586627667" style="visibility: inherit;" fill="rgb(0, 0, 0)" stroke="rgb(204, 204, 204)" stroke-width="1px"></line><line x1="68.60800361633301" y1="82.06615359966572" x2="63.60800361633301" y2="82.06615359966572" style="visibility: inherit;" fill="rgb(0, 0, 0)" stroke="rgb(204, 204, 204)" stroke-width="1px"></line><line x1="68.60800361633301" y1="68.38846133305478" x2="63.60800361633301" y2="68.38846133305478" style="visibility: inherit;" fill="rgb(0, 0, 0)" stroke="rgb(204, 204, 204)" stroke-width="1px"></line><line x1="68.60800361633301" y1="54.71076906644382" x2="63.60800361633301" y2="54.71076906644382" style="visibility: inherit;" fill="rgb(0, 0, 0)" stroke="rgb(204, 204, 204)" stroke-width="1px"></line><line x1="68.60800361633301" y1="41.033076799832884" x2="63.60800361633301" y2="41.033076799832884" style="visibility: inherit;" fill="rgb(0, 0, 0)" stroke="rgb(204, 204, 204)" stroke-width="1px"></line><line x1="68.60800361633301" y1="27.355384533221923" x2="63.60800361633301" y2="27.355384533221923" style="visibility: inherit;" fill="rgb(0, 0, 0)" stroke="rgb(204, 204, 204)" stroke-width="1px"></line><line x1="68.60800361633301" y1="13.677692266610961" x2="63.60800361633301" y2="13.677692266610961" style="visibility: inherit;" fill="rgb(0, 0, 0)" stroke="rgb(204, 204, 204)" stroke-width="1px"></line><line x1="68.60800361633301" y1="0" x2="63.60800361633301" y2="0" style="visibility: inherit;" fill="rgb(0, 0, 0)" stroke="rgb(204, 204, 204)" stroke-width="1px"></line></g><g transform="translate(58.60800361633301, 0)"><text style="text-anchor: end; visibility: hidden; font-family: &quot;Helvetica Neue&quot;, sans-serif; font-size: 12px; font-weight: 200;" x="0" y="177.80999946594238" dx="0em" dy="0.3em" fill="rgb(50, 49, 63)" stroke="none" stroke-width="1px">-5e-6</text><text style="text-anchor: end; visibility: inherit; font-family: &quot;Helvetica Neue&quot;, sans-serif; font-size: 12px; font-weight: 200;" x="0" y="164.13230719933142" dx="0em" dy="0.3em" fill="rgb(50, 49, 63)" stroke="none" stroke-width="1px">0</text><text style="text-anchor: end; visibility: hidden; font-family: &quot;Helvetica Neue&quot;, sans-serif; font-size: 12px; font-weight: 200;" x="0" y="150.4546149327205" dx="0em" dy="0.3em" fill="rgb(50, 49, 63)" stroke="none" stroke-width="1px">5e-6</text><text style="text-anchor: end; visibility: inherit; font-family: &quot;Helvetica Neue&quot;, sans-serif; font-size: 12px; font-weight: 200;" x="0" y="136.77692266610953" dx="0em" dy="0.3em" fill="rgb(50, 49, 63)" stroke="none" stroke-width="1px">1e-5</text><text style="text-anchor: end; visibility: hidden; font-family: &quot;Helvetica Neue&quot;, sans-serif; font-size: 12px; font-weight: 200;" x="0" y="123.09923039949858" dx="0em" dy="0.3em" fill="rgb(50, 49, 63)" stroke="none" stroke-width="1px">1.5e-5</text><text style="text-anchor: end; visibility: inherit; font-family: &quot;Helvetica Neue&quot;, sans-serif; font-size: 12px; font-weight: 200;" x="0" y="109.42153813288763" dx="0em" dy="0.3em" fill="rgb(50, 49, 63)" stroke="none" stroke-width="1px">2e-5</text><text style="text-anchor: end; visibility: hidden; font-family: &quot;Helvetica Neue&quot;, sans-serif; font-size: 12px; font-weight: 200;" x="0" y="95.74384586627667" dx="0em" dy="0.3em" fill="rgb(50, 49, 63)" stroke="none" stroke-width="1px">2.5e-5</text><text style="text-anchor: end; visibility: inherit; font-family: &quot;Helvetica Neue&quot;, sans-serif; font-size: 12px; font-weight: 200;" x="0" y="82.06615359966572" dx="0em" dy="0.3em" fill="rgb(50, 49, 63)" stroke="none" stroke-width="1px">3e-5</text><text style="text-anchor: end; visibility: hidden; font-family: &quot;Helvetica Neue&quot;, sans-serif; font-size: 12px; font-weight: 200;" x="0" y="68.38846133305478" dx="0em" dy="0.3em" fill="rgb(50, 49, 63)" stroke="none" stroke-width="1px">3.5e-5</text><text style="text-anchor: end; visibility: inherit; font-family: &quot;Helvetica Neue&quot;, sans-serif; font-size: 12px; font-weight: 200;" x="0" y="54.71076906644382" dx="0em" dy="0.3em" fill="rgb(50, 49, 63)" stroke="none" stroke-width="1px">4e-5</text><text style="text-anchor: end; visibility: hidden; font-family: &quot;Helvetica Neue&quot;, sans-serif; font-size: 12px; font-weight: 200;" x="0" y="41.033076799832884" dx="0em" dy="0.3em" fill="rgb(50, 49, 63)" stroke="none" stroke-width="1px">4.5e-5</text><text style="text-anchor: end; visibility: inherit; font-family: &quot;Helvetica Neue&quot;, sans-serif; font-size: 12px; font-weight: 200;" x="0" y="27.355384533221923" dx="0em" dy="0.3em" fill="rgb(50, 49, 63)" stroke="none" stroke-width="1px">5e-5</text><text style="text-anchor: end; visibility: hidden; font-family: &quot;Helvetica Neue&quot;, sans-serif; font-size: 12px; font-weight: 200;" x="0" y="13.677692266610961" dx="0em" dy="0.3em" fill="rgb(50, 49, 63)" stroke="none" stroke-width="1px">5.5e-5</text><text style="text-anchor: end; visibility: hidden; font-family: &quot;Helvetica Neue&quot;, sans-serif; font-size: 12px; font-weight: 200;" x="0" y="0" dx="0em" dy="0.3em" fill="rgb(50, 49, 63)" stroke="none" stroke-width="1px">6e-5</text></g><line x1="68.60800361633301" y1="0" x2="68.60800361633301" y2="177.80999946594238" fill="rgb(0, 0, 0)" stroke="rgb(204, 204, 204)" stroke-width="1px"></line></g></g><g transform="translate(68, 0)" clip-path="url(#clip_0)"><clipPath id="clip_0"><rect width="261" height="177"></rect></clipPath><g><g><g><line x1="0" y1="0" x2="0" y2="177.80999946594238" fill="rgb(0, 0, 0)" stroke="rgb(60, 60, 60)" stroke-width="1px" opacity="0.25"></line><line x1="32.673999547958374" y1="0" x2="32.673999547958374" y2="177.80999946594238" fill="rgb(0, 0, 0)" stroke="rgb(60, 60, 60)" stroke-width="1px" opacity="0.25"></line><line x1="65.34799909591675" y1="0" x2="65.34799909591675" y2="177.80999946594238" fill="rgb(0, 0, 0)" stroke="rgb(60, 60, 60)" stroke-width="1px" opacity="0.25"></line><line x1="98.02199864387512" y1="0" x2="98.02199864387512" y2="177.80999946594238" fill="rgb(0, 0, 0)" stroke="rgb(60, 60, 60)" stroke-width="1px" opacity="0.25"></line><line x1="130.6959981918335" y1="0" x2="130.6959981918335" y2="177.80999946594238" fill="rgb(0, 0, 0)" stroke="rgb(60, 60, 60)" stroke-width="1px" opacity="0.25"></line><line x1="163.36999773979187" y1="0" x2="163.36999773979187" y2="177.80999946594238" fill="rgb(0, 0, 0)" stroke="rgb(60, 60, 60)" stroke-width="1px" opacity="0.25"></line><line x1="196.04399728775024" y1="0" x2="196.04399728775024" y2="177.80999946594238" fill="rgb(0, 0, 0)" stroke="rgb(60, 60, 60)" stroke-width="1px" opacity="0.25"></line><line x1="228.71799683570862" y1="0" x2="228.71799683570862" y2="177.80999946594238" fill="rgb(0, 0, 0)" stroke="rgb(60, 60, 60)" stroke-width="1px" opacity="0.25"></line><line x1="261.391996383667" y1="0" x2="261.391996383667" y2="177.80999946594238" fill="rgb(0, 0, 0)" stroke="rgb(60, 60, 60)" stroke-width="1px" opacity="0.25"></line></g><g><line x1="0" y1="177.80999946594238" x2="261.391996383667" y2="177.80999946594238" fill="rgb(0, 0, 0)" stroke="rgb(60, 60, 60)" stroke-width="1px" opacity="0.25"></line><line x1="0" y1="164.13230719933142" x2="261.391996383667" y2="164.13230719933142" fill="rgb(0, 0, 0)" stroke="rgb(60, 60, 60)" stroke-width="1px" opacity="0.25"></line><line x1="0" y1="150.4546149327205" x2="261.391996383667" y2="150.4546149327205" fill="rgb(0, 0, 0)" stroke="rgb(60, 60, 60)" stroke-width="1px" opacity="0.25"></line><line x1="0" y1="136.77692266610953" x2="261.391996383667" y2="136.77692266610953" fill="rgb(0, 0, 0)" stroke="rgb(60, 60, 60)" stroke-width="1px" opacity="0.25"></line><line x1="0" y1="123.09923039949858" x2="261.391996383667" y2="123.09923039949858" fill="rgb(0, 0, 0)" stroke="rgb(60, 60, 60)" stroke-width="1px" opacity="0.25"></line><line x1="0" y1="109.42153813288763" x2="261.391996383667" y2="109.42153813288763" fill="rgb(0, 0, 0)" stroke="rgb(60, 60, 60)" stroke-width="1px" opacity="0.25"></line><line x1="0" y1="95.74384586627667" x2="261.391996383667" y2="95.74384586627667" fill="rgb(0, 0, 0)" stroke="rgb(60, 60, 60)" stroke-width="1px" opacity="0.25"></line><line x1="0" y1="82.06615359966572" x2="261.391996383667" y2="82.06615359966572" fill="rgb(0, 0, 0)" stroke="rgb(60, 60, 60)" stroke-width="1px" opacity="0.25"></line><line x1="0" y1="68.38846133305478" x2="261.391996383667" y2="68.38846133305478" fill="rgb(0, 0, 0)" stroke="rgb(60, 60, 60)" stroke-width="1px" opacity="0.25"></line><line x1="0" y1="54.71076906644382" x2="261.391996383667" y2="54.71076906644382" fill="rgb(0, 0, 0)" stroke="rgb(60, 60, 60)" stroke-width="1px" opacity="0.25"></line><line x1="0" y1="41.033076799832884" x2="261.391996383667" y2="41.033076799832884" fill="rgb(0, 0, 0)" stroke="rgb(60, 60, 60)" stroke-width="1px" opacity="0.25"></line><line x1="0" y1="27.355384533221923" x2="261.391996383667" y2="27.355384533221923" fill="rgb(0, 0, 0)" stroke="rgb(60, 60, 60)" stroke-width="1px" opacity="0.25"></line><line x1="0" y1="13.677692266610961" x2="261.391996383667" y2="13.677692266610961" fill="rgb(0, 0, 0)" stroke="rgb(60, 60, 60)" stroke-width="1px" opacity="0.25"></line><line x1="0" y1="0" x2="261.391996383667" y2="0" fill="rgb(0, 0, 0)" stroke="rgb(60, 60, 60)" stroke-width="1px" opacity="0.25"></line></g></g></g><g><g><line x1="0" y1="164.13230719933142" x2="261.391996383667" y2="164.13230719933142" fill="rgb(0, 0, 0)" stroke="rgb(153, 153, 153)" stroke-width="1.5px"></line></g></g><g><g><line x1="32.673999547958374" y1="0" x2="32.673999547958374" y2="177.80999946594238" fill="rgb(0, 0, 0)" stroke="rgb(153, 153, 153)" stroke-width="1.5px"></line></g></g><g><g><g><g><g><path style="fill: none;" stroke="rgb(255, 112, 67)" stroke-width="2px" d="M33.00073954343796,95.74384759391452L33.327479538917544,53.00106034052895L33.65421953439713,40.03304113656975L33.98095952987671,34.41679861656539L34.30769952535629,31.651207667895193L34.634439520835876,30.232034387185422L34.96117951631546,29.51809964875929L35.287919511795046,29.19565038467428L35.61465950727463,29.097954066771052L35.941399502754216,29.131867777972843L36.2681394982338,29.243758763561033L36.594879493713385,29.402174138410544L36.921619489192956,29.58846371956082L37.24835948467254,29.79149514992099L37.575099480152126,30.004596986446046L37.90183947563171,30.223761604733454L38.228579471111296,30.446578147264205L38.55531946659088,30.6715950950053L38.882059462070465,30.897938088277726L39.20879945755005,31.12508028139743L39.53553945302963,31.352704170873295L39.86227944850921,31.58061839593921L40.1890194439888,31.808707617330896L40.51575943946838,32.0369023150584L40.84249943494797,32.26516058627476L41.16923943042755,32.49346115513973L41.49597942590714,32.721783225613564L41.82271942138672,32.95011825934017L42.14945941686631,33.17846110839986L42.476199412345885,33.40680866909145L42.80293940782547,33.63515907022261L43.129679403305055,33.863511183694214L43.45641939878464,34.09186432941621L43.783159394264224,34.320218097396264L44.10989938974381,34.54857224047575L44.436639385223394,34.77692660966173L44.76337938070298,35.00528111513967L45.09011937618255,35.233635702769675L45.416859371662134,35.46199033991704L45.74359936714172,35.690345006910434L46.070339362621304,35.918699691892954L46.39707935810089,36.147054387717674L46.723819353580474,36.375409090077085L47.05055934906006,36.603763796374864L47.377299344539644,36.83211850504625L47.70403934001922,37.06047321514808L48.030779335498806,37.28882792611199L48.35751933097839,37.517182637595425L48.684259326457976,37.74553734939195L49.01099932193756,37.97389206137714L49.337739317417146,38.20224677347608L49.66447931289673,38.43060148564351L49.991219308376316,38.65895619785218L50.3179593038559,38.88731489081812L50.64469929933548,39.115671991506105L50.97143929481506,39.34402813682735L51.29817929029465,39.572383708928584L51.62491928577423,39.800738937097776L51.95165928125382,40.02909395890782L52.2783992767334,40.257448856902386L52.60513927221299,40.4858036806076L52.93187926769257,40.71415845973925L53.25861926317214,40.942513212126784L53.58535925865173,41.17086794846779L53.91209925413131,41.39922267518091L54.2388392496109,41.62757739611732L54.56557924509048,41.85593211358764L54.89231924057007,42.084286828978406L55.21905923604965,42.312641543121345L55.54579923152924,42.5409962565156L55.872539227008815,42.7693509694607L56.1992792224884,42.99770568213626L56.526019217967985,43.22606039465009L56.85275921344757,43.45441510706695L57.179499208927155,43.68276981942557L57.50623920440674,43.91112453174924L57.832979199886324,44.139479244051955L58.15971919536591,44.36783395634214L58.486459190845494,44.596188668624734L58.81319918632507,44.82454338090278L59.13993918180466,45.05289809317816L59.46667917728424,45.28125678618426L59.79341917276383,45.50961388689643L60.12015916824341,45.737970032232255L60.446899163722996,45.96632560434227L60.77363915920258,46.19468083251678L61.100379154682166,46.42303585433004L61.42711915016174,46.65139075232648L61.75385914564132,46.87974557603286L62.080599141120906,47.10810035516522L62.40733913660049,47.33645510755312L62.734079132080076,47.56480984389441L63.06081912755966,47.793164570607644L63.387559123039246,48.02151929154414L63.71429911851883,48.24987400901455L64.04103911399841,48.47822872440531L64.367779109478,48.70658343854828L64.69451910495758,48.93493815194259L65.02125910043716,49.163292864887694L65.34799909591675,49.39164757756325L65.67473909139632,49.62000229007711L66.00147908687592,49.84835700249394L66.32821908235549,50.07671171485255L66.65495907783509,50.305066427176214L66.98169907331466,50.533421139478946L67.30843906879426,50.761775851769116L67.63517906427383,50.9901305640517L67.96191905975343,51.21848527632977L68.288659055233,51.446839988605134L68.61539905071258,51.675198681611235L68.94213904619217,51.90355578232342L69.26887904167175,52.131911927659246L69.59561903715134,52.360267499769265L69.92235903263092,52.58862272794376L70.2490990281105,52.81697774975699L70.57583902359009,53.04533264775344L70.90257901906966,53.27368747145982L71.22931901454926,53.502042250592154L71.55605901002883,53.730397002980084L71.88279900550843,53.95875173932136L72.209539000988,54.187106466034635L72.5362789964676,54.4154611869711L72.86301899194717,54.643815904441524L73.18975898742677,54.87217061983229L73.51649898290634,55.10052533397523L73.84323897838591,55.328880047369566L74.16997897386551,55.55723476031467L74.49671896934508,55.785589472990225L74.82345896482468,56.0139441855041L75.15019896030425,56.24229889792092L75.47693895578385,56.47065361027951L75.80367895126342,56.699008322603206L76.13041894674302,56.92736303490591L76.45715894222259,57.15571774719608L76.78389893770218,57.38407245947867L77.11063893318176,57.612427171756764L77.43737892866135,57.840785864764484L77.76411892414093,58.06914296547764L78.09085891962052,58.29749911081403L78.4175989151001,58.52585468292439L78.74433891057969,58.754209911099124L79.07107890605926,58.98256493291247L79.39781890153886,59.21091983090899L79.72455889701843,59.43927465461543L80.05129889249802,59.667629433747805L80.3780388879776,59.89598418613575L80.7047788834572,60.12433892247704L81.03151887893677,60.35269364919033L81.35825887441636,60.58104837012682L81.68499886989594,60.809403087597204L82.0117388653755,61.03775780298797L82.3384788608551,61.266112517130935L82.66521885633468,61.494467230525245L82.99195885181427,61.72282194347032L83.31869884729385,61.951176656145904L83.64543884277344,62.17953136865977L83.97217883825301,62.4078860810766L84.29891883373261,62.63624079343519L84.62565882921218,62.8645955057589L84.95239882469177,63.09295021806162L85.27913882017135,63.32130493035177L85.60587881565094,63.54965964263438L85.93261881113052,63.77801435491243L86.25935880661011,64.0063690671878L86.5860988020897,64.2347277601939L86.91283879756928,64.46308486090606L87.23957879304885,64.69144100624189L87.56631878852845,64.91979657835189L87.89305878400802,65.14815180652644L88.21979877948762,65.37650682833966L88.54653877496719,65.60486172633613L88.87327877044679,65.83321655004251L89.20001876592636,66.06157132917485L89.52675876140596,66.28992608156278L89.85349875688553,66.51828081790404L90.1802387523651,66.74663554461732L90.5069787478447,66.97499026555381L90.83371874332427,67.20334498302421L91.16045873880387,67.43169969841497L91.48719873428344,67.66005441255794L91.81393872976304,67.88840912595222L92.14067872524261,68.11676383889733L92.46741872072221,68.34511855157291L92.79415871620178,68.57347326408676L93.12089871168136,68.80182797650357L93.44763870716095,69.0301826888622L93.77437870264053,69.25853740118588L94.10111869812012,69.4868921134886L94.4278586935997,69.71524682577876L94.75459868907929,69.94360153806136L95.08133868455887,70.17195625033942L95.40807868003844,70.4003109626148L95.73481867551804,70.62866965562088L96.06155867099761,70.85702675633307L96.38829866647721,71.0853829016689L96.71503866195678,71.3137384737789L97.04177865743638,71.5420937019534L97.36851865291595,71.77044872376665L97.69525864839555,71.99880362176309L98.02199864387512,72.22715844546947L98.34873863935469,72.45551322460182L98.67547863483429,72.68386797698973L99.00221863031386,72.912222713331L99.32895862579346,73.14057744004428L99.65569862127303,73.36893216098078L99.98243861675263,73.59728687845119L100.3091786122322,73.82564159384194L100.6359186077118,74.05399630798492L100.96265860319137,74.28235102137921L101.28939859867096,74.51070573432432L101.61613859415054,74.73906044699987L101.94287858963013,74.96741515951375L102.26961858510971,75.19576987193057L102.5963585805893,75.42412458428919L102.92309857606888,75.65247929661285L103.24983857154847,75.88083400891558L103.57657856702804,76.10918872120574L103.90331856250764,76.33754343348832L104.2300585579872,76.56589814576641L104.5567985534668,76.79425285804176L104.88353854894638,77.02261155104787L105.21027854442598,77.25096865176006L105.53701853990555,77.47932479709588L105.86375853538514,77.7076803692059L106.19049853086472,77.93603559738041L106.51723852634429,78.16439061919365L106.84397852182389,78.3927455171901L107.17071851730346,78.62110034089648L107.49745851278306,78.84945512002881L107.82419850826263,79.07780987241674L108.15093850374222,79.30616460875801L108.4776784992218,79.53451933547127L108.8044184947014,79.76287405640774L109.13115849018097,79.99122877387816L109.45789848566055,80.21958348926893L109.78463848114014,80.44793820341187L110.11137847661972,80.67629291680618L110.4381184720993,80.90464762975128L110.76485846757889,81.13300234242685L111.09159846305847,81.36135705494071L111.41833845853806,81.58971176735753L111.74507845401763,81.81806847008232L112.07181844949723,82.04642437662574L112.3985584449768,82.27477980546028L112.7252984404564,82.50313494766951L113.05203843593597,82.73148991790359L113.37877843141557,82.95984478495254L113.70551842689514,83.1881995900904L114.03225842237474,83.41655435808167L114.35899841785431,83.64490910378494L114.68573841333388,83.8732638361154L115.01247840881348,84.10161856042221L115.33921840429305,84.3299732799148L115.66595839977265,84.55832799651887L115.99269839525222,84.78668271138983L116.31943839073182,85.01503941558711L116.64617838621139,85.24339532301397L116.97291838169099,85.47175075237863L117.29965837717056,85.70010589490593L117.62639837265014,85.92846086533082L117.95313836812973,86.15681573249428L118.27987836360931,86.38517053770087L118.6066183590889,86.61352530573332L118.93335835456848,86.84188005146133L119.26009835004807,87.07023478380664L119.58683834552765,87.29858950812235L119.91357834100722,87.52694422762028L120.24031833648682,87.75529894422758L120.5670583319664,87.98365365910045L120.89379832744599,88.21201036329887L121.22053832292556,88.44036627072646L121.54727831840516,88.6687217000915L121.87401831388473,88.89707684261904L122.20075830936433,89.12543181304407L122.5274983048439,89.35378668020763L122.85423830032347,89.58214148541428L123.18097829580307,89.81049625344677L123.50771829128264,90.03885099917478L123.83445828676224,90.26720573152011L124.16119828224181,90.49556045583583L124.48793827772141,90.72391517533376L124.81467827320098,90.95226989194104L125.14141826868058,91.18062460681394L125.46815826416015,91.40898131101237L125.79489825963974,91.63733721843994L126.12163825511932,91.86569264780498L126.4483782505989,92.09404779033254L126.77511824607849,92.3224027607576L127.10185824155808,92.55075762792112L127.42859823703766,92.77911243312778L127.75533823251725,93.00746720116027L128.08207822799682,93.23582194688828L128.4088182234764,93.46417667923362L128.735558218956,93.69253140354931L129.06229821443557,93.92088612304725L129.38903820991516,94.14924083965452L129.71577820539474,94.37759555452743L130.04251820087433,94.60595225872585L130.3692581963539,94.83430816615343L130.6959981918335,95.06266359551849L131.02273818731308,95.29101873804603L131.34947818279264,95.51937370847108L131.67621817827225,95.74772857563461L132.00295817375184,95.97608338084126L132.32969816923142,96.20443814887376L132.65643816471098,96.43279289460177L132.9831781601906,96.6611476269471L133.30991815567018,96.8895023512628L133.63665815114973,97.11785707076075L133.96339814662932,97.34621178736803L134.29013814210893,97.5745684926071L134.61687813758851,97.80292440065907L134.94361813306807,98.03127983039874L135.27035812854766,98.25963497315107L135.59709812402727,98.48798994371097L135.92383811950685,98.71634481095545L136.2505781149864,98.94469961621064L136.577318110466,99.17305438427226L136.9040581059456,99.40140913001775L137.23079810142517,99.62976386237358L137.55753809690475,99.85811858669557L137.88427809238433,100.08647330619729L138.21101808786395,100.31482802280684L138.5377580833435,100.54318273768108L138.8644980788231,100.77153944188032L139.19123807430267,100.99989534930837L139.51797806978223,101.22825077867374L139.84471806526184,101.45660592120146L140.17145806074143,101.6849608916266L140.498198056221,101.91331575879022L140.82493805170057,102.1416705639969L141.15167804718018,102.37002533202943L141.47841804265977,102.59838007775745L141.80515803813933,102.82673481010279L142.1318980336189,103.0550895344185L142.45863802909852,103.28344425391644L142.7853780245781,103.51179897052373L143.11211802005766,103.7401536853966L143.43885801553725,103.96851038959504L143.76559801101686,104.19686629702261L144.09233800649645,104.42522172638768L144.419078001976,104.65357686891521L144.7458179974556,104.88193183934025L145.0725579929352,105.1102867065038L145.39929798841476,105.33864151171045L145.72603798389434,105.56699627974294L146.05277797937393,105.79535102547095L146.37951797485354,106.02370575781627L146.7062579703331,106.252060482132L147.03299796581268,106.48041520162992L147.35973796129227,106.70876991823721L147.68647795677182,106.9371246331101L148.01321795225144,107.16548133730852L148.33995794773102,107.3938372447361L148.6666979432106,107.62219267410116L148.99343793869016,107.8505478166287L149.32017793416978,108.07890278705376L149.64691792964936,108.3072576542173L149.97365792512892,108.53561245942394L150.3003979206085,108.76396722745643L150.62713791608812,108.99232197318445L150.9538779115677,109.22067670552977L151.28061790704726,109.44903142984548L151.60735790252684,109.67738614934342L151.93409789800646,109.90574086595069L152.26083789348604,110.13409558082358L152.5875778889656,110.36245228502202L152.91431788444518,110.5908081924496L153.2410578799248,110.81916362181465L153.56779787540435,111.0475187643422L153.89453787088394,111.27587373476726L154.22127786636352,111.50422860193078L154.54801786184314,111.73258340713743L154.8747578573227,111.96093817516993L155.20149785280228,112.18929292089794L155.52823784828186,112.41764765324326L155.85497784376142,112.64600237755897L156.18171783924103,112.87435709705693L156.50845783472062,113.1027118136642L156.8351978302002,113.33106652853708L157.16193782567976,113.55942323273551L157.48867782115937,113.78777914016308L157.81541781663896,114.01613456952815L158.1421578121185,114.2444897120557L158.4688978075981,114.47284468248074L158.7956378030777,114.70119954964429L159.1223777985573,114.92955435485092L159.44911779403685,115.15790912288341L159.77585778951644,115.38626386861144L160.10259778499605,115.61461860095676L160.42933778047563,115.84297332527245L160.7560777759552,116.0713280447704L161.08281777143478,116.29968276137768L161.4095577669144,116.52803747625056L161.73629776239395,116.756394180449L162.06303775787353,116.98475008787656L162.38977775335312,117.21310551724163L162.71651774883273,117.44146065976918L163.04325774431229,117.66981563019422L163.36999773979187,117.89817049735777L163.69673773527145,118.1265253025644L164.023477730751,118.3548800705969L164.35021772623062,118.58323481632492L164.6769577217102,118.81158954867024L165.0036977171898,119.03994427298595L165.33043771266935,119.26829899248389L165.65717770814896,119.49665370909118L165.98391770362855,119.72500842396406L166.3106576991081,119.95336512816249L166.6373976945877,120.18172103559007L166.9641376900673,120.41007646495513L167.2908776855469,120.63843160748266L167.61761768102645,120.8667865779077L167.94435767650603,121.09514144507125L168.27109767198564,121.32349625027788L168.59783766746523,121.5518510183104L168.92457766294478,121.7802057640384L169.25131765842437,122.00856049638372L169.57805765390398,122.23691621588253L169.90479764938354,122.46527153249033L170.23153764486312,122.69362660736353L170.5582776403427,122.92198153719596L170.88501763582232,123.15033638000392L171.21175763130188,123.37869117059722L171.53849762678146,123.60704592986173L171.86523762226105,123.83540166551202L172.1919776177406,124.06375699181072L172.51871761322022,124.29211207249845L172.8454576086998,124.52046700581961L173.1721976041794,124.74882185072082L173.49893759965894,124.97717664257007L173.82567759513856,125.20553140258812L174.15241759061814,125.43388713869058L174.4791575860977,125.66224246526055L174.80589758157728,125.89059754611105L175.1326375770569,126.11895247952987L175.45937757253648,126.34730732448968L175.78611756801604,126.57566211637408L176.11285756349562,126.80401687641321L176.43959755897524,127.03237261252832L176.76633755445482,127.26072793910589L177.09307754993438,127.48908301996096L177.41981754541396,127.7174379533825L177.74655754089358,127.94579279834394L178.07329753637313,128.17414759022932L178.40003753185272,128.4025023502691L178.7267775273323,128.63085808638453L179.05351752281192,128.85921341296233L179.38025751829147,129.0875684938175L179.70699751377106,129.31592342723914L180.03373750925064,129.54427827220064L180.3604775047302,129.77263306408605L180.6872175002098,130.00098782412581L181.0139574956894,130.22934356024126L181.34069749116898,130.45769888681906L181.66743748664854,130.68605396767424L181.99417748212815,130.9144089010959L182.32091747760774,131.14276374605737L182.6476574730873,131.37111853794278L182.97439746856688,131.59947329798254L183.3011374640465,131.82782903409802L183.62787745952608,132.05618436067581L183.95461745500563,132.284539441531L184.28135745048522,132.51289437495262L184.60809744596483,132.74124921991412L184.93483744144442,132.96960401179953L185.26157743692397,133.1979587718393L185.58831743240356,133.42631450795477L185.91505742788317,133.65466983453254L186.24179742336273,133.88302491538775L186.5685374188423,134.11137984880938L186.8952774143219,134.33973469377088L187.2220174098015,134.5680894856563L187.54875740528107,134.79644424569605L187.87549740076065,135.0247999818115L188.20223739624024,135.2531553083893L188.5289773917198,135.48151038924448L188.8557173871994,135.7098653226661L189.182457382679,135.9382201676276L189.50919737815858,136.166574959513L189.83593737363813,136.3949297195528L190.16267736911774,136.62328545566825L190.48941736459733,136.85164078224602L190.8161573600769,137.07999586310123L191.14289735555647,137.30835079652286L191.46963735103608,137.53670564148436L191.79637734651567,137.76506043336977L192.12311734199523,137.99341519340953L192.4498573374748,138.221770929525L192.77659733295442,138.45012625610278L193.103337328434,138.678481336958L193.43007732391357,138.9068362703796L193.75681731939315,139.1351911153411L194.08355731487276,139.36354590722652L194.41029731035232,139.5919006672663L194.7370373058319,139.82025640338173L195.0637773013115,140.04861172995953L195.3905172967911,140.2769668108147L195.71725729227066,140.50532174423637L196.04399728775024,140.73367658919784L196.37073728322983,140.96203138108325L196.69747727870939,141.19038614112304L197.024217274189,141.4187418772385L197.35095726966858,141.6470972038163L197.67769726514817,141.87545228467147L198.00443726062772,142.1038072180931L198.33117725610734,142.3321620630546L198.65791725158692,142.56051685494L198.98465724706648,142.78887161497977L199.31139724254606,143.0172268535037L199.63813723802568,143.24558188152656L199.96487723350526,143.47393728084035L200.29161722898482,143.70229240533712L200.6183572244644,143.9306473649437L200.94509721994402,144.15900272320772L201.2718372154236,144.38735782307464L201.59857721090316,144.6157127679033L201.92531720638274,144.84406761970902L202.25205720186236,145.0724229132925L202.5787971973419,145.30077797435112L202.9055371928215,145.5291328958948L203.23227718830108,145.75748823132108L203.5590171837807,145.98584331748535L203.88575717926025,146.21419825409242L204.21249717473984,146.4425531009652L204.53923717021942,146.6709083915889L204.86597716569898,146.89926345087167L205.1927171611786,147.12761837134983L205.51945715665818,147.35597370613678L205.84619715213776,147.58432879191747L206.17293714761732,147.81268372829442L206.49967714309693,148.04103857502906L206.82641713857652,148.26939386556995L207.15315713405607,148.49774892480298L207.47989712953566,148.72610384525132L207.80663712501527,148.95445918002036L208.13337712049486,149.1828142657903L208.4601171159744,149.4111692021608L208.786857111454,149.63952454648316L209.1135971069336,149.86787963798508L209.4403371024132,150.09623457779475L209.76707709789275,150.32458942658909L210.09381709337234,150.55294471836572L210.42055708885195,150.78129977834024L210.7472970843315,151.00965469923347L211.0740370798111,151.23801003426945L211.40077707529068,151.46636512019955L211.7275170707703,151.69472005666614L212.05425706624985,151.92307490345462L212.38099706172943,152.15143019402774L212.70773705720902,152.37978525328015L213.03447705268857,152.6081401737401L213.36121704816819,152.83649550851612L213.68795704364777,153.06485059429028L214.01469703912736,153.29320553066327L214.3414370346069,153.52156062619136L214.66817703008653,153.74991556841672L214.9949170255661,153.97827066745623L215.32165702104567,154.2066258605842L215.64839701652525,154.43498086136952L215.97513701200486,154.663335995545L216.30187700748445,154.8916909609588L216.628617002964,155.12004607391137L216.9553569984436,155.34840102659143L217.2820969939232,155.57675613190375L217.6088369894028,155.80511132879542L217.93557698488235,156.03346633183895L218.26231698036193,156.26182146736937L218.58905697584154,156.4901764335961L218.9157969713211,156.71853154703646L219.24253696680069,156.94688650000919L219.56927696228027,157.1752416054971L219.89601695775988,157.40359680249415L220.22275695323944,157.63195180560086L220.54949694871902,157.8603069411692L220.8762369441986,158.08866190741873L221.20297693967817,158.31701702087273L221.52971693515778,158.54537197385363L221.85645693063736,158.7737270793465L222.18319692611695,159.00208215194857L222.5099369215965,159.23043720481624L222.83667691707612,159.45879224584323L223.1634169125557,159.68714740416374L223.49015690803526,159.91550250846242L223.81689690351485,160.14385758034803L224.14363689899446,160.37221263278582L224.47037689447404,160.60056767355488L224.7971168899536,160.8289227073227L225.12385688543318,161.05727773688983L225.4505968809128,161.28563282613544L225.77733687639238,161.51398795118814L226.10407687187194,161.74234303552618L226.43081686735152,161.97069809543538L226.75755686283114,162.1990531406873L227.0842968583107,162.42740823934383L227.41103685379028,162.65576330784413L227.73777684926986,162.8841183893502L228.06451684474948,163.11247344756023L228.39125684022903,163.3408285228921L228.71799683570862,163.56918359294738" fill="none"></path></g></g></g></g><g opacity="0.2"><g><g><g><path style="fill: none;" stroke="rgb(255, 112, 67)" stroke-width="2px" d="M33.00073954343796,95.74384759391452L33.327479538917544,27.355387988497625L33.65421953439713,27.58374270076891L33.98095952987671,27.812097413040192L34.30769952535629,28.040452125311475L34.634439520835876,28.268806837582787L34.96117951631546,28.49716154985407L35.287919511795046,28.725516262125353L35.61465950727463,28.953870974396636L35.941399502754216,29.18222568666792L36.2681394982338,29.41058039893923L36.594879493713385,29.638935111210486L36.921619489192956,29.86728982348177L37.24835948467254,30.09564453575308L37.575099480152126,30.323999248024364L37.90183947563171,30.552353960295648L38.228579471111296,30.78070867256693L38.55531946659088,31.009063384838214L38.882059462070465,31.237418097109526L39.20879945755005,31.46577280938081L39.53553945302963,31.694127521652092L39.86227944850921,31.922482233923375L40.1890194439888,32.15083694619469L40.51575943946838,32.37919165846594L40.84249943494797,32.607546370737225L41.16923943042755,32.835911034839455L41.49597942590714,33.06426574711074L41.82271942138672,33.29262045938202L42.14945941686631,33.520975171653305L42.476199412345885,33.74932988392459L42.80293940782547,33.9776845961959L43.129679403305055,34.20603930846718L43.45641939878464,34.434394020738466L43.783159394264224,34.66274873300975L44.10989938974381,34.89110344528106L44.436639385223394,35.119458157552316L44.76337938070298,35.3478128698236L45.09011937618255,35.57616758209491L45.416859371662134,35.804522294366194L45.74359936714172,36.03287700663748L46.070339362621304,36.26123171890876L46.39707935810089,36.489586431180044L46.723819353580474,36.717941143451355L47.05055934906006,36.94629585572264L47.377299344539644,37.17465056799392L47.70403934001922,37.403005280265205L48.030779335498806,37.63135999253652L48.35751933097839,37.8597147048078L48.684259326457976,38.088069417079055L49.01099932193756,38.31642412935034L49.337739317417146,38.54477884162165L49.66447931289673,38.77313355389293L49.991219308376316,39.001488266164216L50.3179593038559,39.22985293026642L50.64469929933548,39.45820764253773L50.97143929481506,39.68656235480901L51.29817929029465,39.914917067080296L51.62491928577423,40.14327177935158L51.95165928125382,40.37162649162289L52.2783992767334,40.599981203894174L52.60513927221299,40.82833591616543L52.93187926769257,41.05669062843671L53.25861926317214,41.285045340708024L53.58535925865173,41.51340005297931L53.91209925413131,41.74175476525059L54.2388392496109,41.97010947752187L54.56557924509048,42.198464189793185L54.89231924057007,42.42681890206447L55.21905923604965,42.65517361433575L55.54579923152924,42.883528326607035L55.872539227008815,43.11188303887832L56.1992792224884,43.34023775114963L56.526019217967985,43.568592463420885L56.85275921344757,43.79694717569217L57.179499208927155,44.02530188796348L57.50623920440674,44.25365660023476L57.832979199886324,44.482011312506046L58.15971919536591,44.71036602477733L58.486459190845494,44.93872073704864L58.81319918632507,45.167075449319924L59.13993918180466,45.39543016159121L59.46667917728424,45.62379482569341L59.79341917276383,45.85214953796469L60.12015916824341,46.080504250236004L60.446899163722996,46.30885896250726L60.77363915920258,46.53721367477854L61.100379154682166,46.76556838704985L61.42711915016174,46.99392309932114L61.75385914564132,47.22227781159242L62.080599141120906,47.4506325238637L62.40733913660049,47.678987236135015L62.734079132080076,47.9073419484063L63.06081912755966,48.13569666067758L63.387559123039246,48.364051372948865L63.71429911851883,48.59240608522015L64.04103911399841,48.82076079749146L64.367779109478,49.04911550976274L64.69451910495758,49.277470222034L65.02125910043716,49.50582493430531L65.34799909591675,49.73417964657659L65.67473909139632,49.962534358847876L66.00147908687592,50.19088907111917L66.32821908235549,50.419243783390456L66.65495907783509,50.64759849566174L66.98169907331466,50.87595320793304L67.30843906879426,51.10430792020432L67.63517906427383,51.33266263247562L67.96191905975343,51.5610173447469L68.288659055233,51.7893720570182L68.61539905071258,52.017736721120386L68.94213904619217,52.24609143339167L69.26887904167175,52.47444614566297L69.59561903715134,52.70280085793425L69.92235903263092,52.93115557020555L70.2490990281105,53.15951028247683L70.57583902359009,53.387864994748114L70.90257901906966,53.61621970701941L71.22931901454926,53.844574419290694L71.55605901002883,54.07292913156199L71.88279900550843,54.301283843833275L72.209539000988,54.52963855610457L72.5362789964676,54.757993268375856L72.86301899194717,54.986347980647125L73.18975898742677,55.21470269291842L73.51649898290634,55.443057405189705L73.84323897838591,55.67141211746099L74.16997897386551,55.899766829732286L74.49671896934508,56.12812154200357L74.82345896482468,56.35647625427487L75.15019896030425,56.58483096654615L75.47693895578385,56.81318567881745L75.80367895126342,57.04154039108873L76.13041894674302,57.269895103360014L76.45715894222259,57.49824981563131L76.78389893770218,57.72660452790258L77.11063893318176,57.954959240173864L77.43737892866135,58.18332390427608L77.76411892414093,58.41167861654736L78.09085891962052,58.64003332881866L78.4175989151001,58.86838804108994L78.74433891057969,59.09674275336124L79.07107890605926,59.325097465632524L79.39781890153886,59.55345217790382L79.72455889701843,59.781806890175105L80.05129889249802,60.0101616024464L80.3780388879776,60.238516314717685L80.7047788834572,60.466871026988954L81.03151887893677,60.69522573926024L81.35825887441636,60.923580451531535L81.68499886989594,61.15193516380282L82.0117388653755,61.380289876074116L82.3384788608551,61.6086445883454L82.66521885633468,61.8369993006167L82.99195885181427,62.06535401288798L83.31869884729385,62.29370872515928L83.64543884277344,62.52206343743056L83.97217883825301,62.750418149701844L84.29891883373261,62.97877286197314L84.62565882921218,63.207127574244424L84.95239882469177,63.43548228651569L85.27913882017135,63.66383699878699L85.60587881565094,63.892191711058274L85.93261881113052,64.12054642332957L86.25935880661011,64.34890113560085L86.5860988020897,64.57726579970307L86.91283879756928,64.80562051197435L87.23957879304885,65.03397522424565L87.56631878852845,65.26232993651693L87.89305878400802,65.49068464878822L88.21979877948762,65.71903936105952L88.54653877496719,65.9473940733308L88.87327877044679,66.17574878560207L89.20001876592636,66.40410349787336L89.52675876140596,66.63245821014465L89.85349875688553,66.86081292241595L90.1802387523651,67.08916763468723L90.5069787478447,67.31752234695853L90.83371874332427,67.54587705922981L91.16045873880387,67.77423177150109L91.48719873428344,68.00258648377239L91.81393872976304,68.23094119604367L92.14067872524261,68.45929590831497L92.46741872072221,68.68765062058625L92.79415871620178,68.91600533285752L93.12089871168136,69.14436004512882L93.44763870716095,69.3727147574001L93.77437870264053,69.6010694696714L94.10111869812012,69.82942418194268L94.4278586935997,70.05777889421397L94.75459868907929,70.28613360648527L95.08133868455887,70.51448831875655L95.40807868003844,70.74284303102785L95.73481867551804,70.97120769513005L96.06155867099761,71.19956240740134L96.38829866647721,71.42791711967263L96.71503866195678,71.6562718319439L97.04177865743638,71.8846265442152L97.36851865291595,72.11298125648648L97.69525864839555,72.34133596875778L98.02199864387512,72.56969068102906L98.34873863935469,72.79804539330034L98.67547863483429,73.02640010557164L99.00221863031386,73.25475481784292L99.32895862579346,73.48310953011422L99.65569862127303,73.7114642423855L99.98243861675263,73.9398189546568L100.3091786122322,74.16817366692808L100.6359186077118,74.39652837919938L100.96265860319137,74.62488309147065L101.28939859867096,74.85323780374193L101.61613859415054,75.08159251601322L101.94287858963013,75.30994722828451L102.26961858510971,75.5383019405558L102.5963585805893,75.7666566528271L102.92309857606888,75.99501136509838L103.24983857154847,76.22336607736968L103.57657856702804,76.45172078964096L103.90331856250764,76.68007550191226L104.2300585579872,76.90843021418354L104.5567985534668,77.13678492645482L104.88353854894638,77.36514959055702L105.21027854442598,77.59350430282831L105.53701853990555,77.82185901509959L105.86375853538514,78.05021372737089L106.19049853086472,78.27856843964217L106.51723852634429,78.50692315191347L106.84397852182389,78.73527786418475L107.17071851730346,78.96363257645605L107.49745851278306,79.19198728872733L107.82419850826263,79.42034200099863L108.15093850374222,79.64869671326991L108.4776784992218,79.8770514255412L108.8044184947014,80.1054061378125L109.13115849018097,80.33376085008376L109.45789848566055,80.56211556235505L109.78463848114014,80.79047027462634L110.11137847661972,81.01882498689763L110.4381184720993,81.24717969916892L110.76485846757889,81.47553441144021L111.09159846305847,81.7038891237115L111.41833845853806,81.93224383598279L111.74507845401763,82.16060352416953L112.07181844949723,82.38895823644081L112.3985584449768,82.61731294871211L112.7252984404564,82.8456676609834L113.05203843593597,83.07402237325469L113.37877843141557,83.30237708552598L113.70551842689514,83.53073179779726L114.03225842237474,83.75908651006856L114.35899841785431,83.98744122233984L114.68573841333388,84.21579593461114L115.01247840881348,84.4441506468824L115.33921840429305,84.67250535915369L115.66595839977265,84.90086007142499L115.99269839525222,85.12921478369627L116.31943839073182,85.35757447188303L116.64617838621139,85.58592918415432L116.97291838169099,85.8142838964256L117.29965837717056,86.04263860869688L117.62639837265014,86.27099332096817L117.95313836812973,86.49934803323946L118.27987836360931,86.72770274551075L118.6066183590889,86.95605745778204L118.93335835456848,87.18441217005332L119.26009835004807,87.41276688232462L119.58683834552765,87.6411215945959L119.91357834100722,87.8694763068672L120.24031833648682,88.09783101913848L120.5670583319664,88.32618573140978L120.89379832744599,88.55454541959651L121.22053832292556,88.7829001318678L121.54727831840516,89.01125484413909L121.87401831388473,89.23960955641039L122.20075830936433,89.46796426868167L122.5274983048439,89.69631898095295L122.85423830032347,89.92467369322424L123.18097829580307,90.15302840549553L123.50771829128264,90.38138311776682L123.83445828676224,90.60973783003811L124.16119828224181,90.83809254230938L124.48793827772141,91.06644725458068L124.81467827320098,91.29480196685196L125.14141826868058,91.52315667912326L125.46815826416015,91.75151636731L125.79489825963974,91.9798710795813L126.12163825511932,92.20822579185257L126.4483782505989,92.43658050412387L126.77511824607849,92.66493521639515L127.10185824155808,92.89328992866645L127.42859823703766,93.12164464093773L127.75533823251725,93.34999935320903L128.08207822799682,93.5783540654803L128.4088182234764,93.8067087777516L128.735558218956,94.03506349002288L129.06229821443557,94.26341820229418L129.38903820991516,94.49177291456546L129.71577820539474,94.72012762683676L130.04251820087433,94.94848731502348L130.3692581963539,95.17684202729478L130.6959981918335,95.40519673956607L131.02273818731308,95.63355145183736L131.34947818279264,95.86190616410865L131.67621817827225,96.09026087637994L132.00295817375184,96.31861558865123L132.32969816923142,96.54697030092251L132.65643816471098,96.7753250131938L132.9831781601906,97.00367972546509L133.30991815567018,97.23203443773637L133.63665815114973,97.46038915000767L133.96339814662932,97.68874386227895L134.29013814210893,97.9171035504657L134.61687813758851,98.14545826273698L134.94361813306807,98.37381297500828L135.27035812854766,98.60216768727956L135.59709812402727,98.83052239955086L135.92383811950685,99.05887711182214L136.2505781149864,99.28723182409342L136.577318110466,99.51558653636471L136.9040581059456,99.743941248636L137.23079810142517,99.97229596090729L137.55753809690475,100.20065067317859L137.88427809238433,100.42900538544987L138.21101808786395,100.65736009772115L138.5377580833435,100.88571480999244L138.8644980788231,101.11407449817919L139.19123807430267,101.34242921045048L139.51797806978223,101.57078392272177L139.84471806526184,101.79913863499306L140.17145806074143,102.02749334726434L140.498198056221,102.25584805953562L140.82493805170057,102.48420277180692L141.15167804718018,102.7125574840782L141.47841804265977,102.94091219634949L141.80515803813933,103.16926690862078L142.1318980336189,103.39762162089207L142.45863802909852,103.62597633316335L142.7853780245781,103.85433104543465L143.11211802005766,104.08268575770593L143.43885801553725,104.31104544589267L143.76559801101686,104.53940015816397L144.09233800649645,104.76775487043525L144.419078001976,104.99610958270654L144.7458179974556,105.22446429497784L145.0725579929352,105.45281900724912L145.39929798841476,105.6811737195204L145.72603798389434,105.9095284317917L146.05277797937393,106.13788314406298L146.37951797485354,106.36623785633427L146.7062579703331,106.59459256860555L147.03299796581268,106.82294728087685L147.35973796129227,107.05130199314813L147.68647795677182,107.27965670541943L148.01321795225144,107.50801639360617L148.33995794773102,107.73637110587745L148.6666979432106,107.96472581814874L148.99343793869016,108.19308053042003L149.32017793416978,108.42143524269132L149.64691792964936,108.64978995496261L149.97365792512892,108.8781446672339L150.3003979206085,109.10649937950518L150.62713791608812,109.33485409177646L150.9538779115677,109.56320880404776L151.28061790704726,109.79156351631904L151.60735790252684,110.01991822859034L151.93409789800646,110.24827294086163L152.26083789348604,110.47662765313291L152.5875778889656,110.70498734131965L152.91431788444518,110.93334205359095L153.2410578799248,111.16169676586223L153.56779787540435,111.39005147813353L153.89453787088394,111.61840619040481L154.22127786636352,111.8467609026761L154.54801786184314,112.07511561494738L154.8747578573227,112.30347032721868L155.20149785280228,112.53182503948996L155.52823784828186,112.76017975176126L155.85497784376142,112.98853446403254L156.18171783924103,113.21688917630384L156.50845783472062,113.4452438885751L156.8351978302002,113.6735986008464L157.16193782567976,113.90195828903316L157.48867782115937,114.13031300130444L157.81541781663896,114.35866771357573L158.1421578121185,114.58702242584701L158.4688978075981,114.8153771381183L158.7956378030777,115.04373185038959L159.1223777985573,115.27208656266087L159.44911779403685,115.50044127493217L159.77585778951644,115.72879598720345L160.10259778499605,115.95715069947474L160.42933778047563,116.18550541174602L160.7560777759552,116.4138601240173L161.08281777143478,116.6422148362886L161.4095577669144,116.8705695485599L161.73629776239395,117.09892923674664L162.06303775787353,117.32728394901793L162.38977775335312,117.55563866128921L162.71651774883273,117.78399337356049L163.04325774431229,118.01234808583179L163.36999773979187,118.24070279810309L163.69673773527145,118.46905751037437L164.023477730751,118.69741222264565L164.35021772623062,118.92576693491694L164.6769577217102,119.15412164718822L165.0036977171898,119.38247635945952L165.33043771266935,119.61083107173081L165.65717770814896,119.8391857840021L165.98391770362855,120.06754049627338L166.3106576991081,120.29590018446012L166.6373976945877,120.5242548967314L166.9641376900673,120.7526096090027L167.2908776855469,120.980964321274L167.61761768102645,121.20931903354528L167.94435767650603,121.43767374581657L168.27109767198564,121.66602845808787L168.59783766746523,121.89438317035913L168.92457766294478,122.12273788263043L169.25131765842437,122.35109259490173L169.57805765390398,122.57944979513073L169.90479764938354,122.80780450740203L170.23153764486312,123.03615921967332L170.5582776403427,123.2645139319446L170.88501763582232,123.49286864421589L171.21175763130188,123.72122335648719L171.53849762678146,123.94957806875846L171.86523762226105,124.17793526898748L172.1919776177406,124.40628998125878L172.51871761322022,124.63464469353005L172.8454576086998,124.86299940580135L173.1721976041794,125.09135411807264L173.49893759965894,125.31970883034393L173.82567759513856,125.54806354261521L174.15241759061814,125.77642074284424L174.4791575860977,126.00477545511552L174.80589758157728,126.2331301673868L175.1326375770569,126.4614848796581L175.45937757253648,126.68983959192937L175.78611756801604,126.91819430420067L176.11285756349562,127.14654901647197L176.43959755897524,127.37490621670096L176.76633755445482,127.60326092897226L177.09307754993438,127.83161564124356L177.41981754541396,128.05997035351484L177.74655754089358,128.28832506578613L178.07329753637313,128.5166797780574L178.40003753185272,128.7450344903287L178.7267775273323,128.97339169055772L179.05351752281192,129.201746402829L179.38025751829147,129.43010111510029L179.70699751377106,129.6584558273716L180.03373750925064,129.88681053964288L180.3604775047302,130.11516525191416L180.6872175002098,130.34351996418545L181.0139574956894,130.57187716441447L181.34069749116898,130.80023187668576L181.66743748664854,131.02858658895704L181.99417748212815,131.25694130122832L182.32091747760774,131.48529601349964L182.6476574730873,131.7136507257709L182.97439746856688,131.9420054380422L183.3011374640465,132.17036263827123L183.62787745952608,132.39871735054248L183.95461745500563,132.6270720628138L184.28135745048522,132.85542677508508L184.60809744596483,133.08378148735636L184.93483744144442,133.31213619962764L185.26157743692397,133.54049091189893L185.58831743240356,133.76884811212796L185.91505742788317,133.99720282439924L186.24179742336273,134.22555753667052L186.5685374188423,134.45391224894183L186.8952774143219,134.68226696121312L187.2220174098015,134.9106216734844L187.54875740528107,135.13897638575568L187.87549740076065,135.3673335859847L188.20223739624024,135.595688298256L188.5289773917198,135.82404301052728L188.8557173871994,136.05239772279856L189.182457382679,136.28075243506984L189.50919737815858,136.50910714734113L189.83593737363813,136.73746185961244L190.16267736911774,136.96581905984144L190.48941736459733,137.19417377211272L190.8161573600769,137.42252848438403L191.14289735555647,137.65088319665531L191.46963735103608,137.8792379089266L191.79637734651567,138.10759262119788L192.12311734199523,138.33594733346916L192.4498573374748,138.5643045336982L192.77659733295442,138.79265924596947L193.103337328434,139.02101395824076L193.43007732391357,139.24936867051207L193.75681731939315,139.47772338278335L194.08355731487276,139.70607809505464L194.41029731035232,139.93443280732592L194.7370373058319,140.16279000755495L195.0637773013115,140.39114471982623L195.3905172967911,140.6194994320975L195.71725729227066,140.8478541443688L196.04399728775024,141.07620885664008L196.37073728322983,141.30456356891136L196.69747727870939,141.53291828118267L197.024217274189,141.76127548141167L197.35095726966858,141.98963019368296L197.67769726514817,142.21798490595427L198.00443726062772,142.44633961822555L198.33117725610734,142.67469433049683L198.65791725158692,142.90304904276812L198.98465724706648,143.1314037550394L199.31139724254606,143.35975971128957L199.63813723802568,143.58811442356085L199.96487723350526,143.816470379811L200.29161722898482,144.0448250920823L200.6183572244644,144.2731798043536L200.94509721994402,144.50153576060373L201.2718372154236,144.729890472875L201.59857721090316,144.9582451851463L201.92531720638274,145.18659989741758L202.25205720186236,145.41495585366775L202.5787971973419,145.64331056593903L202.9055371928215,145.87166527821032L203.23227718830108,146.10002123446048L203.5590171837807,146.32837594673177L203.88575717926025,146.55673065900305L204.21249717473984,146.78508537127433L204.53923717021942,147.0134413275245L204.86597716569898,147.2417960397958L205.1927171611786,147.47015075206707L205.51945715665818,147.6985067083172L205.84619715213776,147.92686142058852L206.17293714761732,148.1552161328598L206.49967714309693,148.3835708451311L206.82641713857652,148.61192680138123L207.15315713405607,148.8402815136525L207.47989712953566,149.06863622592383L207.80663712501527,149.29699218217397L208.13337712049486,149.52534689444525L208.4601171159744,149.75370160671656L208.786857111454,149.9820575629667L209.1135971069336,150.21041227523799L209.4403371024132,150.43876698750927L209.76707709789275,150.66712169978055L210.09381709337234,150.89547765603072L210.42055708885195,151.123832368302L210.7472970843315,151.3521870805733L211.0740370798111,151.58054303682346L211.40077707529068,151.80889774909474L211.7275170707703,152.03725246136602L212.05425706624985,152.2656071736373L212.38099706172943,152.49396312988745L212.70773705720902,152.72231784215876L213.03447705268857,152.95067255443004L213.36121704816819,153.17902851068018L213.68795704364777,153.40738322295147L214.01469703912736,153.63573793522278L214.3414370346069,153.86409326948348L214.66817703008653,154.09244798175476L214.9949170255661,154.32080331601549L215.32165702104567,154.5491586502762L215.64839701652525,154.7775133625475L215.97513701200486,155.00586869680822L216.30187700748445,155.2342234090795L216.628617002964,155.46257874334023L216.9553569984436,155.6909334556115L217.2820969939232,155.91928878987224L217.6088369894028,156.14764412413297L217.93557698488235,156.37599883640425L218.26231698036193,156.60435417066498L218.58905697584154,156.83270888293626L218.9157969713211,157.06106421719699L219.24253696680069,157.28941892946827L219.56927696228027,157.517774263729L219.89601695775988,157.7461295979897L220.22275695323944,157.97448431026098L220.54949694871902,158.2028396445217L220.8762369441986,158.431194356793L221.20297693967817,158.6595496910537L221.52971693515778,158.887904403325L221.85645693063736,159.11625973758572L222.18319692611695,159.34461476085173L222.5099369215965,159.57296978411773L222.83667691707612,159.80132480738374L223.1634169125557,160.02968014164446L223.49015690803526,160.25803516491047L223.81689690351485,160.48639018817647L224.14363689899446,160.71474521144248L224.47037689447404,160.94310023470848L224.7971168899536,161.1714552579745L225.12385688543318,161.3998102812405L225.4505968809128,161.62816546000386L225.77733687639238,161.8565206387672L226.10407687187194,162.0848756620332L226.43081686735152,162.31323068529923L226.75755686283114,162.5415857085652L227.0842968583107,162.76994088732857L227.41103685379028,162.99829591059458L227.73777684926986,163.22665101160928L228.06451684474948,163.45500603487528L228.39125684022903,163.68336113588995L228.71799683570862,163.9117161980303" fill="none"></path></g></g></g></g></g></g><g transform="translate(68, 177)" clip-path="url(#clip_1)"><clipPath id="clip_1"><rect width="261" height="22"></rect></clipPath><g><g><line x1="0" y1="0" x2="0" y2="5" style="visibility: inherit;" fill="rgb(0, 0, 0)" stroke="rgb(204, 204, 204)" stroke-width="1px"></line><line x1="32.673999547958374" y1="0" x2="32.673999547958374" y2="5" style="visibility: inherit;" fill="rgb(0, 0, 0)" stroke="rgb(204, 204, 204)" stroke-width="1px"></line><line x1="65.34799909591675" y1="0" x2="65.34799909591675" y2="5" style="visibility: inherit;" fill="rgb(0, 0, 0)" stroke="rgb(204, 204, 204)" stroke-width="1px"></line><line x1="98.02199864387512" y1="0" x2="98.02199864387512" y2="5" style="visibility: inherit;" fill="rgb(0, 0, 0)" stroke="rgb(204, 204, 204)" stroke-width="1px"></line><line x1="130.6959981918335" y1="0" x2="130.6959981918335" y2="5" style="visibility: inherit;" fill="rgb(0, 0, 0)" stroke="rgb(204, 204, 204)" stroke-width="1px"></line><line x1="163.36999773979187" y1="0" x2="163.36999773979187" y2="5" style="visibility: inherit;" fill="rgb(0, 0, 0)" stroke="rgb(204, 204, 204)" stroke-width="1px"></line><line x1="196.04399728775024" y1="0" x2="196.04399728775024" y2="5" style="visibility: inherit;" fill="rgb(0, 0, 0)" stroke="rgb(204, 204, 204)" stroke-width="1px"></line><line x1="228.71799683570862" y1="0" x2="228.71799683570862" y2="5" style="visibility: inherit;" fill="rgb(0, 0, 0)" stroke="rgb(204, 204, 204)" stroke-width="1px"></line><line x1="261.391996383667" y1="0" x2="261.391996383667" y2="5" style="visibility: inherit;" fill="rgb(0, 0, 0)" stroke="rgb(204, 204, 204)" stroke-width="1px"></line></g><g transform="translate(0, 8)"><text style="text-anchor: middle; visibility: hidden; font-family: &quot;Helvetica Neue&quot;, sans-serif; font-size: 12px; font-weight: 200;" x="0" y="0" dx="0em" dy="0.95em" fill="rgb(50, 49, 63)" stroke="none" stroke-width="1px">-50k</text><text style="text-anchor: middle; visibility: inherit; font-family: &quot;Helvetica Neue&quot;, sans-serif; font-size: 12px; font-weight: 200;" x="32.673999547958374" y="0" dx="0em" dy="0.95em" fill="rgb(50, 49, 63)" stroke="none" stroke-width="1px">0</text><text style="text-anchor: middle; visibility: inherit; font-family: &quot;Helvetica Neue&quot;, sans-serif; font-size: 12px; font-weight: 200;" x="65.34799909591675" y="0" dx="0em" dy="0.95em" fill="rgb(50, 49, 63)" stroke="none" stroke-width="1px">50k</text><text style="text-anchor: middle; visibility: inherit; font-family: &quot;Helvetica Neue&quot;, sans-serif; font-size: 12px; font-weight: 200;" x="98.02199864387512" y="0" dx="0em" dy="0.95em" fill="rgb(50, 49, 63)" stroke="none" stroke-width="1px">100k</text><text style="text-anchor: middle; visibility: inherit; font-family: &quot;Helvetica Neue&quot;, sans-serif; font-size: 12px; font-weight: 200;" x="130.6959981918335" y="0" dx="0em" dy="0.95em" fill="rgb(50, 49, 63)" stroke="none" stroke-width="1px">150k</text><text style="text-anchor: middle; visibility: inherit; font-family: &quot;Helvetica Neue&quot;, sans-serif; font-size: 12px; font-weight: 200;" x="163.36999773979187" y="0" dx="0em" dy="0.95em" fill="rgb(50, 49, 63)" stroke="none" stroke-width="1px">200k</text><text style="text-anchor: middle; visibility: inherit; font-family: &quot;Helvetica Neue&quot;, sans-serif; font-size: 12px; font-weight: 200;" x="196.04399728775024" y="0" dx="0em" dy="0.95em" fill="rgb(50, 49, 63)" stroke="none" stroke-width="1px">250k</text><text style="text-anchor: middle; visibility: inherit; font-family: &quot;Helvetica Neue&quot;, sans-serif; font-size: 12px; font-weight: 200;" x="228.71799683570862" y="0" dx="0em" dy="0.95em" fill="rgb(50, 49, 63)" stroke="none" stroke-width="1px">300k</text><text style="text-anchor: middle; visibility: hidden; font-family: &quot;Helvetica Neue&quot;, sans-serif; font-size: 12px; font-weight: 200;" x="261.391996383667" y="0" dx="0em" dy="0.95em" fill="rgb(50, 49, 63)" stroke="none" stroke-width="1px">350k</text></g><line x1="0" y1="0" x2="261.391996383667" y2="0" fill="rgb(0, 0, 0)" stroke="rgb(204, 204, 204)" stroke-width="1px"></line></g></g></g></g></svg>